G04 #@! TF.GenerationSoftware,KiCad,Pcbnew,5.1.4+dfsg1-1*
G04 #@! TF.CreationDate,2020-03-06T15:50:39+01:00*
G04 #@! TF.ProjectId,sidewinder-usb,73696465-7769-46e6-9465-722d7573622e,rev?*
G04 #@! TF.SameCoordinates,Original*
G04 #@! TF.FileFunction,Copper,L2,Bot*
G04 #@! TF.FilePolarity,Positive*
%FSLAX46Y46*%
G04 Gerber Fmt 4.6, Leading zero omitted, Abs format (unit mm)*
G04 Created by KiCad (PCBNEW 5.1.4+dfsg1-1) date 2020-03-06 15:50:39*
%MOMM*%
%LPD*%
G04 APERTURE LIST*
%ADD10C,1.635000*%
%ADD11C,4.216000*%
%ADD12O,1.200000X1.900000*%
%ADD13C,1.450000*%
%ADD14C,0.450000*%
%ADD15C,0.250000*%
%ADD16C,0.100000*%
G04 APERTURE END LIST*
D10*
X11690000Y44105000D03*
X14460000Y44105000D03*
X17230000Y44105000D03*
X28310000Y44105000D03*
X25540000Y44105000D03*
X22770000Y44105000D03*
X20000000Y44105000D03*
X29695000Y41265000D03*
X10305000Y41265000D03*
X13075000Y41265000D03*
X15845000Y41265000D03*
X26925000Y41265000D03*
X24155000Y41265000D03*
X21385000Y41265000D03*
X18615000Y41265000D03*
D11*
X3340000Y42685000D03*
X36660000Y42685000D03*
D12*
X23500000Y1462500D03*
X16500000Y1462500D03*
D13*
X22500000Y4162500D03*
X17500000Y4162500D03*
D14*
X22000000Y31800000D03*
X21398591Y28298591D03*
X26782509Y38942807D03*
X4100000Y17200000D03*
X30200000Y18800000D03*
D15*
X22000000Y31800000D02*
X22000000Y28900000D01*
X22000000Y28900000D02*
X21398591Y28298591D01*
X13075000Y41265000D02*
X15397193Y38942807D01*
X15397193Y38942807D02*
X26782509Y38942807D01*
X4100000Y17200000D02*
X5700000Y18800000D01*
X5700000Y18800000D02*
X30200000Y18800000D01*
D16*
G36*
X39800001Y200000D02*
G01*
X200000Y200000D01*
X200000Y1124953D01*
X15619757Y1124953D01*
X15634241Y952987D01*
X15681996Y787151D01*
X15761186Y633818D01*
X15868768Y498880D01*
X16000608Y387523D01*
X16173226Y327822D01*
X16300000Y350820D01*
X16300000Y1262500D01*
X16700000Y1262500D01*
X16700000Y350820D01*
X16826774Y327822D01*
X16999392Y387523D01*
X17131232Y498880D01*
X17238814Y633818D01*
X17318004Y787151D01*
X17365759Y952987D01*
X17380243Y1124953D01*
X22619757Y1124953D01*
X22634241Y952987D01*
X22681996Y787151D01*
X22761186Y633818D01*
X22868768Y498880D01*
X23000608Y387523D01*
X23173226Y327822D01*
X23300000Y350820D01*
X23300000Y1262500D01*
X23700000Y1262500D01*
X23700000Y350820D01*
X23826774Y327822D01*
X23999392Y387523D01*
X24131232Y498880D01*
X24238814Y633818D01*
X24318004Y787151D01*
X24365759Y952987D01*
X24380243Y1124953D01*
X24304958Y1262500D01*
X23700000Y1262500D01*
X23300000Y1262500D01*
X22695042Y1262500D01*
X22619757Y1124953D01*
X17380243Y1124953D01*
X17304958Y1262500D01*
X16700000Y1262500D01*
X16300000Y1262500D01*
X15695042Y1262500D01*
X15619757Y1124953D01*
X200000Y1124953D01*
X200000Y1800047D01*
X15619757Y1800047D01*
X15695042Y1662500D01*
X16300000Y1662500D01*
X16300000Y2574180D01*
X16700000Y2574180D01*
X16700000Y1662500D01*
X17304958Y1662500D01*
X17380243Y1800047D01*
X22619757Y1800047D01*
X22695042Y1662500D01*
X23300000Y1662500D01*
X23300000Y2574180D01*
X23700000Y2574180D01*
X23700000Y1662500D01*
X24304958Y1662500D01*
X24380243Y1800047D01*
X24365759Y1972013D01*
X24318004Y2137849D01*
X24238814Y2291182D01*
X24131232Y2426120D01*
X23999392Y2537477D01*
X23826774Y2597178D01*
X23700000Y2574180D01*
X23300000Y2574180D01*
X23173226Y2597178D01*
X23000608Y2537477D01*
X22868768Y2426120D01*
X22761186Y2291182D01*
X22681996Y2137849D01*
X22634241Y1972013D01*
X22619757Y1800047D01*
X17380243Y1800047D01*
X17365759Y1972013D01*
X17318004Y2137849D01*
X17238814Y2291182D01*
X17131232Y2426120D01*
X16999392Y2537477D01*
X16826774Y2597178D01*
X16700000Y2574180D01*
X16300000Y2574180D01*
X16173226Y2597178D01*
X16000608Y2537477D01*
X15868768Y2426120D01*
X15761186Y2291182D01*
X15681996Y2137849D01*
X15634241Y1972013D01*
X15619757Y1800047D01*
X200000Y1800047D01*
X200000Y5182209D01*
X3150000Y5182209D01*
X3150000Y4817791D01*
X3221095Y4460375D01*
X3360552Y4123697D01*
X3563011Y3820694D01*
X3820694Y3563011D01*
X4123697Y3360552D01*
X4460375Y3221095D01*
X4817791Y3150000D01*
X5182209Y3150000D01*
X5539625Y3221095D01*
X5876303Y3360552D01*
X5917552Y3388114D01*
X17008457Y3388114D01*
X17098066Y3269025D01*
X17280098Y3207779D01*
X17470579Y3183223D01*
X17662192Y3196299D01*
X17847571Y3246507D01*
X17901934Y3269025D01*
X17991543Y3388114D01*
X22008457Y3388114D01*
X22098066Y3269025D01*
X22280098Y3207779D01*
X22470579Y3183223D01*
X22662192Y3196299D01*
X22847571Y3246507D01*
X22901934Y3269025D01*
X22991543Y3388114D01*
X22500000Y3879657D01*
X22008457Y3388114D01*
X17991543Y3388114D01*
X17500000Y3879657D01*
X17008457Y3388114D01*
X5917552Y3388114D01*
X6179306Y3563011D01*
X6436989Y3820694D01*
X6639448Y4123697D01*
X6667707Y4191921D01*
X16520723Y4191921D01*
X16533799Y4000308D01*
X16584007Y3814929D01*
X16606525Y3760566D01*
X16725614Y3670957D01*
X17217157Y4162500D01*
X17782843Y4162500D01*
X18274386Y3670957D01*
X18393475Y3760566D01*
X18454721Y3942598D01*
X18479277Y4133079D01*
X18475262Y4191921D01*
X21520723Y4191921D01*
X21533799Y4000308D01*
X21584007Y3814929D01*
X21606525Y3760566D01*
X21725614Y3670957D01*
X22217157Y4162500D01*
X22782843Y4162500D01*
X23274386Y3670957D01*
X23393475Y3760566D01*
X23454721Y3942598D01*
X23479277Y4133079D01*
X23466201Y4324692D01*
X23415993Y4510071D01*
X23393475Y4564434D01*
X23274386Y4654043D01*
X22782843Y4162500D01*
X22217157Y4162500D01*
X21725614Y4654043D01*
X21606525Y4564434D01*
X21545279Y4382402D01*
X21520723Y4191921D01*
X18475262Y4191921D01*
X18466201Y4324692D01*
X18415993Y4510071D01*
X18393475Y4564434D01*
X18274386Y4654043D01*
X17782843Y4162500D01*
X17217157Y4162500D01*
X16725614Y4654043D01*
X16606525Y4564434D01*
X16545279Y4382402D01*
X16520723Y4191921D01*
X6667707Y4191921D01*
X6778905Y4460375D01*
X6850000Y4817791D01*
X6850000Y4936886D01*
X17008457Y4936886D01*
X17500000Y4445343D01*
X17991543Y4936886D01*
X22008457Y4936886D01*
X22500000Y4445343D01*
X22991543Y4936886D01*
X22901934Y5055975D01*
X22719902Y5117221D01*
X22529421Y5141777D01*
X22337808Y5128701D01*
X22152429Y5078493D01*
X22098066Y5055975D01*
X22008457Y4936886D01*
X17991543Y4936886D01*
X17901934Y5055975D01*
X17719902Y5117221D01*
X17529421Y5141777D01*
X17337808Y5128701D01*
X17152429Y5078493D01*
X17098066Y5055975D01*
X17008457Y4936886D01*
X6850000Y4936886D01*
X6850000Y5182209D01*
X33150000Y5182209D01*
X33150000Y4817791D01*
X33221095Y4460375D01*
X33360552Y4123697D01*
X33563011Y3820694D01*
X33820694Y3563011D01*
X34123697Y3360552D01*
X34460375Y3221095D01*
X34817791Y3150000D01*
X35182209Y3150000D01*
X35539625Y3221095D01*
X35876303Y3360552D01*
X36179306Y3563011D01*
X36436989Y3820694D01*
X36639448Y4123697D01*
X36778905Y4460375D01*
X36850000Y4817791D01*
X36850000Y5182209D01*
X36778905Y5539625D01*
X36639448Y5876303D01*
X36436989Y6179306D01*
X36179306Y6436989D01*
X35876303Y6639448D01*
X35539625Y6778905D01*
X35182209Y6850000D01*
X34817791Y6850000D01*
X34460375Y6778905D01*
X34123697Y6639448D01*
X33820694Y6436989D01*
X33563011Y6179306D01*
X33360552Y5876303D01*
X33221095Y5539625D01*
X33150000Y5182209D01*
X6850000Y5182209D01*
X6778905Y5539625D01*
X6639448Y5876303D01*
X6436989Y6179306D01*
X6179306Y6436989D01*
X5876303Y6639448D01*
X5539625Y6778905D01*
X5182209Y6850000D01*
X4817791Y6850000D01*
X4460375Y6778905D01*
X4123697Y6639448D01*
X3820694Y6436989D01*
X3563011Y6179306D01*
X3360552Y5876303D01*
X3221095Y5539625D01*
X3150000Y5182209D01*
X200000Y5182209D01*
X200000Y17246783D01*
X3625000Y17246783D01*
X3625000Y17153217D01*
X3643254Y17061448D01*
X3679061Y16975003D01*
X3731044Y16897205D01*
X3797205Y16831044D01*
X3875003Y16779061D01*
X3961448Y16743254D01*
X4053217Y16725000D01*
X4146783Y16725000D01*
X4238552Y16743254D01*
X4324997Y16779061D01*
X4402795Y16831044D01*
X4468956Y16897205D01*
X4520939Y16975003D01*
X4556746Y17061448D01*
X4572878Y17142549D01*
X5855330Y18425000D01*
X29906250Y18425000D01*
X29975003Y18379061D01*
X30061448Y18343254D01*
X30153217Y18325000D01*
X30246783Y18325000D01*
X30338552Y18343254D01*
X30424997Y18379061D01*
X30502795Y18431044D01*
X30568956Y18497205D01*
X30620939Y18575003D01*
X30656746Y18661448D01*
X30675000Y18753217D01*
X30675000Y18846783D01*
X30656746Y18938552D01*
X30620939Y19024997D01*
X30568956Y19102795D01*
X30502795Y19168956D01*
X30424997Y19220939D01*
X30338552Y19256746D01*
X30246783Y19275000D01*
X30153217Y19275000D01*
X30061448Y19256746D01*
X29975003Y19220939D01*
X29906250Y19175000D01*
X5718416Y19175000D01*
X5700000Y19176814D01*
X5681584Y19175000D01*
X5681581Y19175000D01*
X5626487Y19169574D01*
X5555800Y19148131D01*
X5535107Y19137070D01*
X5490653Y19113310D01*
X5477841Y19102795D01*
X5433552Y19066448D01*
X5421809Y19052139D01*
X4042549Y17672878D01*
X3961448Y17656746D01*
X3875003Y17620939D01*
X3797205Y17568956D01*
X3731044Y17502795D01*
X3679061Y17424997D01*
X3643254Y17338552D01*
X3625000Y17246783D01*
X200000Y17246783D01*
X200000Y28345374D01*
X20923591Y28345374D01*
X20923591Y28251808D01*
X20941845Y28160039D01*
X20977652Y28073594D01*
X21029635Y27995796D01*
X21095796Y27929635D01*
X21173594Y27877652D01*
X21260039Y27841845D01*
X21351808Y27823591D01*
X21445374Y27823591D01*
X21537143Y27841845D01*
X21623588Y27877652D01*
X21701386Y27929635D01*
X21767547Y27995796D01*
X21819530Y28073594D01*
X21855337Y28160039D01*
X21871469Y28241140D01*
X22252139Y28621809D01*
X22266448Y28633552D01*
X22313309Y28690653D01*
X22348131Y28755800D01*
X22369574Y28826487D01*
X22375000Y28881581D01*
X22375000Y28881584D01*
X22376814Y28900000D01*
X22375000Y28918416D01*
X22375000Y31506250D01*
X22420939Y31575003D01*
X22456746Y31661448D01*
X22475000Y31753217D01*
X22475000Y31846783D01*
X22456746Y31938552D01*
X22420939Y32024997D01*
X22368956Y32102795D01*
X22302795Y32168956D01*
X22224997Y32220939D01*
X22138552Y32256746D01*
X22046783Y32275000D01*
X21953217Y32275000D01*
X21861448Y32256746D01*
X21775003Y32220939D01*
X21697205Y32168956D01*
X21631044Y32102795D01*
X21579061Y32024997D01*
X21543254Y31938552D01*
X21525000Y31846783D01*
X21525000Y31753217D01*
X21543254Y31661448D01*
X21579061Y31575003D01*
X21625000Y31506250D01*
X21625001Y29055331D01*
X21341140Y28771469D01*
X21260039Y28755337D01*
X21173594Y28719530D01*
X21095796Y28667547D01*
X21029635Y28601386D01*
X20977652Y28523588D01*
X20941845Y28437143D01*
X20923591Y28345374D01*
X200000Y28345374D01*
X200000Y35182209D01*
X3150000Y35182209D01*
X3150000Y34817791D01*
X3221095Y34460375D01*
X3360552Y34123697D01*
X3563011Y33820694D01*
X3820694Y33563011D01*
X4123697Y33360552D01*
X4460375Y33221095D01*
X4817791Y33150000D01*
X5182209Y33150000D01*
X5539625Y33221095D01*
X5876303Y33360552D01*
X6179306Y33563011D01*
X6436989Y33820694D01*
X6639448Y34123697D01*
X6778905Y34460375D01*
X6850000Y34817791D01*
X6850000Y35182209D01*
X33150000Y35182209D01*
X33150000Y34817791D01*
X33221095Y34460375D01*
X33360552Y34123697D01*
X33563011Y33820694D01*
X33820694Y33563011D01*
X34123697Y33360552D01*
X34460375Y33221095D01*
X34817791Y33150000D01*
X35182209Y33150000D01*
X35539625Y33221095D01*
X35876303Y33360552D01*
X36179306Y33563011D01*
X36436989Y33820694D01*
X36639448Y34123697D01*
X36778905Y34460375D01*
X36850000Y34817791D01*
X36850000Y35182209D01*
X36778905Y35539625D01*
X36639448Y35876303D01*
X36436989Y36179306D01*
X36179306Y36436989D01*
X35876303Y36639448D01*
X35539625Y36778905D01*
X35182209Y36850000D01*
X34817791Y36850000D01*
X34460375Y36778905D01*
X34123697Y36639448D01*
X33820694Y36436989D01*
X33563011Y36179306D01*
X33360552Y35876303D01*
X33221095Y35539625D01*
X33150000Y35182209D01*
X6850000Y35182209D01*
X6778905Y35539625D01*
X6639448Y35876303D01*
X6436989Y36179306D01*
X6179306Y36436989D01*
X5876303Y36639448D01*
X5539625Y36778905D01*
X5182209Y36850000D01*
X4817791Y36850000D01*
X4460375Y36778905D01*
X4123697Y36639448D01*
X3820694Y36436989D01*
X3563011Y36179306D01*
X3360552Y35876303D01*
X3221095Y35539625D01*
X3150000Y35182209D01*
X200000Y35182209D01*
X200000Y40918490D01*
X1856332Y40918490D01*
X2114070Y40657392D01*
X2533193Y40457185D01*
X2983320Y40342592D01*
X3447155Y40318017D01*
X3906872Y40384403D01*
X4344804Y40539199D01*
X4565930Y40657392D01*
X4823668Y40918490D01*
X3340000Y42402157D01*
X1856332Y40918490D01*
X200000Y40918490D01*
X200000Y42577845D01*
X973017Y42577845D01*
X1039403Y42118128D01*
X1194199Y41680196D01*
X1312392Y41459070D01*
X1573490Y41201332D01*
X3057157Y42685000D01*
X3622843Y42685000D01*
X5106510Y41201332D01*
X5277518Y41370140D01*
X9237500Y41370140D01*
X9237500Y41159860D01*
X9278524Y40953622D01*
X9358994Y40759349D01*
X9475819Y40584509D01*
X9624509Y40435819D01*
X9799349Y40318994D01*
X9993622Y40238524D01*
X10199860Y40197500D01*
X10410140Y40197500D01*
X10616378Y40238524D01*
X10810651Y40318994D01*
X10985491Y40435819D01*
X11134181Y40584509D01*
X11251006Y40759349D01*
X11331476Y40953622D01*
X11372500Y41159860D01*
X11372500Y41370140D01*
X12007500Y41370140D01*
X12007500Y41159860D01*
X12048524Y40953622D01*
X12128994Y40759349D01*
X12245819Y40584509D01*
X12394509Y40435819D01*
X12569349Y40318994D01*
X12763622Y40238524D01*
X12969860Y40197500D01*
X13180140Y40197500D01*
X13386378Y40238524D01*
X13517029Y40292641D01*
X15119002Y38690668D01*
X15130745Y38676359D01*
X15187846Y38629498D01*
X15252993Y38594676D01*
X15323680Y38573233D01*
X15378774Y38567807D01*
X15378777Y38567807D01*
X15397193Y38565993D01*
X15415609Y38567807D01*
X26488759Y38567807D01*
X26557512Y38521868D01*
X26643957Y38486061D01*
X26735726Y38467807D01*
X26829292Y38467807D01*
X26921061Y38486061D01*
X27007506Y38521868D01*
X27085304Y38573851D01*
X27151465Y38640012D01*
X27203448Y38717810D01*
X27239255Y38804255D01*
X27257509Y38896024D01*
X27257509Y38989590D01*
X27239255Y39081359D01*
X27203448Y39167804D01*
X27151465Y39245602D01*
X27085304Y39311763D01*
X27007506Y39363746D01*
X26921061Y39399553D01*
X26829292Y39417807D01*
X26735726Y39417807D01*
X26643957Y39399553D01*
X26557512Y39363746D01*
X26488759Y39317807D01*
X15552523Y39317807D01*
X14047359Y40822971D01*
X14101476Y40953622D01*
X14142500Y41159860D01*
X14142500Y41370140D01*
X14777500Y41370140D01*
X14777500Y41159860D01*
X14818524Y40953622D01*
X14898994Y40759349D01*
X15015819Y40584509D01*
X15164509Y40435819D01*
X15339349Y40318994D01*
X15533622Y40238524D01*
X15739860Y40197500D01*
X15950140Y40197500D01*
X16156378Y40238524D01*
X16350651Y40318994D01*
X16525491Y40435819D01*
X16674181Y40584509D01*
X16791006Y40759349D01*
X16871476Y40953622D01*
X16912500Y41159860D01*
X16912500Y41370140D01*
X17547500Y41370140D01*
X17547500Y41159860D01*
X17588524Y40953622D01*
X17668994Y40759349D01*
X17785819Y40584509D01*
X17934509Y40435819D01*
X18109349Y40318994D01*
X18303622Y40238524D01*
X18509860Y40197500D01*
X18720140Y40197500D01*
X18926378Y40238524D01*
X19120651Y40318994D01*
X19295491Y40435819D01*
X19444181Y40584509D01*
X19561006Y40759349D01*
X19641476Y40953622D01*
X19682500Y41159860D01*
X19682500Y41370140D01*
X20317500Y41370140D01*
X20317500Y41159860D01*
X20358524Y40953622D01*
X20438994Y40759349D01*
X20555819Y40584509D01*
X20704509Y40435819D01*
X20879349Y40318994D01*
X21073622Y40238524D01*
X21279860Y40197500D01*
X21490140Y40197500D01*
X21696378Y40238524D01*
X21890651Y40318994D01*
X22065491Y40435819D01*
X22214181Y40584509D01*
X22331006Y40759349D01*
X22411476Y40953622D01*
X22452500Y41159860D01*
X22452500Y41370140D01*
X23087500Y41370140D01*
X23087500Y41159860D01*
X23128524Y40953622D01*
X23208994Y40759349D01*
X23325819Y40584509D01*
X23474509Y40435819D01*
X23649349Y40318994D01*
X23843622Y40238524D01*
X24049860Y40197500D01*
X24260140Y40197500D01*
X24466378Y40238524D01*
X24660651Y40318994D01*
X24835491Y40435819D01*
X24984181Y40584509D01*
X25101006Y40759349D01*
X25181476Y40953622D01*
X25222500Y41159860D01*
X25222500Y41370140D01*
X25857500Y41370140D01*
X25857500Y41159860D01*
X25898524Y40953622D01*
X25978994Y40759349D01*
X26095819Y40584509D01*
X26244509Y40435819D01*
X26419349Y40318994D01*
X26613622Y40238524D01*
X26819860Y40197500D01*
X27030140Y40197500D01*
X27236378Y40238524D01*
X27430651Y40318994D01*
X27605491Y40435819D01*
X27754181Y40584509D01*
X27871006Y40759349D01*
X27951476Y40953622D01*
X27992500Y41159860D01*
X27992500Y41370140D01*
X28627500Y41370140D01*
X28627500Y41159860D01*
X28668524Y40953622D01*
X28748994Y40759349D01*
X28865819Y40584509D01*
X29014509Y40435819D01*
X29189349Y40318994D01*
X29383622Y40238524D01*
X29589860Y40197500D01*
X29800140Y40197500D01*
X30006378Y40238524D01*
X30200651Y40318994D01*
X30375491Y40435819D01*
X30524181Y40584509D01*
X30641006Y40759349D01*
X30706923Y40918490D01*
X35176332Y40918490D01*
X35434070Y40657392D01*
X35853193Y40457185D01*
X36303320Y40342592D01*
X36767155Y40318017D01*
X37226872Y40384403D01*
X37664804Y40539199D01*
X37885930Y40657392D01*
X38143668Y40918490D01*
X36660000Y42402157D01*
X35176332Y40918490D01*
X30706923Y40918490D01*
X30721476Y40953622D01*
X30762500Y41159860D01*
X30762500Y41370140D01*
X30721476Y41576378D01*
X30641006Y41770651D01*
X30524181Y41945491D01*
X30375491Y42094181D01*
X30200651Y42211006D01*
X30006378Y42291476D01*
X29800140Y42332500D01*
X29589860Y42332500D01*
X29383622Y42291476D01*
X29189349Y42211006D01*
X29014509Y42094181D01*
X28865819Y41945491D01*
X28748994Y41770651D01*
X28668524Y41576378D01*
X28627500Y41370140D01*
X27992500Y41370140D01*
X27951476Y41576378D01*
X27871006Y41770651D01*
X27754181Y41945491D01*
X27605491Y42094181D01*
X27430651Y42211006D01*
X27236378Y42291476D01*
X27030140Y42332500D01*
X26819860Y42332500D01*
X26613622Y42291476D01*
X26419349Y42211006D01*
X26244509Y42094181D01*
X26095819Y41945491D01*
X25978994Y41770651D01*
X25898524Y41576378D01*
X25857500Y41370140D01*
X25222500Y41370140D01*
X25181476Y41576378D01*
X25101006Y41770651D01*
X24984181Y41945491D01*
X24835491Y42094181D01*
X24660651Y42211006D01*
X24466378Y42291476D01*
X24260140Y42332500D01*
X24049860Y42332500D01*
X23843622Y42291476D01*
X23649349Y42211006D01*
X23474509Y42094181D01*
X23325819Y41945491D01*
X23208994Y41770651D01*
X23128524Y41576378D01*
X23087500Y41370140D01*
X22452500Y41370140D01*
X22411476Y41576378D01*
X22331006Y41770651D01*
X22214181Y41945491D01*
X22065491Y42094181D01*
X21890651Y42211006D01*
X21696378Y42291476D01*
X21490140Y42332500D01*
X21279860Y42332500D01*
X21073622Y42291476D01*
X20879349Y42211006D01*
X20704509Y42094181D01*
X20555819Y41945491D01*
X20438994Y41770651D01*
X20358524Y41576378D01*
X20317500Y41370140D01*
X19682500Y41370140D01*
X19641476Y41576378D01*
X19561006Y41770651D01*
X19444181Y41945491D01*
X19295491Y42094181D01*
X19120651Y42211006D01*
X18926378Y42291476D01*
X18720140Y42332500D01*
X18509860Y42332500D01*
X18303622Y42291476D01*
X18109349Y42211006D01*
X17934509Y42094181D01*
X17785819Y41945491D01*
X17668994Y41770651D01*
X17588524Y41576378D01*
X17547500Y41370140D01*
X16912500Y41370140D01*
X16871476Y41576378D01*
X16791006Y41770651D01*
X16674181Y41945491D01*
X16525491Y42094181D01*
X16350651Y42211006D01*
X16156378Y42291476D01*
X15950140Y42332500D01*
X15739860Y42332500D01*
X15533622Y42291476D01*
X15339349Y42211006D01*
X15164509Y42094181D01*
X15015819Y41945491D01*
X14898994Y41770651D01*
X14818524Y41576378D01*
X14777500Y41370140D01*
X14142500Y41370140D01*
X14101476Y41576378D01*
X14021006Y41770651D01*
X13904181Y41945491D01*
X13755491Y42094181D01*
X13580651Y42211006D01*
X13386378Y42291476D01*
X13180140Y42332500D01*
X12969860Y42332500D01*
X12763622Y42291476D01*
X12569349Y42211006D01*
X12394509Y42094181D01*
X12245819Y41945491D01*
X12128994Y41770651D01*
X12048524Y41576378D01*
X12007500Y41370140D01*
X11372500Y41370140D01*
X11331476Y41576378D01*
X11251006Y41770651D01*
X11134181Y41945491D01*
X10985491Y42094181D01*
X10810651Y42211006D01*
X10616378Y42291476D01*
X10410140Y42332500D01*
X10199860Y42332500D01*
X9993622Y42291476D01*
X9799349Y42211006D01*
X9624509Y42094181D01*
X9475819Y41945491D01*
X9358994Y41770651D01*
X9278524Y41576378D01*
X9237500Y41370140D01*
X5277518Y41370140D01*
X5367608Y41459070D01*
X5567815Y41878193D01*
X5682408Y42328320D01*
X5695628Y42577845D01*
X34293017Y42577845D01*
X34359403Y42118128D01*
X34514199Y41680196D01*
X34632392Y41459070D01*
X34893490Y41201332D01*
X36377157Y42685000D01*
X36942843Y42685000D01*
X38426510Y41201332D01*
X38687608Y41459070D01*
X38887815Y41878193D01*
X39002408Y42328320D01*
X39026983Y42792155D01*
X38960597Y43251872D01*
X38805801Y43689804D01*
X38687608Y43910930D01*
X38426510Y44168668D01*
X36942843Y42685000D01*
X36377157Y42685000D01*
X34893490Y44168668D01*
X34632392Y43910930D01*
X34432185Y43491807D01*
X34317592Y43041680D01*
X34293017Y42577845D01*
X5695628Y42577845D01*
X5706983Y42792155D01*
X5640597Y43251872D01*
X5485801Y43689804D01*
X5367608Y43910930D01*
X5106510Y44168668D01*
X3622843Y42685000D01*
X3057157Y42685000D01*
X1573490Y44168668D01*
X1312392Y43910930D01*
X1112185Y43491807D01*
X997592Y43041680D01*
X973017Y42577845D01*
X200000Y42577845D01*
X200000Y44451510D01*
X1856332Y44451510D01*
X3340000Y42967843D01*
X4582297Y44210140D01*
X10622500Y44210140D01*
X10622500Y43999860D01*
X10663524Y43793622D01*
X10743994Y43599349D01*
X10860819Y43424509D01*
X11009509Y43275819D01*
X11184349Y43158994D01*
X11378622Y43078524D01*
X11584860Y43037500D01*
X11795140Y43037500D01*
X12001378Y43078524D01*
X12195651Y43158994D01*
X12370491Y43275819D01*
X12519181Y43424509D01*
X12636006Y43599349D01*
X12716476Y43793622D01*
X12757500Y43999860D01*
X12757500Y44210140D01*
X13392500Y44210140D01*
X13392500Y43999860D01*
X13433524Y43793622D01*
X13513994Y43599349D01*
X13630819Y43424509D01*
X13779509Y43275819D01*
X13954349Y43158994D01*
X14148622Y43078524D01*
X14354860Y43037500D01*
X14565140Y43037500D01*
X14771378Y43078524D01*
X14965651Y43158994D01*
X15140491Y43275819D01*
X15289181Y43424509D01*
X15406006Y43599349D01*
X15486476Y43793622D01*
X15527500Y43999860D01*
X15527500Y44210140D01*
X16162500Y44210140D01*
X16162500Y43999860D01*
X16203524Y43793622D01*
X16283994Y43599349D01*
X16400819Y43424509D01*
X16549509Y43275819D01*
X16724349Y43158994D01*
X16918622Y43078524D01*
X17124860Y43037500D01*
X17335140Y43037500D01*
X17541378Y43078524D01*
X17735651Y43158994D01*
X17910491Y43275819D01*
X18059181Y43424509D01*
X18176006Y43599349D01*
X18256476Y43793622D01*
X18297500Y43999860D01*
X18297500Y44210140D01*
X18932500Y44210140D01*
X18932500Y43999860D01*
X18973524Y43793622D01*
X19053994Y43599349D01*
X19170819Y43424509D01*
X19319509Y43275819D01*
X19494349Y43158994D01*
X19688622Y43078524D01*
X19894860Y43037500D01*
X20105140Y43037500D01*
X20311378Y43078524D01*
X20505651Y43158994D01*
X20680491Y43275819D01*
X20829181Y43424509D01*
X20946006Y43599349D01*
X21026476Y43793622D01*
X21067500Y43999860D01*
X21067500Y44210140D01*
X21702500Y44210140D01*
X21702500Y43999860D01*
X21743524Y43793622D01*
X21823994Y43599349D01*
X21940819Y43424509D01*
X22089509Y43275819D01*
X22264349Y43158994D01*
X22458622Y43078524D01*
X22664860Y43037500D01*
X22875140Y43037500D01*
X23081378Y43078524D01*
X23275651Y43158994D01*
X23450491Y43275819D01*
X23599181Y43424509D01*
X23716006Y43599349D01*
X23796476Y43793622D01*
X23837500Y43999860D01*
X23837500Y44210140D01*
X24472500Y44210140D01*
X24472500Y43999860D01*
X24513524Y43793622D01*
X24593994Y43599349D01*
X24710819Y43424509D01*
X24859509Y43275819D01*
X25034349Y43158994D01*
X25228622Y43078524D01*
X25434860Y43037500D01*
X25645140Y43037500D01*
X25851378Y43078524D01*
X26045651Y43158994D01*
X26220491Y43275819D01*
X26369181Y43424509D01*
X26486006Y43599349D01*
X26566476Y43793622D01*
X26607500Y43999860D01*
X26607500Y44210140D01*
X27242500Y44210140D01*
X27242500Y43999860D01*
X27283524Y43793622D01*
X27363994Y43599349D01*
X27480819Y43424509D01*
X27629509Y43275819D01*
X27804349Y43158994D01*
X27998622Y43078524D01*
X28204860Y43037500D01*
X28415140Y43037500D01*
X28621378Y43078524D01*
X28815651Y43158994D01*
X28990491Y43275819D01*
X29139181Y43424509D01*
X29256006Y43599349D01*
X29336476Y43793622D01*
X29377500Y43999860D01*
X29377500Y44210140D01*
X29336476Y44416378D01*
X29321924Y44451510D01*
X35176332Y44451510D01*
X36660000Y42967843D01*
X38143668Y44451510D01*
X37885930Y44712608D01*
X37466807Y44912815D01*
X37016680Y45027408D01*
X36552845Y45051983D01*
X36093128Y44985597D01*
X35655196Y44830801D01*
X35434070Y44712608D01*
X35176332Y44451510D01*
X29321924Y44451510D01*
X29256006Y44610651D01*
X29139181Y44785491D01*
X28990491Y44934181D01*
X28815651Y45051006D01*
X28621378Y45131476D01*
X28415140Y45172500D01*
X28204860Y45172500D01*
X27998622Y45131476D01*
X27804349Y45051006D01*
X27629509Y44934181D01*
X27480819Y44785491D01*
X27363994Y44610651D01*
X27283524Y44416378D01*
X27242500Y44210140D01*
X26607500Y44210140D01*
X26566476Y44416378D01*
X26486006Y44610651D01*
X26369181Y44785491D01*
X26220491Y44934181D01*
X26045651Y45051006D01*
X25851378Y45131476D01*
X25645140Y45172500D01*
X25434860Y45172500D01*
X25228622Y45131476D01*
X25034349Y45051006D01*
X24859509Y44934181D01*
X24710819Y44785491D01*
X24593994Y44610651D01*
X24513524Y44416378D01*
X24472500Y44210140D01*
X23837500Y44210140D01*
X23796476Y44416378D01*
X23716006Y44610651D01*
X23599181Y44785491D01*
X23450491Y44934181D01*
X23275651Y45051006D01*
X23081378Y45131476D01*
X22875140Y45172500D01*
X22664860Y45172500D01*
X22458622Y45131476D01*
X22264349Y45051006D01*
X22089509Y44934181D01*
X21940819Y44785491D01*
X21823994Y44610651D01*
X21743524Y44416378D01*
X21702500Y44210140D01*
X21067500Y44210140D01*
X21026476Y44416378D01*
X20946006Y44610651D01*
X20829181Y44785491D01*
X20680491Y44934181D01*
X20505651Y45051006D01*
X20311378Y45131476D01*
X20105140Y45172500D01*
X19894860Y45172500D01*
X19688622Y45131476D01*
X19494349Y45051006D01*
X19319509Y44934181D01*
X19170819Y44785491D01*
X19053994Y44610651D01*
X18973524Y44416378D01*
X18932500Y44210140D01*
X18297500Y44210140D01*
X18256476Y44416378D01*
X18176006Y44610651D01*
X18059181Y44785491D01*
X17910491Y44934181D01*
X17735651Y45051006D01*
X17541378Y45131476D01*
X17335140Y45172500D01*
X17124860Y45172500D01*
X16918622Y45131476D01*
X16724349Y45051006D01*
X16549509Y44934181D01*
X16400819Y44785491D01*
X16283994Y44610651D01*
X16203524Y44416378D01*
X16162500Y44210140D01*
X15527500Y44210140D01*
X15486476Y44416378D01*
X15406006Y44610651D01*
X15289181Y44785491D01*
X15140491Y44934181D01*
X14965651Y45051006D01*
X14771378Y45131476D01*
X14565140Y45172500D01*
X14354860Y45172500D01*
X14148622Y45131476D01*
X13954349Y45051006D01*
X13779509Y44934181D01*
X13630819Y44785491D01*
X13513994Y44610651D01*
X13433524Y44416378D01*
X13392500Y44210140D01*
X12757500Y44210140D01*
X12716476Y44416378D01*
X12636006Y44610651D01*
X12519181Y44785491D01*
X12370491Y44934181D01*
X12195651Y45051006D01*
X12001378Y45131476D01*
X11795140Y45172500D01*
X11584860Y45172500D01*
X11378622Y45131476D01*
X11184349Y45051006D01*
X11009509Y44934181D01*
X10860819Y44785491D01*
X10743994Y44610651D01*
X10663524Y44416378D01*
X10622500Y44210140D01*
X4582297Y44210140D01*
X4823668Y44451510D01*
X4565930Y44712608D01*
X4146807Y44912815D01*
X3696680Y45027408D01*
X3232845Y45051983D01*
X2773128Y44985597D01*
X2335196Y44830801D01*
X2114070Y44712608D01*
X1856332Y44451510D01*
X200000Y44451510D01*
X200000Y54800000D01*
X39800000Y54800000D01*
X39800001Y200000D01*
X39800001Y200000D01*
G37*
X39800001Y200000D02*
X200000Y200000D01*
X200000Y1124953D01*
X15619757Y1124953D01*
X15634241Y952987D01*
X15681996Y787151D01*
X15761186Y633818D01*
X15868768Y498880D01*
X16000608Y387523D01*
X16173226Y327822D01*
X16300000Y350820D01*
X16300000Y1262500D01*
X16700000Y1262500D01*
X16700000Y350820D01*
X16826774Y327822D01*
X16999392Y387523D01*
X17131232Y498880D01*
X17238814Y633818D01*
X17318004Y787151D01*
X17365759Y952987D01*
X17380243Y1124953D01*
X22619757Y1124953D01*
X22634241Y952987D01*
X22681996Y787151D01*
X22761186Y633818D01*
X22868768Y498880D01*
X23000608Y387523D01*
X23173226Y327822D01*
X23300000Y350820D01*
X23300000Y1262500D01*
X23700000Y1262500D01*
X23700000Y350820D01*
X23826774Y327822D01*
X23999392Y387523D01*
X24131232Y498880D01*
X24238814Y633818D01*
X24318004Y787151D01*
X24365759Y952987D01*
X24380243Y1124953D01*
X24304958Y1262500D01*
X23700000Y1262500D01*
X23300000Y1262500D01*
X22695042Y1262500D01*
X22619757Y1124953D01*
X17380243Y1124953D01*
X17304958Y1262500D01*
X16700000Y1262500D01*
X16300000Y1262500D01*
X15695042Y1262500D01*
X15619757Y1124953D01*
X200000Y1124953D01*
X200000Y1800047D01*
X15619757Y1800047D01*
X15695042Y1662500D01*
X16300000Y1662500D01*
X16300000Y2574180D01*
X16700000Y2574180D01*
X16700000Y1662500D01*
X17304958Y1662500D01*
X17380243Y1800047D01*
X22619757Y1800047D01*
X22695042Y1662500D01*
X23300000Y1662500D01*
X23300000Y2574180D01*
X23700000Y2574180D01*
X23700000Y1662500D01*
X24304958Y1662500D01*
X24380243Y1800047D01*
X24365759Y1972013D01*
X24318004Y2137849D01*
X24238814Y2291182D01*
X24131232Y2426120D01*
X23999392Y2537477D01*
X23826774Y2597178D01*
X23700000Y2574180D01*
X23300000Y2574180D01*
X23173226Y2597178D01*
X23000608Y2537477D01*
X22868768Y2426120D01*
X22761186Y2291182D01*
X22681996Y2137849D01*
X22634241Y1972013D01*
X22619757Y1800047D01*
X17380243Y1800047D01*
X17365759Y1972013D01*
X17318004Y2137849D01*
X17238814Y2291182D01*
X17131232Y2426120D01*
X16999392Y2537477D01*
X16826774Y2597178D01*
X16700000Y2574180D01*
X16300000Y2574180D01*
X16173226Y2597178D01*
X16000608Y2537477D01*
X15868768Y2426120D01*
X15761186Y2291182D01*
X15681996Y2137849D01*
X15634241Y1972013D01*
X15619757Y1800047D01*
X200000Y1800047D01*
X200000Y5182209D01*
X3150000Y5182209D01*
X3150000Y4817791D01*
X3221095Y4460375D01*
X3360552Y4123697D01*
X3563011Y3820694D01*
X3820694Y3563011D01*
X4123697Y3360552D01*
X4460375Y3221095D01*
X4817791Y3150000D01*
X5182209Y3150000D01*
X5539625Y3221095D01*
X5876303Y3360552D01*
X5917552Y3388114D01*
X17008457Y3388114D01*
X17098066Y3269025D01*
X17280098Y3207779D01*
X17470579Y3183223D01*
X17662192Y3196299D01*
X17847571Y3246507D01*
X17901934Y3269025D01*
X17991543Y3388114D01*
X22008457Y3388114D01*
X22098066Y3269025D01*
X22280098Y3207779D01*
X22470579Y3183223D01*
X22662192Y3196299D01*
X22847571Y3246507D01*
X22901934Y3269025D01*
X22991543Y3388114D01*
X22500000Y3879657D01*
X22008457Y3388114D01*
X17991543Y3388114D01*
X17500000Y3879657D01*
X17008457Y3388114D01*
X5917552Y3388114D01*
X6179306Y3563011D01*
X6436989Y3820694D01*
X6639448Y4123697D01*
X6667707Y4191921D01*
X16520723Y4191921D01*
X16533799Y4000308D01*
X16584007Y3814929D01*
X16606525Y3760566D01*
X16725614Y3670957D01*
X17217157Y4162500D01*
X17782843Y4162500D01*
X18274386Y3670957D01*
X18393475Y3760566D01*
X18454721Y3942598D01*
X18479277Y4133079D01*
X18475262Y4191921D01*
X21520723Y4191921D01*
X21533799Y4000308D01*
X21584007Y3814929D01*
X21606525Y3760566D01*
X21725614Y3670957D01*
X22217157Y4162500D01*
X22782843Y4162500D01*
X23274386Y3670957D01*
X23393475Y3760566D01*
X23454721Y3942598D01*
X23479277Y4133079D01*
X23466201Y4324692D01*
X23415993Y4510071D01*
X23393475Y4564434D01*
X23274386Y4654043D01*
X22782843Y4162500D01*
X22217157Y4162500D01*
X21725614Y4654043D01*
X21606525Y4564434D01*
X21545279Y4382402D01*
X21520723Y4191921D01*
X18475262Y4191921D01*
X18466201Y4324692D01*
X18415993Y4510071D01*
X18393475Y4564434D01*
X18274386Y4654043D01*
X17782843Y4162500D01*
X17217157Y4162500D01*
X16725614Y4654043D01*
X16606525Y4564434D01*
X16545279Y4382402D01*
X16520723Y4191921D01*
X6667707Y4191921D01*
X6778905Y4460375D01*
X6850000Y4817791D01*
X6850000Y4936886D01*
X17008457Y4936886D01*
X17500000Y4445343D01*
X17991543Y4936886D01*
X22008457Y4936886D01*
X22500000Y4445343D01*
X22991543Y4936886D01*
X22901934Y5055975D01*
X22719902Y5117221D01*
X22529421Y5141777D01*
X22337808Y5128701D01*
X22152429Y5078493D01*
X22098066Y5055975D01*
X22008457Y4936886D01*
X17991543Y4936886D01*
X17901934Y5055975D01*
X17719902Y5117221D01*
X17529421Y5141777D01*
X17337808Y5128701D01*
X17152429Y5078493D01*
X17098066Y5055975D01*
X17008457Y4936886D01*
X6850000Y4936886D01*
X6850000Y5182209D01*
X33150000Y5182209D01*
X33150000Y4817791D01*
X33221095Y4460375D01*
X33360552Y4123697D01*
X33563011Y3820694D01*
X33820694Y3563011D01*
X34123697Y3360552D01*
X34460375Y3221095D01*
X34817791Y3150000D01*
X35182209Y3150000D01*
X35539625Y3221095D01*
X35876303Y3360552D01*
X36179306Y3563011D01*
X36436989Y3820694D01*
X36639448Y4123697D01*
X36778905Y4460375D01*
X36850000Y4817791D01*
X36850000Y5182209D01*
X36778905Y5539625D01*
X36639448Y5876303D01*
X36436989Y6179306D01*
X36179306Y6436989D01*
X35876303Y6639448D01*
X35539625Y6778905D01*
X35182209Y6850000D01*
X34817791Y6850000D01*
X34460375Y6778905D01*
X34123697Y6639448D01*
X33820694Y6436989D01*
X33563011Y6179306D01*
X33360552Y5876303D01*
X33221095Y5539625D01*
X33150000Y5182209D01*
X6850000Y5182209D01*
X6778905Y5539625D01*
X6639448Y5876303D01*
X6436989Y6179306D01*
X6179306Y6436989D01*
X5876303Y6639448D01*
X5539625Y6778905D01*
X5182209Y6850000D01*
X4817791Y6850000D01*
X4460375Y6778905D01*
X4123697Y6639448D01*
X3820694Y6436989D01*
X3563011Y6179306D01*
X3360552Y5876303D01*
X3221095Y5539625D01*
X3150000Y5182209D01*
X200000Y5182209D01*
X200000Y17246783D01*
X3625000Y17246783D01*
X3625000Y17153217D01*
X3643254Y17061448D01*
X3679061Y16975003D01*
X3731044Y16897205D01*
X3797205Y16831044D01*
X3875003Y16779061D01*
X3961448Y16743254D01*
X4053217Y16725000D01*
X4146783Y16725000D01*
X4238552Y16743254D01*
X4324997Y16779061D01*
X4402795Y16831044D01*
X4468956Y16897205D01*
X4520939Y16975003D01*
X4556746Y17061448D01*
X4572878Y17142549D01*
X5855330Y18425000D01*
X29906250Y18425000D01*
X29975003Y18379061D01*
X30061448Y18343254D01*
X30153217Y18325000D01*
X30246783Y18325000D01*
X30338552Y18343254D01*
X30424997Y18379061D01*
X30502795Y18431044D01*
X30568956Y18497205D01*
X30620939Y18575003D01*
X30656746Y18661448D01*
X30675000Y18753217D01*
X30675000Y18846783D01*
X30656746Y18938552D01*
X30620939Y19024997D01*
X30568956Y19102795D01*
X30502795Y19168956D01*
X30424997Y19220939D01*
X30338552Y19256746D01*
X30246783Y19275000D01*
X30153217Y19275000D01*
X30061448Y19256746D01*
X29975003Y19220939D01*
X29906250Y19175000D01*
X5718416Y19175000D01*
X5700000Y19176814D01*
X5681584Y19175000D01*
X5681581Y19175000D01*
X5626487Y19169574D01*
X5555800Y19148131D01*
X5535107Y19137070D01*
X5490653Y19113310D01*
X5477841Y19102795D01*
X5433552Y19066448D01*
X5421809Y19052139D01*
X4042549Y17672878D01*
X3961448Y17656746D01*
X3875003Y17620939D01*
X3797205Y17568956D01*
X3731044Y17502795D01*
X3679061Y17424997D01*
X3643254Y17338552D01*
X3625000Y17246783D01*
X200000Y17246783D01*
X200000Y28345374D01*
X20923591Y28345374D01*
X20923591Y28251808D01*
X20941845Y28160039D01*
X20977652Y28073594D01*
X21029635Y27995796D01*
X21095796Y27929635D01*
X21173594Y27877652D01*
X21260039Y27841845D01*
X21351808Y27823591D01*
X21445374Y27823591D01*
X21537143Y27841845D01*
X21623588Y27877652D01*
X21701386Y27929635D01*
X21767547Y27995796D01*
X21819530Y28073594D01*
X21855337Y28160039D01*
X21871469Y28241140D01*
X22252139Y28621809D01*
X22266448Y28633552D01*
X22313309Y28690653D01*
X22348131Y28755800D01*
X22369574Y28826487D01*
X22375000Y28881581D01*
X22375000Y28881584D01*
X22376814Y28900000D01*
X22375000Y28918416D01*
X22375000Y31506250D01*
X22420939Y31575003D01*
X22456746Y31661448D01*
X22475000Y31753217D01*
X22475000Y31846783D01*
X22456746Y31938552D01*
X22420939Y32024997D01*
X22368956Y32102795D01*
X22302795Y32168956D01*
X22224997Y32220939D01*
X22138552Y32256746D01*
X22046783Y32275000D01*
X21953217Y32275000D01*
X21861448Y32256746D01*
X21775003Y32220939D01*
X21697205Y32168956D01*
X21631044Y32102795D01*
X21579061Y32024997D01*
X21543254Y31938552D01*
X21525000Y31846783D01*
X21525000Y31753217D01*
X21543254Y31661448D01*
X21579061Y31575003D01*
X21625000Y31506250D01*
X21625001Y29055331D01*
X21341140Y28771469D01*
X21260039Y28755337D01*
X21173594Y28719530D01*
X21095796Y28667547D01*
X21029635Y28601386D01*
X20977652Y28523588D01*
X20941845Y28437143D01*
X20923591Y28345374D01*
X200000Y28345374D01*
X200000Y35182209D01*
X3150000Y35182209D01*
X3150000Y34817791D01*
X3221095Y34460375D01*
X3360552Y34123697D01*
X3563011Y33820694D01*
X3820694Y33563011D01*
X4123697Y33360552D01*
X4460375Y33221095D01*
X4817791Y33150000D01*
X5182209Y33150000D01*
X5539625Y33221095D01*
X5876303Y33360552D01*
X6179306Y33563011D01*
X6436989Y33820694D01*
X6639448Y34123697D01*
X6778905Y34460375D01*
X6850000Y34817791D01*
X6850000Y35182209D01*
X33150000Y35182209D01*
X33150000Y34817791D01*
X33221095Y34460375D01*
X33360552Y34123697D01*
X33563011Y33820694D01*
X33820694Y33563011D01*
X34123697Y33360552D01*
X34460375Y33221095D01*
X34817791Y33150000D01*
X35182209Y33150000D01*
X35539625Y33221095D01*
X35876303Y33360552D01*
X36179306Y33563011D01*
X36436989Y33820694D01*
X36639448Y34123697D01*
X36778905Y34460375D01*
X36850000Y34817791D01*
X36850000Y35182209D01*
X36778905Y35539625D01*
X36639448Y35876303D01*
X36436989Y36179306D01*
X36179306Y36436989D01*
X35876303Y36639448D01*
X35539625Y36778905D01*
X35182209Y36850000D01*
X34817791Y36850000D01*
X34460375Y36778905D01*
X34123697Y36639448D01*
X33820694Y36436989D01*
X33563011Y36179306D01*
X33360552Y35876303D01*
X33221095Y35539625D01*
X33150000Y35182209D01*
X6850000Y35182209D01*
X6778905Y35539625D01*
X6639448Y35876303D01*
X6436989Y36179306D01*
X6179306Y36436989D01*
X5876303Y36639448D01*
X5539625Y36778905D01*
X5182209Y36850000D01*
X4817791Y36850000D01*
X4460375Y36778905D01*
X4123697Y36639448D01*
X3820694Y36436989D01*
X3563011Y36179306D01*
X3360552Y35876303D01*
X3221095Y35539625D01*
X3150000Y35182209D01*
X200000Y35182209D01*
X200000Y40918490D01*
X1856332Y40918490D01*
X2114070Y40657392D01*
X2533193Y40457185D01*
X2983320Y40342592D01*
X3447155Y40318017D01*
X3906872Y40384403D01*
X4344804Y40539199D01*
X4565930Y40657392D01*
X4823668Y40918490D01*
X3340000Y42402157D01*
X1856332Y40918490D01*
X200000Y40918490D01*
X200000Y42577845D01*
X973017Y42577845D01*
X1039403Y42118128D01*
X1194199Y41680196D01*
X1312392Y41459070D01*
X1573490Y41201332D01*
X3057157Y42685000D01*
X3622843Y42685000D01*
X5106510Y41201332D01*
X5277518Y41370140D01*
X9237500Y41370140D01*
X9237500Y41159860D01*
X9278524Y40953622D01*
X9358994Y40759349D01*
X9475819Y40584509D01*
X9624509Y40435819D01*
X9799349Y40318994D01*
X9993622Y40238524D01*
X10199860Y40197500D01*
X10410140Y40197500D01*
X10616378Y40238524D01*
X10810651Y40318994D01*
X10985491Y40435819D01*
X11134181Y40584509D01*
X11251006Y40759349D01*
X11331476Y40953622D01*
X11372500Y41159860D01*
X11372500Y41370140D01*
X12007500Y41370140D01*
X12007500Y41159860D01*
X12048524Y40953622D01*
X12128994Y40759349D01*
X12245819Y40584509D01*
X12394509Y40435819D01*
X12569349Y40318994D01*
X12763622Y40238524D01*
X12969860Y40197500D01*
X13180140Y40197500D01*
X13386378Y40238524D01*
X13517029Y40292641D01*
X15119002Y38690668D01*
X15130745Y38676359D01*
X15187846Y38629498D01*
X15252993Y38594676D01*
X15323680Y38573233D01*
X15378774Y38567807D01*
X15378777Y38567807D01*
X15397193Y38565993D01*
X15415609Y38567807D01*
X26488759Y38567807D01*
X26557512Y38521868D01*
X26643957Y38486061D01*
X26735726Y38467807D01*
X26829292Y38467807D01*
X26921061Y38486061D01*
X27007506Y38521868D01*
X27085304Y38573851D01*
X27151465Y38640012D01*
X27203448Y38717810D01*
X27239255Y38804255D01*
X27257509Y38896024D01*
X27257509Y38989590D01*
X27239255Y39081359D01*
X27203448Y39167804D01*
X27151465Y39245602D01*
X27085304Y39311763D01*
X27007506Y39363746D01*
X26921061Y39399553D01*
X26829292Y39417807D01*
X26735726Y39417807D01*
X26643957Y39399553D01*
X26557512Y39363746D01*
X26488759Y39317807D01*
X15552523Y39317807D01*
X14047359Y40822971D01*
X14101476Y40953622D01*
X14142500Y41159860D01*
X14142500Y41370140D01*
X14777500Y41370140D01*
X14777500Y41159860D01*
X14818524Y40953622D01*
X14898994Y40759349D01*
X15015819Y40584509D01*
X15164509Y40435819D01*
X15339349Y40318994D01*
X15533622Y40238524D01*
X15739860Y40197500D01*
X15950140Y40197500D01*
X16156378Y40238524D01*
X16350651Y40318994D01*
X16525491Y40435819D01*
X16674181Y40584509D01*
X16791006Y40759349D01*
X16871476Y40953622D01*
X16912500Y41159860D01*
X16912500Y41370140D01*
X17547500Y41370140D01*
X17547500Y41159860D01*
X17588524Y40953622D01*
X17668994Y40759349D01*
X17785819Y40584509D01*
X17934509Y40435819D01*
X18109349Y40318994D01*
X18303622Y40238524D01*
X18509860Y40197500D01*
X18720140Y40197500D01*
X18926378Y40238524D01*
X19120651Y40318994D01*
X19295491Y40435819D01*
X19444181Y40584509D01*
X19561006Y40759349D01*
X19641476Y40953622D01*
X19682500Y41159860D01*
X19682500Y41370140D01*
X20317500Y41370140D01*
X20317500Y41159860D01*
X20358524Y40953622D01*
X20438994Y40759349D01*
X20555819Y40584509D01*
X20704509Y40435819D01*
X20879349Y40318994D01*
X21073622Y40238524D01*
X21279860Y40197500D01*
X21490140Y40197500D01*
X21696378Y40238524D01*
X21890651Y40318994D01*
X22065491Y40435819D01*
X22214181Y40584509D01*
X22331006Y40759349D01*
X22411476Y40953622D01*
X22452500Y41159860D01*
X22452500Y41370140D01*
X23087500Y41370140D01*
X23087500Y41159860D01*
X23128524Y40953622D01*
X23208994Y40759349D01*
X23325819Y40584509D01*
X23474509Y40435819D01*
X23649349Y40318994D01*
X23843622Y40238524D01*
X24049860Y40197500D01*
X24260140Y40197500D01*
X24466378Y40238524D01*
X24660651Y40318994D01*
X24835491Y40435819D01*
X24984181Y40584509D01*
X25101006Y40759349D01*
X25181476Y40953622D01*
X25222500Y41159860D01*
X25222500Y41370140D01*
X25857500Y41370140D01*
X25857500Y41159860D01*
X25898524Y40953622D01*
X25978994Y40759349D01*
X26095819Y40584509D01*
X26244509Y40435819D01*
X26419349Y40318994D01*
X26613622Y40238524D01*
X26819860Y40197500D01*
X27030140Y40197500D01*
X27236378Y40238524D01*
X27430651Y40318994D01*
X27605491Y40435819D01*
X27754181Y40584509D01*
X27871006Y40759349D01*
X27951476Y40953622D01*
X27992500Y41159860D01*
X27992500Y41370140D01*
X28627500Y41370140D01*
X28627500Y41159860D01*
X28668524Y40953622D01*
X28748994Y40759349D01*
X28865819Y40584509D01*
X29014509Y40435819D01*
X29189349Y40318994D01*
X29383622Y40238524D01*
X29589860Y40197500D01*
X29800140Y40197500D01*
X30006378Y40238524D01*
X30200651Y40318994D01*
X30375491Y40435819D01*
X30524181Y40584509D01*
X30641006Y40759349D01*
X30706923Y40918490D01*
X35176332Y40918490D01*
X35434070Y40657392D01*
X35853193Y40457185D01*
X36303320Y40342592D01*
X36767155Y40318017D01*
X37226872Y40384403D01*
X37664804Y40539199D01*
X37885930Y40657392D01*
X38143668Y40918490D01*
X36660000Y42402157D01*
X35176332Y40918490D01*
X30706923Y40918490D01*
X30721476Y40953622D01*
X30762500Y41159860D01*
X30762500Y41370140D01*
X30721476Y41576378D01*
X30641006Y41770651D01*
X30524181Y41945491D01*
X30375491Y42094181D01*
X30200651Y42211006D01*
X30006378Y42291476D01*
X29800140Y42332500D01*
X29589860Y42332500D01*
X29383622Y42291476D01*
X29189349Y42211006D01*
X29014509Y42094181D01*
X28865819Y41945491D01*
X28748994Y41770651D01*
X28668524Y41576378D01*
X28627500Y41370140D01*
X27992500Y41370140D01*
X27951476Y41576378D01*
X27871006Y41770651D01*
X27754181Y41945491D01*
X27605491Y42094181D01*
X27430651Y42211006D01*
X27236378Y42291476D01*
X27030140Y42332500D01*
X26819860Y42332500D01*
X26613622Y42291476D01*
X26419349Y42211006D01*
X26244509Y42094181D01*
X26095819Y41945491D01*
X25978994Y41770651D01*
X25898524Y41576378D01*
X25857500Y41370140D01*
X25222500Y41370140D01*
X25181476Y41576378D01*
X25101006Y41770651D01*
X24984181Y41945491D01*
X24835491Y42094181D01*
X24660651Y42211006D01*
X24466378Y42291476D01*
X24260140Y42332500D01*
X24049860Y42332500D01*
X23843622Y42291476D01*
X23649349Y42211006D01*
X23474509Y42094181D01*
X23325819Y41945491D01*
X23208994Y41770651D01*
X23128524Y41576378D01*
X23087500Y41370140D01*
X22452500Y41370140D01*
X22411476Y41576378D01*
X22331006Y41770651D01*
X22214181Y41945491D01*
X22065491Y42094181D01*
X21890651Y42211006D01*
X21696378Y42291476D01*
X21490140Y42332500D01*
X21279860Y42332500D01*
X21073622Y42291476D01*
X20879349Y42211006D01*
X20704509Y42094181D01*
X20555819Y41945491D01*
X20438994Y41770651D01*
X20358524Y41576378D01*
X20317500Y41370140D01*
X19682500Y41370140D01*
X19641476Y41576378D01*
X19561006Y41770651D01*
X19444181Y41945491D01*
X19295491Y42094181D01*
X19120651Y42211006D01*
X18926378Y42291476D01*
X18720140Y42332500D01*
X18509860Y42332500D01*
X18303622Y42291476D01*
X18109349Y42211006D01*
X17934509Y42094181D01*
X17785819Y41945491D01*
X17668994Y41770651D01*
X17588524Y41576378D01*
X17547500Y41370140D01*
X16912500Y41370140D01*
X16871476Y41576378D01*
X16791006Y41770651D01*
X16674181Y41945491D01*
X16525491Y42094181D01*
X16350651Y42211006D01*
X16156378Y42291476D01*
X15950140Y42332500D01*
X15739860Y42332500D01*
X15533622Y42291476D01*
X15339349Y42211006D01*
X15164509Y42094181D01*
X15015819Y41945491D01*
X14898994Y41770651D01*
X14818524Y41576378D01*
X14777500Y41370140D01*
X14142500Y41370140D01*
X14101476Y41576378D01*
X14021006Y41770651D01*
X13904181Y41945491D01*
X13755491Y42094181D01*
X13580651Y42211006D01*
X13386378Y42291476D01*
X13180140Y42332500D01*
X12969860Y42332500D01*
X12763622Y42291476D01*
X12569349Y42211006D01*
X12394509Y42094181D01*
X12245819Y41945491D01*
X12128994Y41770651D01*
X12048524Y41576378D01*
X12007500Y41370140D01*
X11372500Y41370140D01*
X11331476Y41576378D01*
X11251006Y41770651D01*
X11134181Y41945491D01*
X10985491Y42094181D01*
X10810651Y42211006D01*
X10616378Y42291476D01*
X10410140Y42332500D01*
X10199860Y42332500D01*
X9993622Y42291476D01*
X9799349Y42211006D01*
X9624509Y42094181D01*
X9475819Y41945491D01*
X9358994Y41770651D01*
X9278524Y41576378D01*
X9237500Y41370140D01*
X5277518Y41370140D01*
X5367608Y41459070D01*
X5567815Y41878193D01*
X5682408Y42328320D01*
X5695628Y42577845D01*
X34293017Y42577845D01*
X34359403Y42118128D01*
X34514199Y41680196D01*
X34632392Y41459070D01*
X34893490Y41201332D01*
X36377157Y42685000D01*
X36942843Y42685000D01*
X38426510Y41201332D01*
X38687608Y41459070D01*
X38887815Y41878193D01*
X39002408Y42328320D01*
X39026983Y42792155D01*
X38960597Y43251872D01*
X38805801Y43689804D01*
X38687608Y43910930D01*
X38426510Y44168668D01*
X36942843Y42685000D01*
X36377157Y42685000D01*
X34893490Y44168668D01*
X34632392Y43910930D01*
X34432185Y43491807D01*
X34317592Y43041680D01*
X34293017Y42577845D01*
X5695628Y42577845D01*
X5706983Y42792155D01*
X5640597Y43251872D01*
X5485801Y43689804D01*
X5367608Y43910930D01*
X5106510Y44168668D01*
X3622843Y42685000D01*
X3057157Y42685000D01*
X1573490Y44168668D01*
X1312392Y43910930D01*
X1112185Y43491807D01*
X997592Y43041680D01*
X973017Y42577845D01*
X200000Y42577845D01*
X200000Y44451510D01*
X1856332Y44451510D01*
X3340000Y42967843D01*
X4582297Y44210140D01*
X10622500Y44210140D01*
X10622500Y43999860D01*
X10663524Y43793622D01*
X10743994Y43599349D01*
X10860819Y43424509D01*
X11009509Y43275819D01*
X11184349Y43158994D01*
X11378622Y43078524D01*
X11584860Y43037500D01*
X11795140Y43037500D01*
X12001378Y43078524D01*
X12195651Y43158994D01*
X12370491Y43275819D01*
X12519181Y43424509D01*
X12636006Y43599349D01*
X12716476Y43793622D01*
X12757500Y43999860D01*
X12757500Y44210140D01*
X13392500Y44210140D01*
X13392500Y43999860D01*
X13433524Y43793622D01*
X13513994Y43599349D01*
X13630819Y43424509D01*
X13779509Y43275819D01*
X13954349Y43158994D01*
X14148622Y43078524D01*
X14354860Y43037500D01*
X14565140Y43037500D01*
X14771378Y43078524D01*
X14965651Y43158994D01*
X15140491Y43275819D01*
X15289181Y43424509D01*
X15406006Y43599349D01*
X15486476Y43793622D01*
X15527500Y43999860D01*
X15527500Y44210140D01*
X16162500Y44210140D01*
X16162500Y43999860D01*
X16203524Y43793622D01*
X16283994Y43599349D01*
X16400819Y43424509D01*
X16549509Y43275819D01*
X16724349Y43158994D01*
X16918622Y43078524D01*
X17124860Y43037500D01*
X17335140Y43037500D01*
X17541378Y43078524D01*
X17735651Y43158994D01*
X17910491Y43275819D01*
X18059181Y43424509D01*
X18176006Y43599349D01*
X18256476Y43793622D01*
X18297500Y43999860D01*
X18297500Y44210140D01*
X18932500Y44210140D01*
X18932500Y43999860D01*
X18973524Y43793622D01*
X19053994Y43599349D01*
X19170819Y43424509D01*
X19319509Y43275819D01*
X19494349Y43158994D01*
X19688622Y43078524D01*
X19894860Y43037500D01*
X20105140Y43037500D01*
X20311378Y43078524D01*
X20505651Y43158994D01*
X20680491Y43275819D01*
X20829181Y43424509D01*
X20946006Y43599349D01*
X21026476Y43793622D01*
X21067500Y43999860D01*
X21067500Y44210140D01*
X21702500Y44210140D01*
X21702500Y43999860D01*
X21743524Y43793622D01*
X21823994Y43599349D01*
X21940819Y43424509D01*
X22089509Y43275819D01*
X22264349Y43158994D01*
X22458622Y43078524D01*
X22664860Y43037500D01*
X22875140Y43037500D01*
X23081378Y43078524D01*
X23275651Y43158994D01*
X23450491Y43275819D01*
X23599181Y43424509D01*
X23716006Y43599349D01*
X23796476Y43793622D01*
X23837500Y43999860D01*
X23837500Y44210140D01*
X24472500Y44210140D01*
X24472500Y43999860D01*
X24513524Y43793622D01*
X24593994Y43599349D01*
X24710819Y43424509D01*
X24859509Y43275819D01*
X25034349Y43158994D01*
X25228622Y43078524D01*
X25434860Y43037500D01*
X25645140Y43037500D01*
X25851378Y43078524D01*
X26045651Y43158994D01*
X26220491Y43275819D01*
X26369181Y43424509D01*
X26486006Y43599349D01*
X26566476Y43793622D01*
X26607500Y43999860D01*
X26607500Y44210140D01*
X27242500Y44210140D01*
X27242500Y43999860D01*
X27283524Y43793622D01*
X27363994Y43599349D01*
X27480819Y43424509D01*
X27629509Y43275819D01*
X27804349Y43158994D01*
X27998622Y43078524D01*
X28204860Y43037500D01*
X28415140Y43037500D01*
X28621378Y43078524D01*
X28815651Y43158994D01*
X28990491Y43275819D01*
X29139181Y43424509D01*
X29256006Y43599349D01*
X29336476Y43793622D01*
X29377500Y43999860D01*
X29377500Y44210140D01*
X29336476Y44416378D01*
X29321924Y44451510D01*
X35176332Y44451510D01*
X36660000Y42967843D01*
X38143668Y44451510D01*
X37885930Y44712608D01*
X37466807Y44912815D01*
X37016680Y45027408D01*
X36552845Y45051983D01*
X36093128Y44985597D01*
X35655196Y44830801D01*
X35434070Y44712608D01*
X35176332Y44451510D01*
X29321924Y44451510D01*
X29256006Y44610651D01*
X29139181Y44785491D01*
X28990491Y44934181D01*
X28815651Y45051006D01*
X28621378Y45131476D01*
X28415140Y45172500D01*
X28204860Y45172500D01*
X27998622Y45131476D01*
X27804349Y45051006D01*
X27629509Y44934181D01*
X27480819Y44785491D01*
X27363994Y44610651D01*
X27283524Y44416378D01*
X27242500Y44210140D01*
X26607500Y44210140D01*
X26566476Y44416378D01*
X26486006Y44610651D01*
X26369181Y44785491D01*
X26220491Y44934181D01*
X26045651Y45051006D01*
X25851378Y45131476D01*
X25645140Y45172500D01*
X25434860Y45172500D01*
X25228622Y45131476D01*
X25034349Y45051006D01*
X24859509Y44934181D01*
X24710819Y44785491D01*
X24593994Y44610651D01*
X24513524Y44416378D01*
X24472500Y44210140D01*
X23837500Y44210140D01*
X23796476Y44416378D01*
X23716006Y44610651D01*
X23599181Y44785491D01*
X23450491Y44934181D01*
X23275651Y45051006D01*
X23081378Y45131476D01*
X22875140Y45172500D01*
X22664860Y45172500D01*
X22458622Y45131476D01*
X22264349Y45051006D01*
X22089509Y44934181D01*
X21940819Y44785491D01*
X21823994Y44610651D01*
X21743524Y44416378D01*
X21702500Y44210140D01*
X21067500Y44210140D01*
X21026476Y44416378D01*
X20946006Y44610651D01*
X20829181Y44785491D01*
X20680491Y44934181D01*
X20505651Y45051006D01*
X20311378Y45131476D01*
X20105140Y45172500D01*
X19894860Y45172500D01*
X19688622Y45131476D01*
X19494349Y45051006D01*
X19319509Y44934181D01*
X19170819Y44785491D01*
X19053994Y44610651D01*
X18973524Y44416378D01*
X18932500Y44210140D01*
X18297500Y44210140D01*
X18256476Y44416378D01*
X18176006Y44610651D01*
X18059181Y44785491D01*
X17910491Y44934181D01*
X17735651Y45051006D01*
X17541378Y45131476D01*
X17335140Y45172500D01*
X17124860Y45172500D01*
X16918622Y45131476D01*
X16724349Y45051006D01*
X16549509Y44934181D01*
X16400819Y44785491D01*
X16283994Y44610651D01*
X16203524Y44416378D01*
X16162500Y44210140D01*
X15527500Y44210140D01*
X15486476Y44416378D01*
X15406006Y44610651D01*
X15289181Y44785491D01*
X15140491Y44934181D01*
X14965651Y45051006D01*
X14771378Y45131476D01*
X14565140Y45172500D01*
X14354860Y45172500D01*
X14148622Y45131476D01*
X13954349Y45051006D01*
X13779509Y44934181D01*
X13630819Y44785491D01*
X13513994Y44610651D01*
X13433524Y44416378D01*
X13392500Y44210140D01*
X12757500Y44210140D01*
X12716476Y44416378D01*
X12636006Y44610651D01*
X12519181Y44785491D01*
X12370491Y44934181D01*
X12195651Y45051006D01*
X12001378Y45131476D01*
X11795140Y45172500D01*
X11584860Y45172500D01*
X11378622Y45131476D01*
X11184349Y45051006D01*
X11009509Y44934181D01*
X10860819Y44785491D01*
X10743994Y44610651D01*
X10663524Y44416378D01*
X10622500Y44210140D01*
X4582297Y44210140D01*
X4823668Y44451510D01*
X4565930Y44712608D01*
X4146807Y44912815D01*
X3696680Y45027408D01*
X3232845Y45051983D01*
X2773128Y44985597D01*
X2335196Y44830801D01*
X2114070Y44712608D01*
X1856332Y44451510D01*
X200000Y44451510D01*
X200000Y54800000D01*
X39800000Y54800000D01*
X39800001Y200000D01*
M02*
