G04 #@! TF.GenerationSoftware,KiCad,Pcbnew,5.1.4+dfsg1-1*
G04 #@! TF.CreationDate,2020-03-06T15:50:39+01:00*
G04 #@! TF.ProjectId,sidewinder-usb,73696465-7769-46e6-9465-722d7573622e,rev?*
G04 #@! TF.SameCoordinates,Original*
G04 #@! TF.FileFunction,Legend,Top*
G04 #@! TF.FilePolarity,Positive*
%FSLAX46Y46*%
G04 Gerber Fmt 4.6, Leading zero omitted, Abs format (unit mm)*
G04 Created by KiCad (PCBNEW 5.1.4+dfsg1-1) date 2020-03-06 15:50:39*
%MOMM*%
%LPD*%
G04 APERTURE LIST*
%ADD10C,0.100000*%
%ADD11C,0.120000*%
%ADD12C,0.150000*%
%ADD13C,0.200000*%
G04 APERTURE END LIST*
D10*
X39404761Y9166666D02*
X39452380Y9309523D01*
X39452380Y9547619D01*
X39404761Y9642857D01*
X39357142Y9690476D01*
X39261904Y9738095D01*
X39166666Y9738095D01*
X39071428Y9690476D01*
X39023809Y9642857D01*
X38976190Y9547619D01*
X38928571Y9357142D01*
X38880952Y9261904D01*
X38833333Y9214285D01*
X38738095Y9166666D01*
X38642857Y9166666D01*
X38547619Y9214285D01*
X38500000Y9261904D01*
X38452380Y9357142D01*
X38452380Y9595238D01*
X38500000Y9738095D01*
X39452380Y10166666D02*
X38785714Y10166666D01*
X38452380Y10166666D02*
X38500000Y10119047D01*
X38547619Y10166666D01*
X38500000Y10214285D01*
X38452380Y10166666D01*
X38547619Y10166666D01*
X39452380Y11071428D02*
X38452380Y11071428D01*
X39404761Y11071428D02*
X39452380Y10976190D01*
X39452380Y10785714D01*
X39404761Y10690476D01*
X39357142Y10642857D01*
X39261904Y10595238D01*
X38976190Y10595238D01*
X38880952Y10642857D01*
X38833333Y10690476D01*
X38785714Y10785714D01*
X38785714Y10976190D01*
X38833333Y11071428D01*
X39404761Y11928571D02*
X39452380Y11833333D01*
X39452380Y11642857D01*
X39404761Y11547619D01*
X39309523Y11499999D01*
X38928571Y11499999D01*
X38833333Y11547619D01*
X38785714Y11642857D01*
X38785714Y11833333D01*
X38833333Y11928571D01*
X38928571Y11976190D01*
X39023809Y11976190D01*
X39119047Y11499999D01*
X38785714Y12309523D02*
X39452380Y12499999D01*
X38976190Y12690476D01*
X39452380Y12880952D01*
X38785714Y13071428D01*
X39452380Y13452380D02*
X38785714Y13452380D01*
X38452380Y13452380D02*
X38500000Y13404761D01*
X38547619Y13452380D01*
X38500000Y13499999D01*
X38452380Y13452380D01*
X38547619Y13452380D01*
X38785714Y13928571D02*
X39452380Y13928571D01*
X38880952Y13928571D02*
X38833333Y13976190D01*
X38785714Y14071428D01*
X38785714Y14214285D01*
X38833333Y14309523D01*
X38928571Y14357142D01*
X39452380Y14357142D01*
X39452380Y15261904D02*
X38452380Y15261904D01*
X39404761Y15261904D02*
X39452380Y15166666D01*
X39452380Y14976190D01*
X39404761Y14880952D01*
X39357142Y14833333D01*
X39261904Y14785714D01*
X38976190Y14785714D01*
X38880952Y14833333D01*
X38833333Y14880952D01*
X38785714Y14976190D01*
X38785714Y15166666D01*
X38833333Y15261904D01*
X39404761Y16119047D02*
X39452380Y16023809D01*
X39452380Y15833333D01*
X39404761Y15738095D01*
X39309523Y15690476D01*
X38928571Y15690476D01*
X38833333Y15738095D01*
X38785714Y15833333D01*
X38785714Y16023809D01*
X38833333Y16119047D01*
X38928571Y16166666D01*
X39023809Y16166666D01*
X39119047Y15690476D01*
X39452380Y16595238D02*
X38785714Y16595238D01*
X38976190Y16595238D02*
X38880952Y16642857D01*
X38833333Y16690476D01*
X38785714Y16785714D01*
X38785714Y16880952D01*
X38452380Y17976190D02*
X39261904Y17976190D01*
X39357142Y18023809D01*
X39404761Y18071428D01*
X39452380Y18166666D01*
X39452380Y18357142D01*
X39404761Y18452380D01*
X39357142Y18499999D01*
X39261904Y18547619D01*
X38452380Y18547619D01*
X39404761Y18976190D02*
X39452380Y19119047D01*
X39452380Y19357142D01*
X39404761Y19452380D01*
X39357142Y19499999D01*
X39261904Y19547619D01*
X39166666Y19547619D01*
X39071428Y19499999D01*
X39023809Y19452380D01*
X38976190Y19357142D01*
X38928571Y19166666D01*
X38880952Y19071428D01*
X38833333Y19023809D01*
X38738095Y18976190D01*
X38642857Y18976190D01*
X38547619Y19023809D01*
X38500000Y19071428D01*
X38452380Y19166666D01*
X38452380Y19404761D01*
X38500000Y19547619D01*
X38928571Y20309523D02*
X38976190Y20452380D01*
X39023809Y20499999D01*
X39119047Y20547619D01*
X39261904Y20547619D01*
X39357142Y20499999D01*
X39404761Y20452380D01*
X39452380Y20357142D01*
X39452380Y19976190D01*
X38452380Y19976190D01*
X38452380Y20309523D01*
X38500000Y20404761D01*
X38547619Y20452380D01*
X38642857Y20499999D01*
X38738095Y20499999D01*
X38833333Y20452380D01*
X38880952Y20404761D01*
X38928571Y20309523D01*
X38928571Y19976190D01*
X39166666Y21690476D02*
X39166666Y22166666D01*
X39452380Y21595238D02*
X38452380Y21928571D01*
X39452380Y22261904D01*
X39452380Y23023809D02*
X38452380Y23023809D01*
X39404761Y23023809D02*
X39452380Y22928571D01*
X39452380Y22738095D01*
X39404761Y22642857D01*
X39357142Y22595238D01*
X39261904Y22547619D01*
X38976190Y22547619D01*
X38880952Y22595238D01*
X38833333Y22642857D01*
X38785714Y22738095D01*
X38785714Y22928571D01*
X38833333Y23023809D01*
X39452380Y23928571D02*
X38928571Y23928571D01*
X38833333Y23880952D01*
X38785714Y23785714D01*
X38785714Y23595238D01*
X38833333Y23499999D01*
X39404761Y23928571D02*
X39452380Y23833333D01*
X39452380Y23595238D01*
X39404761Y23499999D01*
X39309523Y23452380D01*
X39214285Y23452380D01*
X39119047Y23499999D01*
X39071428Y23595238D01*
X39071428Y23833333D01*
X39023809Y23928571D01*
X38785714Y24404761D02*
X39785714Y24404761D01*
X38833333Y24404761D02*
X38785714Y24499999D01*
X38785714Y24690476D01*
X38833333Y24785714D01*
X38880952Y24833333D01*
X38976190Y24880952D01*
X39261904Y24880952D01*
X39357142Y24833333D01*
X39404761Y24785714D01*
X39452380Y24690476D01*
X39452380Y24499999D01*
X39404761Y24404761D01*
X38785714Y25166666D02*
X38785714Y25547619D01*
X38452380Y25309523D02*
X39309523Y25309523D01*
X39404761Y25357142D01*
X39452380Y25452380D01*
X39452380Y25547619D01*
X39404761Y26261904D02*
X39452380Y26166666D01*
X39452380Y25976190D01*
X39404761Y25880952D01*
X39309523Y25833333D01*
X38928571Y25833333D01*
X38833333Y25880952D01*
X38785714Y25976190D01*
X38785714Y26166666D01*
X38833333Y26261904D01*
X38928571Y26309523D01*
X39023809Y26309523D01*
X39119047Y25833333D01*
X39452380Y26738095D02*
X38785714Y26738095D01*
X38976190Y26738095D02*
X38880952Y26785714D01*
X38833333Y26833333D01*
X38785714Y26928571D01*
X38785714Y27023809D01*
X38785714Y28023809D02*
X39452380Y28261904D01*
X38785714Y28499999D01*
X38452380Y29071428D02*
X38452380Y29166666D01*
X38500000Y29261904D01*
X38547619Y29309523D01*
X38642857Y29357142D01*
X38833333Y29404761D01*
X39071428Y29404761D01*
X39261904Y29357142D01*
X39357142Y29309523D01*
X39404761Y29261904D01*
X39452380Y29166666D01*
X39452380Y29071428D01*
X39404761Y28976190D01*
X39357142Y28928571D01*
X39261904Y28880952D01*
X39071428Y28833333D01*
X38833333Y28833333D01*
X38642857Y28880952D01*
X38547619Y28928571D01*
X38500000Y28976190D01*
X38452380Y29071428D01*
X39357142Y29833333D02*
X39404761Y29880952D01*
X39452380Y29833333D01*
X39404761Y29785714D01*
X39357142Y29833333D01*
X39452380Y29833333D01*
X38547619Y30261904D02*
X38500000Y30309523D01*
X38452380Y30404761D01*
X38452380Y30642857D01*
X38500000Y30738095D01*
X38547619Y30785714D01*
X38642857Y30833333D01*
X38738095Y30833333D01*
X38880952Y30785714D01*
X39452380Y30214285D01*
X39452380Y30833333D01*
D11*
X31600000Y25700000D02*
X36400000Y25700000D01*
X31600000Y14300000D02*
X36400000Y14300000D01*
X36400000Y14300000D02*
X36400000Y25700000D01*
X31600000Y14300000D02*
X31600000Y25700000D01*
D12*
X17600000Y15825000D02*
X17600000Y14550000D01*
X17025000Y26175000D02*
X17025000Y25500000D01*
X27375000Y26175000D02*
X27375000Y25500000D01*
X27375000Y15825000D02*
X27375000Y16500000D01*
X17025000Y15825000D02*
X17025000Y16500000D01*
X27375000Y15825000D02*
X26700000Y15825000D01*
X27375000Y26175000D02*
X26700000Y26175000D01*
X17025000Y26175000D02*
X17700000Y26175000D01*
X17025000Y15825000D02*
X17600000Y15825000D01*
D11*
X1770000Y27230000D02*
X1770000Y20770000D01*
X6300000Y27230000D02*
X3700000Y27230000D01*
X8230000Y27230000D02*
X8230000Y20770000D01*
X6300000Y20770000D02*
X3700000Y20770000D01*
X8200000Y27230000D02*
X8230000Y27230000D01*
X1770000Y27230000D02*
X1800000Y27230000D01*
X1770000Y20770000D02*
X1800000Y20770000D01*
X8230000Y20770000D02*
X8200000Y20770000D01*
X22710000Y33741422D02*
X22710000Y34258578D01*
X21290000Y33741422D02*
X21290000Y34258578D01*
X18710000Y33741422D02*
X18710000Y34258578D01*
X17290000Y33741422D02*
X17290000Y34258578D01*
X4741422Y15290000D02*
X5258578Y15290000D01*
X4741422Y16710000D02*
X5258578Y16710000D01*
X18290000Y10258578D02*
X18290000Y9741422D01*
X19710000Y10258578D02*
X19710000Y9741422D01*
X20290000Y10258578D02*
X20290000Y9741422D01*
X21710000Y10258578D02*
X21710000Y9741422D01*
D13*
X39770000Y54405000D02*
X39670000Y39575000D01*
X330000Y54405000D02*
X39770000Y54405000D01*
X340000Y39575000D02*
X330000Y54405000D01*
X39670000Y39575000D02*
X340000Y39575000D01*
D11*
X18300000Y5012500D02*
X18300000Y4562500D01*
X18300000Y5012500D02*
X18750000Y5012500D01*
X23900000Y4462500D02*
X23450000Y4462500D01*
X23900000Y2612500D02*
X23900000Y4462500D01*
X16100000Y62500D02*
X16100000Y312500D01*
X23900000Y62500D02*
X23900000Y312500D01*
X16100000Y2612500D02*
X16100000Y4462500D01*
X16100000Y4462500D02*
X16550000Y4462500D01*
X14710000Y9741422D02*
X14710000Y10258578D01*
X13290000Y9741422D02*
X13290000Y10258578D01*
X26710000Y33741422D02*
X26710000Y34258578D01*
X25290000Y33741422D02*
X25290000Y34258578D01*
X14710000Y33741422D02*
X14710000Y34258578D01*
X13290000Y33741422D02*
X13290000Y34258578D01*
X25290000Y10258578D02*
X25290000Y9741422D01*
X26710000Y10258578D02*
X26710000Y9741422D01*
X34258578Y29710000D02*
X33741422Y29710000D01*
X34258578Y28290000D02*
X33741422Y28290000D01*
X34258578Y11710000D02*
X33741422Y11710000D01*
X34258578Y10290000D02*
X33741422Y10290000D01*
X12040000Y24508578D02*
X12040000Y23991422D01*
X13460000Y24508578D02*
X13460000Y23991422D01*
X9290000Y10258578D02*
X9290000Y9741422D01*
X10710000Y10258578D02*
X10710000Y9741422D01*
D12*
X31523809Y27023809D02*
X31523809Y26547619D01*
X31190476Y27547619D02*
X31523809Y27023809D01*
X31857142Y27547619D01*
X32714285Y26547619D02*
X32142857Y26547619D01*
X32428571Y26547619D02*
X32428571Y27547619D01*
X32333333Y27404761D01*
X32238095Y27309523D01*
X32142857Y27261904D01*
X3761904Y29307619D02*
X3428571Y29783809D01*
X3190476Y29307619D02*
X3190476Y30307619D01*
X3571428Y30307619D01*
X3666666Y30260000D01*
X3714285Y30212380D01*
X3761904Y30117142D01*
X3761904Y29974285D01*
X3714285Y29879047D01*
X3666666Y29831428D01*
X3571428Y29783809D01*
X3190476Y29783809D01*
X4571428Y29355238D02*
X4476190Y29307619D01*
X4285714Y29307619D01*
X4190476Y29355238D01*
X4142857Y29450476D01*
X4142857Y29831428D01*
X4190476Y29926666D01*
X4285714Y29974285D01*
X4476190Y29974285D01*
X4571428Y29926666D01*
X4619047Y29831428D01*
X4619047Y29736190D01*
X4142857Y29640952D01*
X5000000Y29355238D02*
X5095238Y29307619D01*
X5285714Y29307619D01*
X5380952Y29355238D01*
X5428571Y29450476D01*
X5428571Y29498095D01*
X5380952Y29593333D01*
X5285714Y29640952D01*
X5142857Y29640952D01*
X5047619Y29688571D01*
X5000000Y29783809D01*
X5000000Y29831428D01*
X5047619Y29926666D01*
X5142857Y29974285D01*
X5285714Y29974285D01*
X5380952Y29926666D01*
X6238095Y29355238D02*
X6142857Y29307619D01*
X5952380Y29307619D01*
X5857142Y29355238D01*
X5809523Y29450476D01*
X5809523Y29831428D01*
X5857142Y29926666D01*
X5952380Y29974285D01*
X6142857Y29974285D01*
X6238095Y29926666D01*
X6285714Y29831428D01*
X6285714Y29736190D01*
X5809523Y29640952D01*
X6571428Y29974285D02*
X6952380Y29974285D01*
X6714285Y30307619D02*
X6714285Y29450476D01*
X6761904Y29355238D01*
X6857142Y29307619D01*
X6952380Y29307619D01*
X21833333Y36047619D02*
X21500000Y36523809D01*
X21261904Y36047619D02*
X21261904Y37047619D01*
X21642857Y37047619D01*
X21738095Y37000000D01*
X21785714Y36952380D01*
X21833333Y36857142D01*
X21833333Y36714285D01*
X21785714Y36619047D01*
X21738095Y36571428D01*
X21642857Y36523809D01*
X21261904Y36523809D01*
X22690476Y37047619D02*
X22500000Y37047619D01*
X22404761Y37000000D01*
X22357142Y36952380D01*
X22261904Y36809523D01*
X22214285Y36619047D01*
X22214285Y36238095D01*
X22261904Y36142857D01*
X22309523Y36095238D01*
X22404761Y36047619D01*
X22595238Y36047619D01*
X22690476Y36095238D01*
X22738095Y36142857D01*
X22785714Y36238095D01*
X22785714Y36476190D01*
X22738095Y36571428D01*
X22690476Y36619047D01*
X22595238Y36666666D01*
X22404761Y36666666D01*
X22309523Y36619047D01*
X22261904Y36571428D01*
X22214285Y36476190D01*
X20595238Y31952380D02*
X20642857Y32000000D01*
X20738095Y32047619D01*
X20976190Y32047619D01*
X21071428Y32000000D01*
X21119047Y31952380D01*
X21166666Y31857142D01*
X21166666Y31761904D01*
X21119047Y31619047D01*
X20547619Y31047619D01*
X21166666Y31047619D01*
X21595238Y31142857D02*
X21642857Y31095238D01*
X21595238Y31047619D01*
X21547619Y31095238D01*
X21595238Y31142857D01*
X21595238Y31047619D01*
X22023809Y31952380D02*
X22071428Y32000000D01*
X22166666Y32047619D01*
X22404761Y32047619D01*
X22500000Y32000000D01*
X22547619Y31952380D01*
X22595238Y31857142D01*
X22595238Y31761904D01*
X22547619Y31619047D01*
X21976190Y31047619D01*
X22595238Y31047619D01*
X23023809Y31047619D02*
X23023809Y32047619D01*
X23119047Y31428571D02*
X23404761Y31047619D01*
X23404761Y31714285D02*
X23023809Y31333333D01*
X17833333Y36047619D02*
X17500000Y36523809D01*
X17261904Y36047619D02*
X17261904Y37047619D01*
X17642857Y37047619D01*
X17738095Y37000000D01*
X17785714Y36952380D01*
X17833333Y36857142D01*
X17833333Y36714285D01*
X17785714Y36619047D01*
X17738095Y36571428D01*
X17642857Y36523809D01*
X17261904Y36523809D01*
X18738095Y37047619D02*
X18261904Y37047619D01*
X18214285Y36571428D01*
X18261904Y36619047D01*
X18357142Y36666666D01*
X18595238Y36666666D01*
X18690476Y36619047D01*
X18738095Y36571428D01*
X18785714Y36476190D01*
X18785714Y36238095D01*
X18738095Y36142857D01*
X18690476Y36095238D01*
X18595238Y36047619D01*
X18357142Y36047619D01*
X18261904Y36095238D01*
X18214285Y36142857D01*
X16595238Y31952380D02*
X16642857Y32000000D01*
X16738095Y32047619D01*
X16976190Y32047619D01*
X17071428Y32000000D01*
X17119047Y31952380D01*
X17166666Y31857142D01*
X17166666Y31761904D01*
X17119047Y31619047D01*
X16547619Y31047619D01*
X17166666Y31047619D01*
X17595238Y31142857D02*
X17642857Y31095238D01*
X17595238Y31047619D01*
X17547619Y31095238D01*
X17595238Y31142857D01*
X17595238Y31047619D01*
X18023809Y31952380D02*
X18071428Y32000000D01*
X18166666Y32047619D01*
X18404761Y32047619D01*
X18500000Y32000000D01*
X18547619Y31952380D01*
X18595238Y31857142D01*
X18595238Y31761904D01*
X18547619Y31619047D01*
X17976190Y31047619D01*
X18595238Y31047619D01*
X19023809Y31047619D02*
X19023809Y32047619D01*
X19119047Y31428571D02*
X19404761Y31047619D01*
X19404761Y31714285D02*
X19023809Y31333333D01*
X4833333Y17197619D02*
X4500000Y17673809D01*
X4261904Y17197619D02*
X4261904Y18197619D01*
X4642857Y18197619D01*
X4738095Y18150000D01*
X4785714Y18102380D01*
X4833333Y18007142D01*
X4833333Y17864285D01*
X4785714Y17769047D01*
X4738095Y17721428D01*
X4642857Y17673809D01*
X4261904Y17673809D01*
X5690476Y17864285D02*
X5690476Y17197619D01*
X5452380Y18245238D02*
X5214285Y17530952D01*
X5833333Y17530952D01*
X4404761Y13897619D02*
X3833333Y13897619D01*
X4119047Y13897619D02*
X4119047Y14897619D01*
X4023809Y14754761D01*
X3928571Y14659523D01*
X3833333Y14611904D01*
X5023809Y14897619D02*
X5119047Y14897619D01*
X5214285Y14850000D01*
X5261904Y14802380D01*
X5309523Y14707142D01*
X5357142Y14516666D01*
X5357142Y14278571D01*
X5309523Y14088095D01*
X5261904Y13992857D01*
X5214285Y13945238D01*
X5119047Y13897619D01*
X5023809Y13897619D01*
X4928571Y13945238D01*
X4880952Y13992857D01*
X4833333Y14088095D01*
X4785714Y14278571D01*
X4785714Y14516666D01*
X4833333Y14707142D01*
X4880952Y14802380D01*
X4928571Y14850000D01*
X5023809Y14897619D01*
X5785714Y13897619D02*
X5785714Y14897619D01*
X5880952Y14278571D02*
X6166666Y13897619D01*
X6166666Y14564285D02*
X5785714Y14183333D01*
X16833333Y8547619D02*
X16500000Y9023809D01*
X16261904Y8547619D02*
X16261904Y9547619D01*
X16642857Y9547619D01*
X16738095Y9500000D01*
X16785714Y9452380D01*
X16833333Y9357142D01*
X16833333Y9214285D01*
X16785714Y9119047D01*
X16738095Y9071428D01*
X16642857Y9023809D01*
X16261904Y9023809D01*
X17214285Y9452380D02*
X17261904Y9500000D01*
X17357142Y9547619D01*
X17595238Y9547619D01*
X17690476Y9500000D01*
X17738095Y9452380D01*
X17785714Y9357142D01*
X17785714Y9261904D01*
X17738095Y9119047D01*
X17166666Y8547619D01*
X17785714Y8547619D01*
X16238095Y7952380D02*
X16285714Y8000000D01*
X16380952Y8047619D01*
X16619047Y8047619D01*
X16714285Y8000000D01*
X16761904Y7952380D01*
X16809523Y7857142D01*
X16809523Y7761904D01*
X16761904Y7619047D01*
X16190476Y7047619D01*
X16809523Y7047619D01*
X17190476Y7952380D02*
X17238095Y8000000D01*
X17333333Y8047619D01*
X17571428Y8047619D01*
X17666666Y8000000D01*
X17714285Y7952380D01*
X17761904Y7857142D01*
X17761904Y7761904D01*
X17714285Y7619047D01*
X17142857Y7047619D01*
X17761904Y7047619D01*
X18761904Y7047619D02*
X18428571Y7523809D01*
X18190476Y7047619D02*
X18190476Y8047619D01*
X18571428Y8047619D01*
X18666666Y8000000D01*
X18714285Y7952380D01*
X18761904Y7857142D01*
X18761904Y7714285D01*
X18714285Y7619047D01*
X18666666Y7571428D01*
X18571428Y7523809D01*
X18190476Y7523809D01*
X22833333Y8547619D02*
X22500000Y9023809D01*
X22261904Y8547619D02*
X22261904Y9547619D01*
X22642857Y9547619D01*
X22738095Y9500000D01*
X22785714Y9452380D01*
X22833333Y9357142D01*
X22833333Y9214285D01*
X22785714Y9119047D01*
X22738095Y9071428D01*
X22642857Y9023809D01*
X22261904Y9023809D01*
X23785714Y8547619D02*
X23214285Y8547619D01*
X23500000Y8547619D02*
X23500000Y9547619D01*
X23404761Y9404761D01*
X23309523Y9309523D01*
X23214285Y9261904D01*
X21238095Y7952380D02*
X21285714Y8000000D01*
X21380952Y8047619D01*
X21619047Y8047619D01*
X21714285Y8000000D01*
X21761904Y7952380D01*
X21809523Y7857142D01*
X21809523Y7761904D01*
X21761904Y7619047D01*
X21190476Y7047619D01*
X21809523Y7047619D01*
X22190476Y7952380D02*
X22238095Y8000000D01*
X22333333Y8047619D01*
X22571428Y8047619D01*
X22666666Y8000000D01*
X22714285Y7952380D01*
X22761904Y7857142D01*
X22761904Y7761904D01*
X22714285Y7619047D01*
X22142857Y7047619D01*
X22761904Y7047619D01*
X23761904Y7047619D02*
X23428571Y7523809D01*
X23190476Y7047619D02*
X23190476Y8047619D01*
X23571428Y8047619D01*
X23666666Y8000000D01*
X23714285Y7952380D01*
X23761904Y7857142D01*
X23761904Y7714285D01*
X23714285Y7619047D01*
X23666666Y7571428D01*
X23571428Y7523809D01*
X23190476Y7523809D01*
X25166666Y2847619D02*
X25166666Y2133333D01*
X25119047Y1990476D01*
X25023809Y1895238D01*
X24880952Y1847619D01*
X24785714Y1847619D01*
X26166666Y1847619D02*
X25595238Y1847619D01*
X25880952Y1847619D02*
X25880952Y2847619D01*
X25785714Y2704761D01*
X25690476Y2609523D01*
X25595238Y2561904D01*
X11916666Y11071428D02*
X11583333Y11071428D01*
X11583333Y10547619D02*
X11583333Y11547619D01*
X12059523Y11547619D01*
X12964285Y10547619D02*
X12392857Y10547619D01*
X12678571Y10547619D02*
X12678571Y11547619D01*
X12583333Y11404761D01*
X12488095Y11309523D01*
X12392857Y11261904D01*
X25833333Y36142857D02*
X25785714Y36095238D01*
X25642857Y36047619D01*
X25547619Y36047619D01*
X25404761Y36095238D01*
X25309523Y36190476D01*
X25261904Y36285714D01*
X25214285Y36476190D01*
X25214285Y36619047D01*
X25261904Y36809523D01*
X25309523Y36904761D01*
X25404761Y37000000D01*
X25547619Y37047619D01*
X25642857Y37047619D01*
X25785714Y37000000D01*
X25833333Y36952380D01*
X26166666Y37047619D02*
X26833333Y37047619D01*
X26404761Y36047619D01*
X24547619Y31952380D02*
X24595238Y32000000D01*
X24690476Y32047619D01*
X24928571Y32047619D01*
X25023809Y32000000D01*
X25071428Y31952380D01*
X25119047Y31857142D01*
X25119047Y31761904D01*
X25071428Y31619047D01*
X24500000Y31047619D01*
X25119047Y31047619D01*
X25547619Y31142857D02*
X25595238Y31095238D01*
X25547619Y31047619D01*
X25500000Y31095238D01*
X25547619Y31142857D01*
X25547619Y31047619D01*
X25976190Y31952380D02*
X26023809Y32000000D01*
X26119047Y32047619D01*
X26357142Y32047619D01*
X26452380Y32000000D01*
X26500000Y31952380D01*
X26547619Y31857142D01*
X26547619Y31761904D01*
X26500000Y31619047D01*
X25928571Y31047619D01*
X26547619Y31047619D01*
X26976190Y31714285D02*
X26976190Y31047619D01*
X26976190Y31619047D02*
X27023809Y31666666D01*
X27119047Y31714285D01*
X27261904Y31714285D01*
X27357142Y31666666D01*
X27404761Y31571428D01*
X27404761Y31047619D01*
X13833333Y36142857D02*
X13785714Y36095238D01*
X13642857Y36047619D01*
X13547619Y36047619D01*
X13404761Y36095238D01*
X13309523Y36190476D01*
X13261904Y36285714D01*
X13214285Y36476190D01*
X13214285Y36619047D01*
X13261904Y36809523D01*
X13309523Y36904761D01*
X13404761Y37000000D01*
X13547619Y37047619D01*
X13642857Y37047619D01*
X13785714Y37000000D01*
X13833333Y36952380D01*
X14690476Y37047619D02*
X14500000Y37047619D01*
X14404761Y37000000D01*
X14357142Y36952380D01*
X14261904Y36809523D01*
X14214285Y36619047D01*
X14214285Y36238095D01*
X14261904Y36142857D01*
X14309523Y36095238D01*
X14404761Y36047619D01*
X14595238Y36047619D01*
X14690476Y36095238D01*
X14738095Y36142857D01*
X14785714Y36238095D01*
X14785714Y36476190D01*
X14738095Y36571428D01*
X14690476Y36619047D01*
X14595238Y36666666D01*
X14404761Y36666666D01*
X14309523Y36619047D01*
X14261904Y36571428D01*
X14214285Y36476190D01*
X12547619Y31952380D02*
X12595238Y32000000D01*
X12690476Y32047619D01*
X12928571Y32047619D01*
X13023809Y32000000D01*
X13071428Y31952380D01*
X13119047Y31857142D01*
X13119047Y31761904D01*
X13071428Y31619047D01*
X12500000Y31047619D01*
X13119047Y31047619D01*
X13547619Y31142857D02*
X13595238Y31095238D01*
X13547619Y31047619D01*
X13500000Y31095238D01*
X13547619Y31142857D01*
X13547619Y31047619D01*
X13976190Y31952380D02*
X14023809Y32000000D01*
X14119047Y32047619D01*
X14357142Y32047619D01*
X14452380Y32000000D01*
X14500000Y31952380D01*
X14547619Y31857142D01*
X14547619Y31761904D01*
X14500000Y31619047D01*
X13928571Y31047619D01*
X14547619Y31047619D01*
X14976190Y31714285D02*
X14976190Y31047619D01*
X14976190Y31619047D02*
X15023809Y31666666D01*
X15119047Y31714285D01*
X15261904Y31714285D01*
X15357142Y31666666D01*
X15404761Y31571428D01*
X15404761Y31047619D01*
X27933333Y10742857D02*
X27885714Y10695238D01*
X27742857Y10647619D01*
X27647619Y10647619D01*
X27504761Y10695238D01*
X27409523Y10790476D01*
X27361904Y10885714D01*
X27314285Y11076190D01*
X27314285Y11219047D01*
X27361904Y11409523D01*
X27409523Y11504761D01*
X27504761Y11600000D01*
X27647619Y11647619D01*
X27742857Y11647619D01*
X27885714Y11600000D01*
X27933333Y11552380D01*
X28838095Y11647619D02*
X28361904Y11647619D01*
X28314285Y11171428D01*
X28361904Y11219047D01*
X28457142Y11266666D01*
X28695238Y11266666D01*
X28790476Y11219047D01*
X28838095Y11171428D01*
X28885714Y11076190D01*
X28885714Y10838095D01*
X28838095Y10742857D01*
X28790476Y10695238D01*
X28695238Y10647619D01*
X28457142Y10647619D01*
X28361904Y10695238D01*
X28314285Y10742857D01*
X27933333Y8847619D02*
X27361904Y8847619D01*
X27647619Y8847619D02*
X27647619Y9847619D01*
X27552380Y9704761D01*
X27457142Y9609523D01*
X27361904Y9561904D01*
X28790476Y9514285D02*
X28790476Y8847619D01*
X28361904Y9514285D02*
X28361904Y8990476D01*
X28409523Y8895238D01*
X28504761Y8847619D01*
X28647619Y8847619D01*
X28742857Y8895238D01*
X28790476Y8942857D01*
X32333333Y30242857D02*
X32285714Y30195238D01*
X32142857Y30147619D01*
X32047619Y30147619D01*
X31904761Y30195238D01*
X31809523Y30290476D01*
X31761904Y30385714D01*
X31714285Y30576190D01*
X31714285Y30719047D01*
X31761904Y30909523D01*
X31809523Y31004761D01*
X31904761Y31100000D01*
X32047619Y31147619D01*
X32142857Y31147619D01*
X32285714Y31100000D01*
X32333333Y31052380D01*
X33190476Y30814285D02*
X33190476Y30147619D01*
X32952380Y31195238D02*
X32714285Y30480952D01*
X33333333Y30480952D01*
X34785714Y31052380D02*
X34833333Y31100000D01*
X34928571Y31147619D01*
X35166666Y31147619D01*
X35261904Y31100000D01*
X35309523Y31052380D01*
X35357142Y30957142D01*
X35357142Y30861904D01*
X35309523Y30719047D01*
X34738095Y30147619D01*
X35357142Y30147619D01*
X35738095Y31052380D02*
X35785714Y31100000D01*
X35880952Y31147619D01*
X36119047Y31147619D01*
X36214285Y31100000D01*
X36261904Y31052380D01*
X36309523Y30957142D01*
X36309523Y30861904D01*
X36261904Y30719047D01*
X35690476Y30147619D01*
X36309523Y30147619D01*
X36738095Y30814285D02*
X36738095Y29814285D01*
X36738095Y30766666D02*
X36833333Y30814285D01*
X37023809Y30814285D01*
X37119047Y30766666D01*
X37166666Y30719047D01*
X37214285Y30623809D01*
X37214285Y30338095D01*
X37166666Y30242857D01*
X37119047Y30195238D01*
X37023809Y30147619D01*
X36833333Y30147619D01*
X36738095Y30195238D01*
X32333333Y9042857D02*
X32285714Y8995238D01*
X32142857Y8947619D01*
X32047619Y8947619D01*
X31904761Y8995238D01*
X31809523Y9090476D01*
X31761904Y9185714D01*
X31714285Y9376190D01*
X31714285Y9519047D01*
X31761904Y9709523D01*
X31809523Y9804761D01*
X31904761Y9900000D01*
X32047619Y9947619D01*
X32142857Y9947619D01*
X32285714Y9900000D01*
X32333333Y9852380D01*
X32666666Y9947619D02*
X33285714Y9947619D01*
X32952380Y9566666D01*
X33095238Y9566666D01*
X33190476Y9519047D01*
X33238095Y9471428D01*
X33285714Y9376190D01*
X33285714Y9138095D01*
X33238095Y9042857D01*
X33190476Y8995238D01*
X33095238Y8947619D01*
X32809523Y8947619D01*
X32714285Y8995238D01*
X32666666Y9042857D01*
X34785714Y9852380D02*
X34833333Y9900000D01*
X34928571Y9947619D01*
X35166666Y9947619D01*
X35261904Y9900000D01*
X35309523Y9852380D01*
X35357142Y9757142D01*
X35357142Y9661904D01*
X35309523Y9519047D01*
X34738095Y8947619D01*
X35357142Y8947619D01*
X35738095Y9852380D02*
X35785714Y9900000D01*
X35880952Y9947619D01*
X36119047Y9947619D01*
X36214285Y9900000D01*
X36261904Y9852380D01*
X36309523Y9757142D01*
X36309523Y9661904D01*
X36261904Y9519047D01*
X35690476Y8947619D01*
X36309523Y8947619D01*
X36738095Y9614285D02*
X36738095Y8614285D01*
X36738095Y9566666D02*
X36833333Y9614285D01*
X37023809Y9614285D01*
X37119047Y9566666D01*
X37166666Y9519047D01*
X37214285Y9423809D01*
X37214285Y9138095D01*
X37166666Y9042857D01*
X37119047Y8995238D01*
X37023809Y8947619D01*
X36833333Y8947619D01*
X36738095Y8995238D01*
X12533333Y21342857D02*
X12485714Y21295238D01*
X12342857Y21247619D01*
X12247619Y21247619D01*
X12104761Y21295238D01*
X12009523Y21390476D01*
X11961904Y21485714D01*
X11914285Y21676190D01*
X11914285Y21819047D01*
X11961904Y22009523D01*
X12009523Y22104761D01*
X12104761Y22200000D01*
X12247619Y22247619D01*
X12342857Y22247619D01*
X12485714Y22200000D01*
X12533333Y22152380D01*
X12914285Y22152380D02*
X12961904Y22200000D01*
X13057142Y22247619D01*
X13295238Y22247619D01*
X13390476Y22200000D01*
X13438095Y22152380D01*
X13485714Y22057142D01*
X13485714Y21961904D01*
X13438095Y21819047D01*
X12866666Y21247619D01*
X13485714Y21247619D01*
X10852380Y26247619D02*
X10280952Y26247619D01*
X10566666Y26247619D02*
X10566666Y27247619D01*
X10471428Y27104761D01*
X10376190Y27009523D01*
X10280952Y26961904D01*
X11471428Y27247619D02*
X11566666Y27247619D01*
X11661904Y27200000D01*
X11709523Y27152380D01*
X11757142Y27057142D01*
X11804761Y26866666D01*
X11804761Y26628571D01*
X11757142Y26438095D01*
X11709523Y26342857D01*
X11661904Y26295238D01*
X11566666Y26247619D01*
X11471428Y26247619D01*
X11376190Y26295238D01*
X11328571Y26342857D01*
X11280952Y26438095D01*
X11233333Y26628571D01*
X11233333Y26866666D01*
X11280952Y27057142D01*
X11328571Y27152380D01*
X11376190Y27200000D01*
X11471428Y27247619D01*
X12423809Y27247619D02*
X12519047Y27247619D01*
X12614285Y27200000D01*
X12661904Y27152380D01*
X12709523Y27057142D01*
X12757142Y26866666D01*
X12757142Y26628571D01*
X12709523Y26438095D01*
X12661904Y26342857D01*
X12614285Y26295238D01*
X12519047Y26247619D01*
X12423809Y26247619D01*
X12328571Y26295238D01*
X12280952Y26342857D01*
X12233333Y26438095D01*
X12185714Y26628571D01*
X12185714Y26866666D01*
X12233333Y27057142D01*
X12280952Y27152380D01*
X12328571Y27200000D01*
X12423809Y27247619D01*
X13185714Y26914285D02*
X13185714Y26247619D01*
X13185714Y26819047D02*
X13233333Y26866666D01*
X13328571Y26914285D01*
X13471428Y26914285D01*
X13566666Y26866666D01*
X13614285Y26771428D01*
X13614285Y26247619D01*
X14423809Y26771428D02*
X14090476Y26771428D01*
X14090476Y26247619D02*
X14090476Y27247619D01*
X14566666Y27247619D01*
X7833333Y10642857D02*
X7785714Y10595238D01*
X7642857Y10547619D01*
X7547619Y10547619D01*
X7404761Y10595238D01*
X7309523Y10690476D01*
X7261904Y10785714D01*
X7214285Y10976190D01*
X7214285Y11119047D01*
X7261904Y11309523D01*
X7309523Y11404761D01*
X7404761Y11500000D01*
X7547619Y11547619D01*
X7642857Y11547619D01*
X7785714Y11500000D01*
X7833333Y11452380D01*
X8785714Y10547619D02*
X8214285Y10547619D01*
X8500000Y10547619D02*
X8500000Y11547619D01*
X8404761Y11404761D01*
X8309523Y11309523D01*
X8214285Y11261904D01*
X6178571Y9047619D02*
X5607142Y9047619D01*
X5892857Y9047619D02*
X5892857Y10047619D01*
X5797619Y9904761D01*
X5702380Y9809523D01*
X5607142Y9761904D01*
X6797619Y10047619D02*
X6892857Y10047619D01*
X6988095Y10000000D01*
X7035714Y9952380D01*
X7083333Y9857142D01*
X7130952Y9666666D01*
X7130952Y9428571D01*
X7083333Y9238095D01*
X7035714Y9142857D01*
X6988095Y9095238D01*
X6892857Y9047619D01*
X6797619Y9047619D01*
X6702380Y9095238D01*
X6654761Y9142857D01*
X6607142Y9238095D01*
X6559523Y9428571D01*
X6559523Y9666666D01*
X6607142Y9857142D01*
X6654761Y9952380D01*
X6702380Y10000000D01*
X6797619Y10047619D01*
X7988095Y9714285D02*
X7988095Y9047619D01*
X7559523Y9714285D02*
X7559523Y9190476D01*
X7607142Y9095238D01*
X7702380Y9047619D01*
X7845238Y9047619D01*
X7940476Y9095238D01*
X7988095Y9142857D01*
X8797619Y9571428D02*
X8464285Y9571428D01*
X8464285Y9047619D02*
X8464285Y10047619D01*
X8940476Y10047619D01*
M02*
