G04 #@! TF.GenerationSoftware,KiCad,Pcbnew,5.1.4+dfsg1-1*
G04 #@! TF.CreationDate,2020-03-06T15:50:39+01:00*
G04 #@! TF.ProjectId,sidewinder-usb,73696465-7769-46e6-9465-722d7573622e,rev?*
G04 #@! TF.SameCoordinates,Original*
G04 #@! TF.FileFunction,Paste,Top*
G04 #@! TF.FilePolarity,Positive*
%FSLAX46Y46*%
G04 Gerber Fmt 4.6, Leading zero omitted, Abs format (unit mm)*
G04 Created by KiCad (PCBNEW 5.1.4+dfsg1-1) date 2020-03-06 15:50:39*
%MOMM*%
%LPD*%
G04 APERTURE LIST*
%ADD10R,2.000000X4.500000*%
%ADD11R,1.500000X0.550000*%
%ADD12R,0.550000X1.500000*%
%ADD13R,1.300000X1.550000*%
%ADD14C,0.100000*%
%ADD15C,0.975000*%
%ADD16R,1.500000X1.900000*%
%ADD17R,0.400000X1.350000*%
G04 APERTURE END LIST*
D10*
X34000000Y24250000D03*
X34000000Y15750000D03*
D11*
X16500000Y17000000D03*
X16500000Y17800000D03*
X16500000Y18600000D03*
X16500000Y19400000D03*
X16500000Y20200000D03*
X16500000Y21000000D03*
X16500000Y21800000D03*
X16500000Y22600000D03*
X16500000Y23400000D03*
X16500000Y24200000D03*
X16500000Y25000000D03*
D12*
X18200000Y26700000D03*
X19000000Y26700000D03*
X19800000Y26700000D03*
X20600000Y26700000D03*
X21400000Y26700000D03*
X22200000Y26700000D03*
X23000000Y26700000D03*
X23800000Y26700000D03*
X24600000Y26700000D03*
X25400000Y26700000D03*
X26200000Y26700000D03*
D11*
X27900000Y25000000D03*
X27900000Y24200000D03*
X27900000Y23400000D03*
X27900000Y22600000D03*
X27900000Y21800000D03*
X27900000Y21000000D03*
X27900000Y20200000D03*
X27900000Y19400000D03*
X27900000Y18600000D03*
X27900000Y17800000D03*
X27900000Y17000000D03*
D12*
X26200000Y15300000D03*
X25400000Y15300000D03*
X24600000Y15300000D03*
X23800000Y15300000D03*
X23000000Y15300000D03*
X22200000Y15300000D03*
X21400000Y15300000D03*
X20600000Y15300000D03*
X19800000Y15300000D03*
X19000000Y15300000D03*
X18200000Y15300000D03*
D13*
X2750000Y20025000D03*
X7250000Y20025000D03*
X7250000Y27975000D03*
X2750000Y27975000D03*
D14*
G36*
X22480142Y35423826D02*
G01*
X22503803Y35420316D01*
X22527007Y35414504D01*
X22549529Y35406446D01*
X22571153Y35396218D01*
X22591670Y35383921D01*
X22610883Y35369671D01*
X22628607Y35353607D01*
X22644671Y35335883D01*
X22658921Y35316670D01*
X22671218Y35296153D01*
X22681446Y35274529D01*
X22689504Y35252007D01*
X22695316Y35228803D01*
X22698826Y35205142D01*
X22700000Y35181250D01*
X22700000Y34693750D01*
X22698826Y34669858D01*
X22695316Y34646197D01*
X22689504Y34622993D01*
X22681446Y34600471D01*
X22671218Y34578847D01*
X22658921Y34558330D01*
X22644671Y34539117D01*
X22628607Y34521393D01*
X22610883Y34505329D01*
X22591670Y34491079D01*
X22571153Y34478782D01*
X22549529Y34468554D01*
X22527007Y34460496D01*
X22503803Y34454684D01*
X22480142Y34451174D01*
X22456250Y34450000D01*
X21543750Y34450000D01*
X21519858Y34451174D01*
X21496197Y34454684D01*
X21472993Y34460496D01*
X21450471Y34468554D01*
X21428847Y34478782D01*
X21408330Y34491079D01*
X21389117Y34505329D01*
X21371393Y34521393D01*
X21355329Y34539117D01*
X21341079Y34558330D01*
X21328782Y34578847D01*
X21318554Y34600471D01*
X21310496Y34622993D01*
X21304684Y34646197D01*
X21301174Y34669858D01*
X21300000Y34693750D01*
X21300000Y35181250D01*
X21301174Y35205142D01*
X21304684Y35228803D01*
X21310496Y35252007D01*
X21318554Y35274529D01*
X21328782Y35296153D01*
X21341079Y35316670D01*
X21355329Y35335883D01*
X21371393Y35353607D01*
X21389117Y35369671D01*
X21408330Y35383921D01*
X21428847Y35396218D01*
X21450471Y35406446D01*
X21472993Y35414504D01*
X21496197Y35420316D01*
X21519858Y35423826D01*
X21543750Y35425000D01*
X22456250Y35425000D01*
X22480142Y35423826D01*
X22480142Y35423826D01*
G37*
D15*
X22000000Y34937500D03*
D14*
G36*
X22480142Y33548826D02*
G01*
X22503803Y33545316D01*
X22527007Y33539504D01*
X22549529Y33531446D01*
X22571153Y33521218D01*
X22591670Y33508921D01*
X22610883Y33494671D01*
X22628607Y33478607D01*
X22644671Y33460883D01*
X22658921Y33441670D01*
X22671218Y33421153D01*
X22681446Y33399529D01*
X22689504Y33377007D01*
X22695316Y33353803D01*
X22698826Y33330142D01*
X22700000Y33306250D01*
X22700000Y32818750D01*
X22698826Y32794858D01*
X22695316Y32771197D01*
X22689504Y32747993D01*
X22681446Y32725471D01*
X22671218Y32703847D01*
X22658921Y32683330D01*
X22644671Y32664117D01*
X22628607Y32646393D01*
X22610883Y32630329D01*
X22591670Y32616079D01*
X22571153Y32603782D01*
X22549529Y32593554D01*
X22527007Y32585496D01*
X22503803Y32579684D01*
X22480142Y32576174D01*
X22456250Y32575000D01*
X21543750Y32575000D01*
X21519858Y32576174D01*
X21496197Y32579684D01*
X21472993Y32585496D01*
X21450471Y32593554D01*
X21428847Y32603782D01*
X21408330Y32616079D01*
X21389117Y32630329D01*
X21371393Y32646393D01*
X21355329Y32664117D01*
X21341079Y32683330D01*
X21328782Y32703847D01*
X21318554Y32725471D01*
X21310496Y32747993D01*
X21304684Y32771197D01*
X21301174Y32794858D01*
X21300000Y32818750D01*
X21300000Y33306250D01*
X21301174Y33330142D01*
X21304684Y33353803D01*
X21310496Y33377007D01*
X21318554Y33399529D01*
X21328782Y33421153D01*
X21341079Y33441670D01*
X21355329Y33460883D01*
X21371393Y33478607D01*
X21389117Y33494671D01*
X21408330Y33508921D01*
X21428847Y33521218D01*
X21450471Y33531446D01*
X21472993Y33539504D01*
X21496197Y33545316D01*
X21519858Y33548826D01*
X21543750Y33550000D01*
X22456250Y33550000D01*
X22480142Y33548826D01*
X22480142Y33548826D01*
G37*
D15*
X22000000Y33062500D03*
D14*
G36*
X18480142Y35423826D02*
G01*
X18503803Y35420316D01*
X18527007Y35414504D01*
X18549529Y35406446D01*
X18571153Y35396218D01*
X18591670Y35383921D01*
X18610883Y35369671D01*
X18628607Y35353607D01*
X18644671Y35335883D01*
X18658921Y35316670D01*
X18671218Y35296153D01*
X18681446Y35274529D01*
X18689504Y35252007D01*
X18695316Y35228803D01*
X18698826Y35205142D01*
X18700000Y35181250D01*
X18700000Y34693750D01*
X18698826Y34669858D01*
X18695316Y34646197D01*
X18689504Y34622993D01*
X18681446Y34600471D01*
X18671218Y34578847D01*
X18658921Y34558330D01*
X18644671Y34539117D01*
X18628607Y34521393D01*
X18610883Y34505329D01*
X18591670Y34491079D01*
X18571153Y34478782D01*
X18549529Y34468554D01*
X18527007Y34460496D01*
X18503803Y34454684D01*
X18480142Y34451174D01*
X18456250Y34450000D01*
X17543750Y34450000D01*
X17519858Y34451174D01*
X17496197Y34454684D01*
X17472993Y34460496D01*
X17450471Y34468554D01*
X17428847Y34478782D01*
X17408330Y34491079D01*
X17389117Y34505329D01*
X17371393Y34521393D01*
X17355329Y34539117D01*
X17341079Y34558330D01*
X17328782Y34578847D01*
X17318554Y34600471D01*
X17310496Y34622993D01*
X17304684Y34646197D01*
X17301174Y34669858D01*
X17300000Y34693750D01*
X17300000Y35181250D01*
X17301174Y35205142D01*
X17304684Y35228803D01*
X17310496Y35252007D01*
X17318554Y35274529D01*
X17328782Y35296153D01*
X17341079Y35316670D01*
X17355329Y35335883D01*
X17371393Y35353607D01*
X17389117Y35369671D01*
X17408330Y35383921D01*
X17428847Y35396218D01*
X17450471Y35406446D01*
X17472993Y35414504D01*
X17496197Y35420316D01*
X17519858Y35423826D01*
X17543750Y35425000D01*
X18456250Y35425000D01*
X18480142Y35423826D01*
X18480142Y35423826D01*
G37*
D15*
X18000000Y34937500D03*
D14*
G36*
X18480142Y33548826D02*
G01*
X18503803Y33545316D01*
X18527007Y33539504D01*
X18549529Y33531446D01*
X18571153Y33521218D01*
X18591670Y33508921D01*
X18610883Y33494671D01*
X18628607Y33478607D01*
X18644671Y33460883D01*
X18658921Y33441670D01*
X18671218Y33421153D01*
X18681446Y33399529D01*
X18689504Y33377007D01*
X18695316Y33353803D01*
X18698826Y33330142D01*
X18700000Y33306250D01*
X18700000Y32818750D01*
X18698826Y32794858D01*
X18695316Y32771197D01*
X18689504Y32747993D01*
X18681446Y32725471D01*
X18671218Y32703847D01*
X18658921Y32683330D01*
X18644671Y32664117D01*
X18628607Y32646393D01*
X18610883Y32630329D01*
X18591670Y32616079D01*
X18571153Y32603782D01*
X18549529Y32593554D01*
X18527007Y32585496D01*
X18503803Y32579684D01*
X18480142Y32576174D01*
X18456250Y32575000D01*
X17543750Y32575000D01*
X17519858Y32576174D01*
X17496197Y32579684D01*
X17472993Y32585496D01*
X17450471Y32593554D01*
X17428847Y32603782D01*
X17408330Y32616079D01*
X17389117Y32630329D01*
X17371393Y32646393D01*
X17355329Y32664117D01*
X17341079Y32683330D01*
X17328782Y32703847D01*
X17318554Y32725471D01*
X17310496Y32747993D01*
X17304684Y32771197D01*
X17301174Y32794858D01*
X17300000Y32818750D01*
X17300000Y33306250D01*
X17301174Y33330142D01*
X17304684Y33353803D01*
X17310496Y33377007D01*
X17318554Y33399529D01*
X17328782Y33421153D01*
X17341079Y33441670D01*
X17355329Y33460883D01*
X17371393Y33478607D01*
X17389117Y33494671D01*
X17408330Y33508921D01*
X17428847Y33521218D01*
X17450471Y33531446D01*
X17472993Y33539504D01*
X17496197Y33545316D01*
X17519858Y33548826D01*
X17543750Y33550000D01*
X18456250Y33550000D01*
X18480142Y33548826D01*
X18480142Y33548826D01*
G37*
D15*
X18000000Y33062500D03*
D14*
G36*
X6205142Y16698826D02*
G01*
X6228803Y16695316D01*
X6252007Y16689504D01*
X6274529Y16681446D01*
X6296153Y16671218D01*
X6316670Y16658921D01*
X6335883Y16644671D01*
X6353607Y16628607D01*
X6369671Y16610883D01*
X6383921Y16591670D01*
X6396218Y16571153D01*
X6406446Y16549529D01*
X6414504Y16527007D01*
X6420316Y16503803D01*
X6423826Y16480142D01*
X6425000Y16456250D01*
X6425000Y15543750D01*
X6423826Y15519858D01*
X6420316Y15496197D01*
X6414504Y15472993D01*
X6406446Y15450471D01*
X6396218Y15428847D01*
X6383921Y15408330D01*
X6369671Y15389117D01*
X6353607Y15371393D01*
X6335883Y15355329D01*
X6316670Y15341079D01*
X6296153Y15328782D01*
X6274529Y15318554D01*
X6252007Y15310496D01*
X6228803Y15304684D01*
X6205142Y15301174D01*
X6181250Y15300000D01*
X5693750Y15300000D01*
X5669858Y15301174D01*
X5646197Y15304684D01*
X5622993Y15310496D01*
X5600471Y15318554D01*
X5578847Y15328782D01*
X5558330Y15341079D01*
X5539117Y15355329D01*
X5521393Y15371393D01*
X5505329Y15389117D01*
X5491079Y15408330D01*
X5478782Y15428847D01*
X5468554Y15450471D01*
X5460496Y15472993D01*
X5454684Y15496197D01*
X5451174Y15519858D01*
X5450000Y15543750D01*
X5450000Y16456250D01*
X5451174Y16480142D01*
X5454684Y16503803D01*
X5460496Y16527007D01*
X5468554Y16549529D01*
X5478782Y16571153D01*
X5491079Y16591670D01*
X5505329Y16610883D01*
X5521393Y16628607D01*
X5539117Y16644671D01*
X5558330Y16658921D01*
X5578847Y16671218D01*
X5600471Y16681446D01*
X5622993Y16689504D01*
X5646197Y16695316D01*
X5669858Y16698826D01*
X5693750Y16700000D01*
X6181250Y16700000D01*
X6205142Y16698826D01*
X6205142Y16698826D01*
G37*
D15*
X5937500Y16000000D03*
D14*
G36*
X4330142Y16698826D02*
G01*
X4353803Y16695316D01*
X4377007Y16689504D01*
X4399529Y16681446D01*
X4421153Y16671218D01*
X4441670Y16658921D01*
X4460883Y16644671D01*
X4478607Y16628607D01*
X4494671Y16610883D01*
X4508921Y16591670D01*
X4521218Y16571153D01*
X4531446Y16549529D01*
X4539504Y16527007D01*
X4545316Y16503803D01*
X4548826Y16480142D01*
X4550000Y16456250D01*
X4550000Y15543750D01*
X4548826Y15519858D01*
X4545316Y15496197D01*
X4539504Y15472993D01*
X4531446Y15450471D01*
X4521218Y15428847D01*
X4508921Y15408330D01*
X4494671Y15389117D01*
X4478607Y15371393D01*
X4460883Y15355329D01*
X4441670Y15341079D01*
X4421153Y15328782D01*
X4399529Y15318554D01*
X4377007Y15310496D01*
X4353803Y15304684D01*
X4330142Y15301174D01*
X4306250Y15300000D01*
X3818750Y15300000D01*
X3794858Y15301174D01*
X3771197Y15304684D01*
X3747993Y15310496D01*
X3725471Y15318554D01*
X3703847Y15328782D01*
X3683330Y15341079D01*
X3664117Y15355329D01*
X3646393Y15371393D01*
X3630329Y15389117D01*
X3616079Y15408330D01*
X3603782Y15428847D01*
X3593554Y15450471D01*
X3585496Y15472993D01*
X3579684Y15496197D01*
X3576174Y15519858D01*
X3575000Y15543750D01*
X3575000Y16456250D01*
X3576174Y16480142D01*
X3579684Y16503803D01*
X3585496Y16527007D01*
X3593554Y16549529D01*
X3603782Y16571153D01*
X3616079Y16591670D01*
X3630329Y16610883D01*
X3646393Y16628607D01*
X3664117Y16644671D01*
X3683330Y16658921D01*
X3703847Y16671218D01*
X3725471Y16681446D01*
X3747993Y16689504D01*
X3771197Y16695316D01*
X3794858Y16698826D01*
X3818750Y16700000D01*
X4306250Y16700000D01*
X4330142Y16698826D01*
X4330142Y16698826D01*
G37*
D15*
X4062500Y16000000D03*
D14*
G36*
X19480142Y9548826D02*
G01*
X19503803Y9545316D01*
X19527007Y9539504D01*
X19549529Y9531446D01*
X19571153Y9521218D01*
X19591670Y9508921D01*
X19610883Y9494671D01*
X19628607Y9478607D01*
X19644671Y9460883D01*
X19658921Y9441670D01*
X19671218Y9421153D01*
X19681446Y9399529D01*
X19689504Y9377007D01*
X19695316Y9353803D01*
X19698826Y9330142D01*
X19700000Y9306250D01*
X19700000Y8818750D01*
X19698826Y8794858D01*
X19695316Y8771197D01*
X19689504Y8747993D01*
X19681446Y8725471D01*
X19671218Y8703847D01*
X19658921Y8683330D01*
X19644671Y8664117D01*
X19628607Y8646393D01*
X19610883Y8630329D01*
X19591670Y8616079D01*
X19571153Y8603782D01*
X19549529Y8593554D01*
X19527007Y8585496D01*
X19503803Y8579684D01*
X19480142Y8576174D01*
X19456250Y8575000D01*
X18543750Y8575000D01*
X18519858Y8576174D01*
X18496197Y8579684D01*
X18472993Y8585496D01*
X18450471Y8593554D01*
X18428847Y8603782D01*
X18408330Y8616079D01*
X18389117Y8630329D01*
X18371393Y8646393D01*
X18355329Y8664117D01*
X18341079Y8683330D01*
X18328782Y8703847D01*
X18318554Y8725471D01*
X18310496Y8747993D01*
X18304684Y8771197D01*
X18301174Y8794858D01*
X18300000Y8818750D01*
X18300000Y9306250D01*
X18301174Y9330142D01*
X18304684Y9353803D01*
X18310496Y9377007D01*
X18318554Y9399529D01*
X18328782Y9421153D01*
X18341079Y9441670D01*
X18355329Y9460883D01*
X18371393Y9478607D01*
X18389117Y9494671D01*
X18408330Y9508921D01*
X18428847Y9521218D01*
X18450471Y9531446D01*
X18472993Y9539504D01*
X18496197Y9545316D01*
X18519858Y9548826D01*
X18543750Y9550000D01*
X19456250Y9550000D01*
X19480142Y9548826D01*
X19480142Y9548826D01*
G37*
D15*
X19000000Y9062500D03*
D14*
G36*
X19480142Y11423826D02*
G01*
X19503803Y11420316D01*
X19527007Y11414504D01*
X19549529Y11406446D01*
X19571153Y11396218D01*
X19591670Y11383921D01*
X19610883Y11369671D01*
X19628607Y11353607D01*
X19644671Y11335883D01*
X19658921Y11316670D01*
X19671218Y11296153D01*
X19681446Y11274529D01*
X19689504Y11252007D01*
X19695316Y11228803D01*
X19698826Y11205142D01*
X19700000Y11181250D01*
X19700000Y10693750D01*
X19698826Y10669858D01*
X19695316Y10646197D01*
X19689504Y10622993D01*
X19681446Y10600471D01*
X19671218Y10578847D01*
X19658921Y10558330D01*
X19644671Y10539117D01*
X19628607Y10521393D01*
X19610883Y10505329D01*
X19591670Y10491079D01*
X19571153Y10478782D01*
X19549529Y10468554D01*
X19527007Y10460496D01*
X19503803Y10454684D01*
X19480142Y10451174D01*
X19456250Y10450000D01*
X18543750Y10450000D01*
X18519858Y10451174D01*
X18496197Y10454684D01*
X18472993Y10460496D01*
X18450471Y10468554D01*
X18428847Y10478782D01*
X18408330Y10491079D01*
X18389117Y10505329D01*
X18371393Y10521393D01*
X18355329Y10539117D01*
X18341079Y10558330D01*
X18328782Y10578847D01*
X18318554Y10600471D01*
X18310496Y10622993D01*
X18304684Y10646197D01*
X18301174Y10669858D01*
X18300000Y10693750D01*
X18300000Y11181250D01*
X18301174Y11205142D01*
X18304684Y11228803D01*
X18310496Y11252007D01*
X18318554Y11274529D01*
X18328782Y11296153D01*
X18341079Y11316670D01*
X18355329Y11335883D01*
X18371393Y11353607D01*
X18389117Y11369671D01*
X18408330Y11383921D01*
X18428847Y11396218D01*
X18450471Y11406446D01*
X18472993Y11414504D01*
X18496197Y11420316D01*
X18519858Y11423826D01*
X18543750Y11425000D01*
X19456250Y11425000D01*
X19480142Y11423826D01*
X19480142Y11423826D01*
G37*
D15*
X19000000Y10937500D03*
D14*
G36*
X21480142Y9548826D02*
G01*
X21503803Y9545316D01*
X21527007Y9539504D01*
X21549529Y9531446D01*
X21571153Y9521218D01*
X21591670Y9508921D01*
X21610883Y9494671D01*
X21628607Y9478607D01*
X21644671Y9460883D01*
X21658921Y9441670D01*
X21671218Y9421153D01*
X21681446Y9399529D01*
X21689504Y9377007D01*
X21695316Y9353803D01*
X21698826Y9330142D01*
X21700000Y9306250D01*
X21700000Y8818750D01*
X21698826Y8794858D01*
X21695316Y8771197D01*
X21689504Y8747993D01*
X21681446Y8725471D01*
X21671218Y8703847D01*
X21658921Y8683330D01*
X21644671Y8664117D01*
X21628607Y8646393D01*
X21610883Y8630329D01*
X21591670Y8616079D01*
X21571153Y8603782D01*
X21549529Y8593554D01*
X21527007Y8585496D01*
X21503803Y8579684D01*
X21480142Y8576174D01*
X21456250Y8575000D01*
X20543750Y8575000D01*
X20519858Y8576174D01*
X20496197Y8579684D01*
X20472993Y8585496D01*
X20450471Y8593554D01*
X20428847Y8603782D01*
X20408330Y8616079D01*
X20389117Y8630329D01*
X20371393Y8646393D01*
X20355329Y8664117D01*
X20341079Y8683330D01*
X20328782Y8703847D01*
X20318554Y8725471D01*
X20310496Y8747993D01*
X20304684Y8771197D01*
X20301174Y8794858D01*
X20300000Y8818750D01*
X20300000Y9306250D01*
X20301174Y9330142D01*
X20304684Y9353803D01*
X20310496Y9377007D01*
X20318554Y9399529D01*
X20328782Y9421153D01*
X20341079Y9441670D01*
X20355329Y9460883D01*
X20371393Y9478607D01*
X20389117Y9494671D01*
X20408330Y9508921D01*
X20428847Y9521218D01*
X20450471Y9531446D01*
X20472993Y9539504D01*
X20496197Y9545316D01*
X20519858Y9548826D01*
X20543750Y9550000D01*
X21456250Y9550000D01*
X21480142Y9548826D01*
X21480142Y9548826D01*
G37*
D15*
X21000000Y9062500D03*
D14*
G36*
X21480142Y11423826D02*
G01*
X21503803Y11420316D01*
X21527007Y11414504D01*
X21549529Y11406446D01*
X21571153Y11396218D01*
X21591670Y11383921D01*
X21610883Y11369671D01*
X21628607Y11353607D01*
X21644671Y11335883D01*
X21658921Y11316670D01*
X21671218Y11296153D01*
X21681446Y11274529D01*
X21689504Y11252007D01*
X21695316Y11228803D01*
X21698826Y11205142D01*
X21700000Y11181250D01*
X21700000Y10693750D01*
X21698826Y10669858D01*
X21695316Y10646197D01*
X21689504Y10622993D01*
X21681446Y10600471D01*
X21671218Y10578847D01*
X21658921Y10558330D01*
X21644671Y10539117D01*
X21628607Y10521393D01*
X21610883Y10505329D01*
X21591670Y10491079D01*
X21571153Y10478782D01*
X21549529Y10468554D01*
X21527007Y10460496D01*
X21503803Y10454684D01*
X21480142Y10451174D01*
X21456250Y10450000D01*
X20543750Y10450000D01*
X20519858Y10451174D01*
X20496197Y10454684D01*
X20472993Y10460496D01*
X20450471Y10468554D01*
X20428847Y10478782D01*
X20408330Y10491079D01*
X20389117Y10505329D01*
X20371393Y10521393D01*
X20355329Y10539117D01*
X20341079Y10558330D01*
X20328782Y10578847D01*
X20318554Y10600471D01*
X20310496Y10622993D01*
X20304684Y10646197D01*
X20301174Y10669858D01*
X20300000Y10693750D01*
X20300000Y11181250D01*
X20301174Y11205142D01*
X20304684Y11228803D01*
X20310496Y11252007D01*
X20318554Y11274529D01*
X20328782Y11296153D01*
X20341079Y11316670D01*
X20355329Y11335883D01*
X20371393Y11353607D01*
X20389117Y11369671D01*
X20408330Y11383921D01*
X20428847Y11396218D01*
X20450471Y11406446D01*
X20472993Y11414504D01*
X20496197Y11420316D01*
X20519858Y11423826D01*
X20543750Y11425000D01*
X21456250Y11425000D01*
X21480142Y11423826D01*
X21480142Y11423826D01*
G37*
D15*
X21000000Y10937500D03*
D16*
X19000000Y1462500D03*
D17*
X20000000Y4162500D03*
X20650000Y4162500D03*
X21300000Y4162500D03*
X18700000Y4162500D03*
X19350000Y4162500D03*
D16*
X21000000Y1462500D03*
D14*
G36*
X14480142Y11423826D02*
G01*
X14503803Y11420316D01*
X14527007Y11414504D01*
X14549529Y11406446D01*
X14571153Y11396218D01*
X14591670Y11383921D01*
X14610883Y11369671D01*
X14628607Y11353607D01*
X14644671Y11335883D01*
X14658921Y11316670D01*
X14671218Y11296153D01*
X14681446Y11274529D01*
X14689504Y11252007D01*
X14695316Y11228803D01*
X14698826Y11205142D01*
X14700000Y11181250D01*
X14700000Y10693750D01*
X14698826Y10669858D01*
X14695316Y10646197D01*
X14689504Y10622993D01*
X14681446Y10600471D01*
X14671218Y10578847D01*
X14658921Y10558330D01*
X14644671Y10539117D01*
X14628607Y10521393D01*
X14610883Y10505329D01*
X14591670Y10491079D01*
X14571153Y10478782D01*
X14549529Y10468554D01*
X14527007Y10460496D01*
X14503803Y10454684D01*
X14480142Y10451174D01*
X14456250Y10450000D01*
X13543750Y10450000D01*
X13519858Y10451174D01*
X13496197Y10454684D01*
X13472993Y10460496D01*
X13450471Y10468554D01*
X13428847Y10478782D01*
X13408330Y10491079D01*
X13389117Y10505329D01*
X13371393Y10521393D01*
X13355329Y10539117D01*
X13341079Y10558330D01*
X13328782Y10578847D01*
X13318554Y10600471D01*
X13310496Y10622993D01*
X13304684Y10646197D01*
X13301174Y10669858D01*
X13300000Y10693750D01*
X13300000Y11181250D01*
X13301174Y11205142D01*
X13304684Y11228803D01*
X13310496Y11252007D01*
X13318554Y11274529D01*
X13328782Y11296153D01*
X13341079Y11316670D01*
X13355329Y11335883D01*
X13371393Y11353607D01*
X13389117Y11369671D01*
X13408330Y11383921D01*
X13428847Y11396218D01*
X13450471Y11406446D01*
X13472993Y11414504D01*
X13496197Y11420316D01*
X13519858Y11423826D01*
X13543750Y11425000D01*
X14456250Y11425000D01*
X14480142Y11423826D01*
X14480142Y11423826D01*
G37*
D15*
X14000000Y10937500D03*
D14*
G36*
X14480142Y9548826D02*
G01*
X14503803Y9545316D01*
X14527007Y9539504D01*
X14549529Y9531446D01*
X14571153Y9521218D01*
X14591670Y9508921D01*
X14610883Y9494671D01*
X14628607Y9478607D01*
X14644671Y9460883D01*
X14658921Y9441670D01*
X14671218Y9421153D01*
X14681446Y9399529D01*
X14689504Y9377007D01*
X14695316Y9353803D01*
X14698826Y9330142D01*
X14700000Y9306250D01*
X14700000Y8818750D01*
X14698826Y8794858D01*
X14695316Y8771197D01*
X14689504Y8747993D01*
X14681446Y8725471D01*
X14671218Y8703847D01*
X14658921Y8683330D01*
X14644671Y8664117D01*
X14628607Y8646393D01*
X14610883Y8630329D01*
X14591670Y8616079D01*
X14571153Y8603782D01*
X14549529Y8593554D01*
X14527007Y8585496D01*
X14503803Y8579684D01*
X14480142Y8576174D01*
X14456250Y8575000D01*
X13543750Y8575000D01*
X13519858Y8576174D01*
X13496197Y8579684D01*
X13472993Y8585496D01*
X13450471Y8593554D01*
X13428847Y8603782D01*
X13408330Y8616079D01*
X13389117Y8630329D01*
X13371393Y8646393D01*
X13355329Y8664117D01*
X13341079Y8683330D01*
X13328782Y8703847D01*
X13318554Y8725471D01*
X13310496Y8747993D01*
X13304684Y8771197D01*
X13301174Y8794858D01*
X13300000Y8818750D01*
X13300000Y9306250D01*
X13301174Y9330142D01*
X13304684Y9353803D01*
X13310496Y9377007D01*
X13318554Y9399529D01*
X13328782Y9421153D01*
X13341079Y9441670D01*
X13355329Y9460883D01*
X13371393Y9478607D01*
X13389117Y9494671D01*
X13408330Y9508921D01*
X13428847Y9521218D01*
X13450471Y9531446D01*
X13472993Y9539504D01*
X13496197Y9545316D01*
X13519858Y9548826D01*
X13543750Y9550000D01*
X14456250Y9550000D01*
X14480142Y9548826D01*
X14480142Y9548826D01*
G37*
D15*
X14000000Y9062500D03*
D14*
G36*
X26480142Y35423826D02*
G01*
X26503803Y35420316D01*
X26527007Y35414504D01*
X26549529Y35406446D01*
X26571153Y35396218D01*
X26591670Y35383921D01*
X26610883Y35369671D01*
X26628607Y35353607D01*
X26644671Y35335883D01*
X26658921Y35316670D01*
X26671218Y35296153D01*
X26681446Y35274529D01*
X26689504Y35252007D01*
X26695316Y35228803D01*
X26698826Y35205142D01*
X26700000Y35181250D01*
X26700000Y34693750D01*
X26698826Y34669858D01*
X26695316Y34646197D01*
X26689504Y34622993D01*
X26681446Y34600471D01*
X26671218Y34578847D01*
X26658921Y34558330D01*
X26644671Y34539117D01*
X26628607Y34521393D01*
X26610883Y34505329D01*
X26591670Y34491079D01*
X26571153Y34478782D01*
X26549529Y34468554D01*
X26527007Y34460496D01*
X26503803Y34454684D01*
X26480142Y34451174D01*
X26456250Y34450000D01*
X25543750Y34450000D01*
X25519858Y34451174D01*
X25496197Y34454684D01*
X25472993Y34460496D01*
X25450471Y34468554D01*
X25428847Y34478782D01*
X25408330Y34491079D01*
X25389117Y34505329D01*
X25371393Y34521393D01*
X25355329Y34539117D01*
X25341079Y34558330D01*
X25328782Y34578847D01*
X25318554Y34600471D01*
X25310496Y34622993D01*
X25304684Y34646197D01*
X25301174Y34669858D01*
X25300000Y34693750D01*
X25300000Y35181250D01*
X25301174Y35205142D01*
X25304684Y35228803D01*
X25310496Y35252007D01*
X25318554Y35274529D01*
X25328782Y35296153D01*
X25341079Y35316670D01*
X25355329Y35335883D01*
X25371393Y35353607D01*
X25389117Y35369671D01*
X25408330Y35383921D01*
X25428847Y35396218D01*
X25450471Y35406446D01*
X25472993Y35414504D01*
X25496197Y35420316D01*
X25519858Y35423826D01*
X25543750Y35425000D01*
X26456250Y35425000D01*
X26480142Y35423826D01*
X26480142Y35423826D01*
G37*
D15*
X26000000Y34937500D03*
D14*
G36*
X26480142Y33548826D02*
G01*
X26503803Y33545316D01*
X26527007Y33539504D01*
X26549529Y33531446D01*
X26571153Y33521218D01*
X26591670Y33508921D01*
X26610883Y33494671D01*
X26628607Y33478607D01*
X26644671Y33460883D01*
X26658921Y33441670D01*
X26671218Y33421153D01*
X26681446Y33399529D01*
X26689504Y33377007D01*
X26695316Y33353803D01*
X26698826Y33330142D01*
X26700000Y33306250D01*
X26700000Y32818750D01*
X26698826Y32794858D01*
X26695316Y32771197D01*
X26689504Y32747993D01*
X26681446Y32725471D01*
X26671218Y32703847D01*
X26658921Y32683330D01*
X26644671Y32664117D01*
X26628607Y32646393D01*
X26610883Y32630329D01*
X26591670Y32616079D01*
X26571153Y32603782D01*
X26549529Y32593554D01*
X26527007Y32585496D01*
X26503803Y32579684D01*
X26480142Y32576174D01*
X26456250Y32575000D01*
X25543750Y32575000D01*
X25519858Y32576174D01*
X25496197Y32579684D01*
X25472993Y32585496D01*
X25450471Y32593554D01*
X25428847Y32603782D01*
X25408330Y32616079D01*
X25389117Y32630329D01*
X25371393Y32646393D01*
X25355329Y32664117D01*
X25341079Y32683330D01*
X25328782Y32703847D01*
X25318554Y32725471D01*
X25310496Y32747993D01*
X25304684Y32771197D01*
X25301174Y32794858D01*
X25300000Y32818750D01*
X25300000Y33306250D01*
X25301174Y33330142D01*
X25304684Y33353803D01*
X25310496Y33377007D01*
X25318554Y33399529D01*
X25328782Y33421153D01*
X25341079Y33441670D01*
X25355329Y33460883D01*
X25371393Y33478607D01*
X25389117Y33494671D01*
X25408330Y33508921D01*
X25428847Y33521218D01*
X25450471Y33531446D01*
X25472993Y33539504D01*
X25496197Y33545316D01*
X25519858Y33548826D01*
X25543750Y33550000D01*
X26456250Y33550000D01*
X26480142Y33548826D01*
X26480142Y33548826D01*
G37*
D15*
X26000000Y33062500D03*
D14*
G36*
X14480142Y35423826D02*
G01*
X14503803Y35420316D01*
X14527007Y35414504D01*
X14549529Y35406446D01*
X14571153Y35396218D01*
X14591670Y35383921D01*
X14610883Y35369671D01*
X14628607Y35353607D01*
X14644671Y35335883D01*
X14658921Y35316670D01*
X14671218Y35296153D01*
X14681446Y35274529D01*
X14689504Y35252007D01*
X14695316Y35228803D01*
X14698826Y35205142D01*
X14700000Y35181250D01*
X14700000Y34693750D01*
X14698826Y34669858D01*
X14695316Y34646197D01*
X14689504Y34622993D01*
X14681446Y34600471D01*
X14671218Y34578847D01*
X14658921Y34558330D01*
X14644671Y34539117D01*
X14628607Y34521393D01*
X14610883Y34505329D01*
X14591670Y34491079D01*
X14571153Y34478782D01*
X14549529Y34468554D01*
X14527007Y34460496D01*
X14503803Y34454684D01*
X14480142Y34451174D01*
X14456250Y34450000D01*
X13543750Y34450000D01*
X13519858Y34451174D01*
X13496197Y34454684D01*
X13472993Y34460496D01*
X13450471Y34468554D01*
X13428847Y34478782D01*
X13408330Y34491079D01*
X13389117Y34505329D01*
X13371393Y34521393D01*
X13355329Y34539117D01*
X13341079Y34558330D01*
X13328782Y34578847D01*
X13318554Y34600471D01*
X13310496Y34622993D01*
X13304684Y34646197D01*
X13301174Y34669858D01*
X13300000Y34693750D01*
X13300000Y35181250D01*
X13301174Y35205142D01*
X13304684Y35228803D01*
X13310496Y35252007D01*
X13318554Y35274529D01*
X13328782Y35296153D01*
X13341079Y35316670D01*
X13355329Y35335883D01*
X13371393Y35353607D01*
X13389117Y35369671D01*
X13408330Y35383921D01*
X13428847Y35396218D01*
X13450471Y35406446D01*
X13472993Y35414504D01*
X13496197Y35420316D01*
X13519858Y35423826D01*
X13543750Y35425000D01*
X14456250Y35425000D01*
X14480142Y35423826D01*
X14480142Y35423826D01*
G37*
D15*
X14000000Y34937500D03*
D14*
G36*
X14480142Y33548826D02*
G01*
X14503803Y33545316D01*
X14527007Y33539504D01*
X14549529Y33531446D01*
X14571153Y33521218D01*
X14591670Y33508921D01*
X14610883Y33494671D01*
X14628607Y33478607D01*
X14644671Y33460883D01*
X14658921Y33441670D01*
X14671218Y33421153D01*
X14681446Y33399529D01*
X14689504Y33377007D01*
X14695316Y33353803D01*
X14698826Y33330142D01*
X14700000Y33306250D01*
X14700000Y32818750D01*
X14698826Y32794858D01*
X14695316Y32771197D01*
X14689504Y32747993D01*
X14681446Y32725471D01*
X14671218Y32703847D01*
X14658921Y32683330D01*
X14644671Y32664117D01*
X14628607Y32646393D01*
X14610883Y32630329D01*
X14591670Y32616079D01*
X14571153Y32603782D01*
X14549529Y32593554D01*
X14527007Y32585496D01*
X14503803Y32579684D01*
X14480142Y32576174D01*
X14456250Y32575000D01*
X13543750Y32575000D01*
X13519858Y32576174D01*
X13496197Y32579684D01*
X13472993Y32585496D01*
X13450471Y32593554D01*
X13428847Y32603782D01*
X13408330Y32616079D01*
X13389117Y32630329D01*
X13371393Y32646393D01*
X13355329Y32664117D01*
X13341079Y32683330D01*
X13328782Y32703847D01*
X13318554Y32725471D01*
X13310496Y32747993D01*
X13304684Y32771197D01*
X13301174Y32794858D01*
X13300000Y32818750D01*
X13300000Y33306250D01*
X13301174Y33330142D01*
X13304684Y33353803D01*
X13310496Y33377007D01*
X13318554Y33399529D01*
X13328782Y33421153D01*
X13341079Y33441670D01*
X13355329Y33460883D01*
X13371393Y33478607D01*
X13389117Y33494671D01*
X13408330Y33508921D01*
X13428847Y33521218D01*
X13450471Y33531446D01*
X13472993Y33539504D01*
X13496197Y33545316D01*
X13519858Y33548826D01*
X13543750Y33550000D01*
X14456250Y33550000D01*
X14480142Y33548826D01*
X14480142Y33548826D01*
G37*
D15*
X14000000Y33062500D03*
D14*
G36*
X26480142Y9548826D02*
G01*
X26503803Y9545316D01*
X26527007Y9539504D01*
X26549529Y9531446D01*
X26571153Y9521218D01*
X26591670Y9508921D01*
X26610883Y9494671D01*
X26628607Y9478607D01*
X26644671Y9460883D01*
X26658921Y9441670D01*
X26671218Y9421153D01*
X26681446Y9399529D01*
X26689504Y9377007D01*
X26695316Y9353803D01*
X26698826Y9330142D01*
X26700000Y9306250D01*
X26700000Y8818750D01*
X26698826Y8794858D01*
X26695316Y8771197D01*
X26689504Y8747993D01*
X26681446Y8725471D01*
X26671218Y8703847D01*
X26658921Y8683330D01*
X26644671Y8664117D01*
X26628607Y8646393D01*
X26610883Y8630329D01*
X26591670Y8616079D01*
X26571153Y8603782D01*
X26549529Y8593554D01*
X26527007Y8585496D01*
X26503803Y8579684D01*
X26480142Y8576174D01*
X26456250Y8575000D01*
X25543750Y8575000D01*
X25519858Y8576174D01*
X25496197Y8579684D01*
X25472993Y8585496D01*
X25450471Y8593554D01*
X25428847Y8603782D01*
X25408330Y8616079D01*
X25389117Y8630329D01*
X25371393Y8646393D01*
X25355329Y8664117D01*
X25341079Y8683330D01*
X25328782Y8703847D01*
X25318554Y8725471D01*
X25310496Y8747993D01*
X25304684Y8771197D01*
X25301174Y8794858D01*
X25300000Y8818750D01*
X25300000Y9306250D01*
X25301174Y9330142D01*
X25304684Y9353803D01*
X25310496Y9377007D01*
X25318554Y9399529D01*
X25328782Y9421153D01*
X25341079Y9441670D01*
X25355329Y9460883D01*
X25371393Y9478607D01*
X25389117Y9494671D01*
X25408330Y9508921D01*
X25428847Y9521218D01*
X25450471Y9531446D01*
X25472993Y9539504D01*
X25496197Y9545316D01*
X25519858Y9548826D01*
X25543750Y9550000D01*
X26456250Y9550000D01*
X26480142Y9548826D01*
X26480142Y9548826D01*
G37*
D15*
X26000000Y9062500D03*
D14*
G36*
X26480142Y11423826D02*
G01*
X26503803Y11420316D01*
X26527007Y11414504D01*
X26549529Y11406446D01*
X26571153Y11396218D01*
X26591670Y11383921D01*
X26610883Y11369671D01*
X26628607Y11353607D01*
X26644671Y11335883D01*
X26658921Y11316670D01*
X26671218Y11296153D01*
X26681446Y11274529D01*
X26689504Y11252007D01*
X26695316Y11228803D01*
X26698826Y11205142D01*
X26700000Y11181250D01*
X26700000Y10693750D01*
X26698826Y10669858D01*
X26695316Y10646197D01*
X26689504Y10622993D01*
X26681446Y10600471D01*
X26671218Y10578847D01*
X26658921Y10558330D01*
X26644671Y10539117D01*
X26628607Y10521393D01*
X26610883Y10505329D01*
X26591670Y10491079D01*
X26571153Y10478782D01*
X26549529Y10468554D01*
X26527007Y10460496D01*
X26503803Y10454684D01*
X26480142Y10451174D01*
X26456250Y10450000D01*
X25543750Y10450000D01*
X25519858Y10451174D01*
X25496197Y10454684D01*
X25472993Y10460496D01*
X25450471Y10468554D01*
X25428847Y10478782D01*
X25408330Y10491079D01*
X25389117Y10505329D01*
X25371393Y10521393D01*
X25355329Y10539117D01*
X25341079Y10558330D01*
X25328782Y10578847D01*
X25318554Y10600471D01*
X25310496Y10622993D01*
X25304684Y10646197D01*
X25301174Y10669858D01*
X25300000Y10693750D01*
X25300000Y11181250D01*
X25301174Y11205142D01*
X25304684Y11228803D01*
X25310496Y11252007D01*
X25318554Y11274529D01*
X25328782Y11296153D01*
X25341079Y11316670D01*
X25355329Y11335883D01*
X25371393Y11353607D01*
X25389117Y11369671D01*
X25408330Y11383921D01*
X25428847Y11396218D01*
X25450471Y11406446D01*
X25472993Y11414504D01*
X25496197Y11420316D01*
X25519858Y11423826D01*
X25543750Y11425000D01*
X26456250Y11425000D01*
X26480142Y11423826D01*
X26480142Y11423826D01*
G37*
D15*
X26000000Y10937500D03*
D14*
G36*
X33330142Y29698826D02*
G01*
X33353803Y29695316D01*
X33377007Y29689504D01*
X33399529Y29681446D01*
X33421153Y29671218D01*
X33441670Y29658921D01*
X33460883Y29644671D01*
X33478607Y29628607D01*
X33494671Y29610883D01*
X33508921Y29591670D01*
X33521218Y29571153D01*
X33531446Y29549529D01*
X33539504Y29527007D01*
X33545316Y29503803D01*
X33548826Y29480142D01*
X33550000Y29456250D01*
X33550000Y28543750D01*
X33548826Y28519858D01*
X33545316Y28496197D01*
X33539504Y28472993D01*
X33531446Y28450471D01*
X33521218Y28428847D01*
X33508921Y28408330D01*
X33494671Y28389117D01*
X33478607Y28371393D01*
X33460883Y28355329D01*
X33441670Y28341079D01*
X33421153Y28328782D01*
X33399529Y28318554D01*
X33377007Y28310496D01*
X33353803Y28304684D01*
X33330142Y28301174D01*
X33306250Y28300000D01*
X32818750Y28300000D01*
X32794858Y28301174D01*
X32771197Y28304684D01*
X32747993Y28310496D01*
X32725471Y28318554D01*
X32703847Y28328782D01*
X32683330Y28341079D01*
X32664117Y28355329D01*
X32646393Y28371393D01*
X32630329Y28389117D01*
X32616079Y28408330D01*
X32603782Y28428847D01*
X32593554Y28450471D01*
X32585496Y28472993D01*
X32579684Y28496197D01*
X32576174Y28519858D01*
X32575000Y28543750D01*
X32575000Y29456250D01*
X32576174Y29480142D01*
X32579684Y29503803D01*
X32585496Y29527007D01*
X32593554Y29549529D01*
X32603782Y29571153D01*
X32616079Y29591670D01*
X32630329Y29610883D01*
X32646393Y29628607D01*
X32664117Y29644671D01*
X32683330Y29658921D01*
X32703847Y29671218D01*
X32725471Y29681446D01*
X32747993Y29689504D01*
X32771197Y29695316D01*
X32794858Y29698826D01*
X32818750Y29700000D01*
X33306250Y29700000D01*
X33330142Y29698826D01*
X33330142Y29698826D01*
G37*
D15*
X33062500Y29000000D03*
D14*
G36*
X35205142Y29698826D02*
G01*
X35228803Y29695316D01*
X35252007Y29689504D01*
X35274529Y29681446D01*
X35296153Y29671218D01*
X35316670Y29658921D01*
X35335883Y29644671D01*
X35353607Y29628607D01*
X35369671Y29610883D01*
X35383921Y29591670D01*
X35396218Y29571153D01*
X35406446Y29549529D01*
X35414504Y29527007D01*
X35420316Y29503803D01*
X35423826Y29480142D01*
X35425000Y29456250D01*
X35425000Y28543750D01*
X35423826Y28519858D01*
X35420316Y28496197D01*
X35414504Y28472993D01*
X35406446Y28450471D01*
X35396218Y28428847D01*
X35383921Y28408330D01*
X35369671Y28389117D01*
X35353607Y28371393D01*
X35335883Y28355329D01*
X35316670Y28341079D01*
X35296153Y28328782D01*
X35274529Y28318554D01*
X35252007Y28310496D01*
X35228803Y28304684D01*
X35205142Y28301174D01*
X35181250Y28300000D01*
X34693750Y28300000D01*
X34669858Y28301174D01*
X34646197Y28304684D01*
X34622993Y28310496D01*
X34600471Y28318554D01*
X34578847Y28328782D01*
X34558330Y28341079D01*
X34539117Y28355329D01*
X34521393Y28371393D01*
X34505329Y28389117D01*
X34491079Y28408330D01*
X34478782Y28428847D01*
X34468554Y28450471D01*
X34460496Y28472993D01*
X34454684Y28496197D01*
X34451174Y28519858D01*
X34450000Y28543750D01*
X34450000Y29456250D01*
X34451174Y29480142D01*
X34454684Y29503803D01*
X34460496Y29527007D01*
X34468554Y29549529D01*
X34478782Y29571153D01*
X34491079Y29591670D01*
X34505329Y29610883D01*
X34521393Y29628607D01*
X34539117Y29644671D01*
X34558330Y29658921D01*
X34578847Y29671218D01*
X34600471Y29681446D01*
X34622993Y29689504D01*
X34646197Y29695316D01*
X34669858Y29698826D01*
X34693750Y29700000D01*
X35181250Y29700000D01*
X35205142Y29698826D01*
X35205142Y29698826D01*
G37*
D15*
X34937500Y29000000D03*
D14*
G36*
X33330142Y11698826D02*
G01*
X33353803Y11695316D01*
X33377007Y11689504D01*
X33399529Y11681446D01*
X33421153Y11671218D01*
X33441670Y11658921D01*
X33460883Y11644671D01*
X33478607Y11628607D01*
X33494671Y11610883D01*
X33508921Y11591670D01*
X33521218Y11571153D01*
X33531446Y11549529D01*
X33539504Y11527007D01*
X33545316Y11503803D01*
X33548826Y11480142D01*
X33550000Y11456250D01*
X33550000Y10543750D01*
X33548826Y10519858D01*
X33545316Y10496197D01*
X33539504Y10472993D01*
X33531446Y10450471D01*
X33521218Y10428847D01*
X33508921Y10408330D01*
X33494671Y10389117D01*
X33478607Y10371393D01*
X33460883Y10355329D01*
X33441670Y10341079D01*
X33421153Y10328782D01*
X33399529Y10318554D01*
X33377007Y10310496D01*
X33353803Y10304684D01*
X33330142Y10301174D01*
X33306250Y10300000D01*
X32818750Y10300000D01*
X32794858Y10301174D01*
X32771197Y10304684D01*
X32747993Y10310496D01*
X32725471Y10318554D01*
X32703847Y10328782D01*
X32683330Y10341079D01*
X32664117Y10355329D01*
X32646393Y10371393D01*
X32630329Y10389117D01*
X32616079Y10408330D01*
X32603782Y10428847D01*
X32593554Y10450471D01*
X32585496Y10472993D01*
X32579684Y10496197D01*
X32576174Y10519858D01*
X32575000Y10543750D01*
X32575000Y11456250D01*
X32576174Y11480142D01*
X32579684Y11503803D01*
X32585496Y11527007D01*
X32593554Y11549529D01*
X32603782Y11571153D01*
X32616079Y11591670D01*
X32630329Y11610883D01*
X32646393Y11628607D01*
X32664117Y11644671D01*
X32683330Y11658921D01*
X32703847Y11671218D01*
X32725471Y11681446D01*
X32747993Y11689504D01*
X32771197Y11695316D01*
X32794858Y11698826D01*
X32818750Y11700000D01*
X33306250Y11700000D01*
X33330142Y11698826D01*
X33330142Y11698826D01*
G37*
D15*
X33062500Y11000000D03*
D14*
G36*
X35205142Y11698826D02*
G01*
X35228803Y11695316D01*
X35252007Y11689504D01*
X35274529Y11681446D01*
X35296153Y11671218D01*
X35316670Y11658921D01*
X35335883Y11644671D01*
X35353607Y11628607D01*
X35369671Y11610883D01*
X35383921Y11591670D01*
X35396218Y11571153D01*
X35406446Y11549529D01*
X35414504Y11527007D01*
X35420316Y11503803D01*
X35423826Y11480142D01*
X35425000Y11456250D01*
X35425000Y10543750D01*
X35423826Y10519858D01*
X35420316Y10496197D01*
X35414504Y10472993D01*
X35406446Y10450471D01*
X35396218Y10428847D01*
X35383921Y10408330D01*
X35369671Y10389117D01*
X35353607Y10371393D01*
X35335883Y10355329D01*
X35316670Y10341079D01*
X35296153Y10328782D01*
X35274529Y10318554D01*
X35252007Y10310496D01*
X35228803Y10304684D01*
X35205142Y10301174D01*
X35181250Y10300000D01*
X34693750Y10300000D01*
X34669858Y10301174D01*
X34646197Y10304684D01*
X34622993Y10310496D01*
X34600471Y10318554D01*
X34578847Y10328782D01*
X34558330Y10341079D01*
X34539117Y10355329D01*
X34521393Y10371393D01*
X34505329Y10389117D01*
X34491079Y10408330D01*
X34478782Y10428847D01*
X34468554Y10450471D01*
X34460496Y10472993D01*
X34454684Y10496197D01*
X34451174Y10519858D01*
X34450000Y10543750D01*
X34450000Y11456250D01*
X34451174Y11480142D01*
X34454684Y11503803D01*
X34460496Y11527007D01*
X34468554Y11549529D01*
X34478782Y11571153D01*
X34491079Y11591670D01*
X34505329Y11610883D01*
X34521393Y11628607D01*
X34539117Y11644671D01*
X34558330Y11658921D01*
X34578847Y11671218D01*
X34600471Y11681446D01*
X34622993Y11689504D01*
X34646197Y11695316D01*
X34669858Y11698826D01*
X34693750Y11700000D01*
X35181250Y11700000D01*
X35205142Y11698826D01*
X35205142Y11698826D01*
G37*
D15*
X34937500Y11000000D03*
D14*
G36*
X13230142Y23798826D02*
G01*
X13253803Y23795316D01*
X13277007Y23789504D01*
X13299529Y23781446D01*
X13321153Y23771218D01*
X13341670Y23758921D01*
X13360883Y23744671D01*
X13378607Y23728607D01*
X13394671Y23710883D01*
X13408921Y23691670D01*
X13421218Y23671153D01*
X13431446Y23649529D01*
X13439504Y23627007D01*
X13445316Y23603803D01*
X13448826Y23580142D01*
X13450000Y23556250D01*
X13450000Y23068750D01*
X13448826Y23044858D01*
X13445316Y23021197D01*
X13439504Y22997993D01*
X13431446Y22975471D01*
X13421218Y22953847D01*
X13408921Y22933330D01*
X13394671Y22914117D01*
X13378607Y22896393D01*
X13360883Y22880329D01*
X13341670Y22866079D01*
X13321153Y22853782D01*
X13299529Y22843554D01*
X13277007Y22835496D01*
X13253803Y22829684D01*
X13230142Y22826174D01*
X13206250Y22825000D01*
X12293750Y22825000D01*
X12269858Y22826174D01*
X12246197Y22829684D01*
X12222993Y22835496D01*
X12200471Y22843554D01*
X12178847Y22853782D01*
X12158330Y22866079D01*
X12139117Y22880329D01*
X12121393Y22896393D01*
X12105329Y22914117D01*
X12091079Y22933330D01*
X12078782Y22953847D01*
X12068554Y22975471D01*
X12060496Y22997993D01*
X12054684Y23021197D01*
X12051174Y23044858D01*
X12050000Y23068750D01*
X12050000Y23556250D01*
X12051174Y23580142D01*
X12054684Y23603803D01*
X12060496Y23627007D01*
X12068554Y23649529D01*
X12078782Y23671153D01*
X12091079Y23691670D01*
X12105329Y23710883D01*
X12121393Y23728607D01*
X12139117Y23744671D01*
X12158330Y23758921D01*
X12178847Y23771218D01*
X12200471Y23781446D01*
X12222993Y23789504D01*
X12246197Y23795316D01*
X12269858Y23798826D01*
X12293750Y23800000D01*
X13206250Y23800000D01*
X13230142Y23798826D01*
X13230142Y23798826D01*
G37*
D15*
X12750000Y23312500D03*
D14*
G36*
X13230142Y25673826D02*
G01*
X13253803Y25670316D01*
X13277007Y25664504D01*
X13299529Y25656446D01*
X13321153Y25646218D01*
X13341670Y25633921D01*
X13360883Y25619671D01*
X13378607Y25603607D01*
X13394671Y25585883D01*
X13408921Y25566670D01*
X13421218Y25546153D01*
X13431446Y25524529D01*
X13439504Y25502007D01*
X13445316Y25478803D01*
X13448826Y25455142D01*
X13450000Y25431250D01*
X13450000Y24943750D01*
X13448826Y24919858D01*
X13445316Y24896197D01*
X13439504Y24872993D01*
X13431446Y24850471D01*
X13421218Y24828847D01*
X13408921Y24808330D01*
X13394671Y24789117D01*
X13378607Y24771393D01*
X13360883Y24755329D01*
X13341670Y24741079D01*
X13321153Y24728782D01*
X13299529Y24718554D01*
X13277007Y24710496D01*
X13253803Y24704684D01*
X13230142Y24701174D01*
X13206250Y24700000D01*
X12293750Y24700000D01*
X12269858Y24701174D01*
X12246197Y24704684D01*
X12222993Y24710496D01*
X12200471Y24718554D01*
X12178847Y24728782D01*
X12158330Y24741079D01*
X12139117Y24755329D01*
X12121393Y24771393D01*
X12105329Y24789117D01*
X12091079Y24808330D01*
X12078782Y24828847D01*
X12068554Y24850471D01*
X12060496Y24872993D01*
X12054684Y24896197D01*
X12051174Y24919858D01*
X12050000Y24943750D01*
X12050000Y25431250D01*
X12051174Y25455142D01*
X12054684Y25478803D01*
X12060496Y25502007D01*
X12068554Y25524529D01*
X12078782Y25546153D01*
X12091079Y25566670D01*
X12105329Y25585883D01*
X12121393Y25603607D01*
X12139117Y25619671D01*
X12158330Y25633921D01*
X12178847Y25646218D01*
X12200471Y25656446D01*
X12222993Y25664504D01*
X12246197Y25670316D01*
X12269858Y25673826D01*
X12293750Y25675000D01*
X13206250Y25675000D01*
X13230142Y25673826D01*
X13230142Y25673826D01*
G37*
D15*
X12750000Y25187500D03*
D14*
G36*
X10480142Y9548826D02*
G01*
X10503803Y9545316D01*
X10527007Y9539504D01*
X10549529Y9531446D01*
X10571153Y9521218D01*
X10591670Y9508921D01*
X10610883Y9494671D01*
X10628607Y9478607D01*
X10644671Y9460883D01*
X10658921Y9441670D01*
X10671218Y9421153D01*
X10681446Y9399529D01*
X10689504Y9377007D01*
X10695316Y9353803D01*
X10698826Y9330142D01*
X10700000Y9306250D01*
X10700000Y8818750D01*
X10698826Y8794858D01*
X10695316Y8771197D01*
X10689504Y8747993D01*
X10681446Y8725471D01*
X10671218Y8703847D01*
X10658921Y8683330D01*
X10644671Y8664117D01*
X10628607Y8646393D01*
X10610883Y8630329D01*
X10591670Y8616079D01*
X10571153Y8603782D01*
X10549529Y8593554D01*
X10527007Y8585496D01*
X10503803Y8579684D01*
X10480142Y8576174D01*
X10456250Y8575000D01*
X9543750Y8575000D01*
X9519858Y8576174D01*
X9496197Y8579684D01*
X9472993Y8585496D01*
X9450471Y8593554D01*
X9428847Y8603782D01*
X9408330Y8616079D01*
X9389117Y8630329D01*
X9371393Y8646393D01*
X9355329Y8664117D01*
X9341079Y8683330D01*
X9328782Y8703847D01*
X9318554Y8725471D01*
X9310496Y8747993D01*
X9304684Y8771197D01*
X9301174Y8794858D01*
X9300000Y8818750D01*
X9300000Y9306250D01*
X9301174Y9330142D01*
X9304684Y9353803D01*
X9310496Y9377007D01*
X9318554Y9399529D01*
X9328782Y9421153D01*
X9341079Y9441670D01*
X9355329Y9460883D01*
X9371393Y9478607D01*
X9389117Y9494671D01*
X9408330Y9508921D01*
X9428847Y9521218D01*
X9450471Y9531446D01*
X9472993Y9539504D01*
X9496197Y9545316D01*
X9519858Y9548826D01*
X9543750Y9550000D01*
X10456250Y9550000D01*
X10480142Y9548826D01*
X10480142Y9548826D01*
G37*
D15*
X10000000Y9062500D03*
D14*
G36*
X10480142Y11423826D02*
G01*
X10503803Y11420316D01*
X10527007Y11414504D01*
X10549529Y11406446D01*
X10571153Y11396218D01*
X10591670Y11383921D01*
X10610883Y11369671D01*
X10628607Y11353607D01*
X10644671Y11335883D01*
X10658921Y11316670D01*
X10671218Y11296153D01*
X10681446Y11274529D01*
X10689504Y11252007D01*
X10695316Y11228803D01*
X10698826Y11205142D01*
X10700000Y11181250D01*
X10700000Y10693750D01*
X10698826Y10669858D01*
X10695316Y10646197D01*
X10689504Y10622993D01*
X10681446Y10600471D01*
X10671218Y10578847D01*
X10658921Y10558330D01*
X10644671Y10539117D01*
X10628607Y10521393D01*
X10610883Y10505329D01*
X10591670Y10491079D01*
X10571153Y10478782D01*
X10549529Y10468554D01*
X10527007Y10460496D01*
X10503803Y10454684D01*
X10480142Y10451174D01*
X10456250Y10450000D01*
X9543750Y10450000D01*
X9519858Y10451174D01*
X9496197Y10454684D01*
X9472993Y10460496D01*
X9450471Y10468554D01*
X9428847Y10478782D01*
X9408330Y10491079D01*
X9389117Y10505329D01*
X9371393Y10521393D01*
X9355329Y10539117D01*
X9341079Y10558330D01*
X9328782Y10578847D01*
X9318554Y10600471D01*
X9310496Y10622993D01*
X9304684Y10646197D01*
X9301174Y10669858D01*
X9300000Y10693750D01*
X9300000Y11181250D01*
X9301174Y11205142D01*
X9304684Y11228803D01*
X9310496Y11252007D01*
X9318554Y11274529D01*
X9328782Y11296153D01*
X9341079Y11316670D01*
X9355329Y11335883D01*
X9371393Y11353607D01*
X9389117Y11369671D01*
X9408330Y11383921D01*
X9428847Y11396218D01*
X9450471Y11406446D01*
X9472993Y11414504D01*
X9496197Y11420316D01*
X9519858Y11423826D01*
X9543750Y11425000D01*
X10456250Y11425000D01*
X10480142Y11423826D01*
X10480142Y11423826D01*
G37*
D15*
X10000000Y10937500D03*
M02*
