%FSLAX35Y35*%
%MOIN*%
%TF.FileFunction,Copper,L2,Bot*%
%ADD10C,0.00591*%
%ADD11C,0.00077*%
%ADD12C,0.00240*%
%ADD13C,0.00394*%
%ADD14C,0.00512*%
%ADD15C,0.00640*%
%ADD16C,0.00650*%
%ADD17C,0.00768*%
%ADD18C,0.00787*%
%ADD19C,0.01024*%
%ADD20C,0.01181*%
%ADD21C,0.01575*%
%ADD22C,0.01969*%
%ADD23C,0.02362*%
%ADD24C,0.03937*%
%ADD25C,0.06437*%
%ADD26C,0.16598*%
%AMR_27*21,1,0.01312,0.01312,0,0,0.000*%
%ADD27R_27*%
%AMR_28*21,1,0.01575,0.01575,0,0,0.000*%
%ADD28R_28*%
%AMR_29*21,1,0.02362,0.02362,0,0,0.000*%
%ADD29R_29*%
%AMR_30*21,1,0.02362,0.08268,0,0,180.000*%
%ADD30R_30*%
%AMR_31*21,1,0.05000,0.05000,0,0,0.000*%
%ADD31R_31*%
%AMR_32*21,1,0.05000,0.05000,0,0,90.000*%
%ADD32R_32*%
%AMR_33*21,1,0.05000,0.05000,0,0,180.000*%
%ADD33R_33*%
%AMR_34*21,1,0.05000,0.05000,0,0,270.000*%
%ADD34R_34*%
%AMR_35*21,1,0.05118,0.06102,0,0,90.000*%
%ADD35R_35*%
%AMR_36*21,1,0.05906,0.12598,0,0,180.000*%
%ADD36R_36*%
%AMR_37*21,1,0.05906,0.12598,0,0,270.000*%
%ADD37R_37*%
%AMR_38*21,1,0.20669,0.07874,0,0,90.000*%
%ADD38R_38*%
%AMOCT_39*4,1,8,0.017717,0.008858,0.008858,0.017717,-0.008858,0.017717,-0.017717,0.008858,-0.017717,-0.008858,-0.008858,-0.017717,0.008858,-0.017717,0.017717,-0.008858,0.017717,0.008858,180.000*%
%ADD39OCT_39*%
%AMOCT_40*4,1,8,0.023622,0.011811,0.011811,0.023622,-0.011811,0.023622,-0.023622,0.011811,-0.023622,-0.011811,-0.011811,-0.023622,0.011811,-0.023622,0.023622,-0.011811,0.023622,0.011811,0.000*%
%ADD40OCT_40*%
%AMOCT_41*4,1,8,0.078740,0.039370,0.039370,0.078740,-0.039370,0.078740,-0.078740,0.039370,-0.078740,-0.039370,-0.039370,-0.078740,0.039370,-0.078740,0.078740,-0.039370,0.078740,0.039370,0.000*%
%ADD41OCT_41*%
%ADD42O,0.02362X0.08268*%
%ADD43O,0.08268X0.02362*%
%AMRR_44*21,1,0.01969,0.09449,0,0,180.000*21,1,0.01575,0.09843,0,0,180.000*1,1,0.00394,-0.00787,-0.04724*1,1,0.00394,0.00787,0.04724*1,1,0.00394,-0.00787,0.04724*1,1,0.00394,0.00787,-0.04724*%
%ADD44RR_44*%
%AMRR_45*21,1,0.07874,0.10236,0,0,180.000*21,1,0.06299,0.11811,0,0,180.000*1,1,0.01575,-0.03150,-0.05118*1,1,0.01575,0.03150,0.05118*1,1,0.01575,-0.03150,0.05118*1,1,0.01575,0.03150,-0.05118*%
%ADD45RR_45*%
G54D16*
X6643Y204724D02*
X7726Y205314D01*
X8267Y206496D01*
X6643Y204724D02*
X5561Y204724D01*
X4478Y205314D01*
X3937Y206496D01*
X3937Y210039D01*
X4478Y211220D01*
X5561Y211811D01*
X6643Y211811D01*
X7726Y211220D01*
X8267Y210039D01*
X9566Y208858D02*
X9566Y205905D01*
X10649Y204724D01*
X12814Y204724D01*
X13897Y205905D01*
X13897Y208858D02*
X13897Y204724D01*
X15196Y208858D02*
X15196Y204724D01*
X15196Y207086D02*
X16820Y208858D01*
X19527Y208858D01*
X20826Y208858D02*
X20826Y204724D01*
X20826Y207086D02*
X22450Y208858D01*
X25157Y208858D01*
X30787Y205314D02*
X29704Y204724D01*
X27539Y204724D01*
X26456Y205905D01*
X26456Y207677D01*
X27539Y208858D01*
X29704Y208858D01*
X30787Y208267D01*
X30787Y207677D01*
X29704Y207086D01*
X26456Y207086D01*
X32086Y204724D02*
X32086Y208858D01*
X32086Y207677D02*
X33169Y208858D01*
X35334Y208858D01*
X36417Y207677D01*
X36417Y204724D01*
X37716Y211811D02*
X37716Y205905D01*
X38799Y204724D01*
X42047Y204724D01*
X37716Y208858D02*
X39881Y208858D01*
X48976Y211811D02*
X48976Y204724D01*
X48976Y208267D02*
X51683Y208267D01*
X52765Y208858D01*
X53307Y210039D01*
X52765Y211220D01*
X51683Y211811D01*
X48976Y211811D01*
X54606Y208858D02*
X54606Y204724D01*
X54606Y207086D02*
X56230Y208858D01*
X58937Y208858D01*
X60236Y207677D02*
X60236Y205905D01*
X60236Y207677D02*
X61318Y208858D01*
X63484Y208858D01*
X64566Y207677D01*
X64566Y205905D01*
X63484Y204724D01*
X61318Y204724D01*
X60236Y205905D01*
X65866Y202362D02*
X69114Y202362D01*
X70196Y203543D01*
X70196Y208858D01*
X68572Y208858D01*
X70196Y211811D02*
X70196Y211220D01*
X75826Y205314D02*
X74744Y204724D01*
X72578Y204724D01*
X71496Y205905D01*
X71496Y207677D01*
X72578Y208858D01*
X74744Y208858D01*
X75826Y208267D01*
X75826Y207677D01*
X74744Y207086D01*
X71496Y207086D01*
X81456Y208267D02*
X80374Y208858D01*
X78208Y208858D01*
X77125Y207677D01*
X77125Y205905D01*
X78208Y204724D01*
X80374Y204724D01*
X81456Y205314D01*
X82755Y211811D02*
X82755Y205905D01*
X83838Y204724D01*
X87086Y204724D01*
X82755Y208858D02*
X84921Y208858D01*
X94015Y202362D02*
X94015Y210629D01*
X95098Y211811D01*
X98346Y211811D01*
X94015Y207086D02*
X96181Y207086D01*
X99645Y208858D02*
X99645Y204724D01*
X99645Y207086D02*
X101269Y208858D01*
X103976Y208858D01*
X105275Y207677D02*
X105275Y205905D01*
X105275Y207677D02*
X106358Y208858D01*
X108523Y208858D01*
X109606Y207677D01*
X109606Y205905D01*
X108523Y204724D01*
X106358Y204724D01*
X105275Y205905D01*
X115236Y204724D02*
X115236Y207677D01*
X114153Y208858D01*
X113070Y204724D02*
X113070Y207677D01*
X110905Y208858D02*
X114153Y208858D01*
X110905Y204724D02*
X110905Y208858D01*
X113070Y207677D02*
X111988Y208858D01*
X122165Y211811D02*
X126496Y211811D01*
X124330Y211811D02*
X124330Y204724D01*
X127795Y204724D02*
X127795Y209448D01*
X127795Y207086D02*
X132125Y207086D01*
X132125Y209448D02*
X132125Y204724D01*
X127795Y209448D02*
X129960Y211811D01*
X132125Y209448D01*
X133425Y211811D02*
X133425Y204724D01*
X133425Y208267D02*
X136131Y208267D01*
X137214Y208858D01*
X137755Y210039D01*
X137214Y211220D01*
X136131Y211811D01*
X133425Y211811D01*
X135590Y208267D02*
X137755Y204724D01*
X140679Y211811D02*
X139596Y211220D01*
X139055Y210039D01*
X139055Y206496D01*
X139596Y205314D01*
X140679Y204724D01*
X141761Y204724D01*
X142844Y205314D01*
X143385Y206496D01*
X143385Y208267D01*
X142303Y208267D01*
X140679Y211811D02*
X141761Y211811D01*
X142844Y211220D01*
X144685Y211811D02*
X144685Y204724D01*
X149015Y204724D01*
X144685Y208267D02*
X146850Y208267D01*
X144685Y211811D02*
X149015Y211811D01*
X150314Y211811D02*
X154645Y211811D01*
X152480Y211811D02*
X152480Y204724D01*
X161574Y204724D02*
X161574Y211811D01*
X165905Y204724D01*
X165905Y211811D01*
X169911Y204724D02*
X170994Y205314D01*
X171535Y206496D01*
X169911Y204724D02*
X168828Y204724D01*
X167746Y205314D01*
X167204Y206496D01*
X167204Y210039D01*
X167746Y211220D01*
X168828Y211811D01*
X169911Y211811D01*
X170994Y211220D01*
X171535Y210039D01*
X182795Y205314D02*
X181712Y204724D01*
X179547Y204724D01*
X178464Y205905D01*
X178464Y207677D01*
X179547Y208858D01*
X181712Y208858D01*
X182795Y208267D01*
X182795Y207677D01*
X181712Y207086D01*
X178464Y207086D01*
X188425Y211811D02*
X188425Y204724D01*
X185177Y204724D01*
X184094Y205905D01*
X184094Y207677D01*
X185177Y208858D01*
X188425Y208858D01*
X189724Y204724D02*
X194055Y204724D01*
X191889Y204724D02*
X191889Y208858D01*
X191889Y211811D02*
X191889Y211220D01*
X190265Y208858D02*
X191889Y208858D01*
X195354Y211811D02*
X195354Y205905D01*
X196437Y204724D01*
X199685Y204724D01*
X195354Y208858D02*
X197519Y208858D01*
X200984Y204724D02*
X205314Y204724D01*
X203149Y204724D02*
X203149Y208858D01*
X203149Y211811D02*
X203149Y211220D01*
X201525Y208858D02*
X203149Y208858D01*
X206614Y207677D02*
X206614Y205905D01*
X206614Y207677D02*
X207696Y208858D01*
X209862Y208858D01*
X210944Y207677D01*
X210944Y205905D01*
X209862Y204724D01*
X207696Y204724D01*
X206614Y205905D01*
X212244Y204724D02*
X212244Y208858D01*
X212244Y207677D02*
X213326Y208858D01*
X215492Y208858D01*
X216574Y207677D01*
X216574Y204724D01*
X218956Y205314D02*
X218956Y204724D01*
X219498Y204724D01*
X219498Y205314D01*
X218956Y205314D01*
X219498Y208267D02*
X218956Y208267D01*
X218956Y207677D01*
X219498Y207677D01*
X219498Y208267D01*
X231840Y204724D02*
X232923Y205314D01*
X233464Y206496D01*
X231840Y204724D02*
X230757Y204724D01*
X229675Y205314D01*
X229133Y206496D01*
X229133Y210039D01*
X229675Y211220D01*
X230757Y211811D01*
X231840Y211811D01*
X232923Y211220D01*
X233464Y210039D01*
X234763Y207677D02*
X234763Y205905D01*
X234763Y207677D02*
X235846Y208858D01*
X238011Y208858D01*
X239094Y207677D01*
X239094Y205905D01*
X238011Y204724D01*
X235846Y204724D01*
X234763Y205905D01*
X244724Y204724D02*
X244724Y207677D01*
X243641Y208858D01*
X242559Y204724D02*
X242559Y207677D01*
X240393Y208858D02*
X243641Y208858D01*
X240393Y204724D02*
X240393Y208858D01*
X242559Y207677D02*
X241476Y208858D01*
X250354Y204724D02*
X250354Y207677D01*
X249271Y208858D01*
X248188Y204724D02*
X248188Y207677D01*
X246023Y208858D02*
X249271Y208858D01*
X246023Y204724D02*
X246023Y208858D01*
X248188Y207677D02*
X247106Y208858D01*
X255984Y205314D02*
X254901Y204724D01*
X252736Y204724D01*
X251653Y205905D01*
X251653Y207677D01*
X252736Y208858D01*
X254901Y208858D01*
X255984Y208267D01*
X255984Y207677D01*
X254901Y207086D01*
X251653Y207086D01*
X257283Y208858D02*
X257283Y204724D01*
X257283Y207086D02*
X258907Y208858D01*
X261614Y208858D01*
X267244Y208267D02*
X266161Y208858D01*
X263996Y208858D01*
X262913Y207677D01*
X262913Y205905D01*
X263996Y204724D01*
X266161Y204724D01*
X267244Y205314D01*
X268543Y204724D02*
X272874Y204724D01*
X270708Y204724D02*
X270708Y208858D01*
X270708Y211811D02*
X270708Y211220D01*
X269084Y208858D02*
X270708Y208858D01*
X274173Y205905D02*
X275255Y204724D01*
X277421Y204724D01*
X278503Y205905D01*
X274173Y205905D02*
X274173Y207677D01*
X275255Y208858D01*
X277421Y208858D01*
X278503Y207677D01*
X278503Y204724D01*
X279803Y204724D02*
X284133Y204724D01*
X280885Y211811D02*
X281968Y211811D01*
X281968Y204724D01*
X291062Y208858D02*
X291062Y205905D01*
X292145Y204724D01*
X294311Y204724D01*
X295393Y205905D01*
X295393Y208858D02*
X295393Y204724D01*
X296692Y204724D02*
X300482Y204724D01*
X301023Y205905D01*
X300482Y207086D01*
X297234Y207086D01*
X296692Y208267D01*
X297234Y208858D01*
X301023Y208858D01*
X306653Y205314D02*
X305570Y204724D01*
X303405Y204724D01*
X302322Y205905D01*
X302322Y207677D01*
X303405Y208858D01*
X305570Y208858D01*
X306653Y208267D01*
X306653Y207677D01*
X305570Y207086D01*
X302322Y207086D01*
X313582Y204724D02*
X317913Y204724D01*
X315748Y204724D02*
X315748Y208858D01*
X315748Y211811D02*
X315748Y211220D01*
X314124Y208858D02*
X315748Y208858D01*
X319212Y204724D02*
X323001Y204724D01*
X323543Y205905D01*
X323001Y207086D01*
X319753Y207086D01*
X319212Y208267D01*
X319753Y208858D01*
X323543Y208858D01*
X334803Y208267D02*
X333720Y208858D01*
X331555Y208858D01*
X330472Y207677D01*
X330472Y205905D01*
X331555Y204724D01*
X333720Y204724D01*
X334803Y205314D01*
X336102Y208858D02*
X336102Y204724D01*
X336102Y207086D02*
X337726Y208858D01*
X340433Y208858D01*
X341732Y204724D02*
X346062Y204724D01*
X343897Y204724D02*
X343897Y208858D01*
X343897Y211811D02*
X343897Y211220D01*
X342273Y208858D02*
X343897Y208858D01*
X351692Y204724D02*
X351692Y207677D01*
X350610Y208858D01*
X349527Y204724D02*
X349527Y207677D01*
X347362Y208858D02*
X350610Y208858D01*
X347362Y204724D02*
X347362Y208858D01*
X349527Y207677D02*
X348444Y208858D01*
X352992Y204724D02*
X357322Y204724D01*
X355157Y204724D02*
X355157Y208858D01*
X355157Y211811D02*
X355157Y211220D01*
X353533Y208858D02*
X355157Y208858D01*
X358622Y204724D02*
X358622Y208858D01*
X358622Y207677D02*
X359704Y208858D01*
X361870Y208858D01*
X362952Y207677D01*
X362952Y204724D01*
X364251Y205905D02*
X365334Y204724D01*
X367500Y204724D01*
X368582Y205905D01*
X364251Y205905D02*
X364251Y207677D01*
X365334Y208858D01*
X367500Y208858D01*
X368582Y207677D01*
X368582Y204724D01*
X369881Y204724D02*
X374212Y204724D01*
X370964Y211811D02*
X372047Y211811D01*
X372047Y204724D01*
X377677Y204724D02*
X377677Y205314D01*
X378218Y205314D01*
X378218Y204724D01*
X377677Y204724D01*
X377677Y207086D02*
X378218Y207086D01*
X378759Y210629D01*
X378218Y211811D01*
X377677Y211811D01*
X377135Y210629D01*
X377677Y207086D01*
X6643Y204724D02*
X7726Y205314D01*
X8267Y206496D01*
X6643Y204724D02*
X5561Y204724D01*
X4478Y205314D01*
X3937Y206496D01*
X3937Y210039D01*
X4478Y211220D01*
X5561Y211811D01*
X6643Y211811D01*
X7726Y211220D01*
X8267Y210039D01*
X9566Y208858D02*
X9566Y205905D01*
X10649Y204724D01*
X12814Y204724D01*
X13897Y205905D01*
X13897Y208858D02*
X13897Y204724D01*
X15196Y208858D02*
X15196Y204724D01*
X15196Y207086D02*
X16820Y208858D01*
X19527Y208858D01*
X20826Y208858D02*
X20826Y204724D01*
X20826Y207086D02*
X22450Y208858D01*
X25157Y208858D01*
X30787Y205314D02*
X29704Y204724D01*
X27539Y204724D01*
X26456Y205905D01*
X26456Y207677D01*
X27539Y208858D01*
X29704Y208858D01*
X30787Y208267D01*
X30787Y207677D01*
X29704Y207086D01*
X26456Y207086D01*
X32086Y204724D02*
X32086Y208858D01*
X32086Y207677D02*
X33169Y208858D01*
X35334Y208858D01*
X36417Y207677D01*
X36417Y204724D01*
X37716Y211811D02*
X37716Y205905D01*
X38799Y204724D01*
X42047Y204724D01*
X37716Y208858D02*
X39881Y208858D01*
X48976Y211811D02*
X48976Y204724D01*
X48976Y208267D02*
X51683Y208267D01*
X52765Y208858D01*
X53307Y210039D01*
X52765Y211220D01*
X51683Y211811D01*
X48976Y211811D01*
X54606Y208858D02*
X54606Y204724D01*
X54606Y207086D02*
X56230Y208858D01*
X58937Y208858D01*
X60236Y207677D02*
X60236Y205905D01*
X60236Y207677D02*
X61318Y208858D01*
X63484Y208858D01*
X64566Y207677D01*
X64566Y205905D01*
X63484Y204724D01*
X61318Y204724D01*
X60236Y205905D01*
X65866Y202362D02*
X69114Y202362D01*
X70196Y203543D01*
X70196Y208858D01*
X68572Y208858D01*
X70196Y211811D02*
X70196Y211220D01*
X75826Y205314D02*
X74744Y204724D01*
X72578Y204724D01*
X71496Y205905D01*
X71496Y207677D01*
X72578Y208858D01*
X74744Y208858D01*
X75826Y208267D01*
X75826Y207677D01*
X74744Y207086D01*
X71496Y207086D01*
X81456Y208267D02*
X80374Y208858D01*
X78208Y208858D01*
X77125Y207677D01*
X77125Y205905D01*
X78208Y204724D01*
X80374Y204724D01*
X81456Y205314D01*
X82755Y211811D02*
X82755Y205905D01*
X83838Y204724D01*
X87086Y204724D01*
X82755Y208858D02*
X84921Y208858D01*
X94015Y202362D02*
X94015Y210629D01*
X95098Y211811D01*
X98346Y211811D01*
X94015Y207086D02*
X96181Y207086D01*
X99645Y208858D02*
X99645Y204724D01*
X99645Y207086D02*
X101269Y208858D01*
X103976Y208858D01*
X105275Y207677D02*
X105275Y205905D01*
X105275Y207677D02*
X106358Y208858D01*
X108523Y208858D01*
X109606Y207677D01*
X109606Y205905D01*
X108523Y204724D01*
X106358Y204724D01*
X105275Y205905D01*
X115236Y204724D02*
X115236Y207677D01*
X114153Y208858D01*
X113070Y204724D02*
X113070Y207677D01*
X110905Y208858D02*
X114153Y208858D01*
X110905Y204724D02*
X110905Y208858D01*
X113070Y207677D02*
X111988Y208858D01*
X122165Y211811D02*
X126496Y211811D01*
X124330Y211811D02*
X124330Y204724D01*
X127795Y204724D02*
X127795Y209448D01*
X127795Y207086D02*
X132125Y207086D01*
X132125Y209448D02*
X132125Y204724D01*
X127795Y209448D02*
X129960Y211811D01*
X132125Y209448D01*
X133425Y211811D02*
X133425Y204724D01*
X133425Y208267D02*
X136131Y208267D01*
X137214Y208858D01*
X137755Y210039D01*
X137214Y211220D01*
X136131Y211811D01*
X133425Y211811D01*
X135590Y208267D02*
X137755Y204724D01*
X140679Y211811D02*
X139596Y211220D01*
X139055Y210039D01*
X139055Y206496D01*
X139596Y205314D01*
X140679Y204724D01*
X141761Y204724D01*
X142844Y205314D01*
X143385Y206496D01*
X143385Y208267D01*
X142303Y208267D01*
X140679Y211811D02*
X141761Y211811D01*
X142844Y211220D01*
X144685Y211811D02*
X144685Y204724D01*
X149015Y204724D01*
X144685Y208267D02*
X146850Y208267D01*
X144685Y211811D02*
X149015Y211811D01*
X150314Y211811D02*
X154645Y211811D01*
X152480Y211811D02*
X152480Y204724D01*
X161574Y204724D02*
X161574Y211811D01*
X165905Y204724D01*
X165905Y211811D01*
X169911Y204724D02*
X170994Y205314D01*
X171535Y206496D01*
X169911Y204724D02*
X168828Y204724D01*
X167746Y205314D01*
X167204Y206496D01*
X167204Y210039D01*
X167746Y211220D01*
X168828Y211811D01*
X169911Y211811D01*
X170994Y211220D01*
X171535Y210039D01*
X182795Y205314D02*
X181712Y204724D01*
X179547Y204724D01*
X178464Y205905D01*
X178464Y207677D01*
X179547Y208858D01*
X181712Y208858D01*
X182795Y208267D01*
X182795Y207677D01*
X181712Y207086D01*
X178464Y207086D01*
X188425Y211811D02*
X188425Y204724D01*
X185177Y204724D01*
X184094Y205905D01*
X184094Y207677D01*
X185177Y208858D01*
X188425Y208858D01*
X189724Y204724D02*
X194055Y204724D01*
X191889Y204724D02*
X191889Y208858D01*
X191889Y211811D02*
X191889Y211220D01*
X190265Y208858D02*
X191889Y208858D01*
X195354Y211811D02*
X195354Y205905D01*
X196437Y204724D01*
X199685Y204724D01*
X195354Y208858D02*
X197519Y208858D01*
X200984Y204724D02*
X205314Y204724D01*
X203149Y204724D02*
X203149Y208858D01*
X203149Y211811D02*
X203149Y211220D01*
X201525Y208858D02*
X203149Y208858D01*
X206614Y207677D02*
X206614Y205905D01*
X206614Y207677D02*
X207696Y208858D01*
X209862Y208858D01*
X210944Y207677D01*
X210944Y205905D01*
X209862Y204724D01*
X207696Y204724D01*
X206614Y205905D01*
X212244Y204724D02*
X212244Y208858D01*
X212244Y207677D02*
X213326Y208858D01*
X215492Y208858D01*
X216574Y207677D01*
X216574Y204724D01*
X218956Y205314D02*
X218956Y204724D01*
X219498Y204724D01*
X219498Y205314D01*
X218956Y205314D01*
X219498Y208267D02*
X218956Y208267D01*
X218956Y207677D01*
X219498Y207677D01*
X219498Y208267D01*
X231840Y204724D02*
X232923Y205314D01*
X233464Y206496D01*
X231840Y204724D02*
X230757Y204724D01*
X229675Y205314D01*
X229133Y206496D01*
X229133Y210039D01*
X229675Y211220D01*
X230757Y211811D01*
X231840Y211811D01*
X232923Y211220D01*
X233464Y210039D01*
X234763Y207677D02*
X234763Y205905D01*
X234763Y207677D02*
X235846Y208858D01*
X238011Y208858D01*
X239094Y207677D01*
X239094Y205905D01*
X238011Y204724D01*
X235846Y204724D01*
X234763Y205905D01*
X244724Y204724D02*
X244724Y207677D01*
X243641Y208858D01*
X242559Y204724D02*
X242559Y207677D01*
X240393Y208858D02*
X243641Y208858D01*
X240393Y204724D02*
X240393Y208858D01*
X242559Y207677D02*
X241476Y208858D01*
X250354Y204724D02*
X250354Y207677D01*
X249271Y208858D01*
X248188Y204724D02*
X248188Y207677D01*
X246023Y208858D02*
X249271Y208858D01*
X246023Y204724D02*
X246023Y208858D01*
X248188Y207677D02*
X247106Y208858D01*
X255984Y205314D02*
X254901Y204724D01*
X252736Y204724D01*
X251653Y205905D01*
X251653Y207677D01*
X252736Y208858D01*
X254901Y208858D01*
X255984Y208267D01*
X255984Y207677D01*
X254901Y207086D01*
X251653Y207086D01*
X257283Y208858D02*
X257283Y204724D01*
X257283Y207086D02*
X258907Y208858D01*
X261614Y208858D01*
X267244Y208267D02*
X266161Y208858D01*
X263996Y208858D01*
X262913Y207677D01*
X262913Y205905D01*
X263996Y204724D01*
X266161Y204724D01*
X267244Y205314D01*
X268543Y204724D02*
X272874Y204724D01*
X270708Y204724D02*
X270708Y208858D01*
X270708Y211811D02*
X270708Y211220D01*
X269084Y208858D02*
X270708Y208858D01*
X274173Y205905D02*
X275255Y204724D01*
X277421Y204724D01*
X278503Y205905D01*
X274173Y205905D02*
X274173Y207677D01*
X275255Y208858D01*
X277421Y208858D01*
X278503Y207677D01*
X278503Y204724D01*
X279803Y204724D02*
X284133Y204724D01*
X280885Y211811D02*
X281968Y211811D01*
X281968Y204724D01*
X291062Y208858D02*
X291062Y205905D01*
X292145Y204724D01*
X294311Y204724D01*
X295393Y205905D01*
X295393Y208858D02*
X295393Y204724D01*
X296692Y204724D02*
X300482Y204724D01*
X301023Y205905D01*
X300482Y207086D01*
X297234Y207086D01*
X296692Y208267D01*
X297234Y208858D01*
X301023Y208858D01*
X306653Y205314D02*
X305570Y204724D01*
X303405Y204724D01*
X302322Y205905D01*
X302322Y207677D01*
X303405Y208858D01*
X305570Y208858D01*
X306653Y208267D01*
X306653Y207677D01*
X305570Y207086D01*
X302322Y207086D01*
X313582Y204724D02*
X317913Y204724D01*
X315748Y204724D02*
X315748Y208858D01*
X315748Y211811D02*
X315748Y211220D01*
X314124Y208858D02*
X315748Y208858D01*
X319212Y204724D02*
X323001Y204724D01*
X323543Y205905D01*
X323001Y207086D01*
X319753Y207086D01*
X319212Y208267D01*
X319753Y208858D01*
X323543Y208858D01*
X334803Y208267D02*
X333720Y208858D01*
X331555Y208858D01*
X330472Y207677D01*
X330472Y205905D01*
X331555Y204724D01*
X333720Y204724D01*
X334803Y205314D01*
X336102Y208858D02*
X336102Y204724D01*
X336102Y207086D02*
X337726Y208858D01*
X340433Y208858D01*
X341732Y204724D02*
X346062Y204724D01*
X343897Y204724D02*
X343897Y208858D01*
X343897Y211811D02*
X343897Y211220D01*
X342273Y208858D02*
X343897Y208858D01*
X351692Y204724D02*
X351692Y207677D01*
X350610Y208858D01*
X349527Y204724D02*
X349527Y207677D01*
X347362Y208858D02*
X350610Y208858D01*
X347362Y204724D02*
X347362Y208858D01*
X349527Y207677D02*
X348444Y208858D01*
X352992Y204724D02*
X357322Y204724D01*
X355157Y204724D02*
X355157Y208858D01*
X355157Y211811D02*
X355157Y211220D01*
X353533Y208858D02*
X355157Y208858D01*
X358622Y204724D02*
X358622Y208858D01*
X358622Y207677D02*
X359704Y208858D01*
X361870Y208858D01*
X362952Y207677D01*
X362952Y204724D01*
X364251Y205905D02*
X365334Y204724D01*
X367500Y204724D01*
X368582Y205905D01*
X364251Y205905D02*
X364251Y207677D01*
X365334Y208858D01*
X367500Y208858D01*
X368582Y207677D01*
X368582Y204724D01*
X369881Y204724D02*
X374212Y204724D01*
X370964Y211811D02*
X372047Y211811D01*
X372047Y204724D01*
X377677Y204724D02*
X377677Y205314D01*
X378218Y205314D01*
X378218Y204724D01*
X377677Y204724D01*
X377677Y207086D02*
X378218Y207086D01*
X378759Y210629D01*
X378218Y211811D01*
X377677Y211811D01*
X377135Y210629D01*
X377677Y207086D01*
G54D20*
X392519Y195669D02*
X1181Y195669D01*
X1181Y1181D01*
X392519Y1181D01*
X392519Y195669D01*
X369344Y10039D02*
X364370Y15014D01*
X364370Y24355D01*
X369344Y29330D01*
X378686Y29330D01*
X383661Y24355D01*
X383661Y15014D01*
X378686Y10039D01*
X369344Y10039D01*
X15014Y10039D02*
X10039Y15014D01*
X10039Y24355D01*
X15014Y29330D01*
X24355Y29330D01*
X29330Y24355D01*
X29330Y15014D01*
X24355Y10039D01*
X15014Y10039D01*
X203085Y49015D02*
X200866Y51234D01*
X200866Y55064D01*
X202637Y56836D01*
X202637Y79128D01*
X210866Y87356D01*
X210866Y90064D01*
X213085Y92283D01*
X216914Y92283D01*
X219133Y90064D01*
X219133Y86234D01*
X216914Y84015D01*
X214206Y84015D01*
X207362Y77171D01*
X207362Y56836D01*
X209133Y55064D01*
X209133Y51234D01*
X206914Y49015D01*
X203085Y49015D01*
X234034Y139025D02*
X232142Y139722D01*
X230726Y141138D01*
X230029Y143030D01*
X230029Y145000D01*
X230726Y146893D01*
X232142Y148308D01*
X234034Y149005D01*
X236004Y149005D01*
X237897Y148308D01*
X239312Y146893D01*
X240009Y145000D01*
X240009Y143030D01*
X239312Y141138D01*
X237897Y139722D01*
X236004Y139025D01*
X234034Y139025D01*
X157695Y139025D02*
X155803Y139722D01*
X154388Y141138D01*
X153690Y143030D01*
X153690Y145000D01*
X154388Y146893D01*
X155803Y148308D01*
X157695Y149005D01*
X159666Y149005D01*
X161558Y148308D01*
X162974Y146893D01*
X163671Y145000D01*
X163671Y143030D01*
X162974Y141138D01*
X161558Y139722D01*
X159666Y139025D01*
X157695Y139025D01*
X179506Y139025D02*
X177614Y139722D01*
X176199Y141138D01*
X175501Y143030D01*
X175501Y145000D01*
X176199Y146893D01*
X177614Y148308D01*
X179506Y149005D01*
X181477Y149005D01*
X183369Y148308D01*
X184785Y146893D01*
X185482Y145000D01*
X185482Y143030D01*
X184785Y141138D01*
X183369Y139722D01*
X181477Y139025D01*
X179506Y139025D01*
X201317Y139025D02*
X199425Y139722D01*
X198010Y141138D01*
X197312Y143030D01*
X197312Y145000D01*
X198010Y146893D01*
X199425Y148308D01*
X201317Y149005D01*
X203288Y149005D01*
X205180Y148308D01*
X206596Y146893D01*
X207293Y145000D01*
X207293Y143030D01*
X206596Y141138D01*
X205180Y139722D01*
X203288Y139025D01*
X201317Y139025D01*
X190412Y139025D02*
X188520Y139722D01*
X187104Y141138D01*
X186407Y143030D01*
X186407Y145000D01*
X187104Y146893D01*
X188520Y148308D01*
X190412Y149005D01*
X192382Y149005D01*
X194275Y148308D01*
X195690Y146893D01*
X196387Y145000D01*
X196387Y143030D01*
X195690Y141138D01*
X194275Y139722D01*
X192382Y139025D01*
X190412Y139025D01*
X154021Y8287D02*
X135137Y27171D01*
X135137Y59463D01*
X133366Y61234D01*
X133366Y65064D01*
X135585Y67283D01*
X139414Y67283D01*
X141633Y65064D01*
X141633Y61234D01*
X139862Y59463D01*
X139862Y29128D01*
X155978Y13011D01*
X279021Y13011D01*
X297637Y31628D01*
X297637Y149463D01*
X295866Y151234D01*
X295866Y155064D01*
X298085Y157283D01*
X301914Y157283D01*
X304133Y155064D01*
X304133Y151234D01*
X302362Y149463D01*
X302362Y29671D01*
X280978Y8287D01*
X154021Y8287D01*
X129258Y139535D02*
X125435Y140943D01*
X122597Y143781D01*
X121188Y147604D01*
X121188Y151607D01*
X122597Y155430D01*
X125435Y158268D01*
X129258Y159677D01*
X133261Y159677D01*
X137084Y158268D01*
X139922Y155430D01*
X141330Y151607D01*
X141330Y147604D01*
X139922Y143781D01*
X137084Y140943D01*
X133261Y139535D01*
X129258Y139535D01*
X260439Y139535D02*
X256616Y140943D01*
X253778Y143781D01*
X252370Y147604D01*
X252370Y151607D01*
X253778Y155430D01*
X256616Y158268D01*
X260439Y159677D01*
X264442Y159677D01*
X268265Y158268D01*
X271103Y155430D01*
X272511Y151607D01*
X272511Y147604D01*
X271103Y143781D01*
X268265Y140943D01*
X264442Y139535D01*
X260439Y139535D01*
X163148Y150206D02*
X161256Y150903D01*
X159840Y152319D01*
X159143Y154211D01*
X159143Y156182D01*
X159840Y158074D01*
X161256Y159489D01*
X163148Y160187D01*
X165119Y160187D01*
X167011Y159489D01*
X168426Y158074D01*
X169124Y156182D01*
X169124Y154211D01*
X168426Y152319D01*
X167011Y150903D01*
X165119Y150206D01*
X163148Y150206D01*
X174054Y150206D02*
X172161Y150903D01*
X170746Y152319D01*
X170049Y154211D01*
X170049Y156182D01*
X170746Y158074D01*
X172161Y159489D01*
X174054Y160187D01*
X176024Y160187D01*
X177917Y159489D01*
X179332Y158074D01*
X180029Y156182D01*
X180029Y154211D01*
X179332Y152319D01*
X177917Y150903D01*
X176024Y150206D01*
X174054Y150206D01*
X184959Y150206D02*
X183067Y150903D01*
X181651Y152319D01*
X180954Y154211D01*
X180954Y156182D01*
X181651Y158074D01*
X183067Y159489D01*
X184959Y160187D01*
X186930Y160187D01*
X188822Y159489D01*
X190237Y158074D01*
X190935Y156182D01*
X190935Y154211D01*
X190237Y152319D01*
X188822Y150903D01*
X186930Y150206D01*
X184959Y150206D01*
X228581Y150206D02*
X226689Y150903D01*
X225273Y152319D01*
X224576Y154211D01*
X224576Y156182D01*
X225273Y158074D01*
X226689Y159489D01*
X228581Y160187D01*
X230552Y160187D01*
X232444Y159489D01*
X233859Y158074D01*
X234557Y156182D01*
X234557Y154211D01*
X233859Y152319D01*
X232444Y150903D01*
X230552Y150206D01*
X228581Y150206D01*
X148085Y29015D02*
X145866Y31234D01*
X145866Y35064D01*
X147637Y36836D01*
X147637Y82171D01*
X120137Y109671D01*
X120137Y126963D01*
X118366Y128734D01*
X118366Y132564D01*
X120585Y134783D01*
X124414Y134783D01*
X126633Y132564D01*
X126633Y128734D01*
X124862Y126963D01*
X124862Y111628D01*
X152362Y84128D01*
X152362Y49003D01*
X152659Y49301D01*
X152638Y128450D01*
X152637Y128450D01*
X152637Y129436D01*
X152637Y130407D01*
X152637Y130407D01*
X152637Y130407D01*
X153329Y131099D01*
X153329Y131099D01*
X154020Y131791D01*
X154021Y131791D01*
X164775Y142545D01*
X164596Y143030D01*
X164596Y145000D01*
X165293Y146893D01*
X166708Y148308D01*
X168601Y149005D01*
X170571Y149005D01*
X172464Y148308D01*
X173879Y146893D01*
X174576Y145000D01*
X174576Y143030D01*
X173879Y141138D01*
X172464Y139722D01*
X170571Y139025D01*
X168601Y139025D01*
X168115Y139204D01*
X157362Y128450D01*
X157384Y49303D01*
X157637Y49050D01*
X157637Y104128D01*
X159021Y105511D01*
X216299Y105511D01*
X216299Y139935D01*
X216086Y139722D01*
X214193Y139025D01*
X212223Y139025D01*
X210331Y139722D01*
X208915Y141138D01*
X208218Y143030D01*
X208218Y145000D01*
X208915Y146893D01*
X210331Y148308D01*
X212223Y149005D01*
X214193Y149005D01*
X216086Y148308D01*
X216299Y148095D01*
X216299Y150713D01*
X215783Y150903D01*
X214368Y152319D01*
X213671Y154211D01*
X213671Y156182D01*
X214368Y158074D01*
X215783Y159489D01*
X217676Y160187D01*
X219646Y160187D01*
X221539Y159489D01*
X222954Y158074D01*
X223651Y156182D01*
X223651Y154211D01*
X222954Y152319D01*
X221539Y150903D01*
X221023Y150713D01*
X221023Y148095D01*
X221236Y148308D01*
X223128Y149005D01*
X225099Y149005D01*
X226991Y148308D01*
X228407Y146893D01*
X229104Y145000D01*
X229104Y143030D01*
X228407Y141138D01*
X226991Y139722D01*
X225099Y139025D01*
X224862Y139025D01*
X224862Y99671D01*
X223478Y98287D01*
X210911Y98287D01*
X211633Y97564D01*
X211633Y93734D01*
X209414Y91515D01*
X206706Y91515D01*
X199862Y84671D01*
X199862Y64336D01*
X201633Y62564D01*
X201633Y58734D01*
X199414Y56515D01*
X195585Y56515D01*
X193366Y58734D01*
X193366Y62564D01*
X195137Y64336D01*
X195137Y86628D01*
X203366Y94856D01*
X203366Y97564D01*
X204089Y98287D01*
X185978Y98287D01*
X184862Y97171D01*
X184862Y49336D01*
X186633Y47564D01*
X186633Y43734D01*
X184414Y41515D01*
X180585Y41515D01*
X178366Y43734D01*
X178366Y47564D01*
X180137Y49336D01*
X180137Y99128D01*
X181797Y100787D01*
X162362Y100787D01*
X162362Y36836D01*
X164133Y35064D01*
X164133Y31234D01*
X161914Y29015D01*
X158085Y29015D01*
X155866Y31234D01*
X155866Y35064D01*
X157637Y36836D01*
X157637Y42181D01*
X156938Y41482D01*
X153108Y41482D01*
X152362Y42228D01*
X152362Y36836D01*
X154133Y35064D01*
X154133Y31234D01*
X151914Y29015D01*
X148085Y29015D01*
X206770Y150206D02*
X204878Y150903D01*
X203462Y152319D01*
X202765Y154211D01*
X202765Y156182D01*
X203462Y158074D01*
X204878Y159489D01*
X206770Y160187D01*
X208741Y160187D01*
X210633Y159489D01*
X212048Y158074D01*
X212746Y156182D01*
X212746Y154211D01*
X212048Y152319D01*
X210633Y150903D01*
X208741Y150206D01*
X206770Y150206D01*
X195865Y150206D02*
X193972Y150903D01*
X192557Y152319D01*
X191860Y154211D01*
X191860Y156182D01*
X192557Y158074D01*
X193972Y159489D01*
X195865Y160187D01*
X197835Y160187D01*
X199728Y159489D01*
X201143Y158074D01*
X201840Y156182D01*
X201840Y154211D01*
X201143Y152319D01*
X199728Y150903D01*
X197835Y150206D01*
X195865Y150206D01*
X85781Y169685D02*
X83858Y171608D01*
X83858Y174848D01*
X85781Y176771D01*
X89021Y176771D01*
X90944Y174848D01*
X90944Y171608D01*
X89021Y169685D01*
X85781Y169685D01*
X68459Y169685D02*
X66535Y171608D01*
X66535Y174848D01*
X68459Y176771D01*
X71698Y176771D01*
X73622Y174848D01*
X73622Y171608D01*
X71698Y169685D01*
X68459Y169685D01*
X369344Y167519D02*
X364370Y172494D01*
X364370Y181836D01*
X369344Y186811D01*
X378686Y186811D01*
X383661Y181836D01*
X383661Y172494D01*
X378686Y167519D01*
X369344Y167519D01*
X15014Y167519D02*
X10039Y172494D01*
X10039Y181836D01*
X15014Y186811D01*
X24355Y186811D01*
X29330Y181836D01*
X29330Y172494D01*
X24355Y167519D01*
X15014Y167519D01*
X169586Y144015D02*
X155000Y129429D01*
X155023Y45615D01*
X222500Y142401D02*
X222500Y100649D01*
X222500Y142401D02*
X224114Y144015D01*
X222500Y100649D02*
X185000Y100649D01*
X182500Y98149D01*
X182500Y45649D01*
X215000Y88149D02*
X205000Y78149D01*
X205000Y53149D01*
X207500Y95649D02*
X197500Y85649D01*
X197500Y60649D01*
X137500Y63149D02*
X137500Y28149D01*
X155000Y10649D01*
X280000Y10649D01*
X300000Y30649D01*
X300000Y153149D01*
X218661Y155196D02*
X218661Y103149D01*
X160000Y103149D01*
X160000Y33149D01*
X122500Y130649D02*
X122500Y110649D01*
X150000Y83149D01*
X150000Y33149D01*
G54D25*
X191397Y144015D03*
X202303Y144015D03*
X213208Y144015D03*
X224114Y144015D03*
X180492Y144015D03*
X169586Y144015D03*
X158681Y144015D03*
X235019Y144015D03*
X196850Y155196D03*
X207755Y155196D03*
X218661Y155196D03*
X229566Y155196D03*
X185944Y155196D03*
X175039Y155196D03*
X164133Y155196D03*
G54D26*
X262440Y149606D03*
X131259Y149606D03*
G54D40*
X237500Y53149D03*
X175000Y88149D03*
X190000Y85649D03*
X92500Y60649D03*
X190000Y40649D03*
X237500Y25649D03*
X155023Y45615D03*
X182500Y45649D03*
X215000Y88149D03*
X205000Y53149D03*
X207500Y95649D03*
X197500Y60649D03*
X137500Y63149D03*
X300000Y153149D03*
X160000Y33149D03*
X122500Y130649D03*
X150000Y33149D03*
G54D41*
X19685Y177165D03*
X19685Y19685D03*
X374015Y19685D03*
X374015Y177165D03*
G36*
X186407Y142834D02*
X186407Y145196D01*
X191397Y145196D01*
X191397Y142834D01*
X186407Y142834D01*
G37*
G36*
X191397Y142834D02*
X191397Y145196D01*
X196387Y145196D01*
X196387Y142834D01*
X191397Y142834D01*
G37*
G36*
X190216Y139025D02*
X190216Y144015D01*
X192578Y144015D01*
X192578Y139025D01*
X190216Y139025D01*
G37*
G36*
X190216Y144015D02*
X190216Y149005D01*
X192578Y149005D01*
X192578Y144015D01*
X190216Y144015D01*
G37*
G36*
X252370Y148425D02*
X252370Y150787D01*
X262440Y150787D01*
X262440Y148425D01*
X252370Y148425D01*
G37*
G36*
X262440Y148425D02*
X262440Y150787D01*
X272511Y150787D01*
X272511Y148425D01*
X262440Y148425D01*
G37*
G36*
X261259Y139535D02*
X261259Y149606D01*
X263622Y149606D01*
X263622Y139535D01*
X261259Y139535D01*
G37*
G36*
X261259Y149606D02*
X261259Y159677D01*
X263622Y159677D01*
X263622Y149606D01*
X261259Y149606D01*
G37*
G36*
X121188Y148425D02*
X121188Y150787D01*
X131259Y150787D01*
X131259Y148425D01*
X121188Y148425D01*
G37*
G36*
X131259Y148425D02*
X131259Y150787D01*
X141330Y150787D01*
X141330Y148425D01*
X131259Y148425D01*
G37*
G36*
X130078Y139535D02*
X130078Y149606D01*
X132440Y149606D01*
X132440Y139535D01*
X130078Y139535D01*
G37*
G36*
X130078Y149606D02*
X130078Y159677D01*
X132440Y159677D01*
X132440Y149606D01*
X130078Y149606D01*
G37*
G36*
X15014Y186811D02*
X1181Y195669D01*
X392519Y195669D01*
X15014Y186811D01*
G37*
G36*
X24355Y186811D02*
X15014Y186811D01*
X392519Y195669D01*
X24355Y186811D01*
G37*
G36*
X369344Y186811D02*
X24355Y186811D01*
X392519Y195669D01*
X369344Y186811D01*
G37*
G36*
X378686Y186811D02*
X369344Y186811D01*
X392519Y195669D01*
X378686Y186811D01*
G37*
G36*
X10039Y181836D02*
X1181Y195669D01*
X15014Y186811D01*
X10039Y181836D01*
G37*
G36*
X29330Y181836D02*
X24355Y186811D01*
X369344Y186811D01*
X29330Y181836D01*
G37*
G36*
X364370Y181836D02*
X29330Y181836D01*
X369344Y186811D01*
X364370Y181836D01*
G37*
G36*
X383661Y181836D02*
X378686Y186811D01*
X392519Y195669D01*
X383661Y181836D01*
G37*
G36*
X68459Y176771D02*
X29330Y181836D01*
X364370Y181836D01*
X68459Y176771D01*
G37*
G36*
X71698Y176771D02*
X68459Y176771D01*
X364370Y181836D01*
X71698Y176771D01*
G37*
G36*
X85781Y176771D02*
X71698Y176771D01*
X364370Y181836D01*
X85781Y176771D01*
G37*
G36*
X89021Y176771D02*
X85781Y176771D01*
X364370Y181836D01*
X89021Y176771D01*
G37*
G36*
X66535Y174848D02*
X29330Y181836D01*
X68459Y176771D01*
X66535Y174848D01*
G37*
G36*
X73622Y174848D02*
X71698Y176771D01*
X85781Y176771D01*
X73622Y174848D01*
G37*
G36*
X83858Y174848D02*
X73622Y174848D01*
X85781Y176771D01*
X83858Y174848D01*
G37*
G36*
X90944Y174848D02*
X89021Y176771D01*
X364370Y181836D01*
X90944Y174848D01*
G37*
G36*
X10039Y172494D02*
X1181Y195669D01*
X10039Y181836D01*
X10039Y172494D01*
G37*
G36*
X29330Y172494D02*
X29330Y181836D01*
X66535Y174848D01*
X29330Y172494D01*
G37*
G36*
X364370Y172494D02*
X90944Y174848D01*
X364370Y181836D01*
X364370Y172494D01*
G37*
G36*
X383661Y172494D02*
X383661Y181836D01*
X392519Y195669D01*
X383661Y172494D01*
G37*
G36*
X66535Y171608D02*
X29330Y172494D01*
X66535Y174848D01*
X66535Y171608D01*
G37*
G36*
X73622Y171608D02*
X73622Y174848D01*
X83858Y174848D01*
X73622Y171608D01*
G37*
G36*
X83858Y171608D02*
X73622Y171608D01*
X83858Y174848D01*
X83858Y171608D01*
G37*
G36*
X90944Y171608D02*
X90944Y174848D01*
X364370Y172494D01*
X90944Y171608D01*
G37*
G36*
X68459Y169685D02*
X29330Y172494D01*
X66535Y171608D01*
X68459Y169685D01*
G37*
G36*
X71698Y169685D02*
X73622Y171608D01*
X83858Y171608D01*
X71698Y169685D01*
G37*
G36*
X85781Y169685D02*
X71698Y169685D01*
X83858Y171608D01*
X85781Y169685D01*
G37*
G36*
X89021Y169685D02*
X90944Y171608D01*
X364370Y172494D01*
X89021Y169685D01*
G37*
G36*
X24355Y167519D02*
X29330Y172494D01*
X68459Y169685D01*
X24355Y167519D01*
G37*
G36*
X24355Y167519D02*
X68459Y169685D01*
X89021Y169685D01*
X24355Y167519D01*
G37*
G36*
X24355Y167519D02*
X89021Y169685D01*
X364370Y172494D01*
X24355Y167519D01*
G37*
G36*
X369344Y167519D02*
X24355Y167519D01*
X364370Y172494D01*
X369344Y167519D01*
G37*
G36*
X163148Y160187D02*
X15014Y167519D01*
X378686Y167519D01*
X163148Y160187D01*
G37*
G36*
X165119Y160187D02*
X163148Y160187D01*
X378686Y167519D01*
X165119Y160187D01*
G37*
G36*
X174054Y160187D02*
X165119Y160187D01*
X378686Y167519D01*
X174054Y160187D01*
G37*
G36*
X176024Y160187D02*
X174054Y160187D01*
X378686Y167519D01*
X176024Y160187D01*
G37*
G36*
X184959Y160187D02*
X176024Y160187D01*
X378686Y167519D01*
X184959Y160187D01*
G37*
G36*
X186930Y160187D02*
X184959Y160187D01*
X378686Y167519D01*
X186930Y160187D01*
G37*
G36*
X195865Y160187D02*
X186930Y160187D01*
X378686Y167519D01*
X195865Y160187D01*
G37*
G36*
X197835Y160187D02*
X195865Y160187D01*
X378686Y167519D01*
X197835Y160187D01*
G37*
G36*
X206770Y160187D02*
X197835Y160187D01*
X378686Y167519D01*
X206770Y160187D01*
G37*
G36*
X208741Y160187D02*
X206770Y160187D01*
X378686Y167519D01*
X208741Y160187D01*
G37*
G36*
X217676Y160187D02*
X208741Y160187D01*
X378686Y167519D01*
X217676Y160187D01*
G37*
G36*
X219646Y160187D02*
X217676Y160187D01*
X378686Y167519D01*
X219646Y160187D01*
G37*
G36*
X228581Y160187D02*
X219646Y160187D01*
X378686Y167519D01*
X228581Y160187D01*
G37*
G36*
X230552Y160187D02*
X228581Y160187D01*
X378686Y167519D01*
X230552Y160187D01*
G37*
G36*
X129258Y159677D02*
X15014Y167519D01*
X163148Y160187D01*
X129258Y159677D01*
G37*
G36*
X133261Y159677D02*
X129258Y159677D01*
X163148Y160187D01*
X133261Y159677D01*
G37*
G36*
X260439Y159677D02*
X230552Y160187D01*
X378686Y167519D01*
X260439Y159677D01*
G37*
G36*
X264442Y159677D02*
X260439Y159677D01*
X378686Y167519D01*
X264442Y159677D01*
G37*
G36*
X161256Y159489D02*
X133261Y159677D01*
X163148Y160187D01*
X161256Y159489D01*
G37*
G36*
X167011Y159489D02*
X165119Y160187D01*
X174054Y160187D01*
X167011Y159489D01*
G37*
G36*
X172161Y159489D02*
X167011Y159489D01*
X174054Y160187D01*
X172161Y159489D01*
G37*
G36*
X177917Y159489D02*
X176024Y160187D01*
X184959Y160187D01*
X177917Y159489D01*
G37*
G36*
X183067Y159489D02*
X177917Y159489D01*
X184959Y160187D01*
X183067Y159489D01*
G37*
G36*
X188822Y159489D02*
X186930Y160187D01*
X195865Y160187D01*
X188822Y159489D01*
G37*
G36*
X193972Y159489D02*
X188822Y159489D01*
X195865Y160187D01*
X193972Y159489D01*
G37*
G36*
X199728Y159489D02*
X197835Y160187D01*
X206770Y160187D01*
X199728Y159489D01*
G37*
G36*
X204878Y159489D02*
X199728Y159489D01*
X206770Y160187D01*
X204878Y159489D01*
G37*
G36*
X210633Y159489D02*
X208741Y160187D01*
X217676Y160187D01*
X210633Y159489D01*
G37*
G36*
X215783Y159489D02*
X210633Y159489D01*
X217676Y160187D01*
X215783Y159489D01*
G37*
G36*
X221539Y159489D02*
X219646Y160187D01*
X228581Y160187D01*
X221539Y159489D01*
G37*
G36*
X226689Y159489D02*
X221539Y159489D01*
X228581Y160187D01*
X226689Y159489D01*
G37*
G36*
X232444Y159489D02*
X230552Y160187D01*
X260439Y159677D01*
X232444Y159489D01*
G37*
G36*
X125435Y158268D02*
X15014Y167519D01*
X129258Y159677D01*
X125435Y158268D01*
G37*
G36*
X137084Y158268D02*
X133261Y159677D01*
X161256Y159489D01*
X137084Y158268D01*
G37*
G36*
X256616Y158268D02*
X232444Y159489D01*
X260439Y159677D01*
X256616Y158268D01*
G37*
G36*
X268265Y158268D02*
X264442Y159677D01*
X378686Y167519D01*
X268265Y158268D01*
G37*
G36*
X159840Y158074D02*
X137084Y158268D01*
X161256Y159489D01*
X159840Y158074D01*
G37*
G36*
X168426Y158074D02*
X167011Y159489D01*
X172161Y159489D01*
X168426Y158074D01*
G37*
G36*
X170746Y158074D02*
X168426Y158074D01*
X172161Y159489D01*
X170746Y158074D01*
G37*
G36*
X179332Y158074D02*
X177917Y159489D01*
X183067Y159489D01*
X179332Y158074D01*
G37*
G36*
X181651Y158074D02*
X179332Y158074D01*
X183067Y159489D01*
X181651Y158074D01*
G37*
G36*
X190237Y158074D02*
X188822Y159489D01*
X193972Y159489D01*
X190237Y158074D01*
G37*
G36*
X192557Y158074D02*
X190237Y158074D01*
X193972Y159489D01*
X192557Y158074D01*
G37*
G36*
X201143Y158074D02*
X199728Y159489D01*
X204878Y159489D01*
X201143Y158074D01*
G37*
G36*
X203462Y158074D02*
X201143Y158074D01*
X204878Y159489D01*
X203462Y158074D01*
G37*
G36*
X212048Y158074D02*
X210633Y159489D01*
X215783Y159489D01*
X212048Y158074D01*
G37*
G36*
X214368Y158074D02*
X212048Y158074D01*
X215783Y159489D01*
X214368Y158074D01*
G37*
G36*
X222954Y158074D02*
X221539Y159489D01*
X226689Y159489D01*
X222954Y158074D01*
G37*
G36*
X225273Y158074D02*
X222954Y158074D01*
X226689Y159489D01*
X225273Y158074D01*
G37*
G36*
X233859Y158074D02*
X232444Y159489D01*
X256616Y158268D01*
X233859Y158074D01*
G37*
G36*
X298085Y157283D02*
X268265Y158268D01*
X378686Y167519D01*
X298085Y157283D01*
G37*
G36*
X301914Y157283D02*
X298085Y157283D01*
X378686Y167519D01*
X301914Y157283D01*
G37*
G36*
X159143Y156182D02*
X137084Y158268D01*
X159840Y158074D01*
X159143Y156182D01*
G37*
G36*
X169124Y156182D02*
X168426Y158074D01*
X170746Y158074D01*
X169124Y156182D01*
G37*
G36*
X170049Y156182D02*
X169124Y156182D01*
X170746Y158074D01*
X170049Y156182D01*
G37*
G36*
X180029Y156182D02*
X179332Y158074D01*
X181651Y158074D01*
X180029Y156182D01*
G37*
G36*
X180954Y156182D02*
X180029Y156182D01*
X181651Y158074D01*
X180954Y156182D01*
G37*
G36*
X190935Y156182D02*
X190237Y158074D01*
X192557Y158074D01*
X190935Y156182D01*
G37*
G36*
X191860Y156182D02*
X190935Y156182D01*
X192557Y158074D01*
X191860Y156182D01*
G37*
G36*
X201840Y156182D02*
X201143Y158074D01*
X203462Y158074D01*
X201840Y156182D01*
G37*
G36*
X202765Y156182D02*
X201840Y156182D01*
X203462Y158074D01*
X202765Y156182D01*
G37*
G36*
X212746Y156182D02*
X212048Y158074D01*
X214368Y158074D01*
X212746Y156182D01*
G37*
G36*
X213671Y156182D02*
X212746Y156182D01*
X214368Y158074D01*
X213671Y156182D01*
G37*
G36*
X223651Y156182D02*
X222954Y158074D01*
X225273Y158074D01*
X223651Y156182D01*
G37*
G36*
X224576Y156182D02*
X223651Y156182D01*
X225273Y158074D01*
X224576Y156182D01*
G37*
G36*
X234557Y156182D02*
X233859Y158074D01*
X256616Y158268D01*
X234557Y156182D01*
G37*
G36*
X122597Y155430D02*
X15014Y167519D01*
X125435Y158268D01*
X122597Y155430D01*
G37*
G36*
X139922Y155430D02*
X137084Y158268D01*
X159143Y156182D01*
X139922Y155430D01*
G37*
G36*
X253778Y155430D02*
X234557Y156182D01*
X256616Y158268D01*
X253778Y155430D01*
G37*
G36*
X271103Y155430D02*
X268265Y158268D01*
X298085Y157283D01*
X271103Y155430D01*
G37*
G36*
X295866Y155064D02*
X271103Y155430D01*
X298085Y157283D01*
X295866Y155064D01*
G37*
G36*
X304133Y155064D02*
X301914Y157283D01*
X378686Y167519D01*
X304133Y155064D01*
G37*
G36*
X159143Y154211D02*
X139922Y155430D01*
X159143Y156182D01*
X159143Y154211D01*
G37*
G36*
X169124Y154211D02*
X169124Y156182D01*
X170049Y156182D01*
X169124Y154211D01*
G37*
G36*
X170049Y154211D02*
X169124Y154211D01*
X170049Y156182D01*
X170049Y154211D01*
G37*
G36*
X180029Y154211D02*
X180029Y156182D01*
X180954Y156182D01*
X180029Y154211D01*
G37*
G36*
X180954Y154211D02*
X180029Y154211D01*
X180954Y156182D01*
X180954Y154211D01*
G37*
G36*
X190935Y154211D02*
X190935Y156182D01*
X191860Y156182D01*
X190935Y154211D01*
G37*
G36*
X191860Y154211D02*
X190935Y154211D01*
X191860Y156182D01*
X191860Y154211D01*
G37*
G36*
X201840Y154211D02*
X201840Y156182D01*
X202765Y156182D01*
X201840Y154211D01*
G37*
G36*
X202765Y154211D02*
X201840Y154211D01*
X202765Y156182D01*
X202765Y154211D01*
G37*
G36*
X212746Y154211D02*
X212746Y156182D01*
X213671Y156182D01*
X212746Y154211D01*
G37*
G36*
X213671Y154211D02*
X212746Y154211D01*
X213671Y156182D01*
X213671Y154211D01*
G37*
G36*
X223651Y154211D02*
X223651Y156182D01*
X224576Y156182D01*
X223651Y154211D01*
G37*
G36*
X224576Y154211D02*
X223651Y154211D01*
X224576Y156182D01*
X224576Y154211D01*
G37*
G36*
X234557Y154211D02*
X234557Y156182D01*
X253778Y155430D01*
X234557Y154211D01*
G37*
G36*
X159840Y152319D02*
X139922Y155430D01*
X159143Y154211D01*
X159840Y152319D01*
G37*
G36*
X168426Y152319D02*
X169124Y154211D01*
X170049Y154211D01*
X168426Y152319D01*
G37*
G36*
X170746Y152319D02*
X168426Y152319D01*
X170049Y154211D01*
X170746Y152319D01*
G37*
G36*
X179332Y152319D02*
X180029Y154211D01*
X180954Y154211D01*
X179332Y152319D01*
G37*
G36*
X181651Y152319D02*
X179332Y152319D01*
X180954Y154211D01*
X181651Y152319D01*
G37*
G36*
X190237Y152319D02*
X190935Y154211D01*
X191860Y154211D01*
X190237Y152319D01*
G37*
G36*
X192557Y152319D02*
X190237Y152319D01*
X191860Y154211D01*
X192557Y152319D01*
G37*
G36*
X201143Y152319D02*
X201840Y154211D01*
X202765Y154211D01*
X201143Y152319D01*
G37*
G36*
X203462Y152319D02*
X201143Y152319D01*
X202765Y154211D01*
X203462Y152319D01*
G37*
G36*
X212048Y152319D02*
X212746Y154211D01*
X213671Y154211D01*
X212048Y152319D01*
G37*
G36*
X214368Y152319D02*
X212048Y152319D01*
X213671Y154211D01*
X214368Y152319D01*
G37*
G36*
X222954Y152319D02*
X223651Y154211D01*
X224576Y154211D01*
X222954Y152319D01*
G37*
G36*
X225273Y152319D02*
X222954Y152319D01*
X224576Y154211D01*
X225273Y152319D01*
G37*
G36*
X233859Y152319D02*
X234557Y154211D01*
X253778Y155430D01*
X233859Y152319D01*
G37*
G36*
X121188Y151607D02*
X15014Y167519D01*
X122597Y155430D01*
X121188Y151607D01*
G37*
G36*
X141330Y151607D02*
X139922Y155430D01*
X159840Y152319D01*
X141330Y151607D01*
G37*
G36*
X252370Y151607D02*
X233859Y152319D01*
X253778Y155430D01*
X252370Y151607D01*
G37*
G36*
X272511Y151607D02*
X271103Y155430D01*
X295866Y155064D01*
X272511Y151607D01*
G37*
G36*
X295866Y151234D02*
X272511Y151607D01*
X295866Y155064D01*
X295866Y151234D01*
G37*
G36*
X304133Y151234D02*
X304133Y155064D01*
X378686Y167519D01*
X304133Y151234D01*
G37*
G36*
X161256Y150903D02*
X141330Y151607D01*
X159840Y152319D01*
X161256Y150903D01*
G37*
G36*
X167011Y150903D02*
X168426Y152319D01*
X170746Y152319D01*
X167011Y150903D01*
G37*
G36*
X172161Y150903D02*
X167011Y150903D01*
X170746Y152319D01*
X172161Y150903D01*
G37*
G36*
X177917Y150903D02*
X179332Y152319D01*
X181651Y152319D01*
X177917Y150903D01*
G37*
G36*
X183067Y150903D02*
X177917Y150903D01*
X181651Y152319D01*
X183067Y150903D01*
G37*
G36*
X188822Y150903D02*
X190237Y152319D01*
X192557Y152319D01*
X188822Y150903D01*
G37*
G36*
X193972Y150903D02*
X188822Y150903D01*
X192557Y152319D01*
X193972Y150903D01*
G37*
G36*
X199728Y150903D02*
X201143Y152319D01*
X203462Y152319D01*
X199728Y150903D01*
G37*
G36*
X204878Y150903D02*
X199728Y150903D01*
X203462Y152319D01*
X204878Y150903D01*
G37*
G36*
X210633Y150903D02*
X212048Y152319D01*
X214368Y152319D01*
X210633Y150903D01*
G37*
G36*
X215783Y150903D02*
X210633Y150903D01*
X214368Y152319D01*
X215783Y150903D01*
G37*
G36*
X221539Y150903D02*
X222954Y152319D01*
X225273Y152319D01*
X221539Y150903D01*
G37*
G36*
X226689Y150903D02*
X221539Y150903D01*
X225273Y152319D01*
X226689Y150903D01*
G37*
G36*
X232444Y150903D02*
X233859Y152319D01*
X252370Y151607D01*
X232444Y150903D01*
G37*
G36*
X216299Y150714D02*
X210633Y150903D01*
X215783Y150903D01*
X216299Y150714D01*
G37*
G36*
X221023Y150714D02*
X221539Y150903D01*
X226689Y150903D01*
X221023Y150714D01*
G37*
G36*
X163148Y150206D02*
X141330Y151607D01*
X161256Y150903D01*
X163148Y150206D01*
G37*
G36*
X165119Y150206D02*
X167011Y150903D01*
X172161Y150903D01*
X165119Y150206D01*
G37*
G36*
X174054Y150206D02*
X165119Y150206D01*
X172161Y150903D01*
X174054Y150206D01*
G37*
G36*
X176024Y150206D02*
X177917Y150903D01*
X183067Y150903D01*
X176024Y150206D01*
G37*
G36*
X184959Y150206D02*
X176024Y150206D01*
X183067Y150903D01*
X184959Y150206D01*
G37*
G36*
X186930Y150206D02*
X188822Y150903D01*
X193972Y150903D01*
X186930Y150206D01*
G37*
G36*
X195865Y150206D02*
X186930Y150206D01*
X193972Y150903D01*
X195865Y150206D01*
G37*
G36*
X197835Y150206D02*
X199728Y150903D01*
X204878Y150903D01*
X197835Y150206D01*
G37*
G36*
X206770Y150206D02*
X197835Y150206D01*
X204878Y150903D01*
X206770Y150206D01*
G37*
G36*
X208741Y150206D02*
X210633Y150903D01*
X216299Y150714D01*
X208741Y150206D01*
G37*
G36*
X228581Y150206D02*
X221023Y150714D01*
X226689Y150903D01*
X228581Y150206D01*
G37*
G36*
X230552Y150206D02*
X232444Y150903D01*
X252370Y151607D01*
X230552Y150206D01*
G37*
G36*
X297637Y149463D02*
X272511Y151607D01*
X295866Y151234D01*
X297637Y149463D01*
G37*
G36*
X302362Y149463D02*
X304133Y151234D01*
X378686Y167519D01*
X302362Y149463D01*
G37*
G36*
X157695Y149005D02*
X163148Y150206D01*
X208741Y150206D01*
X157695Y149005D01*
G37*
G36*
X157695Y149005D02*
X141330Y151607D01*
X163148Y150206D01*
X157695Y149005D01*
G37*
G36*
X159666Y149005D02*
X157695Y149005D01*
X208741Y150206D01*
X159666Y149005D01*
G37*
G36*
X168601Y149005D02*
X159666Y149005D01*
X208741Y150206D01*
X168601Y149005D01*
G37*
G36*
X170571Y149005D02*
X168601Y149005D01*
X208741Y150206D01*
X170571Y149005D01*
G37*
G36*
X179506Y149005D02*
X170571Y149005D01*
X208741Y150206D01*
X179506Y149005D01*
G37*
G36*
X181477Y149005D02*
X179506Y149005D01*
X208741Y150206D01*
X181477Y149005D01*
G37*
G36*
X190412Y149005D02*
X181477Y149005D01*
X208741Y150206D01*
X190412Y149005D01*
G37*
G36*
X192382Y149005D02*
X190412Y149005D01*
X208741Y150206D01*
X192382Y149005D01*
G37*
G36*
X192382Y149005D02*
X208741Y150206D01*
X216299Y150714D01*
X192382Y149005D01*
G37*
G36*
X201317Y149005D02*
X192382Y149005D01*
X216299Y150714D01*
X201317Y149005D01*
G37*
G36*
X203288Y149005D02*
X201317Y149005D01*
X216299Y150714D01*
X203288Y149005D01*
G37*
G36*
X212223Y149005D02*
X203288Y149005D01*
X216299Y150714D01*
X212223Y149005D01*
G37*
G36*
X214193Y149005D02*
X212223Y149005D01*
X216299Y150714D01*
X214193Y149005D01*
G37*
G36*
X223128Y149005D02*
X230552Y150206D01*
X252370Y151607D01*
X223128Y149005D01*
G37*
G36*
X223128Y149005D02*
X228581Y150206D01*
X230552Y150206D01*
X223128Y149005D01*
G37*
G36*
X223128Y149005D02*
X221023Y150714D01*
X228581Y150206D01*
X223128Y149005D01*
G37*
G36*
X225099Y149005D02*
X223128Y149005D01*
X252370Y151607D01*
X225099Y149005D01*
G37*
G36*
X234034Y149005D02*
X225099Y149005D01*
X252370Y151607D01*
X234034Y149005D01*
G37*
G36*
X236004Y149005D02*
X234034Y149005D01*
X252370Y151607D01*
X236004Y149005D01*
G37*
G36*
X155803Y148308D02*
X141330Y151607D01*
X157695Y149005D01*
X155803Y148308D01*
G37*
G36*
X161558Y148308D02*
X159666Y149005D01*
X168601Y149005D01*
X161558Y148308D01*
G37*
G36*
X166708Y148308D02*
X161558Y148308D01*
X168601Y149005D01*
X166708Y148308D01*
G37*
G36*
X172464Y148308D02*
X170571Y149005D01*
X179506Y149005D01*
X172464Y148308D01*
G37*
G36*
X177614Y148308D02*
X172464Y148308D01*
X179506Y149005D01*
X177614Y148308D01*
G37*
G36*
X183369Y148308D02*
X181477Y149005D01*
X190412Y149005D01*
X183369Y148308D01*
G37*
G36*
X188520Y148308D02*
X183369Y148308D01*
X190412Y149005D01*
X188520Y148308D01*
G37*
G36*
X194275Y148308D02*
X192382Y149005D01*
X201317Y149005D01*
X194275Y148308D01*
G37*
G36*
X199425Y148308D02*
X194275Y148308D01*
X201317Y149005D01*
X199425Y148308D01*
G37*
G36*
X205180Y148308D02*
X203288Y149005D01*
X212223Y149005D01*
X205180Y148308D01*
G37*
G36*
X210331Y148308D02*
X205180Y148308D01*
X212223Y149005D01*
X210331Y148308D01*
G37*
G36*
X216086Y148308D02*
X214193Y149005D01*
X216299Y150714D01*
X216086Y148308D01*
G37*
G36*
X221236Y148308D02*
X221023Y150714D01*
X223128Y149005D01*
X221236Y148308D01*
G37*
G36*
X226991Y148308D02*
X225099Y149005D01*
X234034Y149005D01*
X226991Y148308D01*
G37*
G36*
X232142Y148308D02*
X226991Y148308D01*
X234034Y149005D01*
X232142Y148308D01*
G37*
G36*
X237897Y148308D02*
X236004Y149005D01*
X252370Y151607D01*
X237897Y148308D01*
G37*
G36*
X216299Y148095D02*
X216086Y148308D01*
X216299Y150714D01*
X216299Y148095D01*
G37*
G36*
X221023Y148095D02*
X221023Y150714D01*
X221236Y148308D01*
X221023Y148095D01*
G37*
G36*
X121188Y147604D02*
X15014Y167519D01*
X121188Y151607D01*
X121188Y147604D01*
G37*
G36*
X141330Y147604D02*
X141330Y151607D01*
X155803Y148308D01*
X141330Y147604D01*
G37*
G36*
X252370Y147604D02*
X237897Y148308D01*
X252370Y151607D01*
X252370Y147604D01*
G37*
G36*
X272511Y147604D02*
X272511Y151607D01*
X297637Y149463D01*
X272511Y147604D01*
G37*
G36*
X154388Y146893D02*
X141330Y147604D01*
X155803Y148308D01*
X154388Y146893D01*
G37*
G36*
X162974Y146893D02*
X161558Y148308D01*
X166708Y148308D01*
X162974Y146893D01*
G37*
G36*
X165293Y146893D02*
X162974Y146893D01*
X166708Y148308D01*
X165293Y146893D01*
G37*
G36*
X173879Y146893D02*
X172464Y148308D01*
X177614Y148308D01*
X173879Y146893D01*
G37*
G36*
X176199Y146893D02*
X173879Y146893D01*
X177614Y148308D01*
X176199Y146893D01*
G37*
G36*
X184785Y146893D02*
X183369Y148308D01*
X188520Y148308D01*
X184785Y146893D01*
G37*
G36*
X187104Y146893D02*
X184785Y146893D01*
X188520Y148308D01*
X187104Y146893D01*
G37*
G36*
X195690Y146893D02*
X194275Y148308D01*
X199425Y148308D01*
X195690Y146893D01*
G37*
G36*
X198010Y146893D02*
X195690Y146893D01*
X199425Y148308D01*
X198010Y146893D01*
G37*
G36*
X206596Y146893D02*
X205180Y148308D01*
X210331Y148308D01*
X206596Y146893D01*
G37*
G36*
X208915Y146893D02*
X206596Y146893D01*
X210331Y148308D01*
X208915Y146893D01*
G37*
G36*
X228407Y146893D02*
X226991Y148308D01*
X232142Y148308D01*
X228407Y146893D01*
G37*
G36*
X230726Y146893D02*
X228407Y146893D01*
X232142Y148308D01*
X230726Y146893D01*
G37*
G36*
X239312Y146893D02*
X237897Y148308D01*
X252370Y147604D01*
X239312Y146893D01*
G37*
G36*
X153690Y145001D02*
X141330Y147604D01*
X154388Y146893D01*
X153690Y145001D01*
G37*
G36*
X163671Y145001D02*
X162974Y146893D01*
X165293Y146893D01*
X163671Y145001D01*
G37*
G36*
X164596Y145001D02*
X163671Y145001D01*
X165293Y146893D01*
X164596Y145001D01*
G37*
G36*
X174576Y145001D02*
X173879Y146893D01*
X176199Y146893D01*
X174576Y145001D01*
G37*
G36*
X175501Y145001D02*
X174576Y145001D01*
X176199Y146893D01*
X175501Y145001D01*
G37*
G36*
X185482Y145001D02*
X184785Y146893D01*
X187104Y146893D01*
X185482Y145001D01*
G37*
G36*
X186407Y145001D02*
X185482Y145001D01*
X187104Y146893D01*
X186407Y145001D01*
G37*
G36*
X196387Y145001D02*
X195690Y146893D01*
X198010Y146893D01*
X196387Y145001D01*
G37*
G36*
X197312Y145001D02*
X196387Y145001D01*
X198010Y146893D01*
X197312Y145001D01*
G37*
G36*
X207293Y145001D02*
X206596Y146893D01*
X208915Y146893D01*
X207293Y145001D01*
G37*
G36*
X208218Y145001D02*
X207293Y145001D01*
X208915Y146893D01*
X208218Y145001D01*
G37*
G36*
X229104Y145001D02*
X228407Y146893D01*
X230726Y146893D01*
X229104Y145001D01*
G37*
G36*
X230029Y145001D02*
X229104Y145001D01*
X230726Y146893D01*
X230029Y145001D01*
G37*
G36*
X240009Y145001D02*
X239312Y146893D01*
X252370Y147604D01*
X240009Y145001D01*
G37*
G36*
X122597Y143781D02*
X15014Y167519D01*
X121188Y147604D01*
X122597Y143781D01*
G37*
G36*
X139922Y143781D02*
X141330Y147604D01*
X153690Y145001D01*
X139922Y143781D01*
G37*
G36*
X253778Y143781D02*
X240009Y145001D01*
X252370Y147604D01*
X253778Y143781D01*
G37*
G36*
X271103Y143781D02*
X272511Y147604D01*
X297637Y149463D01*
X271103Y143781D01*
G37*
G36*
X153690Y143030D02*
X139922Y143781D01*
X153690Y145001D01*
X153690Y143030D01*
G37*
G36*
X163671Y143030D02*
X163671Y145001D01*
X164596Y145001D01*
X163671Y143030D01*
G37*
G36*
X174576Y143030D02*
X174576Y145001D01*
X175501Y145001D01*
X174576Y143030D01*
G37*
G36*
X175501Y143030D02*
X174576Y143030D01*
X175501Y145001D01*
X175501Y143030D01*
G37*
G36*
X185482Y143030D02*
X185482Y145001D01*
X186407Y145001D01*
X185482Y143030D01*
G37*
G36*
X186407Y143030D02*
X185482Y143030D01*
X186407Y145001D01*
X186407Y143030D01*
G37*
G36*
X196387Y143030D02*
X196387Y145001D01*
X197312Y145001D01*
X196387Y143030D01*
G37*
G36*
X197312Y143030D02*
X196387Y143030D01*
X197312Y145001D01*
X197312Y143030D01*
G37*
G36*
X207293Y143030D02*
X207293Y145001D01*
X208218Y145001D01*
X207293Y143030D01*
G37*
G36*
X208218Y143030D02*
X207293Y143030D01*
X208218Y145001D01*
X208218Y143030D01*
G37*
G36*
X229104Y143030D02*
X229104Y145001D01*
X230029Y145001D01*
X229104Y143030D01*
G37*
G36*
X230029Y143030D02*
X229104Y143030D01*
X230029Y145001D01*
X230029Y143030D01*
G37*
G36*
X240009Y143030D02*
X240009Y145001D01*
X253778Y143781D01*
X240009Y143030D01*
G37*
G36*
X164596Y143030D02*
X163671Y143030D01*
X164596Y145001D01*
X164596Y143030D01*
G37*
G36*
X164775Y142545D02*
X163671Y143030D01*
X164596Y143030D01*
X164775Y142545D01*
G37*
G36*
X154388Y141138D02*
X139922Y143781D01*
X153690Y143030D01*
X154388Y141138D01*
G37*
G36*
X162974Y141138D02*
X163671Y143030D01*
X164775Y142545D01*
X162974Y141138D01*
G37*
G36*
X173879Y141138D02*
X174576Y143030D01*
X175501Y143030D01*
X173879Y141138D01*
G37*
G36*
X176199Y141138D02*
X173879Y141138D01*
X175501Y143030D01*
X176199Y141138D01*
G37*
G36*
X184785Y141138D02*
X185482Y143030D01*
X186407Y143030D01*
X184785Y141138D01*
G37*
G36*
X187104Y141138D02*
X184785Y141138D01*
X186407Y143030D01*
X187104Y141138D01*
G37*
G36*
X195690Y141138D02*
X196387Y143030D01*
X197312Y143030D01*
X195690Y141138D01*
G37*
G36*
X198010Y141138D02*
X195690Y141138D01*
X197312Y143030D01*
X198010Y141138D01*
G37*
G36*
X206596Y141138D02*
X207293Y143030D01*
X208218Y143030D01*
X206596Y141138D01*
G37*
G36*
X208915Y141138D02*
X206596Y141138D01*
X208218Y143030D01*
X208915Y141138D01*
G37*
G36*
X228407Y141138D02*
X229104Y143030D01*
X230029Y143030D01*
X228407Y141138D01*
G37*
G36*
X230726Y141138D02*
X228407Y141138D01*
X230029Y143030D01*
X230726Y141138D01*
G37*
G36*
X239312Y141138D02*
X240009Y143030D01*
X253778Y143781D01*
X239312Y141138D01*
G37*
G36*
X125435Y140943D02*
X15014Y167519D01*
X122597Y143781D01*
X125435Y140943D01*
G37*
G36*
X137084Y140943D02*
X139922Y143781D01*
X154388Y141138D01*
X137084Y140943D01*
G37*
G36*
X256616Y140943D02*
X239312Y141138D01*
X253778Y143781D01*
X256616Y140943D01*
G37*
G36*
X268265Y140943D02*
X271103Y143781D01*
X297637Y149463D01*
X268265Y140943D01*
G37*
G36*
X155803Y139722D02*
X137084Y140943D01*
X154388Y141138D01*
X155803Y139722D01*
G37*
G36*
X161558Y139722D02*
X162974Y141138D01*
X164775Y142545D01*
X161558Y139722D01*
G37*
G36*
X172464Y139722D02*
X173879Y141138D01*
X176199Y141138D01*
X172464Y139722D01*
G37*
G36*
X177614Y139722D02*
X172464Y139722D01*
X176199Y141138D01*
X177614Y139722D01*
G37*
G36*
X183369Y139722D02*
X184785Y141138D01*
X187104Y141138D01*
X183369Y139722D01*
G37*
G36*
X188520Y139722D02*
X183369Y139722D01*
X187104Y141138D01*
X188520Y139722D01*
G37*
G36*
X194275Y139722D02*
X195690Y141138D01*
X198010Y141138D01*
X194275Y139722D01*
G37*
G36*
X199425Y139722D02*
X194275Y139722D01*
X198010Y141138D01*
X199425Y139722D01*
G37*
G36*
X205180Y139722D02*
X206596Y141138D01*
X208915Y141138D01*
X205180Y139722D01*
G37*
G36*
X210331Y139722D02*
X205180Y139722D01*
X208915Y141138D01*
X210331Y139722D01*
G37*
G36*
X226991Y139722D02*
X228407Y141138D01*
X230726Y141138D01*
X226991Y139722D01*
G37*
G36*
X232142Y139722D02*
X226991Y139722D01*
X230726Y141138D01*
X232142Y139722D01*
G37*
G36*
X237897Y139722D02*
X239312Y141138D01*
X256616Y140943D01*
X237897Y139722D01*
G37*
G36*
X129258Y139535D02*
X15014Y167519D01*
X125435Y140943D01*
X129258Y139535D01*
G37*
G36*
X133261Y139535D02*
X137084Y140943D01*
X155803Y139722D01*
X133261Y139535D01*
G37*
G36*
X260439Y139535D02*
X237897Y139722D01*
X256616Y140943D01*
X260439Y139535D01*
G37*
G36*
X264442Y139535D02*
X268265Y140943D01*
X297637Y149463D01*
X264442Y139535D01*
G37*
G36*
X157695Y139025D02*
X133261Y139535D01*
X155803Y139722D01*
X157695Y139025D01*
G37*
G36*
X157695Y139025D02*
X129258Y139535D01*
X133261Y139535D01*
X157695Y139025D01*
G37*
G36*
X170571Y139025D02*
X172464Y139722D01*
X177614Y139722D01*
X170571Y139025D01*
G37*
G36*
X179506Y139025D02*
X170571Y139025D01*
X177614Y139722D01*
X179506Y139025D01*
G37*
G36*
X181477Y139025D02*
X183369Y139722D01*
X188520Y139722D01*
X181477Y139025D01*
G37*
G36*
X190412Y139025D02*
X181477Y139025D01*
X188520Y139722D01*
X190412Y139025D01*
G37*
G36*
X192382Y139025D02*
X194275Y139722D01*
X199425Y139722D01*
X192382Y139025D01*
G37*
G36*
X201317Y139025D02*
X192382Y139025D01*
X199425Y139722D01*
X201317Y139025D01*
G37*
G36*
X203288Y139025D02*
X205180Y139722D01*
X210331Y139722D01*
X203288Y139025D01*
G37*
G36*
X212223Y139025D02*
X203288Y139025D01*
X210331Y139722D01*
X212223Y139025D01*
G37*
G36*
X225099Y139025D02*
X226991Y139722D01*
X232142Y139722D01*
X225099Y139025D01*
G37*
G36*
X234034Y139025D02*
X225099Y139025D01*
X232142Y139722D01*
X234034Y139025D01*
G37*
G36*
X236004Y139025D02*
X237897Y139722D01*
X260439Y139535D01*
X236004Y139025D01*
G37*
G36*
X236004Y139025D02*
X260439Y139535D01*
X264442Y139535D01*
X236004Y139025D01*
G37*
G36*
X120585Y134783D02*
X157695Y139025D01*
X159666Y139025D01*
X120585Y134783D01*
G37*
G36*
X120585Y134783D02*
X129258Y139535D01*
X157695Y139025D01*
X120585Y134783D01*
G37*
G36*
X120585Y134783D02*
X15014Y167519D01*
X129258Y139535D01*
X120585Y134783D01*
G37*
G36*
X124414Y134783D02*
X120585Y134783D01*
X159666Y139025D01*
X124414Y134783D01*
G37*
G36*
X118366Y132564D02*
X15014Y167519D01*
X120585Y134783D01*
X118366Y132564D01*
G37*
G36*
X126633Y132564D02*
X124414Y134783D01*
X159666Y139025D01*
X126633Y132564D01*
G37*
G36*
X152637Y130407D02*
X161558Y139722D01*
X164775Y142545D01*
X152637Y130407D01*
G37*
G36*
X152637Y130407D02*
X159666Y139025D01*
X161558Y139722D01*
X152637Y130407D01*
G37*
G36*
X152637Y130407D02*
X126633Y132564D01*
X159666Y139025D01*
X152637Y130407D01*
G37*
G36*
X118366Y128734D02*
X15014Y167519D01*
X118366Y132564D01*
X118366Y128734D01*
G37*
G36*
X126633Y128734D02*
X126633Y132564D01*
X152637Y130407D01*
X126633Y128734D01*
G37*
G36*
X157362Y128450D02*
X168115Y139204D01*
X168601Y139025D01*
X157362Y128450D01*
G37*
G36*
X157362Y128450D02*
X168601Y139025D01*
X214193Y139025D01*
X157362Y128450D01*
G37*
G36*
X120137Y126963D02*
X15014Y167519D01*
X118366Y128734D01*
X120137Y126963D01*
G37*
G36*
X124862Y126963D02*
X126633Y128734D01*
X152637Y130407D01*
X124862Y126963D01*
G37*
G36*
X124862Y111628D02*
X124862Y126963D01*
X152637Y130407D01*
X124862Y111628D01*
G37*
G36*
X120137Y109671D02*
X15014Y167519D01*
X120137Y126963D01*
X120137Y109671D01*
G37*
G36*
X159021Y105511D02*
X214193Y139025D01*
X216086Y139722D01*
X159021Y105511D01*
G37*
G36*
X159021Y105511D02*
X157362Y128450D01*
X214193Y139025D01*
X159021Y105511D01*
G37*
G36*
X216299Y105511D02*
X159021Y105511D01*
X216086Y139722D01*
X216299Y105511D01*
G37*
G36*
X216299Y105511D02*
X216086Y139722D01*
X216299Y139935D01*
X216299Y105511D01*
G37*
G36*
X157637Y104128D02*
X157362Y128450D01*
X159021Y105511D01*
X157637Y104128D01*
G37*
G36*
X224862Y99671D02*
X224862Y139025D01*
X236004Y139025D01*
X224862Y99671D01*
G37*
G36*
X224862Y99671D02*
X236004Y139025D01*
X264442Y139535D01*
X224862Y99671D01*
G37*
G36*
X224862Y99671D02*
X264442Y139535D01*
X297637Y149463D01*
X224862Y99671D01*
G37*
G36*
X180137Y99128D02*
X162362Y100787D01*
X181797Y100787D01*
X180137Y99128D01*
G37*
G36*
X223478Y98287D02*
X224862Y99671D01*
X297637Y149463D01*
X223478Y98287D01*
G37*
G36*
X203366Y97564D02*
X185978Y98287D01*
X204088Y98287D01*
X203366Y97564D01*
G37*
G36*
X211633Y97564D02*
X210911Y98287D01*
X223478Y98287D01*
X211633Y97564D01*
G37*
G36*
X184862Y97171D02*
X185978Y98287D01*
X203366Y97564D01*
X184862Y97171D01*
G37*
G36*
X203366Y94856D02*
X184862Y97171D01*
X203366Y97564D01*
X203366Y94856D01*
G37*
G36*
X211633Y93734D02*
X211633Y97564D01*
X223478Y98287D01*
X211633Y93734D01*
G37*
G36*
X213085Y92283D02*
X211633Y93734D01*
X223478Y98287D01*
X213085Y92283D01*
G37*
G36*
X216914Y92283D02*
X213085Y92283D01*
X223478Y98287D01*
X216914Y92283D01*
G37*
G36*
X216914Y92283D02*
X223478Y98287D01*
X297637Y149463D01*
X216914Y92283D01*
G37*
G36*
X209414Y91515D02*
X211633Y93734D01*
X213085Y92283D01*
X209414Y91515D01*
G37*
G36*
X210866Y90064D02*
X209414Y91515D01*
X213085Y92283D01*
X210866Y90064D01*
G37*
G36*
X210866Y90064D02*
X206706Y91515D01*
X209414Y91515D01*
X210866Y90064D01*
G37*
G36*
X219133Y90064D02*
X216914Y92283D01*
X297637Y149463D01*
X219133Y90064D01*
G37*
G36*
X210866Y87356D02*
X206706Y91515D01*
X210866Y90064D01*
X210866Y87356D01*
G37*
G36*
X195137Y86628D02*
X184862Y97171D01*
X203366Y94856D01*
X195137Y86628D01*
G37*
G36*
X219133Y86234D02*
X219133Y90064D01*
X297637Y149463D01*
X219133Y86234D01*
G37*
G36*
X199862Y84671D02*
X206706Y91515D01*
X210866Y87356D01*
X199862Y84671D01*
G37*
G36*
X152362Y84128D02*
X124862Y111628D01*
X152637Y130407D01*
X152362Y84128D01*
G37*
G36*
X216914Y84015D02*
X219133Y86234D01*
X297637Y149463D01*
X216914Y84015D01*
G37*
G36*
X147637Y82171D02*
X15014Y167519D01*
X120137Y109671D01*
X147637Y82171D01*
G37*
G36*
X202637Y79128D02*
X199862Y84671D01*
X210866Y87356D01*
X202637Y79128D01*
G37*
G36*
X207362Y77171D02*
X214206Y84015D01*
X216914Y84015D01*
X207362Y77171D01*
G37*
G36*
X135585Y67283D02*
X15014Y167519D01*
X147637Y82171D01*
X135585Y67283D01*
G37*
G36*
X139414Y67283D02*
X135585Y67283D01*
X147637Y82171D01*
X139414Y67283D01*
G37*
G36*
X133366Y65064D02*
X15014Y167519D01*
X135585Y67283D01*
X133366Y65064D01*
G37*
G36*
X141633Y65064D02*
X139414Y67283D01*
X147637Y82171D01*
X141633Y65064D01*
G37*
G36*
X195137Y64336D02*
X184862Y97171D01*
X195137Y86628D01*
X195137Y64336D01*
G37*
G36*
X199862Y64336D02*
X199862Y84671D01*
X202637Y79128D01*
X199862Y64336D01*
G37*
G36*
X193366Y62564D02*
X184862Y97171D01*
X195137Y64336D01*
X193366Y62564D01*
G37*
G36*
X201633Y62564D02*
X199862Y64336D01*
X202637Y79128D01*
X201633Y62564D01*
G37*
G36*
X133366Y61234D02*
X15014Y167519D01*
X133366Y65064D01*
X133366Y61234D01*
G37*
G36*
X141633Y61234D02*
X141633Y65064D01*
X147637Y82171D01*
X141633Y61234D01*
G37*
G36*
X135137Y59463D02*
X15014Y167519D01*
X133366Y61234D01*
X135137Y59463D01*
G37*
G36*
X193366Y58734D02*
X184862Y97171D01*
X193366Y62564D01*
X193366Y58734D01*
G37*
G36*
X201633Y58734D02*
X201633Y62564D01*
X202637Y79128D01*
X201633Y58734D01*
G37*
G36*
X202637Y56836D02*
X201633Y58734D01*
X202637Y79128D01*
X202637Y56836D01*
G37*
G36*
X207362Y56836D02*
X207362Y77171D01*
X216914Y84015D01*
X207362Y56836D01*
G37*
G36*
X207362Y56836D02*
X216914Y84015D01*
X297637Y149463D01*
X207362Y56836D01*
G37*
G36*
X199414Y56515D02*
X201633Y58734D01*
X202637Y56836D01*
X199414Y56515D01*
G37*
G36*
X200866Y55064D02*
X199414Y56515D01*
X202637Y56836D01*
X200866Y55064D01*
G37*
G36*
X200866Y55064D02*
X195585Y56515D01*
X199414Y56515D01*
X200866Y55064D01*
G37*
G36*
X209133Y55064D02*
X207362Y56836D01*
X297637Y149463D01*
X209133Y55064D01*
G37*
G36*
X200866Y51234D02*
X195585Y56515D01*
X200866Y55064D01*
X200866Y51234D01*
G37*
G36*
X209133Y51234D02*
X209133Y55064D01*
X297637Y149463D01*
X209133Y51234D01*
G37*
G36*
X180137Y49336D02*
X162362Y100787D01*
X180137Y99128D01*
X180137Y49336D01*
G37*
G36*
X184862Y49336D02*
X184862Y97171D01*
X193366Y58734D01*
X184862Y49336D01*
G37*
G36*
X184862Y49336D02*
X193366Y58734D01*
X200866Y51234D01*
X184862Y49336D01*
G37*
G36*
X157384Y49303D02*
X157362Y128450D01*
X157637Y104128D01*
X157384Y49303D01*
G37*
G36*
X152659Y49301D02*
X152362Y84128D01*
X152637Y130407D01*
X152659Y49301D01*
G37*
G36*
X157637Y49050D02*
X157384Y49303D01*
X157637Y104128D01*
X157637Y49050D01*
G37*
G36*
X203085Y49015D02*
X184862Y49336D01*
X200866Y51234D01*
X203085Y49015D01*
G37*
G36*
X152362Y49003D02*
X152362Y84128D01*
X152659Y49301D01*
X152362Y49003D01*
G37*
G36*
X178366Y47564D02*
X162362Y100787D01*
X180137Y49336D01*
X178366Y47564D01*
G37*
G36*
X186633Y47564D02*
X184862Y49336D01*
X203085Y49015D01*
X186633Y47564D01*
G37*
G36*
X186633Y47564D02*
X203085Y49015D01*
X206914Y49015D01*
X186633Y47564D01*
G37*
G36*
X178366Y43734D02*
X162362Y100787D01*
X178366Y47564D01*
X178366Y43734D01*
G37*
G36*
X186633Y43734D02*
X186633Y47564D01*
X206914Y49015D01*
X186633Y43734D01*
G37*
G36*
X184414Y41515D02*
X186633Y43734D01*
X206914Y49015D01*
X184414Y41515D01*
G37*
G36*
X147637Y36836D02*
X141633Y61234D01*
X147637Y82171D01*
X147637Y36836D01*
G37*
G36*
X147637Y36836D02*
X139862Y59463D01*
X141633Y61234D01*
X147637Y36836D01*
G37*
G36*
X152362Y36836D02*
X152362Y42228D01*
X153108Y41482D01*
X152362Y36836D01*
G37*
G36*
X152362Y36836D02*
X153108Y41482D01*
X156938Y41482D01*
X152362Y36836D01*
G37*
G36*
X152362Y36836D02*
X156938Y41482D01*
X157637Y42181D01*
X152362Y36836D01*
G37*
G36*
X157637Y36836D02*
X152362Y36836D01*
X157637Y42181D01*
X157637Y36836D01*
G37*
G36*
X162362Y36836D02*
X162362Y100787D01*
X178366Y43734D01*
X162362Y36836D01*
G37*
G36*
X162362Y36836D02*
X178366Y43734D01*
X180585Y41515D01*
X162362Y36836D01*
G37*
G36*
X162362Y36836D02*
X180585Y41515D01*
X184414Y41515D01*
X162362Y36836D01*
G37*
G36*
X145866Y35064D02*
X139862Y59463D01*
X147637Y36836D01*
X145866Y35064D01*
G37*
G36*
X154133Y35064D02*
X152362Y36836D01*
X157637Y36836D01*
X154133Y35064D01*
G37*
G36*
X155866Y35064D02*
X154133Y35064D01*
X157637Y36836D01*
X155866Y35064D01*
G37*
G36*
X164133Y35064D02*
X162362Y36836D01*
X184414Y41515D01*
X164133Y35064D01*
G37*
G36*
X297637Y31628D02*
X209133Y51234D01*
X297637Y149463D01*
X297637Y31628D01*
G37*
G36*
X297637Y31628D02*
X206914Y49015D01*
X209133Y51234D01*
X297637Y31628D01*
G37*
G36*
X297637Y31628D02*
X184414Y41515D01*
X206914Y49015D01*
X297637Y31628D01*
G37*
G36*
X297637Y31628D02*
X164133Y35064D01*
X184414Y41515D01*
X297637Y31628D01*
G37*
G36*
X145866Y31234D02*
X139862Y59463D01*
X145866Y35064D01*
X145866Y31234D01*
G37*
G36*
X154133Y31234D02*
X154133Y35064D01*
X155866Y35064D01*
X154133Y31234D01*
G37*
G36*
X155866Y31234D02*
X154133Y31234D01*
X155866Y35064D01*
X155866Y31234D01*
G37*
G36*
X164133Y31234D02*
X164133Y35064D01*
X297637Y31628D01*
X164133Y31234D01*
G37*
G36*
X302362Y29671D02*
X302362Y149463D01*
X378686Y167519D01*
X302362Y29671D01*
G37*
G36*
X302362Y29671D02*
X378686Y167519D01*
X383661Y172494D01*
X302362Y29671D01*
G37*
G36*
X15014Y29330D02*
X15014Y167519D01*
X135137Y59463D01*
X15014Y29330D01*
G37*
G36*
X15014Y29330D02*
X10039Y172494D01*
X15014Y167519D01*
X15014Y29330D01*
G37*
G36*
X15014Y29330D02*
X1181Y195669D01*
X10039Y172494D01*
X15014Y29330D01*
G37*
G36*
X24355Y29330D02*
X15014Y29330D01*
X135137Y59463D01*
X24355Y29330D01*
G37*
G36*
X369344Y29330D02*
X383661Y172494D01*
X392519Y195669D01*
X369344Y29330D01*
G37*
G36*
X369344Y29330D02*
X302362Y29671D01*
X383661Y172494D01*
X369344Y29330D01*
G37*
G36*
X378686Y29330D02*
X369344Y29330D01*
X392519Y195669D01*
X378686Y29330D01*
G37*
G36*
X139862Y29128D02*
X139862Y59463D01*
X145866Y31234D01*
X139862Y29128D01*
G37*
G36*
X148085Y29015D02*
X139862Y29128D01*
X145866Y31234D01*
X148085Y29015D01*
G37*
G36*
X151914Y29015D02*
X154133Y31234D01*
X155866Y31234D01*
X151914Y29015D01*
G37*
G36*
X158085Y29015D02*
X151914Y29015D01*
X155866Y31234D01*
X158085Y29015D01*
G37*
G36*
X161914Y29015D02*
X164133Y31234D01*
X297637Y31628D01*
X161914Y29015D01*
G37*
G36*
X135137Y27171D02*
X24355Y29330D01*
X135137Y59463D01*
X135137Y27171D01*
G37*
G36*
X10039Y24355D02*
X1181Y195669D01*
X15014Y29330D01*
X10039Y24355D01*
G37*
G36*
X29330Y24355D02*
X24355Y29330D01*
X135137Y27171D01*
X29330Y24355D01*
G37*
G36*
X364370Y24355D02*
X302362Y29671D01*
X369344Y29330D01*
X364370Y24355D01*
G37*
G36*
X383661Y24355D02*
X378686Y29330D01*
X392519Y195669D01*
X383661Y24355D01*
G37*
G36*
X10039Y15014D02*
X1181Y195669D01*
X10039Y24355D01*
X10039Y15014D01*
G37*
G36*
X29330Y15014D02*
X29330Y24355D01*
X135137Y27171D01*
X29330Y15014D01*
G37*
G36*
X364370Y15014D02*
X302362Y29671D01*
X364370Y24355D01*
X364370Y15014D01*
G37*
G36*
X383661Y15014D02*
X383661Y24355D01*
X392519Y195669D01*
X383661Y15014D01*
G37*
G36*
X155978Y13011D02*
X139862Y29128D01*
X148085Y29015D01*
X155978Y13011D01*
G37*
G36*
X155978Y13011D02*
X148085Y29015D01*
X161914Y29015D01*
X155978Y13011D01*
G37*
G36*
X155978Y13011D02*
X161914Y29015D01*
X297637Y31628D01*
X155978Y13011D01*
G37*
G36*
X279021Y13011D02*
X155978Y13011D01*
X297637Y31628D01*
X279021Y13011D01*
G37*
G36*
X24355Y10039D02*
X29330Y15014D01*
X135137Y27171D01*
X24355Y10039D01*
G37*
G36*
X369344Y10039D02*
X302362Y29671D01*
X364370Y15014D01*
X369344Y10039D01*
G37*
G36*
X154021Y8287D02*
X24355Y10039D01*
X135137Y27171D01*
X154021Y8287D01*
G37*
G36*
X154021Y8287D02*
X15014Y10039D01*
X24355Y10039D01*
X154021Y8287D01*
G37*
G36*
X280978Y8287D02*
X302362Y29671D01*
X369344Y10039D01*
X280978Y8287D01*
G37*
G36*
X280978Y8287D02*
X369344Y10039D01*
X378686Y10039D01*
X280978Y8287D01*
G37*
G36*
X1181Y1181D02*
X1181Y195669D01*
X10039Y15014D01*
X1181Y1181D01*
G37*
G36*
X1181Y1181D02*
X10039Y15014D01*
X15014Y10039D01*
X1181Y1181D01*
G37*
G36*
X1181Y1181D02*
X15014Y10039D01*
X154021Y8287D01*
X1181Y1181D01*
G37*
G36*
X1181Y1181D02*
X154021Y8287D01*
X280978Y8287D01*
X1181Y1181D01*
G37*
G36*
X1181Y1181D02*
X280978Y8287D01*
X378686Y10039D01*
X1181Y1181D01*
G37*
G36*
X392519Y1181D02*
X1181Y1181D01*
X378686Y10039D01*
X392519Y1181D01*
G37*
G36*
X392519Y1181D02*
X378686Y10039D01*
X383661Y15014D01*
X392519Y1181D01*
G37*
G36*
X392519Y1181D02*
X383661Y15014D01*
X392519Y195669D01*
X392519Y1181D01*
G37*
M02*
