%FSLAX35Y35*%
%MOIN*%
%TF.FileFunction,Copper,L1,Top*%
%ADD10C,0.00591*%
%ADD11C,0.00077*%
%ADD12C,0.00240*%
%ADD13C,0.00394*%
%ADD14C,0.00512*%
%ADD15C,0.00640*%
%ADD16C,0.00650*%
%ADD17C,0.00768*%
%ADD18C,0.00787*%
%ADD19C,0.01024*%
%ADD20C,0.01181*%
%ADD21C,0.01575*%
%ADD22C,0.01969*%
%ADD23C,0.02362*%
%ADD24C,0.03937*%
%ADD25C,0.06437*%
%ADD26C,0.16598*%
%AMR_27*21,1,0.01312,0.01312,0,0,0.000*%
%ADD27R_27*%
%AMR_28*21,1,0.01575,0.01575,0,0,0.000*%
%ADD28R_28*%
%AMR_29*21,1,0.02362,0.02362,0,0,0.000*%
%ADD29R_29*%
%AMR_30*21,1,0.02362,0.08268,0,0,180.000*%
%ADD30R_30*%
%AMR_31*21,1,0.05000,0.05000,0,0,0.000*%
%ADD31R_31*%
%AMR_32*21,1,0.05000,0.05000,0,0,90.000*%
%ADD32R_32*%
%AMR_33*21,1,0.05000,0.05000,0,0,180.000*%
%ADD33R_33*%
%AMR_34*21,1,0.05000,0.05000,0,0,270.000*%
%ADD34R_34*%
%AMR_35*21,1,0.05118,0.06102,0,0,90.000*%
%ADD35R_35*%
%AMR_36*21,1,0.05906,0.12598,0,0,180.000*%
%ADD36R_36*%
%AMR_37*21,1,0.05906,0.12598,0,0,270.000*%
%ADD37R_37*%
%AMR_38*21,1,0.20669,0.07874,0,0,90.000*%
%ADD38R_38*%
%AMOCT_39*4,1,8,0.017717,0.008858,0.008858,0.017717,-0.008858,0.017717,-0.017717,0.008858,-0.017717,-0.008858,-0.008858,-0.017717,0.008858,-0.017717,0.017717,-0.008858,0.017717,0.008858,180.000*%
%ADD39OCT_39*%
%AMOCT_40*4,1,8,0.023622,0.011811,0.011811,0.023622,-0.011811,0.023622,-0.023622,0.011811,-0.023622,-0.011811,-0.011811,-0.023622,0.011811,-0.023622,0.023622,-0.011811,0.023622,0.011811,0.000*%
%ADD40OCT_40*%
%AMOCT_41*4,1,8,0.078740,0.039370,0.039370,0.078740,-0.039370,0.078740,-0.078740,0.039370,-0.078740,-0.039370,-0.039370,-0.078740,0.039370,-0.078740,0.078740,-0.039370,0.078740,0.039370,0.000*%
%ADD41OCT_41*%
%ADD42O,0.02362X0.08268*%
%ADD43O,0.08268X0.02362*%
%AMRR_44*21,1,0.01969,0.09449,0,0,180.000*21,1,0.01575,0.09843,0,0,180.000*1,1,0.00394,-0.00787,-0.04724*1,1,0.00394,0.00787,0.04724*1,1,0.00394,-0.00787,0.04724*1,1,0.00394,0.00787,-0.04724*%
%ADD44RR_44*%
%AMRR_45*21,1,0.07874,0.10236,0,0,180.000*21,1,0.06299,0.11811,0,0,180.000*1,1,0.01575,-0.03150,-0.05118*1,1,0.01575,0.03150,0.05118*1,1,0.01575,-0.03150,0.05118*1,1,0.01575,0.03150,-0.05118*%
%ADD45RR_45*%
G54D16*
X6643Y204724D02*
X7726Y205314D01*
X8267Y206496D01*
X6643Y204724D02*
X5561Y204724D01*
X4478Y205314D01*
X3937Y206496D01*
X3937Y210039D01*
X4478Y211220D01*
X5561Y211811D01*
X6643Y211811D01*
X7726Y211220D01*
X8267Y210039D01*
X9566Y208858D02*
X9566Y205905D01*
X10649Y204724D01*
X12814Y204724D01*
X13897Y205905D01*
X13897Y208858D02*
X13897Y204724D01*
X15196Y208858D02*
X15196Y204724D01*
X15196Y207086D02*
X16820Y208858D01*
X19527Y208858D01*
X20826Y208858D02*
X20826Y204724D01*
X20826Y207086D02*
X22450Y208858D01*
X25157Y208858D01*
X30787Y205314D02*
X29704Y204724D01*
X27539Y204724D01*
X26456Y205905D01*
X26456Y207677D01*
X27539Y208858D01*
X29704Y208858D01*
X30787Y208267D01*
X30787Y207677D01*
X29704Y207086D01*
X26456Y207086D01*
X32086Y204724D02*
X32086Y208858D01*
X32086Y207677D02*
X33169Y208858D01*
X35334Y208858D01*
X36417Y207677D01*
X36417Y204724D01*
X37716Y211811D02*
X37716Y205905D01*
X38799Y204724D01*
X42047Y204724D01*
X37716Y208858D02*
X39881Y208858D01*
X48976Y211811D02*
X48976Y204724D01*
X48976Y208267D02*
X51683Y208267D01*
X52765Y208858D01*
X53307Y210039D01*
X52765Y211220D01*
X51683Y211811D01*
X48976Y211811D01*
X54606Y208858D02*
X54606Y204724D01*
X54606Y207086D02*
X56230Y208858D01*
X58937Y208858D01*
X60236Y207677D02*
X60236Y205905D01*
X60236Y207677D02*
X61318Y208858D01*
X63484Y208858D01*
X64566Y207677D01*
X64566Y205905D01*
X63484Y204724D01*
X61318Y204724D01*
X60236Y205905D01*
X65866Y202362D02*
X69114Y202362D01*
X70196Y203543D01*
X70196Y208858D01*
X68572Y208858D01*
X70196Y211811D02*
X70196Y211220D01*
X75826Y205314D02*
X74744Y204724D01*
X72578Y204724D01*
X71496Y205905D01*
X71496Y207677D01*
X72578Y208858D01*
X74744Y208858D01*
X75826Y208267D01*
X75826Y207677D01*
X74744Y207086D01*
X71496Y207086D01*
X81456Y208267D02*
X80374Y208858D01*
X78208Y208858D01*
X77125Y207677D01*
X77125Y205905D01*
X78208Y204724D01*
X80374Y204724D01*
X81456Y205314D01*
X82755Y211811D02*
X82755Y205905D01*
X83838Y204724D01*
X87086Y204724D01*
X82755Y208858D02*
X84921Y208858D01*
X94015Y202362D02*
X94015Y210629D01*
X95098Y211811D01*
X98346Y211811D01*
X94015Y207086D02*
X96181Y207086D01*
X99645Y208858D02*
X99645Y204724D01*
X99645Y207086D02*
X101269Y208858D01*
X103976Y208858D01*
X105275Y207677D02*
X105275Y205905D01*
X105275Y207677D02*
X106358Y208858D01*
X108523Y208858D01*
X109606Y207677D01*
X109606Y205905D01*
X108523Y204724D01*
X106358Y204724D01*
X105275Y205905D01*
X115236Y204724D02*
X115236Y207677D01*
X114153Y208858D01*
X113070Y204724D02*
X113070Y207677D01*
X110905Y208858D02*
X114153Y208858D01*
X110905Y204724D02*
X110905Y208858D01*
X113070Y207677D02*
X111988Y208858D01*
X122165Y211811D02*
X126496Y211811D01*
X124330Y211811D02*
X124330Y204724D01*
X127795Y204724D02*
X127795Y209448D01*
X127795Y207086D02*
X132125Y207086D01*
X132125Y209448D02*
X132125Y204724D01*
X127795Y209448D02*
X129960Y211811D01*
X132125Y209448D01*
X133425Y211811D02*
X133425Y204724D01*
X133425Y208267D02*
X136131Y208267D01*
X137214Y208858D01*
X137755Y210039D01*
X137214Y211220D01*
X136131Y211811D01*
X133425Y211811D01*
X135590Y208267D02*
X137755Y204724D01*
X140679Y211811D02*
X139596Y211220D01*
X139055Y210039D01*
X139055Y206496D01*
X139596Y205314D01*
X140679Y204724D01*
X141761Y204724D01*
X142844Y205314D01*
X143385Y206496D01*
X143385Y208267D01*
X142303Y208267D01*
X140679Y211811D02*
X141761Y211811D01*
X142844Y211220D01*
X144685Y211811D02*
X144685Y204724D01*
X149015Y204724D01*
X144685Y208267D02*
X146850Y208267D01*
X144685Y211811D02*
X149015Y211811D01*
X150314Y211811D02*
X154645Y211811D01*
X152480Y211811D02*
X152480Y204724D01*
X161574Y204724D02*
X161574Y211811D01*
X165905Y204724D01*
X165905Y211811D01*
X169911Y204724D02*
X170994Y205314D01*
X171535Y206496D01*
X169911Y204724D02*
X168828Y204724D01*
X167746Y205314D01*
X167204Y206496D01*
X167204Y210039D01*
X167746Y211220D01*
X168828Y211811D01*
X169911Y211811D01*
X170994Y211220D01*
X171535Y210039D01*
X182795Y205314D02*
X181712Y204724D01*
X179547Y204724D01*
X178464Y205905D01*
X178464Y207677D01*
X179547Y208858D01*
X181712Y208858D01*
X182795Y208267D01*
X182795Y207677D01*
X181712Y207086D01*
X178464Y207086D01*
X188425Y211811D02*
X188425Y204724D01*
X185177Y204724D01*
X184094Y205905D01*
X184094Y207677D01*
X185177Y208858D01*
X188425Y208858D01*
X189724Y204724D02*
X194055Y204724D01*
X191889Y204724D02*
X191889Y208858D01*
X191889Y211811D02*
X191889Y211220D01*
X190265Y208858D02*
X191889Y208858D01*
X195354Y211811D02*
X195354Y205905D01*
X196437Y204724D01*
X199685Y204724D01*
X195354Y208858D02*
X197519Y208858D01*
X200984Y204724D02*
X205314Y204724D01*
X203149Y204724D02*
X203149Y208858D01*
X203149Y211811D02*
X203149Y211220D01*
X201525Y208858D02*
X203149Y208858D01*
X206614Y207677D02*
X206614Y205905D01*
X206614Y207677D02*
X207696Y208858D01*
X209862Y208858D01*
X210944Y207677D01*
X210944Y205905D01*
X209862Y204724D01*
X207696Y204724D01*
X206614Y205905D01*
X212244Y204724D02*
X212244Y208858D01*
X212244Y207677D02*
X213326Y208858D01*
X215492Y208858D01*
X216574Y207677D01*
X216574Y204724D01*
X218956Y205314D02*
X218956Y204724D01*
X219498Y204724D01*
X219498Y205314D01*
X218956Y205314D01*
X219498Y208267D02*
X218956Y208267D01*
X218956Y207677D01*
X219498Y207677D01*
X219498Y208267D01*
X231840Y204724D02*
X232923Y205314D01*
X233464Y206496D01*
X231840Y204724D02*
X230757Y204724D01*
X229675Y205314D01*
X229133Y206496D01*
X229133Y210039D01*
X229675Y211220D01*
X230757Y211811D01*
X231840Y211811D01*
X232923Y211220D01*
X233464Y210039D01*
X234763Y207677D02*
X234763Y205905D01*
X234763Y207677D02*
X235846Y208858D01*
X238011Y208858D01*
X239094Y207677D01*
X239094Y205905D01*
X238011Y204724D01*
X235846Y204724D01*
X234763Y205905D01*
X244724Y204724D02*
X244724Y207677D01*
X243641Y208858D01*
X242559Y204724D02*
X242559Y207677D01*
X240393Y208858D02*
X243641Y208858D01*
X240393Y204724D02*
X240393Y208858D01*
X242559Y207677D02*
X241476Y208858D01*
X250354Y204724D02*
X250354Y207677D01*
X249271Y208858D01*
X248188Y204724D02*
X248188Y207677D01*
X246023Y208858D02*
X249271Y208858D01*
X246023Y204724D02*
X246023Y208858D01*
X248188Y207677D02*
X247106Y208858D01*
X255984Y205314D02*
X254901Y204724D01*
X252736Y204724D01*
X251653Y205905D01*
X251653Y207677D01*
X252736Y208858D01*
X254901Y208858D01*
X255984Y208267D01*
X255984Y207677D01*
X254901Y207086D01*
X251653Y207086D01*
X257283Y208858D02*
X257283Y204724D01*
X257283Y207086D02*
X258907Y208858D01*
X261614Y208858D01*
X267244Y208267D02*
X266161Y208858D01*
X263996Y208858D01*
X262913Y207677D01*
X262913Y205905D01*
X263996Y204724D01*
X266161Y204724D01*
X267244Y205314D01*
X268543Y204724D02*
X272874Y204724D01*
X270708Y204724D02*
X270708Y208858D01*
X270708Y211811D02*
X270708Y211220D01*
X269084Y208858D02*
X270708Y208858D01*
X274173Y205905D02*
X275255Y204724D01*
X277421Y204724D01*
X278503Y205905D01*
X274173Y205905D02*
X274173Y207677D01*
X275255Y208858D01*
X277421Y208858D01*
X278503Y207677D01*
X278503Y204724D01*
X279803Y204724D02*
X284133Y204724D01*
X280885Y211811D02*
X281968Y211811D01*
X281968Y204724D01*
X291062Y208858D02*
X291062Y205905D01*
X292145Y204724D01*
X294311Y204724D01*
X295393Y205905D01*
X295393Y208858D02*
X295393Y204724D01*
X296692Y204724D02*
X300482Y204724D01*
X301023Y205905D01*
X300482Y207086D01*
X297234Y207086D01*
X296692Y208267D01*
X297234Y208858D01*
X301023Y208858D01*
X306653Y205314D02*
X305570Y204724D01*
X303405Y204724D01*
X302322Y205905D01*
X302322Y207677D01*
X303405Y208858D01*
X305570Y208858D01*
X306653Y208267D01*
X306653Y207677D01*
X305570Y207086D01*
X302322Y207086D01*
X313582Y204724D02*
X317913Y204724D01*
X315748Y204724D02*
X315748Y208858D01*
X315748Y211811D02*
X315748Y211220D01*
X314124Y208858D02*
X315748Y208858D01*
X319212Y204724D02*
X323001Y204724D01*
X323543Y205905D01*
X323001Y207086D01*
X319753Y207086D01*
X319212Y208267D01*
X319753Y208858D01*
X323543Y208858D01*
X334803Y208267D02*
X333720Y208858D01*
X331555Y208858D01*
X330472Y207677D01*
X330472Y205905D01*
X331555Y204724D01*
X333720Y204724D01*
X334803Y205314D01*
X336102Y208858D02*
X336102Y204724D01*
X336102Y207086D02*
X337726Y208858D01*
X340433Y208858D01*
X341732Y204724D02*
X346062Y204724D01*
X343897Y204724D02*
X343897Y208858D01*
X343897Y211811D02*
X343897Y211220D01*
X342273Y208858D02*
X343897Y208858D01*
X351692Y204724D02*
X351692Y207677D01*
X350610Y208858D01*
X349527Y204724D02*
X349527Y207677D01*
X347362Y208858D02*
X350610Y208858D01*
X347362Y204724D02*
X347362Y208858D01*
X349527Y207677D02*
X348444Y208858D01*
X352992Y204724D02*
X357322Y204724D01*
X355157Y204724D02*
X355157Y208858D01*
X355157Y211811D02*
X355157Y211220D01*
X353533Y208858D02*
X355157Y208858D01*
X358622Y204724D02*
X358622Y208858D01*
X358622Y207677D02*
X359704Y208858D01*
X361870Y208858D01*
X362952Y207677D01*
X362952Y204724D01*
X364251Y205905D02*
X365334Y204724D01*
X367500Y204724D01*
X368582Y205905D01*
X364251Y205905D02*
X364251Y207677D01*
X365334Y208858D01*
X367500Y208858D01*
X368582Y207677D01*
X368582Y204724D01*
X369881Y204724D02*
X374212Y204724D01*
X370964Y211811D02*
X372047Y211811D01*
X372047Y204724D01*
X377677Y204724D02*
X377677Y205314D01*
X378218Y205314D01*
X378218Y204724D01*
X377677Y204724D01*
X377677Y207086D02*
X378218Y207086D01*
X378759Y210629D01*
X378218Y211811D01*
X377677Y211811D01*
X377135Y210629D01*
X377677Y207086D01*
X6643Y204724D02*
X7726Y205314D01*
X8267Y206496D01*
X6643Y204724D02*
X5561Y204724D01*
X4478Y205314D01*
X3937Y206496D01*
X3937Y210039D01*
X4478Y211220D01*
X5561Y211811D01*
X6643Y211811D01*
X7726Y211220D01*
X8267Y210039D01*
X9566Y208858D02*
X9566Y205905D01*
X10649Y204724D01*
X12814Y204724D01*
X13897Y205905D01*
X13897Y208858D02*
X13897Y204724D01*
X15196Y208858D02*
X15196Y204724D01*
X15196Y207086D02*
X16820Y208858D01*
X19527Y208858D01*
X20826Y208858D02*
X20826Y204724D01*
X20826Y207086D02*
X22450Y208858D01*
X25157Y208858D01*
X30787Y205314D02*
X29704Y204724D01*
X27539Y204724D01*
X26456Y205905D01*
X26456Y207677D01*
X27539Y208858D01*
X29704Y208858D01*
X30787Y208267D01*
X30787Y207677D01*
X29704Y207086D01*
X26456Y207086D01*
X32086Y204724D02*
X32086Y208858D01*
X32086Y207677D02*
X33169Y208858D01*
X35334Y208858D01*
X36417Y207677D01*
X36417Y204724D01*
X37716Y211811D02*
X37716Y205905D01*
X38799Y204724D01*
X42047Y204724D01*
X37716Y208858D02*
X39881Y208858D01*
X48976Y211811D02*
X48976Y204724D01*
X48976Y208267D02*
X51683Y208267D01*
X52765Y208858D01*
X53307Y210039D01*
X52765Y211220D01*
X51683Y211811D01*
X48976Y211811D01*
X54606Y208858D02*
X54606Y204724D01*
X54606Y207086D02*
X56230Y208858D01*
X58937Y208858D01*
X60236Y207677D02*
X60236Y205905D01*
X60236Y207677D02*
X61318Y208858D01*
X63484Y208858D01*
X64566Y207677D01*
X64566Y205905D01*
X63484Y204724D01*
X61318Y204724D01*
X60236Y205905D01*
X65866Y202362D02*
X69114Y202362D01*
X70196Y203543D01*
X70196Y208858D01*
X68572Y208858D01*
X70196Y211811D02*
X70196Y211220D01*
X75826Y205314D02*
X74744Y204724D01*
X72578Y204724D01*
X71496Y205905D01*
X71496Y207677D01*
X72578Y208858D01*
X74744Y208858D01*
X75826Y208267D01*
X75826Y207677D01*
X74744Y207086D01*
X71496Y207086D01*
X81456Y208267D02*
X80374Y208858D01*
X78208Y208858D01*
X77125Y207677D01*
X77125Y205905D01*
X78208Y204724D01*
X80374Y204724D01*
X81456Y205314D01*
X82755Y211811D02*
X82755Y205905D01*
X83838Y204724D01*
X87086Y204724D01*
X82755Y208858D02*
X84921Y208858D01*
X94015Y202362D02*
X94015Y210629D01*
X95098Y211811D01*
X98346Y211811D01*
X94015Y207086D02*
X96181Y207086D01*
X99645Y208858D02*
X99645Y204724D01*
X99645Y207086D02*
X101269Y208858D01*
X103976Y208858D01*
X105275Y207677D02*
X105275Y205905D01*
X105275Y207677D02*
X106358Y208858D01*
X108523Y208858D01*
X109606Y207677D01*
X109606Y205905D01*
X108523Y204724D01*
X106358Y204724D01*
X105275Y205905D01*
X115236Y204724D02*
X115236Y207677D01*
X114153Y208858D01*
X113070Y204724D02*
X113070Y207677D01*
X110905Y208858D02*
X114153Y208858D01*
X110905Y204724D02*
X110905Y208858D01*
X113070Y207677D02*
X111988Y208858D01*
X122165Y211811D02*
X126496Y211811D01*
X124330Y211811D02*
X124330Y204724D01*
X127795Y204724D02*
X127795Y209448D01*
X127795Y207086D02*
X132125Y207086D01*
X132125Y209448D02*
X132125Y204724D01*
X127795Y209448D02*
X129960Y211811D01*
X132125Y209448D01*
X133425Y211811D02*
X133425Y204724D01*
X133425Y208267D02*
X136131Y208267D01*
X137214Y208858D01*
X137755Y210039D01*
X137214Y211220D01*
X136131Y211811D01*
X133425Y211811D01*
X135590Y208267D02*
X137755Y204724D01*
X140679Y211811D02*
X139596Y211220D01*
X139055Y210039D01*
X139055Y206496D01*
X139596Y205314D01*
X140679Y204724D01*
X141761Y204724D01*
X142844Y205314D01*
X143385Y206496D01*
X143385Y208267D01*
X142303Y208267D01*
X140679Y211811D02*
X141761Y211811D01*
X142844Y211220D01*
X144685Y211811D02*
X144685Y204724D01*
X149015Y204724D01*
X144685Y208267D02*
X146850Y208267D01*
X144685Y211811D02*
X149015Y211811D01*
X150314Y211811D02*
X154645Y211811D01*
X152480Y211811D02*
X152480Y204724D01*
X161574Y204724D02*
X161574Y211811D01*
X165905Y204724D01*
X165905Y211811D01*
X169911Y204724D02*
X170994Y205314D01*
X171535Y206496D01*
X169911Y204724D02*
X168828Y204724D01*
X167746Y205314D01*
X167204Y206496D01*
X167204Y210039D01*
X167746Y211220D01*
X168828Y211811D01*
X169911Y211811D01*
X170994Y211220D01*
X171535Y210039D01*
X182795Y205314D02*
X181712Y204724D01*
X179547Y204724D01*
X178464Y205905D01*
X178464Y207677D01*
X179547Y208858D01*
X181712Y208858D01*
X182795Y208267D01*
X182795Y207677D01*
X181712Y207086D01*
X178464Y207086D01*
X188425Y211811D02*
X188425Y204724D01*
X185177Y204724D01*
X184094Y205905D01*
X184094Y207677D01*
X185177Y208858D01*
X188425Y208858D01*
X189724Y204724D02*
X194055Y204724D01*
X191889Y204724D02*
X191889Y208858D01*
X191889Y211811D02*
X191889Y211220D01*
X190265Y208858D02*
X191889Y208858D01*
X195354Y211811D02*
X195354Y205905D01*
X196437Y204724D01*
X199685Y204724D01*
X195354Y208858D02*
X197519Y208858D01*
X200984Y204724D02*
X205314Y204724D01*
X203149Y204724D02*
X203149Y208858D01*
X203149Y211811D02*
X203149Y211220D01*
X201525Y208858D02*
X203149Y208858D01*
X206614Y207677D02*
X206614Y205905D01*
X206614Y207677D02*
X207696Y208858D01*
X209862Y208858D01*
X210944Y207677D01*
X210944Y205905D01*
X209862Y204724D01*
X207696Y204724D01*
X206614Y205905D01*
X212244Y204724D02*
X212244Y208858D01*
X212244Y207677D02*
X213326Y208858D01*
X215492Y208858D01*
X216574Y207677D01*
X216574Y204724D01*
X218956Y205314D02*
X218956Y204724D01*
X219498Y204724D01*
X219498Y205314D01*
X218956Y205314D01*
X219498Y208267D02*
X218956Y208267D01*
X218956Y207677D01*
X219498Y207677D01*
X219498Y208267D01*
X231840Y204724D02*
X232923Y205314D01*
X233464Y206496D01*
X231840Y204724D02*
X230757Y204724D01*
X229675Y205314D01*
X229133Y206496D01*
X229133Y210039D01*
X229675Y211220D01*
X230757Y211811D01*
X231840Y211811D01*
X232923Y211220D01*
X233464Y210039D01*
X234763Y207677D02*
X234763Y205905D01*
X234763Y207677D02*
X235846Y208858D01*
X238011Y208858D01*
X239094Y207677D01*
X239094Y205905D01*
X238011Y204724D01*
X235846Y204724D01*
X234763Y205905D01*
X244724Y204724D02*
X244724Y207677D01*
X243641Y208858D01*
X242559Y204724D02*
X242559Y207677D01*
X240393Y208858D02*
X243641Y208858D01*
X240393Y204724D02*
X240393Y208858D01*
X242559Y207677D02*
X241476Y208858D01*
X250354Y204724D02*
X250354Y207677D01*
X249271Y208858D01*
X248188Y204724D02*
X248188Y207677D01*
X246023Y208858D02*
X249271Y208858D01*
X246023Y204724D02*
X246023Y208858D01*
X248188Y207677D02*
X247106Y208858D01*
X255984Y205314D02*
X254901Y204724D01*
X252736Y204724D01*
X251653Y205905D01*
X251653Y207677D01*
X252736Y208858D01*
X254901Y208858D01*
X255984Y208267D01*
X255984Y207677D01*
X254901Y207086D01*
X251653Y207086D01*
X257283Y208858D02*
X257283Y204724D01*
X257283Y207086D02*
X258907Y208858D01*
X261614Y208858D01*
X267244Y208267D02*
X266161Y208858D01*
X263996Y208858D01*
X262913Y207677D01*
X262913Y205905D01*
X263996Y204724D01*
X266161Y204724D01*
X267244Y205314D01*
X268543Y204724D02*
X272874Y204724D01*
X270708Y204724D02*
X270708Y208858D01*
X270708Y211811D02*
X270708Y211220D01*
X269084Y208858D02*
X270708Y208858D01*
X274173Y205905D02*
X275255Y204724D01*
X277421Y204724D01*
X278503Y205905D01*
X274173Y205905D02*
X274173Y207677D01*
X275255Y208858D01*
X277421Y208858D01*
X278503Y207677D01*
X278503Y204724D01*
X279803Y204724D02*
X284133Y204724D01*
X280885Y211811D02*
X281968Y211811D01*
X281968Y204724D01*
X291062Y208858D02*
X291062Y205905D01*
X292145Y204724D01*
X294311Y204724D01*
X295393Y205905D01*
X295393Y208858D02*
X295393Y204724D01*
X296692Y204724D02*
X300482Y204724D01*
X301023Y205905D01*
X300482Y207086D01*
X297234Y207086D01*
X296692Y208267D01*
X297234Y208858D01*
X301023Y208858D01*
X306653Y205314D02*
X305570Y204724D01*
X303405Y204724D01*
X302322Y205905D01*
X302322Y207677D01*
X303405Y208858D01*
X305570Y208858D01*
X306653Y208267D01*
X306653Y207677D01*
X305570Y207086D01*
X302322Y207086D01*
X313582Y204724D02*
X317913Y204724D01*
X315748Y204724D02*
X315748Y208858D01*
X315748Y211811D02*
X315748Y211220D01*
X314124Y208858D02*
X315748Y208858D01*
X319212Y204724D02*
X323001Y204724D01*
X323543Y205905D01*
X323001Y207086D01*
X319753Y207086D01*
X319212Y208267D01*
X319753Y208858D01*
X323543Y208858D01*
X334803Y208267D02*
X333720Y208858D01*
X331555Y208858D01*
X330472Y207677D01*
X330472Y205905D01*
X331555Y204724D01*
X333720Y204724D01*
X334803Y205314D01*
X336102Y208858D02*
X336102Y204724D01*
X336102Y207086D02*
X337726Y208858D01*
X340433Y208858D01*
X341732Y204724D02*
X346062Y204724D01*
X343897Y204724D02*
X343897Y208858D01*
X343897Y211811D02*
X343897Y211220D01*
X342273Y208858D02*
X343897Y208858D01*
X351692Y204724D02*
X351692Y207677D01*
X350610Y208858D01*
X349527Y204724D02*
X349527Y207677D01*
X347362Y208858D02*
X350610Y208858D01*
X347362Y204724D02*
X347362Y208858D01*
X349527Y207677D02*
X348444Y208858D01*
X352992Y204724D02*
X357322Y204724D01*
X355157Y204724D02*
X355157Y208858D01*
X355157Y211811D02*
X355157Y211220D01*
X353533Y208858D02*
X355157Y208858D01*
X358622Y204724D02*
X358622Y208858D01*
X358622Y207677D02*
X359704Y208858D01*
X361870Y208858D01*
X362952Y207677D01*
X362952Y204724D01*
X364251Y205905D02*
X365334Y204724D01*
X367500Y204724D01*
X368582Y205905D01*
X364251Y205905D02*
X364251Y207677D01*
X365334Y208858D01*
X367500Y208858D01*
X368582Y207677D01*
X368582Y204724D01*
X369881Y204724D02*
X374212Y204724D01*
X370964Y211811D02*
X372047Y211811D01*
X372047Y204724D01*
X377677Y204724D02*
X377677Y205314D01*
X378218Y205314D01*
X378218Y204724D01*
X377677Y204724D01*
X377677Y207086D02*
X378218Y207086D01*
X378759Y210629D01*
X378218Y211811D01*
X377677Y211811D01*
X377135Y210629D01*
X377677Y207086D01*
G54D20*
X392519Y195669D02*
X1181Y195669D01*
X1181Y1181D01*
X392519Y1181D01*
X392519Y195669D01*
X369344Y10039D02*
X364370Y15014D01*
X364370Y24355D01*
X369344Y29330D01*
X378686Y29330D01*
X383661Y24355D01*
X383661Y15014D01*
X378686Y10039D01*
X369344Y10039D01*
X15014Y10039D02*
X10039Y15014D01*
X10039Y24355D01*
X15014Y29330D01*
X24355Y29330D01*
X29330Y24355D01*
X29330Y15014D01*
X24355Y10039D01*
X15014Y10039D01*
X137789Y72578D02*
X136751Y73616D01*
X136751Y87682D01*
X137789Y88720D01*
X145162Y88720D01*
X146200Y87682D01*
X146200Y73616D01*
X145162Y72578D01*
X137789Y72578D01*
X91392Y157283D02*
X90354Y158321D01*
X90354Y171018D01*
X89021Y169685D01*
X85781Y169685D01*
X83858Y171608D01*
X83858Y174848D01*
X85781Y176771D01*
X89021Y176771D01*
X90944Y174848D01*
X90944Y172190D01*
X91392Y172637D01*
X100733Y172637D01*
X101771Y171599D01*
X101771Y158321D01*
X100733Y157283D01*
X91392Y157283D01*
X56746Y157283D02*
X55708Y158321D01*
X55708Y171599D01*
X56746Y172637D01*
X66088Y172637D01*
X66535Y172190D01*
X66535Y174848D01*
X68459Y176771D01*
X71698Y176771D01*
X73622Y174848D01*
X73622Y171608D01*
X71698Y169685D01*
X68459Y169685D01*
X67125Y171018D01*
X67125Y158321D01*
X66088Y157283D01*
X56746Y157283D01*
X70722Y169685D02*
X86757Y169685D01*
X87795Y168647D01*
X87795Y151535D01*
X97391Y141938D01*
X121358Y165905D01*
X138405Y165905D01*
X153405Y180905D01*
X343641Y180905D01*
X351712Y172834D01*
X351712Y155160D01*
X352190Y155160D01*
X353228Y154122D01*
X353228Y147655D01*
X352190Y146617D01*
X351712Y146617D01*
X351712Y75965D01*
X339921Y64173D01*
X279862Y64173D01*
X279862Y64121D01*
X278824Y63083D01*
X278346Y63083D01*
X278346Y45098D01*
X265925Y32677D01*
X265368Y32677D01*
X245978Y13287D01*
X184021Y13287D01*
X181889Y15419D01*
X181889Y22911D01*
X181680Y22834D01*
X180524Y22834D01*
X179406Y23246D01*
X178561Y24091D01*
X178149Y25209D01*
X178149Y32270D01*
X178271Y32602D01*
X177939Y32480D01*
X170878Y32480D01*
X169760Y32892D01*
X168915Y33737D01*
X168503Y34855D01*
X168503Y36010D01*
X168581Y36220D01*
X166411Y36220D01*
X164133Y33942D01*
X164133Y31234D01*
X161914Y29015D01*
X158085Y29015D01*
X155866Y31234D01*
X155866Y35064D01*
X158085Y37283D01*
X160793Y37283D01*
X162879Y39370D01*
X159561Y39370D01*
X154133Y33942D01*
X154133Y31234D01*
X151914Y29015D01*
X148085Y29015D01*
X145866Y31234D01*
X145866Y35064D01*
X148085Y37283D01*
X150793Y37283D01*
X154991Y41482D01*
X153108Y41482D01*
X150889Y43700D01*
X150889Y47530D01*
X152177Y48818D01*
X119988Y48818D01*
X116008Y44838D01*
X116008Y31402D01*
X114970Y30364D01*
X105628Y30364D01*
X104590Y31402D01*
X104590Y40108D01*
X90146Y40108D01*
X79862Y50392D01*
X79862Y39967D01*
X81974Y39967D01*
X83011Y38929D01*
X83011Y32462D01*
X82045Y31496D01*
X83011Y30529D01*
X83011Y24062D01*
X81974Y23024D01*
X75506Y23024D01*
X74468Y24062D01*
X74468Y30529D01*
X75434Y31496D01*
X74468Y32462D01*
X74468Y38929D01*
X75137Y39599D01*
X75137Y50951D01*
X74468Y51621D01*
X74468Y58088D01*
X75434Y59055D01*
X74468Y60021D01*
X74468Y66488D01*
X75506Y67526D01*
X76377Y67526D01*
X76377Y78142D01*
X75506Y78142D01*
X74468Y79180D01*
X74468Y85648D01*
X75434Y86614D01*
X74468Y87580D01*
X74468Y94048D01*
X75506Y95085D01*
X81974Y95085D01*
X83011Y94048D01*
X83011Y87580D01*
X82045Y86614D01*
X83011Y85648D01*
X83011Y79180D01*
X81974Y78142D01*
X81102Y78142D01*
X81102Y68957D01*
X91032Y78888D01*
X104590Y78888D01*
X104590Y87594D01*
X105628Y88632D01*
X114970Y88632D01*
X116008Y87594D01*
X116008Y74157D01*
X133473Y56692D01*
X168581Y56692D01*
X168503Y56902D01*
X168503Y58058D01*
X168871Y59055D01*
X168503Y60052D01*
X168503Y61207D01*
X168581Y61417D01*
X141633Y61417D01*
X141633Y61234D01*
X139414Y59015D01*
X135585Y59015D01*
X133366Y61234D01*
X133366Y65064D01*
X135585Y67283D01*
X139414Y67283D01*
X140556Y66141D01*
X168581Y66141D01*
X168503Y66351D01*
X168503Y67506D01*
X168915Y68625D01*
X169760Y69469D01*
X170878Y69881D01*
X177939Y69881D01*
X178271Y69759D01*
X178149Y70091D01*
X178149Y77152D01*
X178561Y78270D01*
X178578Y78287D01*
X168248Y78287D01*
X168248Y73616D01*
X167210Y72578D01*
X159837Y72578D01*
X158799Y73616D01*
X158799Y87682D01*
X159837Y88720D01*
X167210Y88720D01*
X168248Y87682D01*
X168248Y83011D01*
X195978Y83011D01*
X199212Y79777D01*
X199212Y79450D01*
X199422Y79527D01*
X200577Y79527D01*
X200787Y79450D01*
X200787Y84021D01*
X194021Y90787D01*
X144021Y90787D01*
X134021Y100787D01*
X88522Y100787D01*
X59986Y129323D01*
X55821Y129323D01*
X54783Y130361D01*
X54783Y136829D01*
X55749Y137795D01*
X54783Y138761D01*
X54783Y145229D01*
X55821Y146266D01*
X59986Y146266D01*
X66730Y153011D01*
X71521Y153011D01*
X74808Y156299D01*
X70722Y156299D01*
X69685Y157337D01*
X69685Y168647D01*
X70722Y169685D01*
X369344Y167519D02*
X364370Y172494D01*
X364370Y181836D01*
X369344Y186811D01*
X378686Y186811D01*
X383661Y181836D01*
X383661Y172494D01*
X378686Y167519D01*
X369344Y167519D01*
X15014Y167519D02*
X10039Y172494D01*
X10039Y181836D01*
X15014Y186811D01*
X24355Y186811D01*
X29330Y181836D01*
X29330Y172494D01*
X24355Y167519D01*
X15014Y167519D01*
X326726Y181692D02*
X325688Y182730D01*
X325688Y189316D01*
X326726Y190354D01*
X334296Y190354D01*
X335334Y189316D01*
X335334Y182730D01*
X334296Y181692D01*
X326726Y181692D01*
X295624Y181692D02*
X294586Y182730D01*
X294586Y189316D01*
X295624Y190354D01*
X303194Y190354D01*
X304232Y189316D01*
X304232Y182730D01*
X303194Y181692D01*
X295624Y181692D01*
X56746Y176968D02*
X55708Y178006D01*
X55708Y191285D01*
X56746Y192322D01*
X66088Y192322D01*
X67125Y191285D01*
X67125Y178006D01*
X66088Y176968D01*
X56746Y176968D01*
X91392Y176968D02*
X90354Y178006D01*
X90354Y191285D01*
X91392Y192322D01*
X100733Y192322D01*
X101771Y191285D01*
X101771Y178006D01*
X100733Y176968D01*
X91392Y176968D01*
X346201Y78248D02*
X346201Y146617D01*
X345723Y146617D01*
X344757Y147583D01*
X343790Y146617D01*
X337323Y146617D01*
X336285Y147655D01*
X336285Y151819D01*
X328149Y159955D01*
X328149Y163976D01*
X326726Y163976D01*
X325688Y165014D01*
X325688Y165944D01*
X304232Y165944D01*
X304232Y165014D01*
X303194Y163976D01*
X301771Y163976D01*
X301771Y157283D01*
X301914Y157283D01*
X304133Y155064D01*
X304133Y151234D01*
X301914Y149015D01*
X298085Y149015D01*
X295866Y151234D01*
X295866Y155064D01*
X297047Y156245D01*
X297047Y163976D01*
X295624Y163976D01*
X294586Y165014D01*
X294586Y171599D01*
X295624Y172637D01*
X303194Y172637D01*
X304232Y171599D01*
X304232Y170669D01*
X325688Y170669D01*
X325688Y171599D01*
X326726Y172637D01*
X334296Y172637D01*
X335334Y171599D01*
X335334Y165014D01*
X334296Y163976D01*
X332874Y163976D01*
X332874Y161912D01*
X339626Y155160D01*
X343790Y155160D01*
X344757Y154194D01*
X345723Y155160D01*
X346201Y155160D01*
X346201Y170550D01*
X341358Y175393D01*
X155688Y175393D01*
X143444Y163149D01*
X157617Y148976D01*
X157695Y149005D01*
X159666Y149005D01*
X161558Y148308D01*
X162974Y146893D01*
X163671Y145000D01*
X163671Y143030D01*
X162974Y141138D01*
X161558Y139722D01*
X159666Y139025D01*
X157695Y139025D01*
X155803Y139722D01*
X154388Y141138D01*
X153690Y143030D01*
X153690Y145000D01*
X153719Y145079D01*
X138405Y160393D01*
X123641Y160393D01*
X104980Y141732D01*
X105458Y141732D01*
X106496Y140694D01*
X106496Y133321D01*
X105458Y132283D01*
X91392Y132283D01*
X90354Y133321D01*
X90354Y140694D01*
X90597Y140937D01*
X82283Y149252D01*
X82283Y149592D01*
X81102Y148411D01*
X81102Y146266D01*
X81974Y146266D01*
X83011Y145229D01*
X83011Y138761D01*
X82045Y137795D01*
X83011Y136829D01*
X83011Y130361D01*
X81974Y129323D01*
X81102Y129323D01*
X81102Y120387D01*
X93478Y108011D01*
X138478Y108011D01*
X148478Y98011D01*
X198478Y98011D01*
X208661Y87828D01*
X208661Y79450D01*
X208871Y79527D01*
X210026Y79527D01*
X210506Y79350D01*
X210683Y79527D01*
X214513Y79527D01*
X215551Y78489D01*
X215551Y69804D01*
X215760Y69881D01*
X217920Y69881D01*
X218149Y70111D01*
X271318Y70111D01*
X271318Y70588D01*
X272285Y71555D01*
X271318Y72521D01*
X271318Y78988D01*
X272356Y80026D01*
X278824Y80026D01*
X279862Y78988D01*
X279862Y72521D01*
X278896Y71555D01*
X279862Y70588D01*
X279862Y69685D01*
X337637Y69685D01*
X346201Y78248D01*
X91392Y110236D02*
X90354Y111274D01*
X90354Y118647D01*
X91392Y119685D01*
X105458Y119685D01*
X106496Y118647D01*
X106496Y111274D01*
X105458Y110236D01*
X91392Y110236D01*
X234034Y139025D02*
X232142Y139722D01*
X230726Y141138D01*
X230029Y143030D01*
X230029Y145000D01*
X230726Y146893D01*
X232142Y148308D01*
X234034Y149005D01*
X236004Y149005D01*
X237897Y148308D01*
X239312Y146893D01*
X240009Y145000D01*
X240009Y143030D01*
X239312Y141138D01*
X237897Y139722D01*
X236004Y139025D01*
X234034Y139025D01*
X223128Y139025D02*
X221236Y139722D01*
X219821Y141138D01*
X219124Y143030D01*
X219124Y145000D01*
X219821Y146893D01*
X221236Y148308D01*
X223128Y149005D01*
X225099Y149005D01*
X226991Y148308D01*
X228407Y146893D01*
X229104Y145000D01*
X229104Y143030D01*
X228407Y141138D01*
X226991Y139722D01*
X225099Y139025D01*
X223128Y139025D01*
X190412Y139025D02*
X188520Y139722D01*
X187104Y141138D01*
X186407Y143030D01*
X186407Y145000D01*
X187104Y146893D01*
X188520Y148308D01*
X190412Y149005D01*
X192382Y149005D01*
X194275Y148308D01*
X195690Y146893D01*
X196387Y145000D01*
X196387Y143030D01*
X195690Y141138D01*
X194275Y139722D01*
X192382Y139025D01*
X190412Y139025D01*
X129258Y139535D02*
X125435Y140943D01*
X122597Y143781D01*
X121188Y147604D01*
X121188Y151607D01*
X122597Y155430D01*
X125435Y158268D01*
X129258Y159677D01*
X133261Y159677D01*
X137084Y158268D01*
X139922Y155430D01*
X141330Y151607D01*
X141330Y147604D01*
X139922Y143781D01*
X137084Y140943D01*
X133261Y139535D01*
X129258Y139535D01*
X260439Y139535D02*
X256616Y140943D01*
X253778Y143781D01*
X252370Y147604D01*
X252370Y151607D01*
X253778Y155430D01*
X256616Y158268D01*
X260439Y159677D01*
X264442Y159677D01*
X268265Y158268D01*
X271103Y155430D01*
X272511Y151607D01*
X272511Y147604D01*
X271103Y143781D01*
X268265Y140943D01*
X264442Y139535D01*
X260439Y139535D01*
X163148Y150206D02*
X161256Y150903D01*
X159840Y152319D01*
X159143Y154211D01*
X159143Y156182D01*
X159840Y158074D01*
X161256Y159489D01*
X163148Y160187D01*
X165119Y160187D01*
X167011Y159489D01*
X168426Y158074D01*
X169124Y156182D01*
X169124Y154211D01*
X168426Y152319D01*
X167011Y150903D01*
X165119Y150206D01*
X163148Y150206D01*
X205585Y91515D02*
X203366Y93734D01*
X203366Y96442D01*
X188260Y111548D01*
X181437Y111548D01*
X181437Y110676D01*
X180399Y109638D01*
X173931Y109638D01*
X172893Y110676D01*
X172893Y111548D01*
X145216Y111548D01*
X142926Y113838D01*
X138761Y113838D01*
X137795Y114804D01*
X136829Y113838D01*
X130361Y113838D01*
X129323Y114876D01*
X129323Y121344D01*
X130361Y122381D01*
X136829Y122381D01*
X137795Y121415D01*
X138761Y122381D01*
X145229Y122381D01*
X146266Y121344D01*
X146266Y117179D01*
X147173Y116272D01*
X172893Y116272D01*
X172893Y117144D01*
X173859Y118110D01*
X172893Y119076D01*
X172893Y125544D01*
X173931Y126581D01*
X178096Y126581D01*
X178129Y126615D01*
X178129Y139532D01*
X177614Y139722D01*
X177362Y139975D01*
X177362Y137171D01*
X168478Y128287D01*
X126186Y128287D01*
X124414Y126515D01*
X120585Y126515D01*
X118366Y128734D01*
X118366Y132564D01*
X120585Y134783D01*
X124414Y134783D01*
X126186Y133011D01*
X166521Y133011D01*
X172637Y139128D01*
X172637Y139896D01*
X172464Y139722D01*
X170571Y139025D01*
X168601Y139025D01*
X166708Y139722D01*
X165293Y141138D01*
X164596Y143030D01*
X164596Y145000D01*
X165293Y146893D01*
X166708Y148308D01*
X168601Y149005D01*
X170571Y149005D01*
X172464Y148308D01*
X172637Y148135D01*
X172637Y150728D01*
X172161Y150903D01*
X170746Y152319D01*
X170049Y154211D01*
X170049Y156182D01*
X170746Y158074D01*
X172161Y159489D01*
X174054Y160187D01*
X176024Y160187D01*
X177917Y159489D01*
X179332Y158074D01*
X180029Y156182D01*
X180029Y154211D01*
X179332Y152319D01*
X177917Y150903D01*
X177362Y150699D01*
X177362Y148056D01*
X177614Y148308D01*
X179506Y149005D01*
X181477Y149005D01*
X183369Y148308D01*
X184785Y146893D01*
X185482Y145000D01*
X185482Y143030D01*
X184785Y141138D01*
X183369Y139722D01*
X182854Y139532D01*
X182854Y124658D01*
X181437Y123241D01*
X181437Y119076D01*
X180470Y118110D01*
X181437Y117144D01*
X181437Y116272D01*
X190217Y116272D01*
X206706Y99783D01*
X209414Y99783D01*
X211633Y97564D01*
X211633Y93734D01*
X209414Y91515D01*
X205585Y91515D01*
X184959Y150206D02*
X183067Y150903D01*
X181651Y152319D01*
X180954Y154211D01*
X180954Y156182D01*
X181651Y158074D01*
X183067Y159489D01*
X184959Y160187D01*
X186930Y160187D01*
X188822Y159489D01*
X190237Y158074D01*
X190935Y156182D01*
X190935Y154211D01*
X190237Y152319D01*
X188822Y150903D01*
X186930Y150206D01*
X184959Y150206D01*
X228581Y150206D02*
X226689Y150903D01*
X225273Y152319D01*
X224576Y154211D01*
X224576Y156182D01*
X225273Y158074D01*
X226689Y159489D01*
X228581Y160187D01*
X230552Y160187D01*
X232444Y159489D01*
X233859Y158074D01*
X234557Y156182D01*
X234557Y154211D01*
X233859Y152319D01*
X232444Y150903D01*
X230552Y150206D01*
X228581Y150206D01*
X217676Y150206D02*
X215783Y150903D01*
X214368Y152319D01*
X213671Y154211D01*
X213671Y156182D01*
X214368Y158074D01*
X215783Y159489D01*
X217676Y160187D01*
X219646Y160187D01*
X221539Y159489D01*
X222954Y158074D01*
X223651Y156182D01*
X223651Y154211D01*
X222954Y152319D01*
X221539Y150903D01*
X219646Y150206D01*
X217676Y150206D01*
X213085Y84015D02*
X210866Y86234D01*
X210866Y90064D01*
X212637Y91836D01*
X212637Y110302D01*
X212263Y110676D01*
X212263Y117144D01*
X213229Y118110D01*
X212263Y119076D01*
X212263Y123241D01*
X205393Y130111D01*
X205393Y139935D01*
X205180Y139722D01*
X203288Y139025D01*
X201317Y139025D01*
X199425Y139722D01*
X198010Y141138D01*
X197312Y143030D01*
X197312Y145000D01*
X198010Y146893D01*
X199425Y148308D01*
X201317Y149005D01*
X203288Y149005D01*
X205180Y148308D01*
X205393Y148095D01*
X205393Y150713D01*
X204878Y150903D01*
X203462Y152319D01*
X202765Y154211D01*
X202765Y156182D01*
X203462Y158074D01*
X204878Y159489D01*
X206770Y160187D01*
X208741Y160187D01*
X210633Y159489D01*
X212048Y158074D01*
X212746Y156182D01*
X212746Y154211D01*
X212048Y152319D01*
X210633Y150903D01*
X210118Y150713D01*
X210118Y148095D01*
X210331Y148308D01*
X212223Y149005D01*
X214193Y149005D01*
X216086Y148308D01*
X217501Y146893D01*
X218198Y145000D01*
X218198Y143030D01*
X217501Y141138D01*
X216086Y139722D01*
X214193Y139025D01*
X212223Y139025D01*
X210331Y139722D01*
X210118Y139935D01*
X210118Y132068D01*
X215604Y126581D01*
X219769Y126581D01*
X220807Y125544D01*
X220807Y119076D01*
X219840Y118110D01*
X220807Y117144D01*
X220807Y116272D01*
X246527Y116272D01*
X247433Y117179D01*
X247433Y121344D01*
X248471Y122381D01*
X254939Y122381D01*
X255905Y121415D01*
X256871Y122381D01*
X263339Y122381D01*
X264377Y121344D01*
X264377Y114876D01*
X263339Y113838D01*
X256871Y113838D01*
X255905Y114804D01*
X254939Y113838D01*
X250774Y113838D01*
X248483Y111548D01*
X220807Y111548D01*
X220807Y110676D01*
X219769Y109638D01*
X217362Y109638D01*
X217362Y91836D01*
X219133Y90064D01*
X219133Y86234D01*
X216914Y84015D01*
X213085Y84015D01*
X195865Y150206D02*
X193972Y150903D01*
X192557Y152319D01*
X191860Y154211D01*
X191860Y156182D01*
X192557Y158074D01*
X193972Y159489D01*
X195865Y160187D01*
X197835Y160187D01*
X199728Y159489D01*
X201143Y158074D01*
X201840Y156182D01*
X201840Y154211D01*
X201143Y152319D01*
X199728Y150903D01*
X197835Y150206D01*
X195865Y150206D01*
X104590Y53539D02*
X105628Y54577D01*
X114970Y54577D01*
X116008Y53539D01*
X116008Y51520D01*
X118031Y53543D01*
X129941Y53543D01*
X116008Y67476D01*
X116008Y65457D01*
X114970Y64419D01*
X105628Y64419D01*
X104590Y65457D01*
X104590Y74163D01*
X92989Y74163D01*
X83011Y64186D01*
X83011Y60021D01*
X82045Y59055D01*
X83011Y58088D01*
X83011Y53924D01*
X92102Y44832D01*
X104590Y44832D01*
X104590Y53539D01*
X272834Y47381D02*
X272834Y63083D01*
X272356Y63083D01*
X271318Y64121D01*
X271318Y64599D01*
X225107Y64599D01*
X225196Y64357D01*
X225196Y63201D01*
X224829Y62204D01*
X225196Y61207D01*
X225196Y60052D01*
X224829Y59055D01*
X225196Y58058D01*
X225196Y56902D01*
X224829Y55905D01*
X225196Y54908D01*
X225196Y53752D01*
X224829Y52755D01*
X225196Y51758D01*
X225196Y50603D01*
X224829Y49606D01*
X225196Y48609D01*
X225196Y47453D01*
X224829Y46456D01*
X225196Y45459D01*
X225196Y44304D01*
X224829Y43307D01*
X225196Y42310D01*
X225196Y41154D01*
X224829Y40157D01*
X225196Y39160D01*
X225196Y38188D01*
X263641Y38188D01*
X272834Y47381D01*
X212020Y34645D02*
X213176Y34645D01*
X213508Y34523D01*
X213385Y34855D01*
X213385Y36010D01*
X213753Y37007D01*
X213385Y38004D01*
X213385Y39160D01*
X213753Y40157D01*
X213385Y41154D01*
X213385Y42310D01*
X213753Y43307D01*
X213385Y44304D01*
X213385Y45459D01*
X213753Y46456D01*
X213385Y47453D01*
X213385Y48609D01*
X213753Y49606D01*
X213385Y50603D01*
X213385Y51758D01*
X213753Y52755D01*
X213385Y53752D01*
X213385Y54908D01*
X213753Y55905D01*
X213385Y56902D01*
X213385Y58058D01*
X213753Y59055D01*
X213385Y60052D01*
X213385Y61207D01*
X213753Y62204D01*
X213385Y63201D01*
X213385Y64357D01*
X213463Y64566D01*
X199631Y64566D01*
X201633Y62564D01*
X201633Y58734D01*
X199414Y56515D01*
X199212Y56515D01*
X199212Y50702D01*
X200866Y52356D01*
X200866Y55064D01*
X203085Y57283D01*
X206914Y57283D01*
X209133Y55064D01*
X209133Y51234D01*
X206914Y49015D01*
X204206Y49015D01*
X202362Y47171D01*
X202362Y34568D01*
X202571Y34645D01*
X203727Y34645D01*
X204724Y34278D01*
X205721Y34645D01*
X206876Y34645D01*
X207874Y34278D01*
X208871Y34645D01*
X210026Y34645D01*
X211023Y34278D01*
X212020Y34645D01*
X193123Y34645D02*
X194278Y34645D01*
X194488Y34568D01*
X194488Y57612D01*
X193366Y58734D01*
X193366Y62564D01*
X195368Y64566D01*
X194679Y64566D01*
X188380Y58267D01*
X180237Y58267D01*
X180314Y58058D01*
X180314Y56902D01*
X179947Y55905D01*
X180314Y54908D01*
X180314Y53752D01*
X179947Y52755D01*
X180314Y51758D01*
X180314Y50603D01*
X179947Y49606D01*
X180071Y49269D01*
X180585Y49783D01*
X184414Y49783D01*
X186633Y47564D01*
X186633Y43734D01*
X184414Y41515D01*
X180585Y41515D01*
X180314Y41785D01*
X180314Y41154D01*
X179947Y40157D01*
X180314Y39160D01*
X180314Y38004D01*
X179947Y37007D01*
X180314Y36010D01*
X180314Y34855D01*
X180192Y34523D01*
X180524Y34645D01*
X181680Y34645D01*
X182677Y34278D01*
X183674Y34645D01*
X184829Y34645D01*
X185826Y34278D01*
X186823Y34645D01*
X187979Y34645D01*
X188976Y34278D01*
X189973Y34645D01*
X191128Y34645D01*
X192125Y34278D01*
X193123Y34645D01*
X258686Y32677D02*
X223356Y32677D01*
X222821Y32480D01*
X215760Y32480D01*
X215428Y32602D01*
X215551Y32270D01*
X215551Y25209D01*
X215139Y24091D01*
X214294Y23246D01*
X213176Y22834D01*
X212020Y22834D01*
X211023Y23201D01*
X210026Y22834D01*
X208871Y22834D01*
X207874Y23201D01*
X206876Y22834D01*
X205721Y22834D01*
X204724Y23201D01*
X203727Y22834D01*
X202571Y22834D01*
X201574Y23201D01*
X200577Y22834D01*
X199422Y22834D01*
X198425Y23201D01*
X197428Y22834D01*
X196272Y22834D01*
X195275Y23201D01*
X194278Y22834D01*
X193123Y22834D01*
X192125Y23201D01*
X191128Y22834D01*
X189973Y22834D01*
X188976Y23201D01*
X187979Y22834D01*
X186823Y22834D01*
X186614Y22911D01*
X186614Y18011D01*
X244021Y18011D01*
X258686Y32677D01*
X98425Y137007D02*
X98425Y139074D01*
X219291Y66385D02*
X219291Y66929D01*
X209448Y73622D02*
X209448Y66929D01*
X219291Y66929D01*
X193700Y73622D02*
X193700Y66929D01*
X209448Y66929D01*
X174409Y60629D02*
X187401Y60629D01*
X193700Y66929D01*
X184251Y28740D02*
X184251Y16397D01*
X185000Y15649D01*
X245000Y15649D01*
X275590Y46240D01*
X78740Y133595D02*
X78740Y119409D01*
X92500Y105649D01*
X137500Y105649D01*
X147500Y95649D01*
X197500Y95649D01*
X206299Y86850D01*
X206299Y73622D01*
X59055Y133595D02*
X89500Y103149D01*
X135000Y103149D01*
X145000Y93149D01*
X195000Y93149D01*
X203149Y85000D01*
X203149Y73622D01*
X78740Y162992D02*
X78740Y156889D01*
X72500Y150649D01*
X67709Y150649D01*
X59055Y141995D01*
X78740Y82414D02*
X78740Y63255D01*
X92010Y76525D01*
X110299Y76525D01*
X132494Y54330D01*
X174409Y54330D01*
X77500Y36936D02*
X77500Y53614D01*
X77500Y36936D02*
X78740Y35696D01*
X77500Y53614D02*
X78740Y54855D01*
X110299Y42470D02*
X91124Y42470D01*
X78740Y54855D01*
X110299Y42470D02*
X119009Y51181D01*
X174409Y51181D01*
X163523Y80649D02*
X195000Y80649D01*
X196850Y78799D01*
X196850Y73622D01*
X155023Y45615D02*
X155000Y48031D01*
X174409Y48031D01*
X181732Y44881D02*
X174409Y44881D01*
X181732Y44881D02*
X182500Y45649D01*
X251705Y118110D02*
X247505Y113910D01*
X216535Y113910D01*
X215000Y113910D02*
X215000Y88149D01*
X215000Y113910D02*
X216535Y113910D01*
X205000Y53149D02*
X200000Y48149D01*
X200000Y28740D01*
X141995Y118110D02*
X146195Y113910D01*
X177165Y113910D01*
X189239Y113910D01*
X207500Y95649D01*
X196850Y60000D02*
X196850Y28740D01*
X196850Y60000D02*
X197500Y60649D01*
X78740Y141995D02*
X78740Y149389D01*
X81889Y152539D01*
X81889Y162992D01*
X330511Y168307D02*
X330511Y165937D01*
X330511Y168307D02*
X330511Y160934D01*
X340557Y150888D01*
X174409Y63779D02*
X138129Y63779D01*
X137500Y63149D01*
X299409Y153740D02*
X299409Y168307D01*
X299409Y153740D02*
X300000Y153149D01*
X299409Y168307D02*
X330511Y168307D01*
X160000Y33149D02*
X165433Y38582D01*
X174409Y38582D01*
X216535Y122310D02*
X207755Y131089D01*
X207755Y155196D01*
X175000Y155157D02*
X175000Y138149D01*
X175000Y155157D02*
X175039Y155196D01*
X175000Y138149D02*
X167500Y130649D01*
X122500Y130649D01*
X174409Y41732D02*
X158582Y41732D01*
X150000Y33149D01*
X177165Y122310D02*
X180492Y125637D01*
X180492Y144015D01*
G54D22*
X139547Y163149D02*
X158681Y144015D01*
X85039Y162992D02*
X85039Y150393D01*
X98425Y137007D01*
X98425Y139074D02*
X122500Y163149D01*
X139547Y163149D01*
X154547Y178149D01*
X342500Y178149D01*
X348957Y171692D01*
X348957Y150888D01*
X348957Y77106D01*
X338779Y66929D01*
X275590Y66929D01*
X275590Y67355D01*
X219291Y67355D01*
X219291Y66929D01*
X275590Y66929D02*
X275590Y46240D01*
X264783Y35433D01*
X219291Y35433D01*
G54D25*
X191397Y144015D03*
X202303Y144015D03*
X213208Y144015D03*
X224114Y144015D03*
X180492Y144015D03*
X169586Y144015D03*
X158681Y144015D03*
X235019Y144015D03*
X196850Y155196D03*
X207755Y155196D03*
X218661Y155196D03*
X229566Y155196D03*
X185944Y155196D03*
X175039Y155196D03*
X164133Y155196D03*
G54D26*
X262440Y149606D03*
X131259Y149606D03*
G54D30*
X212598Y73622D03*
G54D31*
X141995Y118110D03*
X133595Y118110D03*
G54D32*
X78740Y35696D03*
X78740Y27296D03*
X216535Y122310D03*
X216535Y113910D03*
X177165Y122310D03*
X177165Y113910D03*
G54D33*
X340557Y150888D03*
X348957Y150888D03*
X251705Y118110D03*
X260105Y118110D03*
G54D34*
X59055Y133595D03*
X59055Y141995D03*
X78740Y133595D03*
X78740Y141995D03*
X275590Y67355D03*
X275590Y75755D03*
X78740Y82414D03*
X78740Y90814D03*
X78740Y54855D03*
X78740Y63255D03*
G54D35*
X299409Y186023D03*
X330511Y186023D03*
X299409Y168307D03*
X330511Y168307D03*
G54D36*
X163523Y80649D03*
X141476Y80649D03*
G54D37*
X98425Y137007D03*
X98425Y114960D03*
G54D38*
X110299Y42470D03*
X110299Y76525D03*
G54D40*
X237500Y53149D03*
X175000Y88149D03*
X190000Y85649D03*
X92500Y60649D03*
X190000Y40649D03*
X237500Y25649D03*
X155023Y45615D03*
X182500Y45649D03*
X215000Y88149D03*
X205000Y53149D03*
X207500Y95649D03*
X197500Y60649D03*
X137500Y63149D03*
X300000Y153149D03*
X160000Y33149D03*
X122500Y130649D03*
X150000Y33149D03*
G54D41*
X19685Y177165D03*
X19685Y19685D03*
X374015Y19685D03*
X374015Y177165D03*
G54D42*
X209448Y73622D03*
X206299Y73622D03*
X203149Y73622D03*
X200000Y73622D03*
X196850Y73622D03*
X193700Y73622D03*
X190551Y73622D03*
X187401Y73622D03*
X184251Y73622D03*
X181102Y73622D03*
X181102Y28740D03*
X184251Y28740D03*
X187401Y28740D03*
X190551Y28740D03*
X193700Y28740D03*
X196850Y28740D03*
X200000Y28740D03*
X203149Y28740D03*
X206299Y28740D03*
X209448Y28740D03*
X212598Y28740D03*
G54D43*
X174409Y66929D03*
X174409Y63779D03*
X174409Y60629D03*
X174409Y57480D03*
X174409Y54330D03*
X174409Y51181D03*
X174409Y48031D03*
X174409Y44881D03*
X174409Y41732D03*
X174409Y38582D03*
X174409Y35433D03*
X219291Y35433D03*
X219291Y38582D03*
X219291Y41732D03*
X219291Y44881D03*
X219291Y48031D03*
X219291Y51181D03*
X219291Y54330D03*
X219291Y57480D03*
X219291Y60629D03*
X219291Y63779D03*
X219291Y66929D03*
G54D44*
X85039Y162992D03*
X81889Y162992D03*
X78740Y162992D03*
X75590Y162992D03*
X72440Y162992D03*
G54D45*
X96062Y184645D03*
X96062Y164960D03*
X61417Y164960D03*
X61417Y184645D03*
G36*
X168503Y56692D02*
X168503Y58267D01*
X174409Y58267D01*
X174409Y56692D01*
X168503Y56692D01*
G37*
G36*
X174409Y56692D02*
X174409Y58267D01*
X180314Y58267D01*
X180314Y56692D01*
X174409Y56692D01*
G37*
G36*
X178149Y27952D02*
X178149Y29527D01*
X181102Y29527D01*
X181102Y27952D01*
X178149Y27952D01*
G37*
G36*
X180314Y22834D02*
X180314Y28740D01*
X181889Y28740D01*
X181889Y22834D01*
X180314Y22834D01*
G37*
G36*
X180314Y28740D02*
X180314Y34645D01*
X181889Y34645D01*
X181889Y28740D01*
X180314Y28740D01*
G37*
G36*
X213385Y37795D02*
X213385Y39370D01*
X219291Y39370D01*
X219291Y37795D01*
X213385Y37795D01*
G37*
G36*
X219291Y37795D02*
X219291Y39370D01*
X225196Y39370D01*
X225196Y37795D01*
X219291Y37795D01*
G37*
G36*
X213385Y62992D02*
X213385Y64566D01*
X219291Y64566D01*
X219291Y62992D01*
X213385Y62992D01*
G37*
G36*
X219291Y62992D02*
X219291Y64566D01*
X225196Y64566D01*
X225196Y62992D01*
X219291Y62992D01*
G37*
G36*
X199212Y73622D02*
X199212Y79527D01*
X200787Y79527D01*
X200787Y73622D01*
X199212Y73622D01*
G37*
G36*
X69685Y162335D02*
X69685Y163648D01*
X72440Y163648D01*
X72440Y162335D01*
X69685Y162335D01*
G37*
G36*
X71784Y156299D02*
X71784Y162992D01*
X73097Y162992D01*
X73097Y156299D01*
X71784Y156299D01*
G37*
G36*
X71784Y162992D02*
X71784Y169685D01*
X73097Y169685D01*
X73097Y162992D01*
X71784Y162992D01*
G37*
G36*
X90354Y163779D02*
X90354Y166141D01*
X96062Y166141D01*
X96062Y163779D01*
X90354Y163779D01*
G37*
G36*
X96062Y163779D02*
X96062Y166141D01*
X101771Y166141D01*
X101771Y163779D01*
X96062Y163779D01*
G37*
G36*
X94881Y157283D02*
X94881Y164960D01*
X97244Y164960D01*
X97244Y157283D01*
X94881Y157283D01*
G37*
G36*
X94881Y164960D02*
X94881Y172637D01*
X97244Y172637D01*
X97244Y164960D01*
X94881Y164960D01*
G37*
G36*
X55708Y183464D02*
X55708Y185826D01*
X61417Y185826D01*
X61417Y183464D01*
X55708Y183464D01*
G37*
G36*
X61417Y183464D02*
X61417Y185826D01*
X67125Y185826D01*
X67125Y183464D01*
X61417Y183464D01*
G37*
G36*
X60236Y176968D02*
X60236Y184645D01*
X62598Y184645D01*
X62598Y176968D01*
X60236Y176968D01*
G37*
G36*
X60236Y184645D02*
X60236Y192322D01*
X62598Y192322D01*
X62598Y184645D01*
X60236Y184645D01*
G37*
G36*
X90354Y183464D02*
X90354Y185826D01*
X96062Y185826D01*
X96062Y183464D01*
X90354Y183464D01*
G37*
G36*
X96062Y183464D02*
X96062Y185826D01*
X101771Y185826D01*
X101771Y183464D01*
X96062Y183464D01*
G37*
G36*
X94881Y176968D02*
X94881Y184645D01*
X97244Y184645D01*
X97244Y176968D01*
X94881Y176968D01*
G37*
G36*
X94881Y184645D02*
X94881Y192322D01*
X97244Y192322D01*
X97244Y184645D01*
X94881Y184645D01*
G37*
G36*
X55708Y163779D02*
X55708Y166141D01*
X61417Y166141D01*
X61417Y163779D01*
X55708Y163779D01*
G37*
G36*
X61417Y163779D02*
X61417Y166141D01*
X67125Y166141D01*
X67125Y163779D01*
X61417Y163779D01*
G37*
G36*
X60236Y157283D02*
X60236Y164960D01*
X62598Y164960D01*
X62598Y157283D01*
X60236Y157283D01*
G37*
G36*
X60236Y164960D02*
X60236Y172637D01*
X62598Y172637D01*
X62598Y164960D01*
X60236Y164960D01*
G37*
G36*
X274409Y75755D02*
X274409Y80026D01*
X276771Y80026D01*
X276771Y75755D01*
X274409Y75755D01*
G37*
G36*
X275590Y74574D02*
X275590Y76936D01*
X279862Y76936D01*
X279862Y74574D01*
X275590Y74574D01*
G37*
G36*
X271318Y74574D02*
X271318Y76936D01*
X275590Y76936D01*
X275590Y74574D01*
X271318Y74574D01*
G37*
G36*
X77559Y90814D02*
X77559Y95085D01*
X79921Y95085D01*
X79921Y90814D01*
X77559Y90814D01*
G37*
G36*
X78740Y89633D02*
X78740Y91995D01*
X83011Y91995D01*
X83011Y89633D01*
X78740Y89633D01*
G37*
G36*
X74468Y89633D02*
X74468Y91995D01*
X78740Y91995D01*
X78740Y89633D01*
X74468Y89633D01*
G37*
G36*
X77559Y23024D02*
X77559Y27296D01*
X79921Y27296D01*
X79921Y23024D01*
X77559Y23024D01*
G37*
G36*
X74468Y26114D02*
X74468Y28477D01*
X78740Y28477D01*
X78740Y26114D01*
X74468Y26114D01*
G37*
G36*
X78740Y26114D02*
X78740Y28477D01*
X83011Y28477D01*
X83011Y26114D01*
X78740Y26114D01*
G37*
G36*
X329330Y186023D02*
X329330Y190354D01*
X331692Y190354D01*
X331692Y186023D01*
X329330Y186023D01*
G37*
G36*
X329330Y181692D02*
X329330Y186023D01*
X331692Y186023D01*
X331692Y181692D01*
X329330Y181692D01*
G37*
G36*
X325688Y184842D02*
X325688Y187204D01*
X330511Y187204D01*
X330511Y184842D01*
X325688Y184842D01*
G37*
G36*
X330511Y184842D02*
X330511Y187204D01*
X335334Y187204D01*
X335334Y184842D01*
X330511Y184842D01*
G37*
G36*
X298228Y186023D02*
X298228Y190354D01*
X300590Y190354D01*
X300590Y186023D01*
X298228Y186023D01*
G37*
G36*
X298228Y181692D02*
X298228Y186023D01*
X300590Y186023D01*
X300590Y181692D01*
X298228Y181692D01*
G37*
G36*
X294586Y184842D02*
X294586Y187204D01*
X299409Y187204D01*
X299409Y184842D01*
X294586Y184842D01*
G37*
G36*
X299409Y184842D02*
X299409Y187204D01*
X304232Y187204D01*
X304232Y184842D01*
X299409Y184842D01*
G37*
G36*
X129323Y116929D02*
X129323Y119291D01*
X133595Y119291D01*
X133595Y116929D01*
X129323Y116929D01*
G37*
G36*
X132414Y118110D02*
X132414Y122381D01*
X134776Y122381D01*
X134776Y118110D01*
X132414Y118110D01*
G37*
G36*
X132414Y113838D02*
X132414Y118110D01*
X134776Y118110D01*
X134776Y113838D01*
X132414Y113838D01*
G37*
G36*
X260105Y116929D02*
X260105Y119291D01*
X264377Y119291D01*
X264377Y116929D01*
X260105Y116929D01*
G37*
G36*
X258924Y113838D02*
X258924Y118110D01*
X261286Y118110D01*
X261286Y113838D01*
X258924Y113838D01*
G37*
G36*
X258924Y118110D02*
X258924Y122381D01*
X261286Y122381D01*
X261286Y118110D01*
X258924Y118110D01*
G37*
G36*
X186407Y142834D02*
X186407Y145196D01*
X191397Y145196D01*
X191397Y142834D01*
X186407Y142834D01*
G37*
G36*
X191397Y142834D02*
X191397Y145196D01*
X196387Y145196D01*
X196387Y142834D01*
X191397Y142834D01*
G37*
G36*
X190216Y139025D02*
X190216Y144015D01*
X192578Y144015D01*
X192578Y139025D01*
X190216Y139025D01*
G37*
G36*
X190216Y144015D02*
X190216Y149005D01*
X192578Y149005D01*
X192578Y144015D01*
X190216Y144015D01*
G37*
G36*
X252370Y148425D02*
X252370Y150787D01*
X262440Y150787D01*
X262440Y148425D01*
X252370Y148425D01*
G37*
G36*
X262440Y148425D02*
X262440Y150787D01*
X272511Y150787D01*
X272511Y148425D01*
X262440Y148425D01*
G37*
G36*
X261259Y139535D02*
X261259Y149606D01*
X263622Y149606D01*
X263622Y139535D01*
X261259Y139535D01*
G37*
G36*
X261259Y149606D02*
X261259Y159677D01*
X263622Y159677D01*
X263622Y149606D01*
X261259Y149606D01*
G37*
G36*
X121188Y148425D02*
X121188Y150787D01*
X131259Y150787D01*
X131259Y148425D01*
X121188Y148425D01*
G37*
G36*
X131259Y148425D02*
X131259Y150787D01*
X141330Y150787D01*
X141330Y148425D01*
X131259Y148425D01*
G37*
G36*
X130078Y139535D02*
X130078Y149606D01*
X132440Y149606D01*
X132440Y139535D01*
X130078Y139535D01*
G37*
G36*
X130078Y149606D02*
X130078Y159677D01*
X132440Y159677D01*
X132440Y149606D01*
X130078Y149606D01*
G37*
G36*
X136751Y79468D02*
X136751Y81830D01*
X141476Y81830D01*
X141476Y79468D01*
X136751Y79468D01*
G37*
G36*
X141476Y79468D02*
X141476Y81830D01*
X146200Y81830D01*
X146200Y79468D01*
X141476Y79468D01*
G37*
G36*
X140295Y72578D02*
X140295Y80649D01*
X142657Y80649D01*
X142657Y72578D01*
X140295Y72578D01*
G37*
G36*
X140295Y80649D02*
X140295Y88720D01*
X142657Y88720D01*
X142657Y80649D01*
X140295Y80649D01*
G37*
G36*
X97244Y110236D02*
X97244Y114960D01*
X99606Y114960D01*
X99606Y110236D01*
X97244Y110236D01*
G37*
G36*
X97244Y114960D02*
X97244Y119685D01*
X99606Y119685D01*
X99606Y114960D01*
X97244Y114960D01*
G37*
G36*
X98425Y113779D02*
X98425Y116141D01*
X106496Y116141D01*
X106496Y113779D01*
X98425Y113779D01*
G37*
G36*
X90354Y113779D02*
X90354Y116141D01*
X98425Y116141D01*
X98425Y113779D01*
X90354Y113779D01*
G37*
G36*
X56746Y192322D02*
X1181Y195669D01*
X392519Y195669D01*
X56746Y192322D01*
G37*
G36*
X66088Y192322D02*
X56746Y192322D01*
X392519Y195669D01*
X66088Y192322D01*
G37*
G36*
X91392Y192322D02*
X66088Y192322D01*
X392519Y195669D01*
X91392Y192322D01*
G37*
G36*
X100733Y192322D02*
X91392Y192322D01*
X392519Y195669D01*
X100733Y192322D01*
G37*
G36*
X55708Y191285D02*
X1181Y195669D01*
X56746Y192322D01*
X55708Y191285D01*
G37*
G36*
X67125Y191285D02*
X66088Y192322D01*
X91392Y192322D01*
X67125Y191285D01*
G37*
G36*
X90354Y191285D02*
X67125Y191285D01*
X91392Y192322D01*
X90354Y191285D01*
G37*
G36*
X101771Y191285D02*
X100733Y192322D01*
X392519Y195669D01*
X101771Y191285D01*
G37*
G36*
X295624Y190354D02*
X101771Y191285D01*
X392519Y195669D01*
X295624Y190354D01*
G37*
G36*
X303194Y190354D02*
X295624Y190354D01*
X392519Y195669D01*
X303194Y190354D01*
G37*
G36*
X326726Y190354D02*
X303194Y190354D01*
X392519Y195669D01*
X326726Y190354D01*
G37*
G36*
X334296Y190354D02*
X326726Y190354D01*
X392519Y195669D01*
X334296Y190354D01*
G37*
G36*
X294586Y189316D02*
X101771Y191285D01*
X295624Y190354D01*
X294586Y189316D01*
G37*
G36*
X304232Y189316D02*
X303194Y190354D01*
X326726Y190354D01*
X304232Y189316D01*
G37*
G36*
X325688Y189316D02*
X304232Y189316D01*
X326726Y190354D01*
X325688Y189316D01*
G37*
G36*
X335334Y189316D02*
X334296Y190354D01*
X392519Y195669D01*
X335334Y189316D01*
G37*
G36*
X15014Y186811D02*
X1181Y195669D01*
X55708Y191285D01*
X15014Y186811D01*
G37*
G36*
X24355Y186811D02*
X15014Y186811D01*
X55708Y191285D01*
X24355Y186811D01*
G37*
G36*
X369344Y186811D02*
X335334Y189316D01*
X392519Y195669D01*
X369344Y186811D01*
G37*
G36*
X378686Y186811D02*
X369344Y186811D01*
X392519Y195669D01*
X378686Y186811D01*
G37*
G36*
X294586Y182730D02*
X101771Y191285D01*
X294586Y189316D01*
X294586Y182730D01*
G37*
G36*
X304232Y182730D02*
X304232Y189316D01*
X325688Y189316D01*
X304232Y182730D01*
G37*
G36*
X325688Y182730D02*
X304232Y182730D01*
X325688Y189316D01*
X325688Y182730D01*
G37*
G36*
X335334Y182730D02*
X335334Y189316D01*
X369344Y186811D01*
X335334Y182730D01*
G37*
G36*
X10039Y181836D02*
X1181Y195669D01*
X15014Y186811D01*
X10039Y181836D01*
G37*
G36*
X29330Y181836D02*
X24355Y186811D01*
X55708Y191285D01*
X29330Y181836D01*
G37*
G36*
X364370Y181836D02*
X335334Y182730D01*
X369344Y186811D01*
X364370Y181836D01*
G37*
G36*
X383661Y181836D02*
X378686Y186811D01*
X392519Y195669D01*
X383661Y181836D01*
G37*
G36*
X295624Y181692D02*
X101771Y191285D01*
X294586Y182730D01*
X295624Y181692D01*
G37*
G36*
X303194Y181692D02*
X304232Y182730D01*
X325688Y182730D01*
X303194Y181692D01*
G37*
G36*
X326726Y181692D02*
X303194Y181692D01*
X325688Y182730D01*
X326726Y181692D01*
G37*
G36*
X334296Y181692D02*
X335334Y182730D01*
X364370Y181836D01*
X334296Y181692D01*
G37*
G36*
X153405Y180905D02*
X295624Y181692D01*
X334296Y181692D01*
X153405Y180905D01*
G37*
G36*
X153405Y180905D02*
X101771Y191285D01*
X295624Y181692D01*
X153405Y180905D01*
G37*
G36*
X343641Y180905D02*
X153405Y180905D01*
X334296Y181692D01*
X343641Y180905D01*
G37*
G36*
X343641Y180905D02*
X334296Y181692D01*
X364370Y181836D01*
X343641Y180905D01*
G37*
G36*
X55708Y178006D02*
X29330Y181836D01*
X55708Y191285D01*
X55708Y178006D01*
G37*
G36*
X67125Y178006D02*
X67125Y191285D01*
X90354Y191285D01*
X67125Y178006D01*
G37*
G36*
X90354Y178006D02*
X67125Y178006D01*
X90354Y191285D01*
X90354Y178006D01*
G37*
G36*
X101771Y178006D02*
X101771Y191285D01*
X153405Y180905D01*
X101771Y178006D01*
G37*
G36*
X56746Y176968D02*
X29330Y181836D01*
X55708Y178006D01*
X56746Y176968D01*
G37*
G36*
X66088Y176968D02*
X67125Y178006D01*
X90354Y178006D01*
X66088Y176968D01*
G37*
G36*
X91392Y176968D02*
X66088Y176968D01*
X90354Y178006D01*
X91392Y176968D01*
G37*
G36*
X100733Y176968D02*
X101771Y178006D01*
X153405Y180905D01*
X100733Y176968D01*
G37*
G36*
X68459Y176771D02*
X56746Y176968D01*
X100733Y176968D01*
X68459Y176771D01*
G37*
G36*
X71698Y176771D02*
X68459Y176771D01*
X100733Y176968D01*
X71698Y176771D01*
G37*
G36*
X85781Y176771D02*
X71698Y176771D01*
X100733Y176968D01*
X85781Y176771D01*
G37*
G36*
X89021Y176771D02*
X85781Y176771D01*
X100733Y176968D01*
X89021Y176771D01*
G37*
G36*
X66535Y174848D02*
X56746Y176968D01*
X68459Y176771D01*
X66535Y174848D01*
G37*
G36*
X66535Y174848D02*
X29330Y181836D01*
X56746Y176968D01*
X66535Y174848D01*
G37*
G36*
X73622Y174848D02*
X71698Y176771D01*
X85781Y176771D01*
X73622Y174848D01*
G37*
G36*
X83858Y174848D02*
X73622Y174848D01*
X85781Y176771D01*
X83858Y174848D01*
G37*
G36*
X90944Y174848D02*
X89021Y176771D01*
X100733Y176968D01*
X90944Y174848D01*
G37*
G36*
X90944Y174848D02*
X100733Y176968D01*
X153405Y180905D01*
X90944Y174848D01*
G37*
G36*
X351712Y172834D02*
X343641Y180905D01*
X364370Y181836D01*
X351712Y172834D01*
G37*
G36*
X56746Y172637D02*
X29330Y181836D01*
X66535Y174848D01*
X56746Y172637D01*
G37*
G36*
X66088Y172637D02*
X56746Y172637D01*
X66535Y174848D01*
X66088Y172637D01*
G37*
G36*
X91392Y172637D02*
X90944Y174848D01*
X153405Y180905D01*
X91392Y172637D01*
G37*
G36*
X100733Y172637D02*
X91392Y172637D01*
X153405Y180905D01*
X100733Y172637D01*
G37*
G36*
X10039Y172494D02*
X1181Y195669D01*
X10039Y181836D01*
X10039Y172494D01*
G37*
G36*
X29330Y172494D02*
X29330Y181836D01*
X56746Y172637D01*
X29330Y172494D01*
G37*
G36*
X364370Y172494D02*
X351712Y172834D01*
X364370Y181836D01*
X364370Y172494D01*
G37*
G36*
X383661Y172494D02*
X383661Y181836D01*
X392519Y195669D01*
X383661Y172494D01*
G37*
G36*
X66535Y172190D02*
X66088Y172637D01*
X66535Y174848D01*
X66535Y172190D01*
G37*
G36*
X90944Y172190D02*
X90944Y174848D01*
X91392Y172637D01*
X90944Y172190D01*
G37*
G36*
X73622Y171608D02*
X73622Y174848D01*
X83858Y174848D01*
X73622Y171608D01*
G37*
G36*
X83858Y171608D02*
X73622Y171608D01*
X83858Y174848D01*
X83858Y171608D01*
G37*
G36*
X55708Y171599D02*
X29330Y172494D01*
X56746Y172637D01*
X55708Y171599D01*
G37*
G36*
X101771Y171599D02*
X100733Y172637D01*
X153405Y180905D01*
X101771Y171599D01*
G37*
G36*
X71698Y169685D02*
X73622Y171608D01*
X83858Y171608D01*
X71698Y169685D01*
G37*
G36*
X85781Y169685D02*
X71698Y169685D01*
X83858Y171608D01*
X85781Y169685D01*
G37*
G36*
X69685Y168647D02*
X68459Y169685D01*
X70722Y169684D01*
X69685Y168647D01*
G37*
G36*
X87795Y168647D02*
X86757Y169684D01*
X89021Y169685D01*
X87795Y168647D01*
G37*
G36*
X24355Y167519D02*
X29330Y172494D01*
X55708Y171599D01*
X24355Y167519D01*
G37*
G36*
X369344Y167519D02*
X351712Y172834D01*
X364370Y172494D01*
X369344Y167519D01*
G37*
G36*
X121358Y165905D02*
X101771Y171599D01*
X153405Y180905D01*
X121358Y165905D01*
G37*
G36*
X138405Y165905D02*
X121358Y165905D01*
X153405Y180905D01*
X138405Y165905D01*
G37*
G36*
X55708Y158321D02*
X24355Y167519D01*
X55708Y171599D01*
X55708Y158321D01*
G37*
G36*
X55708Y158321D02*
X15014Y167519D01*
X24355Y167519D01*
X55708Y158321D01*
G37*
G36*
X67125Y158321D02*
X67126Y171018D01*
X68459Y169685D01*
X67125Y158321D01*
G37*
G36*
X67125Y158321D02*
X68459Y169685D01*
X69685Y168647D01*
X67125Y158321D01*
G37*
G36*
X90354Y158321D02*
X89021Y169685D01*
X90354Y171018D01*
X90354Y158321D01*
G37*
G36*
X90354Y158321D02*
X87795Y168647D01*
X89021Y169685D01*
X90354Y158321D01*
G37*
G36*
X101771Y158321D02*
X101771Y171599D01*
X121358Y165905D01*
X101771Y158321D01*
G37*
G36*
X69685Y157337D02*
X67125Y158321D01*
X69685Y168647D01*
X69685Y157337D01*
G37*
G36*
X56746Y157283D02*
X15014Y167519D01*
X55708Y158321D01*
X56746Y157283D01*
G37*
G36*
X66088Y157283D02*
X67125Y158321D01*
X69685Y157337D01*
X66088Y157283D01*
G37*
G36*
X100733Y157283D02*
X101771Y158321D01*
X121358Y165905D01*
X100733Y157283D01*
G37*
G36*
X70722Y156299D02*
X66088Y157283D01*
X69685Y157337D01*
X70722Y156299D01*
G37*
G36*
X70722Y156299D02*
X56746Y157283D01*
X66088Y157283D01*
X70722Y156299D01*
G37*
G36*
X351712Y155160D02*
X351712Y172834D01*
X369344Y167519D01*
X351712Y155160D01*
G37*
G36*
X351712Y155160D02*
X369344Y167519D01*
X378686Y167519D01*
X351712Y155160D01*
G37*
G36*
X352190Y155160D02*
X351712Y155160D01*
X378686Y167519D01*
X352190Y155160D01*
G37*
G36*
X353228Y154122D02*
X352190Y155160D01*
X378686Y167519D01*
X353228Y154122D01*
G37*
G36*
X66730Y153011D02*
X70722Y156299D01*
X74808Y156299D01*
X66730Y153011D01*
G37*
G36*
X66730Y153011D02*
X56746Y157283D01*
X70722Y156299D01*
X66730Y153011D01*
G37*
G36*
X66730Y153011D02*
X15014Y167519D01*
X56746Y157283D01*
X66730Y153011D01*
G37*
G36*
X71521Y153011D02*
X66730Y153011D01*
X74808Y156299D01*
X71521Y153011D01*
G37*
G36*
X87795Y151535D02*
X87795Y168647D01*
X90354Y158321D01*
X87795Y151535D01*
G37*
G36*
X87795Y151535D02*
X90354Y158321D01*
X91392Y157283D01*
X87795Y151535D01*
G37*
G36*
X87795Y151535D02*
X91392Y157283D01*
X100733Y157283D01*
X87795Y151535D01*
G37*
G36*
X87795Y151535D02*
X100733Y157283D01*
X121358Y165905D01*
X87795Y151535D01*
G37*
G36*
X353228Y147655D02*
X353228Y154122D01*
X378686Y167519D01*
X353228Y147655D01*
G37*
G36*
X352190Y146617D02*
X353228Y147655D01*
X378686Y167519D01*
X352190Y146617D01*
G37*
G36*
X55821Y146266D02*
X15014Y167519D01*
X66730Y153011D01*
X55821Y146266D01*
G37*
G36*
X59986Y146266D02*
X55821Y146266D01*
X66730Y153011D01*
X59986Y146266D01*
G37*
G36*
X54783Y145229D02*
X15014Y167519D01*
X55821Y146266D01*
X54783Y145229D01*
G37*
G36*
X97391Y141938D02*
X87795Y151535D01*
X121358Y165905D01*
X97391Y141938D01*
G37*
G36*
X54783Y138761D02*
X15014Y167519D01*
X54783Y145229D01*
X54783Y138761D01*
G37*
G36*
X55749Y137795D02*
X15014Y167519D01*
X54783Y138761D01*
X55749Y137795D01*
G37*
G36*
X54783Y136829D02*
X15014Y167519D01*
X55749Y137795D01*
X54783Y136829D01*
G37*
G36*
X54783Y130361D02*
X15014Y167519D01*
X54783Y136829D01*
X54783Y130361D01*
G37*
G36*
X55821Y129323D02*
X15014Y167519D01*
X54783Y130361D01*
X55821Y129323D01*
G37*
G36*
X88522Y100787D02*
X55821Y129323D01*
X59986Y129323D01*
X88522Y100787D01*
G37*
G36*
X75506Y95085D02*
X88522Y100787D01*
X134021Y100787D01*
X75506Y95085D01*
G37*
G36*
X75506Y95085D02*
X55821Y129323D01*
X88522Y100787D01*
X75506Y95085D01*
G37*
G36*
X75506Y95085D02*
X15014Y167519D01*
X55821Y129323D01*
X75506Y95085D01*
G37*
G36*
X75506Y95085D02*
X10039Y172494D01*
X15014Y167519D01*
X75506Y95085D01*
G37*
G36*
X81974Y95085D02*
X75506Y95085D01*
X134021Y100787D01*
X81974Y95085D01*
G37*
G36*
X74468Y94048D02*
X10039Y172494D01*
X75506Y95085D01*
X74468Y94048D01*
G37*
G36*
X83011Y94048D02*
X81974Y95085D01*
X134021Y100787D01*
X83011Y94048D01*
G37*
G36*
X144021Y90787D02*
X83011Y94048D01*
X134021Y100787D01*
X144021Y90787D01*
G37*
G36*
X137789Y88720D02*
X144021Y90787D01*
X194021Y90787D01*
X137789Y88720D01*
G37*
G36*
X137789Y88720D02*
X83011Y94048D01*
X144021Y90787D01*
X137789Y88720D01*
G37*
G36*
X145162Y88720D02*
X137789Y88720D01*
X194021Y90787D01*
X145162Y88720D01*
G37*
G36*
X159837Y88720D02*
X145162Y88720D01*
X194021Y90787D01*
X159837Y88720D01*
G37*
G36*
X167210Y88720D02*
X159837Y88720D01*
X194021Y90787D01*
X167210Y88720D01*
G37*
G36*
X105628Y88632D02*
X83011Y94048D01*
X137789Y88720D01*
X105628Y88632D01*
G37*
G36*
X114970Y88632D02*
X105628Y88632D01*
X137789Y88720D01*
X114970Y88632D01*
G37*
G36*
X136751Y87682D02*
X114970Y88632D01*
X137789Y88720D01*
X136751Y87682D01*
G37*
G36*
X146200Y87682D02*
X145162Y88720D01*
X159837Y88720D01*
X146200Y87682D01*
G37*
G36*
X158799Y87682D02*
X146200Y87682D01*
X159837Y88720D01*
X158799Y87682D01*
G37*
G36*
X168248Y87682D02*
X167210Y88720D01*
X194021Y90787D01*
X168248Y87682D01*
G37*
G36*
X104590Y87594D02*
X83011Y94048D01*
X105628Y88632D01*
X104590Y87594D01*
G37*
G36*
X116008Y87594D02*
X114970Y88632D01*
X136751Y87682D01*
X116008Y87594D01*
G37*
G36*
X74468Y87580D02*
X10039Y172494D01*
X74468Y94048D01*
X74468Y87580D01*
G37*
G36*
X83011Y87580D02*
X83011Y94048D01*
X104590Y87594D01*
X83011Y87580D01*
G37*
G36*
X82045Y86614D02*
X83011Y87580D01*
X104590Y87594D01*
X82045Y86614D01*
G37*
G36*
X74468Y85648D02*
X74468Y87580D01*
X75434Y86614D01*
X74468Y85648D01*
G37*
G36*
X74468Y85648D02*
X10039Y172494D01*
X74468Y87580D01*
X74468Y85648D01*
G37*
G36*
X83011Y85648D02*
X82045Y86614D01*
X104590Y87594D01*
X83011Y85648D01*
G37*
G36*
X200787Y84021D02*
X168248Y87682D01*
X194021Y90787D01*
X200787Y84021D01*
G37*
G36*
X168248Y83011D02*
X168248Y87682D01*
X200787Y84021D01*
X168248Y83011D01*
G37*
G36*
X195978Y83011D02*
X168248Y83011D01*
X200787Y84021D01*
X195978Y83011D01*
G37*
G36*
X199212Y79777D02*
X195978Y83011D01*
X200787Y84021D01*
X199212Y79777D01*
G37*
G36*
X199422Y79527D02*
X199212Y79777D01*
X200787Y84021D01*
X199422Y79527D01*
G37*
G36*
X200577Y79527D02*
X199422Y79527D01*
X200787Y84021D01*
X200577Y79527D01*
G37*
G36*
X199212Y79450D02*
X199212Y79777D01*
X199422Y79527D01*
X199212Y79450D01*
G37*
G36*
X200787Y79450D02*
X200577Y79527D01*
X200787Y84021D01*
X200787Y79450D01*
G37*
G36*
X74468Y79180D02*
X10039Y172494D01*
X74468Y85648D01*
X74468Y79180D01*
G37*
G36*
X83011Y79180D02*
X83011Y85648D01*
X104590Y87594D01*
X83011Y79180D01*
G37*
G36*
X91032Y78888D02*
X83011Y79180D01*
X104590Y87594D01*
X91032Y78888D01*
G37*
G36*
X104590Y78888D02*
X91032Y78888D01*
X104590Y87594D01*
X104590Y78888D01*
G37*
G36*
X178561Y78270D02*
X168248Y78287D01*
X178578Y78287D01*
X178561Y78270D01*
G37*
G36*
X81974Y78142D02*
X83011Y79180D01*
X91032Y78888D01*
X81974Y78142D01*
G37*
G36*
X178149Y77152D02*
X168248Y78287D01*
X178561Y78270D01*
X178149Y77152D01*
G37*
G36*
X351712Y75965D02*
X351712Y146617D01*
X352190Y146617D01*
X351712Y75965D01*
G37*
G36*
X351712Y75965D02*
X352190Y146617D01*
X378686Y167519D01*
X351712Y75965D01*
G37*
G36*
X351712Y75965D02*
X378686Y167519D01*
X383661Y172494D01*
X351712Y75965D01*
G37*
G36*
X351712Y75965D02*
X383661Y172494D01*
X392519Y195669D01*
X351712Y75965D01*
G37*
G36*
X116008Y74157D02*
X116008Y87594D01*
X136751Y87682D01*
X116008Y74157D01*
G37*
G36*
X136751Y73616D02*
X116008Y74157D01*
X136751Y87682D01*
X136751Y73616D01*
G37*
G36*
X146200Y73616D02*
X146200Y87682D01*
X158799Y87682D01*
X146200Y73616D01*
G37*
G36*
X158799Y73616D02*
X146200Y73616D01*
X158799Y87682D01*
X158799Y73616D01*
G37*
G36*
X168248Y73616D02*
X168248Y78287D01*
X178149Y77152D01*
X168248Y73616D01*
G37*
G36*
X137789Y72578D02*
X116008Y74157D01*
X136751Y73616D01*
X137789Y72578D01*
G37*
G36*
X145162Y72578D02*
X146200Y73616D01*
X158799Y73616D01*
X145162Y72578D01*
G37*
G36*
X159837Y72578D02*
X145162Y72578D01*
X158799Y73616D01*
X159837Y72578D01*
G37*
G36*
X167210Y72578D02*
X168248Y73616D01*
X178149Y77152D01*
X167210Y72578D01*
G37*
G36*
X178149Y70091D02*
X167210Y72578D01*
X178149Y77152D01*
X178149Y70091D01*
G37*
G36*
X178149Y70091D02*
X137789Y72578D01*
X167210Y72578D01*
X178149Y70091D01*
G37*
G36*
X170878Y69881D02*
X137789Y72578D01*
X178149Y70091D01*
X170878Y69881D01*
G37*
G36*
X170878Y69881D02*
X116008Y74157D01*
X137789Y72578D01*
X170878Y69881D01*
G37*
G36*
X177939Y69881D02*
X170878Y69881D01*
X178149Y70091D01*
X177939Y69881D01*
G37*
G36*
X178271Y69759D02*
X177939Y69881D01*
X178149Y70091D01*
X178271Y69759D01*
G37*
G36*
X169760Y69469D02*
X116008Y74157D01*
X170878Y69881D01*
X169760Y69469D01*
G37*
G36*
X81102Y68958D02*
X81102Y78142D01*
X81974Y78142D01*
X81102Y68958D01*
G37*
G36*
X81102Y68958D02*
X81974Y78142D01*
X91032Y78888D01*
X81102Y68958D01*
G37*
G36*
X168915Y68625D02*
X116008Y74157D01*
X169760Y69469D01*
X168915Y68625D01*
G37*
G36*
X75506Y67526D02*
X75506Y78142D01*
X76377Y78142D01*
X75506Y67526D01*
G37*
G36*
X75506Y67526D02*
X74468Y79180D01*
X75506Y78142D01*
X75506Y67526D01*
G37*
G36*
X75506Y67526D02*
X10039Y172494D01*
X74468Y79180D01*
X75506Y67526D01*
G37*
G36*
X76377Y67526D02*
X75506Y67526D01*
X76377Y78142D01*
X76377Y67526D01*
G37*
G36*
X168503Y67506D02*
X116008Y74157D01*
X168915Y68625D01*
X168503Y67506D01*
G37*
G36*
X135585Y67283D02*
X116008Y74157D01*
X168503Y67506D01*
X135585Y67283D01*
G37*
G36*
X139414Y67283D02*
X135585Y67283D01*
X168503Y67506D01*
X139414Y67283D01*
G37*
G36*
X74468Y66488D02*
X10039Y172494D01*
X75506Y67526D01*
X74468Y66488D01*
G37*
G36*
X168503Y66351D02*
X139414Y67283D01*
X168503Y67506D01*
X168503Y66351D01*
G37*
G36*
X140556Y66141D02*
X139414Y67283D01*
X168503Y66351D01*
X140556Y66141D01*
G37*
G36*
X168581Y66141D02*
X140556Y66141D01*
X168503Y66351D01*
X168581Y66141D01*
G37*
G36*
X133366Y65064D02*
X116008Y74157D01*
X135585Y67283D01*
X133366Y65064D01*
G37*
G36*
X279862Y64121D02*
X279862Y64173D01*
X339921Y64173D01*
X279862Y64121D01*
G37*
G36*
X278824Y63083D02*
X279862Y64121D01*
X339921Y64173D01*
X278824Y63083D01*
G37*
G36*
X133366Y61234D02*
X116008Y74157D01*
X133366Y65064D01*
X133366Y61234D01*
G37*
G36*
X141633Y61234D02*
X141633Y61417D01*
X168581Y61417D01*
X141633Y61234D01*
G37*
G36*
X168503Y61207D02*
X141633Y61234D01*
X168581Y61417D01*
X168503Y61207D01*
G37*
G36*
X168503Y60052D02*
X141633Y61234D01*
X168503Y61207D01*
X168503Y60052D01*
G37*
G36*
X74468Y60021D02*
X10039Y172494D01*
X74468Y66488D01*
X74468Y60021D01*
G37*
G36*
X168871Y59055D02*
X141633Y61234D01*
X168503Y60052D01*
X168871Y59055D01*
G37*
G36*
X135585Y59015D02*
X116008Y74157D01*
X133366Y61234D01*
X135585Y59015D01*
G37*
G36*
X139414Y59015D02*
X141633Y61234D01*
X168871Y59055D01*
X139414Y59015D01*
G37*
G36*
X74468Y58088D02*
X74468Y60021D01*
X75434Y59055D01*
X74468Y58088D01*
G37*
G36*
X74468Y58088D02*
X10039Y172494D01*
X74468Y60021D01*
X74468Y58088D01*
G37*
G36*
X168503Y58058D02*
X139414Y59015D01*
X168871Y59055D01*
X168503Y58058D01*
G37*
G36*
X168503Y58058D02*
X135585Y59015D01*
X139414Y59015D01*
X168503Y58058D01*
G37*
G36*
X168503Y56902D02*
X135585Y59015D01*
X168503Y58058D01*
X168503Y56902D01*
G37*
G36*
X133473Y56692D02*
X116008Y74157D01*
X135585Y59015D01*
X133473Y56692D01*
G37*
G36*
X133473Y56692D02*
X135585Y59015D01*
X168503Y56902D01*
X133473Y56692D01*
G37*
G36*
X168581Y56692D02*
X133473Y56692D01*
X168503Y56902D01*
X168581Y56692D01*
G37*
G36*
X74468Y51621D02*
X10039Y172494D01*
X74468Y58088D01*
X74468Y51621D01*
G37*
G36*
X150889Y47530D02*
X119988Y48818D01*
X152177Y48818D01*
X150889Y47530D01*
G37*
G36*
X278346Y45098D02*
X278346Y63083D01*
X278824Y63083D01*
X278346Y45098D01*
G37*
G36*
X278346Y45098D02*
X278824Y63083D01*
X339921Y64173D01*
X278346Y45098D01*
G37*
G36*
X116008Y44838D02*
X119988Y48818D01*
X150889Y47530D01*
X116008Y44838D01*
G37*
G36*
X150889Y43700D02*
X116008Y44838D01*
X150889Y47530D01*
X150889Y43700D01*
G37*
G36*
X153108Y41482D02*
X116008Y44838D01*
X150889Y43700D01*
X153108Y41482D01*
G37*
G36*
X79862Y39967D02*
X79862Y50392D01*
X90146Y40108D01*
X79862Y39967D01*
G37*
G36*
X79862Y39967D02*
X90146Y40108D01*
X104590Y40108D01*
X79862Y39967D01*
G37*
G36*
X81974Y39967D02*
X79862Y39967D01*
X104590Y40108D01*
X81974Y39967D01*
G37*
G36*
X75137Y39599D02*
X74468Y51621D01*
X75137Y50951D01*
X75137Y39599D01*
G37*
G36*
X75137Y39599D02*
X10039Y172494D01*
X74468Y51621D01*
X75137Y39599D01*
G37*
G36*
X74468Y38929D02*
X10039Y172494D01*
X75137Y39599D01*
X74468Y38929D01*
G37*
G36*
X83011Y38929D02*
X81974Y39967D01*
X104590Y40108D01*
X83011Y38929D01*
G37*
G36*
X148085Y37283D02*
X153108Y41482D01*
X154991Y41482D01*
X148085Y37283D01*
G37*
G36*
X148085Y37283D02*
X116008Y44838D01*
X153108Y41482D01*
X148085Y37283D01*
G37*
G36*
X150793Y37283D02*
X148085Y37283D01*
X154991Y41482D01*
X150793Y37283D01*
G37*
G36*
X158085Y37283D02*
X159561Y39370D01*
X162879Y39370D01*
X158085Y37283D01*
G37*
G36*
X160793Y37283D02*
X158085Y37283D01*
X162879Y39370D01*
X160793Y37283D01*
G37*
G36*
X168503Y36010D02*
X166411Y36220D01*
X168581Y36220D01*
X168503Y36010D01*
G37*
G36*
X145866Y35064D02*
X116008Y44838D01*
X148085Y37283D01*
X145866Y35064D01*
G37*
G36*
X155866Y35064D02*
X159561Y39370D01*
X158085Y37283D01*
X155866Y35064D01*
G37*
G36*
X168503Y34855D02*
X166411Y36220D01*
X168503Y36010D01*
X168503Y34855D01*
G37*
G36*
X154133Y33942D02*
X159561Y39370D01*
X155866Y35064D01*
X154133Y33942D01*
G37*
G36*
X164133Y33942D02*
X166411Y36220D01*
X168503Y34855D01*
X164133Y33942D01*
G37*
G36*
X168915Y33737D02*
X164133Y33942D01*
X168503Y34855D01*
X168915Y33737D01*
G37*
G36*
X169760Y32892D02*
X164133Y33942D01*
X168915Y33737D01*
X169760Y32892D01*
G37*
G36*
X265925Y32677D02*
X278346Y45098D01*
X339921Y64173D01*
X265925Y32677D01*
G37*
G36*
X170878Y32480D02*
X164133Y33942D01*
X169760Y32892D01*
X170878Y32480D01*
G37*
G36*
X74468Y32462D02*
X10039Y172494D01*
X74468Y38929D01*
X74468Y32462D01*
G37*
G36*
X83011Y32462D02*
X83011Y38929D01*
X104590Y40108D01*
X83011Y32462D01*
G37*
G36*
X178149Y32270D02*
X177939Y32480D01*
X178271Y32602D01*
X178149Y32270D01*
G37*
G36*
X178149Y32270D02*
X170878Y32480D01*
X177939Y32480D01*
X178149Y32270D01*
G37*
G36*
X82045Y31496D02*
X83011Y32462D01*
X104590Y40108D01*
X82045Y31496D01*
G37*
G36*
X104590Y31402D02*
X82045Y31496D01*
X104590Y40108D01*
X104590Y31402D01*
G37*
G36*
X116008Y31402D02*
X116008Y44838D01*
X145866Y35064D01*
X116008Y31402D01*
G37*
G36*
X145866Y31234D02*
X116008Y31402D01*
X145866Y35064D01*
X145866Y31234D01*
G37*
G36*
X154133Y31234D02*
X154133Y33942D01*
X155866Y35064D01*
X154133Y31234D01*
G37*
G36*
X155866Y31234D02*
X154133Y31234D01*
X155866Y35064D01*
X155866Y31234D01*
G37*
G36*
X164133Y31234D02*
X164133Y33942D01*
X170878Y32480D01*
X164133Y31234D01*
G37*
G36*
X164133Y31234D02*
X170878Y32480D01*
X178149Y32270D01*
X164133Y31234D01*
G37*
G36*
X74468Y30529D02*
X74468Y32462D01*
X75434Y31496D01*
X74468Y30529D01*
G37*
G36*
X74468Y30529D02*
X10039Y172494D01*
X74468Y32462D01*
X74468Y30529D01*
G37*
G36*
X83011Y30529D02*
X82045Y31496D01*
X104590Y31402D01*
X83011Y30529D01*
G37*
G36*
X105628Y30364D02*
X83011Y30529D01*
X104590Y31402D01*
X105628Y30364D01*
G37*
G36*
X114970Y30364D02*
X116008Y31402D01*
X145866Y31234D01*
X114970Y30364D01*
G37*
G36*
X15014Y29330D02*
X10039Y172494D01*
X74468Y30529D01*
X15014Y29330D01*
G37*
G36*
X15014Y29330D02*
X1181Y195669D01*
X10039Y172494D01*
X15014Y29330D01*
G37*
G36*
X24355Y29330D02*
X15014Y29330D01*
X74468Y30529D01*
X24355Y29330D01*
G37*
G36*
X369344Y29330D02*
X351712Y75965D01*
X392519Y195669D01*
X369344Y29330D01*
G37*
G36*
X369344Y29330D02*
X339921Y64173D01*
X351712Y75965D01*
X369344Y29330D01*
G37*
G36*
X369344Y29330D02*
X265925Y32677D01*
X339921Y64173D01*
X369344Y29330D01*
G37*
G36*
X369344Y29330D02*
X265368Y32677D01*
X265925Y32677D01*
X369344Y29330D01*
G37*
G36*
X378686Y29330D02*
X369344Y29330D01*
X392519Y195669D01*
X378686Y29330D01*
G37*
G36*
X148085Y29015D02*
X114970Y30364D01*
X145866Y31234D01*
X148085Y29015D01*
G37*
G36*
X148085Y29015D02*
X105628Y30364D01*
X114970Y30364D01*
X148085Y29015D01*
G37*
G36*
X148085Y29015D02*
X83011Y30529D01*
X105628Y30364D01*
X148085Y29015D01*
G37*
G36*
X151914Y29015D02*
X154133Y31234D01*
X155866Y31234D01*
X151914Y29015D01*
G37*
G36*
X158085Y29015D02*
X151914Y29015D01*
X155866Y31234D01*
X158085Y29015D01*
G37*
G36*
X161914Y29015D02*
X164133Y31234D01*
X178149Y32270D01*
X161914Y29015D01*
G37*
G36*
X178149Y25209D02*
X161914Y29015D01*
X178149Y32270D01*
X178149Y25209D01*
G37*
G36*
X178149Y25209D02*
X148085Y29015D01*
X161914Y29015D01*
X178149Y25209D01*
G37*
G36*
X178149Y25209D02*
X83011Y30529D01*
X148085Y29015D01*
X178149Y25209D01*
G37*
G36*
X10039Y24355D02*
X1181Y195669D01*
X15014Y29330D01*
X10039Y24355D01*
G37*
G36*
X29330Y24355D02*
X24355Y29330D01*
X74468Y30529D01*
X29330Y24355D01*
G37*
G36*
X364370Y24355D02*
X265368Y32677D01*
X369344Y29330D01*
X364370Y24355D01*
G37*
G36*
X383661Y24355D02*
X378686Y29330D01*
X392519Y195669D01*
X383661Y24355D01*
G37*
G36*
X178561Y24091D02*
X83011Y30529D01*
X178149Y25209D01*
X178561Y24091D01*
G37*
G36*
X74468Y24062D02*
X29330Y24355D01*
X74468Y30529D01*
X74468Y24062D01*
G37*
G36*
X83011Y24062D02*
X83011Y30529D01*
X178561Y24091D01*
X83011Y24062D01*
G37*
G36*
X179406Y23246D02*
X83011Y24062D01*
X178561Y24091D01*
X179406Y23246D01*
G37*
G36*
X75506Y23024D02*
X29330Y24355D01*
X74468Y24062D01*
X75506Y23024D01*
G37*
G36*
X81974Y23024D02*
X83011Y24062D01*
X179406Y23246D01*
X81974Y23024D01*
G37*
G36*
X180524Y22834D02*
X81974Y23024D01*
X179406Y23246D01*
X180524Y22834D01*
G37*
G36*
X180524Y22834D02*
X75506Y23024D01*
X81974Y23024D01*
X180524Y22834D01*
G37*
G36*
X181889Y15419D02*
X181680Y22834D01*
X181889Y22911D01*
X181889Y15419D01*
G37*
G36*
X181889Y15419D02*
X180524Y22834D01*
X181680Y22834D01*
X181889Y15419D01*
G37*
G36*
X181889Y15419D02*
X75506Y23024D01*
X180524Y22834D01*
X181889Y15419D01*
G37*
G36*
X181889Y15419D02*
X29330Y24355D01*
X75506Y23024D01*
X181889Y15419D01*
G37*
G36*
X10039Y15014D02*
X1181Y195669D01*
X10039Y24355D01*
X10039Y15014D01*
G37*
G36*
X29330Y15014D02*
X29330Y24355D01*
X181889Y15419D01*
X29330Y15014D01*
G37*
G36*
X364370Y15014D02*
X265368Y32677D01*
X364370Y24355D01*
X364370Y15014D01*
G37*
G36*
X383661Y15014D02*
X383661Y24355D01*
X392519Y195669D01*
X383661Y15014D01*
G37*
G36*
X184021Y13287D02*
X29330Y15014D01*
X181889Y15419D01*
X184021Y13287D01*
G37*
G36*
X245978Y13287D02*
X265368Y32677D01*
X364370Y15014D01*
X245978Y13287D01*
G37*
G36*
X24355Y10039D02*
X29330Y15014D01*
X184021Y13287D01*
X24355Y10039D01*
G37*
G36*
X24355Y10039D02*
X184021Y13287D01*
X245978Y13287D01*
X24355Y10039D01*
G37*
G36*
X24355Y10039D02*
X245978Y13287D01*
X364370Y15014D01*
X24355Y10039D01*
G37*
G36*
X369344Y10039D02*
X24355Y10039D01*
X364370Y15014D01*
X369344Y10039D01*
G37*
G36*
X1181Y1181D02*
X1181Y195669D01*
X10039Y15014D01*
X1181Y1181D01*
G37*
G36*
X1181Y1181D02*
X10039Y15014D01*
X15014Y10039D01*
X1181Y1181D01*
G37*
G36*
X1181Y1181D02*
X15014Y10039D01*
X378686Y10039D01*
X1181Y1181D01*
G37*
G36*
X392519Y1181D02*
X1181Y1181D01*
X378686Y10039D01*
X392519Y1181D01*
G37*
G36*
X392519Y1181D02*
X378686Y10039D01*
X383661Y15014D01*
X392519Y1181D01*
G37*
G36*
X392519Y1181D02*
X383661Y15014D01*
X392519Y195669D01*
X392519Y1181D01*
G37*
G36*
X295624Y172637D02*
X155688Y175393D01*
X341358Y175393D01*
X295624Y172637D01*
G37*
G36*
X303194Y172637D02*
X295624Y172637D01*
X341358Y175393D01*
X303194Y172637D01*
G37*
G36*
X326726Y172637D02*
X303194Y172637D01*
X341358Y175393D01*
X326726Y172637D01*
G37*
G36*
X334296Y172637D02*
X326726Y172637D01*
X341358Y175393D01*
X334296Y172637D01*
G37*
G36*
X294586Y171599D02*
X155688Y175393D01*
X295624Y172637D01*
X294586Y171599D01*
G37*
G36*
X304232Y171599D02*
X303194Y172637D01*
X326726Y172637D01*
X304232Y171599D01*
G37*
G36*
X325688Y171599D02*
X304232Y171599D01*
X326726Y172637D01*
X325688Y171599D01*
G37*
G36*
X335334Y171599D02*
X334296Y172637D01*
X341358Y175393D01*
X335334Y171599D01*
G37*
G36*
X304232Y170669D02*
X304232Y171599D01*
X325688Y171599D01*
X304232Y170669D01*
G37*
G36*
X325688Y170669D02*
X304232Y170669D01*
X325688Y171599D01*
X325688Y170669D01*
G37*
G36*
X346201Y170550D02*
X335334Y171599D01*
X341358Y175393D01*
X346201Y170550D01*
G37*
G36*
X294586Y165014D02*
X155688Y175393D01*
X294586Y171599D01*
X294586Y165014D01*
G37*
G36*
X304232Y165014D02*
X304232Y165944D01*
X325688Y165944D01*
X304232Y165014D01*
G37*
G36*
X325688Y165014D02*
X304232Y165014D01*
X325688Y165944D01*
X325688Y165014D01*
G37*
G36*
X335334Y165014D02*
X335334Y171599D01*
X346201Y170550D01*
X335334Y165014D01*
G37*
G36*
X295624Y163976D02*
X155688Y175393D01*
X294586Y165014D01*
X295624Y163976D01*
G37*
G36*
X303194Y163976D02*
X304232Y165014D01*
X325688Y165014D01*
X303194Y163976D01*
G37*
G36*
X326726Y163976D02*
X303194Y163976D01*
X325688Y165014D01*
X326726Y163976D01*
G37*
G36*
X334296Y163976D02*
X335334Y165014D01*
X346201Y170550D01*
X334296Y163976D01*
G37*
G36*
X143444Y163149D02*
X155688Y175393D01*
X295624Y163976D01*
X143444Y163149D01*
G37*
G36*
X143444Y163149D02*
X295624Y163976D01*
X297047Y163976D01*
X143444Y163149D01*
G37*
G36*
X332874Y161912D02*
X332874Y163976D01*
X334296Y163976D01*
X332874Y161912D01*
G37*
G36*
X332874Y161912D02*
X334296Y163976D01*
X346201Y170550D01*
X332874Y161912D01*
G37*
G36*
X163148Y160187D02*
X143444Y163149D01*
X297047Y163976D01*
X163148Y160187D01*
G37*
G36*
X165119Y160187D02*
X163148Y160187D01*
X297047Y163976D01*
X165119Y160187D01*
G37*
G36*
X174054Y160187D02*
X165119Y160187D01*
X297047Y163976D01*
X174054Y160187D01*
G37*
G36*
X176024Y160187D02*
X174054Y160187D01*
X297047Y163976D01*
X176024Y160187D01*
G37*
G36*
X184959Y160187D02*
X176024Y160187D01*
X297047Y163976D01*
X184959Y160187D01*
G37*
G36*
X186930Y160187D02*
X184959Y160187D01*
X297047Y163976D01*
X186930Y160187D01*
G37*
G36*
X195865Y160187D02*
X186930Y160187D01*
X297047Y163976D01*
X195865Y160187D01*
G37*
G36*
X197835Y160187D02*
X195865Y160187D01*
X297047Y163976D01*
X197835Y160187D01*
G37*
G36*
X206770Y160187D02*
X197835Y160187D01*
X297047Y163976D01*
X206770Y160187D01*
G37*
G36*
X208741Y160187D02*
X206770Y160187D01*
X297047Y163976D01*
X208741Y160187D01*
G37*
G36*
X217676Y160187D02*
X208741Y160187D01*
X297047Y163976D01*
X217676Y160187D01*
G37*
G36*
X219646Y160187D02*
X217676Y160187D01*
X297047Y163976D01*
X219646Y160187D01*
G37*
G36*
X228581Y160187D02*
X219646Y160187D01*
X297047Y163976D01*
X228581Y160187D01*
G37*
G36*
X230552Y160187D02*
X228581Y160187D01*
X297047Y163976D01*
X230552Y160187D01*
G37*
G36*
X328149Y159955D02*
X301771Y163976D01*
X328149Y163976D01*
X328149Y159955D01*
G37*
G36*
X129258Y159677D02*
X123641Y160393D01*
X138405Y160393D01*
X129258Y159677D01*
G37*
G36*
X133261Y159677D02*
X129258Y159677D01*
X138405Y160393D01*
X133261Y159677D01*
G37*
G36*
X260439Y159677D02*
X230552Y160187D01*
X297047Y163976D01*
X260439Y159677D01*
G37*
G36*
X264442Y159677D02*
X260439Y159677D01*
X297047Y163976D01*
X264442Y159677D01*
G37*
G36*
X161256Y159489D02*
X143444Y163149D01*
X163148Y160187D01*
X161256Y159489D01*
G37*
G36*
X167011Y159489D02*
X165119Y160187D01*
X174054Y160187D01*
X167011Y159489D01*
G37*
G36*
X172161Y159489D02*
X167011Y159489D01*
X174054Y160187D01*
X172161Y159489D01*
G37*
G36*
X177917Y159489D02*
X176024Y160187D01*
X184959Y160187D01*
X177917Y159489D01*
G37*
G36*
X183067Y159489D02*
X177917Y159489D01*
X184959Y160187D01*
X183067Y159489D01*
G37*
G36*
X188822Y159489D02*
X186930Y160187D01*
X195865Y160187D01*
X188822Y159489D01*
G37*
G36*
X193972Y159489D02*
X188822Y159489D01*
X195865Y160187D01*
X193972Y159489D01*
G37*
G36*
X199728Y159489D02*
X197835Y160187D01*
X206770Y160187D01*
X199728Y159489D01*
G37*
G36*
X204878Y159489D02*
X199728Y159489D01*
X206770Y160187D01*
X204878Y159489D01*
G37*
G36*
X210633Y159489D02*
X208741Y160187D01*
X217676Y160187D01*
X210633Y159489D01*
G37*
G36*
X215783Y159489D02*
X210633Y159489D01*
X217676Y160187D01*
X215783Y159489D01*
G37*
G36*
X221539Y159489D02*
X219646Y160187D01*
X228581Y160187D01*
X221539Y159489D01*
G37*
G36*
X226689Y159489D02*
X221539Y159489D01*
X228581Y160187D01*
X226689Y159489D01*
G37*
G36*
X232444Y159489D02*
X230552Y160187D01*
X260439Y159677D01*
X232444Y159489D01*
G37*
G36*
X125435Y158268D02*
X123641Y160393D01*
X129258Y159677D01*
X125435Y158268D01*
G37*
G36*
X137084Y158268D02*
X133261Y159677D01*
X138405Y160393D01*
X137084Y158268D01*
G37*
G36*
X256616Y158268D02*
X232444Y159489D01*
X260439Y159677D01*
X256616Y158268D01*
G37*
G36*
X268265Y158268D02*
X264442Y159677D01*
X297047Y163976D01*
X268265Y158268D01*
G37*
G36*
X159840Y158074D02*
X143444Y163149D01*
X161256Y159489D01*
X159840Y158074D01*
G37*
G36*
X168426Y158074D02*
X167011Y159489D01*
X172161Y159489D01*
X168426Y158074D01*
G37*
G36*
X170746Y158074D02*
X168426Y158074D01*
X172161Y159489D01*
X170746Y158074D01*
G37*
G36*
X179332Y158074D02*
X177917Y159489D01*
X183067Y159489D01*
X179332Y158074D01*
G37*
G36*
X181651Y158074D02*
X179332Y158074D01*
X183067Y159489D01*
X181651Y158074D01*
G37*
G36*
X190237Y158074D02*
X188822Y159489D01*
X193972Y159489D01*
X190237Y158074D01*
G37*
G36*
X192557Y158074D02*
X190237Y158074D01*
X193972Y159489D01*
X192557Y158074D01*
G37*
G36*
X201143Y158074D02*
X199728Y159489D01*
X204878Y159489D01*
X201143Y158074D01*
G37*
G36*
X203462Y158074D02*
X201143Y158074D01*
X204878Y159489D01*
X203462Y158074D01*
G37*
G36*
X212048Y158074D02*
X210633Y159489D01*
X215783Y159489D01*
X212048Y158074D01*
G37*
G36*
X214368Y158074D02*
X212048Y158074D01*
X215783Y159489D01*
X214368Y158074D01*
G37*
G36*
X222954Y158074D02*
X221539Y159489D01*
X226689Y159489D01*
X222954Y158074D01*
G37*
G36*
X225273Y158074D02*
X222954Y158074D01*
X226689Y159489D01*
X225273Y158074D01*
G37*
G36*
X233859Y158074D02*
X232444Y159489D01*
X256616Y158268D01*
X233859Y158074D01*
G37*
G36*
X301771Y157283D02*
X301771Y163976D01*
X328149Y159955D01*
X301771Y157283D01*
G37*
G36*
X301914Y157283D02*
X301771Y157283D01*
X328149Y159955D01*
X301914Y157283D01*
G37*
G36*
X297047Y156245D02*
X268265Y158268D01*
X297047Y163976D01*
X297047Y156245D01*
G37*
G36*
X159143Y156182D02*
X143444Y163149D01*
X159840Y158074D01*
X159143Y156182D01*
G37*
G36*
X169124Y156182D02*
X168426Y158074D01*
X170746Y158074D01*
X169124Y156182D01*
G37*
G36*
X170049Y156182D02*
X169124Y156182D01*
X170746Y158074D01*
X170049Y156182D01*
G37*
G36*
X180029Y156182D02*
X179332Y158074D01*
X181651Y158074D01*
X180029Y156182D01*
G37*
G36*
X180954Y156182D02*
X180029Y156182D01*
X181651Y158074D01*
X180954Y156182D01*
G37*
G36*
X190935Y156182D02*
X190237Y158074D01*
X192557Y158074D01*
X190935Y156182D01*
G37*
G36*
X191860Y156182D02*
X190935Y156182D01*
X192557Y158074D01*
X191860Y156182D01*
G37*
G36*
X201840Y156182D02*
X201143Y158074D01*
X203462Y158074D01*
X201840Y156182D01*
G37*
G36*
X202765Y156182D02*
X201840Y156182D01*
X203462Y158074D01*
X202765Y156182D01*
G37*
G36*
X212746Y156182D02*
X212048Y158074D01*
X214368Y158074D01*
X212746Y156182D01*
G37*
G36*
X213671Y156182D02*
X212746Y156182D01*
X214368Y158074D01*
X213671Y156182D01*
G37*
G36*
X223651Y156182D02*
X222954Y158074D01*
X225273Y158074D01*
X223651Y156182D01*
G37*
G36*
X224576Y156182D02*
X223651Y156182D01*
X225273Y158074D01*
X224576Y156182D01*
G37*
G36*
X234557Y156182D02*
X233859Y158074D01*
X256616Y158268D01*
X234557Y156182D01*
G37*
G36*
X122597Y155430D02*
X123641Y160393D01*
X125435Y158268D01*
X122597Y155430D01*
G37*
G36*
X139922Y155430D02*
X137084Y158268D01*
X138405Y160393D01*
X139922Y155430D01*
G37*
G36*
X253778Y155430D02*
X234557Y156182D01*
X256616Y158268D01*
X253778Y155430D01*
G37*
G36*
X271103Y155430D02*
X268265Y158268D01*
X297047Y156245D01*
X271103Y155430D01*
G37*
G36*
X339626Y155160D02*
X332874Y161912D01*
X346201Y170550D01*
X339626Y155160D01*
G37*
G36*
X343790Y155160D02*
X339626Y155160D01*
X346201Y170550D01*
X343790Y155160D01*
G37*
G36*
X345723Y155160D02*
X343790Y155160D01*
X346201Y170550D01*
X345723Y155160D01*
G37*
G36*
X346201Y155160D02*
X345723Y155160D01*
X346201Y170550D01*
X346201Y155160D01*
G37*
G36*
X295866Y155064D02*
X271103Y155430D01*
X297047Y156245D01*
X295866Y155064D01*
G37*
G36*
X304133Y155064D02*
X301914Y157283D01*
X328149Y159955D01*
X304133Y155064D01*
G37*
G36*
X159143Y154211D02*
X143444Y163149D01*
X159143Y156182D01*
X159143Y154211D01*
G37*
G36*
X169124Y154211D02*
X169124Y156182D01*
X170049Y156182D01*
X169124Y154211D01*
G37*
G36*
X170049Y154211D02*
X169124Y154211D01*
X170049Y156182D01*
X170049Y154211D01*
G37*
G36*
X180029Y154211D02*
X180029Y156182D01*
X180954Y156182D01*
X180029Y154211D01*
G37*
G36*
X180954Y154211D02*
X180029Y154211D01*
X180954Y156182D01*
X180954Y154211D01*
G37*
G36*
X190935Y154211D02*
X190935Y156182D01*
X191860Y156182D01*
X190935Y154211D01*
G37*
G36*
X191860Y154211D02*
X190935Y154211D01*
X191860Y156182D01*
X191860Y154211D01*
G37*
G36*
X201840Y154211D02*
X201840Y156182D01*
X202765Y156182D01*
X201840Y154211D01*
G37*
G36*
X202765Y154211D02*
X201840Y154211D01*
X202765Y156182D01*
X202765Y154211D01*
G37*
G36*
X212746Y154211D02*
X212746Y156182D01*
X213671Y156182D01*
X212746Y154211D01*
G37*
G36*
X213671Y154211D02*
X212746Y154211D01*
X213671Y156182D01*
X213671Y154211D01*
G37*
G36*
X223651Y154211D02*
X223651Y156182D01*
X224576Y156182D01*
X223651Y154211D01*
G37*
G36*
X224576Y154211D02*
X223651Y154211D01*
X224576Y156182D01*
X224576Y154211D01*
G37*
G36*
X234557Y154211D02*
X234557Y156182D01*
X253778Y155430D01*
X234557Y154211D01*
G37*
G36*
X344757Y154194D02*
X343790Y155160D01*
X345723Y155160D01*
X344757Y154194D01*
G37*
G36*
X159840Y152319D02*
X143444Y163149D01*
X159143Y154211D01*
X159840Y152319D01*
G37*
G36*
X168426Y152319D02*
X169124Y154211D01*
X170049Y154211D01*
X168426Y152319D01*
G37*
G36*
X170746Y152319D02*
X168426Y152319D01*
X170049Y154211D01*
X170746Y152319D01*
G37*
G36*
X179332Y152319D02*
X180029Y154211D01*
X180954Y154211D01*
X179332Y152319D01*
G37*
G36*
X181651Y152319D02*
X179332Y152319D01*
X180954Y154211D01*
X181651Y152319D01*
G37*
G36*
X190237Y152319D02*
X190935Y154211D01*
X191860Y154211D01*
X190237Y152319D01*
G37*
G36*
X192557Y152319D02*
X190237Y152319D01*
X191860Y154211D01*
X192557Y152319D01*
G37*
G36*
X201143Y152319D02*
X201840Y154211D01*
X202765Y154211D01*
X201143Y152319D01*
G37*
G36*
X203462Y152319D02*
X201143Y152319D01*
X202765Y154211D01*
X203462Y152319D01*
G37*
G36*
X212048Y152319D02*
X212746Y154211D01*
X213671Y154211D01*
X212048Y152319D01*
G37*
G36*
X214368Y152319D02*
X212048Y152319D01*
X213671Y154211D01*
X214368Y152319D01*
G37*
G36*
X222954Y152319D02*
X223651Y154211D01*
X224576Y154211D01*
X222954Y152319D01*
G37*
G36*
X225273Y152319D02*
X222954Y152319D01*
X224576Y154211D01*
X225273Y152319D01*
G37*
G36*
X233859Y152319D02*
X234557Y154211D01*
X253778Y155430D01*
X233859Y152319D01*
G37*
G36*
X336285Y151819D02*
X304133Y155064D01*
X328149Y159955D01*
X336285Y151819D01*
G37*
G36*
X121188Y151607D02*
X123641Y160393D01*
X122597Y155430D01*
X121188Y151607D01*
G37*
G36*
X141330Y151607D02*
X139922Y155430D01*
X138405Y160393D01*
X141330Y151607D01*
G37*
G36*
X252370Y151607D02*
X233859Y152319D01*
X253778Y155430D01*
X252370Y151607D01*
G37*
G36*
X272511Y151607D02*
X271103Y155430D01*
X295866Y155064D01*
X272511Y151607D01*
G37*
G36*
X295866Y151234D02*
X272511Y151607D01*
X295866Y155064D01*
X295866Y151234D01*
G37*
G36*
X304133Y151234D02*
X304133Y155064D01*
X336285Y151819D01*
X304133Y151234D01*
G37*
G36*
X161256Y150903D02*
X143444Y163149D01*
X159840Y152319D01*
X161256Y150903D01*
G37*
G36*
X167011Y150903D02*
X168426Y152319D01*
X170746Y152319D01*
X167011Y150903D01*
G37*
G36*
X172161Y150903D02*
X167011Y150903D01*
X170746Y152319D01*
X172161Y150903D01*
G37*
G36*
X177917Y150903D02*
X179332Y152319D01*
X181651Y152319D01*
X177917Y150903D01*
G37*
G36*
X183067Y150903D02*
X177917Y150903D01*
X181651Y152319D01*
X183067Y150903D01*
G37*
G36*
X188822Y150903D02*
X190237Y152319D01*
X192557Y152319D01*
X188822Y150903D01*
G37*
G36*
X193972Y150903D02*
X188822Y150903D01*
X192557Y152319D01*
X193972Y150903D01*
G37*
G36*
X199728Y150903D02*
X201143Y152319D01*
X203462Y152319D01*
X199728Y150903D01*
G37*
G36*
X204878Y150903D02*
X199728Y150903D01*
X203462Y152319D01*
X204878Y150903D01*
G37*
G36*
X210633Y150903D02*
X212048Y152319D01*
X214368Y152319D01*
X210633Y150903D01*
G37*
G36*
X215783Y150903D02*
X210633Y150903D01*
X214368Y152319D01*
X215783Y150903D01*
G37*
G36*
X221539Y150903D02*
X222954Y152319D01*
X225273Y152319D01*
X221539Y150903D01*
G37*
G36*
X226689Y150903D02*
X221539Y150903D01*
X225273Y152319D01*
X226689Y150903D01*
G37*
G36*
X232444Y150903D02*
X233859Y152319D01*
X252370Y151607D01*
X232444Y150903D01*
G37*
G36*
X172637Y150728D02*
X167011Y150903D01*
X172161Y150903D01*
X172637Y150728D01*
G37*
G36*
X205393Y150714D02*
X199728Y150903D01*
X204878Y150903D01*
X205393Y150714D01*
G37*
G36*
X210118Y150714D02*
X210633Y150903D01*
X215783Y150903D01*
X210118Y150714D01*
G37*
G36*
X177362Y150699D02*
X177917Y150903D01*
X183067Y150903D01*
X177362Y150699D01*
G37*
G36*
X165119Y150206D02*
X167011Y150903D01*
X172637Y150728D01*
X165119Y150206D01*
G37*
G36*
X184959Y150206D02*
X177362Y150699D01*
X183067Y150903D01*
X184959Y150206D01*
G37*
G36*
X186930Y150206D02*
X188822Y150903D01*
X193972Y150903D01*
X186930Y150206D01*
G37*
G36*
X195865Y150206D02*
X186930Y150206D01*
X193972Y150903D01*
X195865Y150206D01*
G37*
G36*
X197835Y150206D02*
X199728Y150903D01*
X205393Y150714D01*
X197835Y150206D01*
G37*
G36*
X217676Y150206D02*
X210118Y150714D01*
X215783Y150903D01*
X217676Y150206D01*
G37*
G36*
X219646Y150206D02*
X221539Y150903D01*
X226689Y150903D01*
X219646Y150206D01*
G37*
G36*
X228581Y150206D02*
X219646Y150206D01*
X226689Y150903D01*
X228581Y150206D01*
G37*
G36*
X230552Y150206D02*
X232444Y150903D01*
X252370Y151607D01*
X230552Y150206D01*
G37*
G36*
X298085Y149015D02*
X272511Y151607D01*
X295866Y151234D01*
X298085Y149015D01*
G37*
G36*
X301914Y149015D02*
X304133Y151234D01*
X336285Y151819D01*
X301914Y149015D01*
G37*
G36*
X157695Y149005D02*
X165119Y150206D01*
X172637Y150728D01*
X157695Y149005D01*
G37*
G36*
X157695Y149005D02*
X163148Y150206D01*
X165119Y150206D01*
X157695Y149005D01*
G37*
G36*
X157695Y149005D02*
X161256Y150903D01*
X163148Y150206D01*
X157695Y149005D01*
G37*
G36*
X157695Y149005D02*
X143444Y163149D01*
X161256Y150903D01*
X157695Y149005D01*
G37*
G36*
X159666Y149005D02*
X157695Y149005D01*
X172637Y150728D01*
X159666Y149005D01*
G37*
G36*
X168601Y149005D02*
X159666Y149005D01*
X172637Y150728D01*
X168601Y149005D01*
G37*
G36*
X170571Y149005D02*
X168601Y149005D01*
X172637Y150728D01*
X170571Y149005D01*
G37*
G36*
X179506Y149005D02*
X184959Y150206D01*
X197835Y150206D01*
X179506Y149005D01*
G37*
G36*
X179506Y149005D02*
X177362Y150699D01*
X184959Y150206D01*
X179506Y149005D01*
G37*
G36*
X181477Y149005D02*
X179506Y149005D01*
X197835Y150206D01*
X181477Y149005D01*
G37*
G36*
X181477Y149005D02*
X197835Y150206D01*
X205393Y150714D01*
X181477Y149005D01*
G37*
G36*
X190412Y149005D02*
X181477Y149005D01*
X205393Y150714D01*
X190412Y149005D01*
G37*
G36*
X192382Y149005D02*
X190412Y149005D01*
X205393Y150714D01*
X192382Y149005D01*
G37*
G36*
X201317Y149005D02*
X192382Y149005D01*
X205393Y150714D01*
X201317Y149005D01*
G37*
G36*
X203288Y149005D02*
X201317Y149005D01*
X205393Y150714D01*
X203288Y149005D01*
G37*
G36*
X212223Y149005D02*
X230552Y150206D01*
X252370Y151607D01*
X212223Y149005D01*
G37*
G36*
X212223Y149005D02*
X217676Y150206D01*
X230552Y150206D01*
X212223Y149005D01*
G37*
G36*
X212223Y149005D02*
X210118Y150714D01*
X217676Y150206D01*
X212223Y149005D01*
G37*
G36*
X214193Y149005D02*
X212223Y149005D01*
X252370Y151607D01*
X214193Y149005D01*
G37*
G36*
X223128Y149005D02*
X214193Y149005D01*
X252370Y151607D01*
X223128Y149005D01*
G37*
G36*
X225099Y149005D02*
X223128Y149005D01*
X252370Y151607D01*
X225099Y149005D01*
G37*
G36*
X234034Y149005D02*
X225099Y149005D01*
X252370Y151607D01*
X234034Y149005D01*
G37*
G36*
X236004Y149005D02*
X234034Y149005D01*
X252370Y151607D01*
X236004Y149005D01*
G37*
G36*
X157617Y148976D02*
X143444Y163149D01*
X157695Y149005D01*
X157617Y148976D01*
G37*
G36*
X81102Y148411D02*
X82283Y149592D01*
X82283Y149252D01*
X81102Y148411D01*
G37*
G36*
X161558Y148308D02*
X159666Y149005D01*
X168601Y149005D01*
X161558Y148308D01*
G37*
G36*
X166708Y148308D02*
X161558Y148308D01*
X168601Y149005D01*
X166708Y148308D01*
G37*
G36*
X172464Y148308D02*
X170571Y149005D01*
X172637Y150728D01*
X172464Y148308D01*
G37*
G36*
X177614Y148308D02*
X177362Y150699D01*
X179506Y149005D01*
X177614Y148308D01*
G37*
G36*
X183369Y148308D02*
X181477Y149005D01*
X190412Y149005D01*
X183369Y148308D01*
G37*
G36*
X188520Y148308D02*
X183369Y148308D01*
X190412Y149005D01*
X188520Y148308D01*
G37*
G36*
X194275Y148308D02*
X192382Y149005D01*
X201317Y149005D01*
X194275Y148308D01*
G37*
G36*
X199425Y148308D02*
X194275Y148308D01*
X201317Y149005D01*
X199425Y148308D01*
G37*
G36*
X205180Y148308D02*
X203288Y149005D01*
X205393Y150714D01*
X205180Y148308D01*
G37*
G36*
X210331Y148308D02*
X210118Y150714D01*
X212223Y149005D01*
X210331Y148308D01*
G37*
G36*
X216086Y148308D02*
X214193Y149005D01*
X223128Y149005D01*
X216086Y148308D01*
G37*
G36*
X221236Y148308D02*
X216086Y148308D01*
X223128Y149005D01*
X221236Y148308D01*
G37*
G36*
X226991Y148308D02*
X225099Y149005D01*
X234034Y149005D01*
X226991Y148308D01*
G37*
G36*
X232142Y148308D02*
X226991Y148308D01*
X234034Y149005D01*
X232142Y148308D01*
G37*
G36*
X237897Y148308D02*
X236004Y149005D01*
X252370Y151607D01*
X237897Y148308D01*
G37*
G36*
X172637Y148135D02*
X172464Y148308D01*
X172637Y150728D01*
X172637Y148135D01*
G37*
G36*
X205393Y148095D02*
X205180Y148308D01*
X205393Y150714D01*
X205393Y148095D01*
G37*
G36*
X210118Y148095D02*
X210118Y150714D01*
X210331Y148308D01*
X210118Y148095D01*
G37*
G36*
X177362Y148056D02*
X177362Y150699D01*
X177614Y148308D01*
X177362Y148056D01*
G37*
G36*
X336285Y147655D02*
X301914Y149015D01*
X336285Y151819D01*
X336285Y147655D01*
G37*
G36*
X336285Y147655D02*
X298085Y149015D01*
X301914Y149015D01*
X336285Y147655D01*
G37*
G36*
X252370Y147604D02*
X237897Y148308D01*
X252370Y151607D01*
X252370Y147604D01*
G37*
G36*
X272511Y147604D02*
X272511Y151607D01*
X298085Y149015D01*
X272511Y147604D01*
G37*
G36*
X272511Y147604D02*
X298085Y149015D01*
X336285Y147655D01*
X272511Y147604D01*
G37*
G36*
X162974Y146893D02*
X161558Y148308D01*
X166708Y148308D01*
X162974Y146893D01*
G37*
G36*
X165293Y146893D02*
X162974Y146893D01*
X166708Y148308D01*
X165293Y146893D01*
G37*
G36*
X184785Y146893D02*
X183369Y148308D01*
X188520Y148308D01*
X184785Y146893D01*
G37*
G36*
X187104Y146893D02*
X184785Y146893D01*
X188520Y148308D01*
X187104Y146893D01*
G37*
G36*
X195690Y146893D02*
X194275Y148308D01*
X199425Y148308D01*
X195690Y146893D01*
G37*
G36*
X198010Y146893D02*
X195690Y146893D01*
X199425Y148308D01*
X198010Y146893D01*
G37*
G36*
X217501Y146893D02*
X216086Y148308D01*
X221236Y148308D01*
X217501Y146893D01*
G37*
G36*
X219821Y146893D02*
X217501Y146893D01*
X221236Y148308D01*
X219821Y146893D01*
G37*
G36*
X228407Y146893D02*
X226991Y148308D01*
X232142Y148308D01*
X228407Y146893D01*
G37*
G36*
X230726Y146893D02*
X228407Y146893D01*
X232142Y148308D01*
X230726Y146893D01*
G37*
G36*
X239312Y146893D02*
X237897Y148308D01*
X252370Y147604D01*
X239312Y146893D01*
G37*
G36*
X337323Y146617D02*
X272511Y147604D01*
X336285Y147655D01*
X337323Y146617D01*
G37*
G36*
X345723Y146617D02*
X343790Y146617D01*
X344757Y147583D01*
X345723Y146617D01*
G37*
G36*
X81102Y146266D02*
X81102Y148411D01*
X82283Y149252D01*
X81102Y146266D01*
G37*
G36*
X81974Y146266D02*
X81102Y146266D01*
X82283Y149252D01*
X81974Y146266D01*
G37*
G36*
X83011Y145229D02*
X81974Y146266D01*
X82283Y149252D01*
X83011Y145229D01*
G37*
G36*
X153719Y145079D02*
X141330Y151607D01*
X138405Y160393D01*
X153719Y145079D01*
G37*
G36*
X153719Y145079D02*
X141330Y147604D01*
X141330Y151607D01*
X153719Y145079D01*
G37*
G36*
X153690Y145001D02*
X141330Y147604D01*
X153719Y145079D01*
X153690Y145001D01*
G37*
G36*
X163671Y145001D02*
X162974Y146893D01*
X165293Y146893D01*
X163671Y145001D01*
G37*
G36*
X164596Y145001D02*
X163671Y145001D01*
X165293Y146893D01*
X164596Y145001D01*
G37*
G36*
X185482Y145001D02*
X184785Y146893D01*
X187104Y146893D01*
X185482Y145001D01*
G37*
G36*
X186407Y145001D02*
X185482Y145001D01*
X187104Y146893D01*
X186407Y145001D01*
G37*
G36*
X196387Y145001D02*
X195690Y146893D01*
X198010Y146893D01*
X196387Y145001D01*
G37*
G36*
X197312Y145001D02*
X196387Y145001D01*
X198010Y146893D01*
X197312Y145001D01*
G37*
G36*
X218198Y145001D02*
X217501Y146893D01*
X219821Y146893D01*
X218198Y145001D01*
G37*
G36*
X219124Y145001D02*
X218198Y145001D01*
X219821Y146893D01*
X219124Y145001D01*
G37*
G36*
X229104Y145001D02*
X228407Y146893D01*
X230726Y146893D01*
X229104Y145001D01*
G37*
G36*
X230029Y145001D02*
X229104Y145001D01*
X230726Y146893D01*
X230029Y145001D01*
G37*
G36*
X240009Y145001D02*
X239312Y146893D01*
X252370Y147604D01*
X240009Y145001D01*
G37*
G36*
X139922Y143781D02*
X141330Y147604D01*
X153690Y145001D01*
X139922Y143781D01*
G37*
G36*
X253778Y143781D02*
X240009Y145001D01*
X252370Y147604D01*
X253778Y143781D01*
G37*
G36*
X271103Y143781D02*
X272511Y147604D01*
X337323Y146617D01*
X271103Y143781D01*
G37*
G36*
X271103Y143781D02*
X337323Y146617D01*
X346201Y146617D01*
X271103Y143781D01*
G37*
G36*
X153690Y143030D02*
X139922Y143781D01*
X153690Y145001D01*
X153690Y143030D01*
G37*
G36*
X163671Y143030D02*
X163671Y145001D01*
X164596Y145001D01*
X163671Y143030D01*
G37*
G36*
X164596Y143030D02*
X163671Y143030D01*
X164596Y145001D01*
X164596Y143030D01*
G37*
G36*
X185482Y143030D02*
X185482Y145001D01*
X186407Y145001D01*
X185482Y143030D01*
G37*
G36*
X186407Y143030D02*
X185482Y143030D01*
X186407Y145001D01*
X186407Y143030D01*
G37*
G36*
X196387Y143030D02*
X196387Y145001D01*
X197312Y145001D01*
X196387Y143030D01*
G37*
G36*
X197312Y143030D02*
X196387Y143030D01*
X197312Y145001D01*
X197312Y143030D01*
G37*
G36*
X218198Y143030D02*
X218198Y145001D01*
X219124Y145001D01*
X218198Y143030D01*
G37*
G36*
X219124Y143030D02*
X218198Y143030D01*
X219124Y145001D01*
X219124Y143030D01*
G37*
G36*
X229104Y143030D02*
X229104Y145001D01*
X230029Y145001D01*
X229104Y143030D01*
G37*
G36*
X230029Y143030D02*
X229104Y143030D01*
X230029Y145001D01*
X230029Y143030D01*
G37*
G36*
X240009Y143030D02*
X240009Y145001D01*
X253778Y143781D01*
X240009Y143030D01*
G37*
G36*
X104980Y141732D02*
X123641Y160393D01*
X121188Y151607D01*
X104980Y141732D01*
G37*
G36*
X104980Y141732D02*
X121188Y151607D01*
X121188Y147604D01*
X104980Y141732D01*
G37*
G36*
X104980Y141732D02*
X121188Y147604D01*
X122597Y143781D01*
X104980Y141732D01*
G37*
G36*
X105458Y141732D02*
X104980Y141732D01*
X122597Y143781D01*
X105458Y141732D01*
G37*
G36*
X154388Y141138D02*
X139922Y143781D01*
X153690Y143030D01*
X154388Y141138D01*
G37*
G36*
X162974Y141138D02*
X163671Y143030D01*
X164596Y143030D01*
X162974Y141138D01*
G37*
G36*
X165293Y141138D02*
X162974Y141138D01*
X164596Y143030D01*
X165293Y141138D01*
G37*
G36*
X184785Y141138D02*
X185482Y143030D01*
X186407Y143030D01*
X184785Y141138D01*
G37*
G36*
X187104Y141138D02*
X184785Y141138D01*
X186407Y143030D01*
X187104Y141138D01*
G37*
G36*
X195690Y141138D02*
X196387Y143030D01*
X197312Y143030D01*
X195690Y141138D01*
G37*
G36*
X198010Y141138D02*
X195690Y141138D01*
X197312Y143030D01*
X198010Y141138D01*
G37*
G36*
X217501Y141138D02*
X218198Y143030D01*
X219124Y143030D01*
X217501Y141138D01*
G37*
G36*
X219821Y141138D02*
X217501Y141138D01*
X219124Y143030D01*
X219821Y141138D01*
G37*
G36*
X228407Y141138D02*
X229104Y143030D01*
X230029Y143030D01*
X228407Y141138D01*
G37*
G36*
X230726Y141138D02*
X228407Y141138D01*
X230029Y143030D01*
X230726Y141138D01*
G37*
G36*
X239312Y141138D02*
X240009Y143030D01*
X253778Y143781D01*
X239312Y141138D01*
G37*
G36*
X125435Y140943D02*
X105458Y141732D01*
X122597Y143781D01*
X125435Y140943D01*
G37*
G36*
X137084Y140943D02*
X139922Y143781D01*
X154388Y141138D01*
X137084Y140943D01*
G37*
G36*
X256616Y140943D02*
X239312Y141138D01*
X253778Y143781D01*
X256616Y140943D01*
G37*
G36*
X268265Y140943D02*
X271103Y143781D01*
X346201Y146617D01*
X268265Y140943D01*
G37*
G36*
X90597Y140937D02*
X83011Y145229D01*
X82283Y149252D01*
X90597Y140937D01*
G37*
G36*
X90354Y140694D02*
X83011Y145229D01*
X90597Y140937D01*
X90354Y140694D01*
G37*
G36*
X106496Y140694D02*
X105458Y141732D01*
X125435Y140943D01*
X106496Y140694D01*
G37*
G36*
X155803Y139722D02*
X137084Y140943D01*
X154388Y141138D01*
X155803Y139722D01*
G37*
G36*
X161558Y139722D02*
X162974Y141138D01*
X165293Y141138D01*
X161558Y139722D01*
G37*
G36*
X166708Y139722D02*
X161558Y139722D01*
X165293Y141138D01*
X166708Y139722D01*
G37*
G36*
X183369Y139722D02*
X184785Y141138D01*
X187104Y141138D01*
X183369Y139722D01*
G37*
G36*
X188520Y139722D02*
X183369Y139722D01*
X187104Y141138D01*
X188520Y139722D01*
G37*
G36*
X194275Y139722D02*
X195690Y141138D01*
X198010Y141138D01*
X194275Y139722D01*
G37*
G36*
X199425Y139722D02*
X194275Y139722D01*
X198010Y141138D01*
X199425Y139722D01*
G37*
G36*
X216086Y139722D02*
X217501Y141138D01*
X219821Y141138D01*
X216086Y139722D01*
G37*
G36*
X221236Y139722D02*
X216086Y139722D01*
X219821Y141138D01*
X221236Y139722D01*
G37*
G36*
X226991Y139722D02*
X228407Y141138D01*
X230726Y141138D01*
X226991Y139722D01*
G37*
G36*
X232142Y139722D02*
X226991Y139722D01*
X230726Y141138D01*
X232142Y139722D01*
G37*
G36*
X237897Y139722D02*
X239312Y141138D01*
X256616Y140943D01*
X237897Y139722D01*
G37*
G36*
X129258Y139535D02*
X106496Y140694D01*
X125435Y140943D01*
X129258Y139535D01*
G37*
G36*
X133261Y139535D02*
X137084Y140943D01*
X155803Y139722D01*
X133261Y139535D01*
G37*
G36*
X260439Y139535D02*
X237897Y139722D01*
X256616Y140943D01*
X260439Y139535D01*
G37*
G36*
X264442Y139535D02*
X268265Y140943D01*
X346201Y146617D01*
X264442Y139535D01*
G37*
G36*
X182854Y139532D02*
X183369Y139722D01*
X188520Y139722D01*
X182854Y139532D01*
G37*
G36*
X172637Y139128D02*
X172464Y139722D01*
X172637Y139896D01*
X172637Y139128D01*
G37*
G36*
X157695Y139025D02*
X133261Y139535D01*
X155803Y139722D01*
X157695Y139025D01*
G37*
G36*
X157695Y139025D02*
X129258Y139535D01*
X133261Y139535D01*
X157695Y139025D01*
G37*
G36*
X159666Y139025D02*
X161558Y139722D01*
X166708Y139722D01*
X159666Y139025D01*
G37*
G36*
X168601Y139025D02*
X159666Y139025D01*
X166708Y139722D01*
X168601Y139025D01*
G37*
G36*
X170571Y139025D02*
X172464Y139722D01*
X172637Y139128D01*
X170571Y139025D01*
G37*
G36*
X190412Y139025D02*
X182854Y139532D01*
X188520Y139722D01*
X190412Y139025D01*
G37*
G36*
X192382Y139025D02*
X194275Y139722D01*
X199425Y139722D01*
X192382Y139025D01*
G37*
G36*
X201317Y139025D02*
X192382Y139025D01*
X199425Y139722D01*
X201317Y139025D01*
G37*
G36*
X214193Y139025D02*
X216086Y139722D01*
X221236Y139722D01*
X214193Y139025D01*
G37*
G36*
X223128Y139025D02*
X214193Y139025D01*
X221236Y139722D01*
X223128Y139025D01*
G37*
G36*
X225099Y139025D02*
X226991Y139722D01*
X232142Y139722D01*
X225099Y139025D01*
G37*
G36*
X234034Y139025D02*
X225099Y139025D01*
X232142Y139722D01*
X234034Y139025D01*
G37*
G36*
X236004Y139025D02*
X237897Y139722D01*
X260439Y139535D01*
X236004Y139025D01*
G37*
G36*
X236004Y139025D02*
X260439Y139535D01*
X264442Y139535D01*
X236004Y139025D01*
G37*
G36*
X83011Y138761D02*
X83011Y145229D01*
X90354Y140694D01*
X83011Y138761D01*
G37*
G36*
X82045Y137795D02*
X83011Y138761D01*
X90354Y140694D01*
X82045Y137795D01*
G37*
G36*
X177362Y137171D02*
X177362Y139975D01*
X177614Y139722D01*
X177362Y137171D01*
G37*
G36*
X177362Y137171D02*
X177614Y139722D01*
X178129Y139532D01*
X177362Y137171D01*
G37*
G36*
X83011Y136829D02*
X82045Y137795D01*
X90354Y140694D01*
X83011Y136829D01*
G37*
G36*
X120585Y134783D02*
X170571Y139025D01*
X172637Y139128D01*
X120585Y134783D01*
G37*
G36*
X120585Y134783D02*
X157695Y139025D01*
X170571Y139025D01*
X120585Y134783D01*
G37*
G36*
X120585Y134783D02*
X129258Y139535D01*
X157695Y139025D01*
X120585Y134783D01*
G37*
G36*
X120585Y134783D02*
X106496Y140694D01*
X129258Y139535D01*
X120585Y134783D01*
G37*
G36*
X124414Y134783D02*
X120585Y134783D01*
X172637Y139128D01*
X124414Y134783D01*
G37*
G36*
X90354Y133321D02*
X83011Y136829D01*
X90354Y140694D01*
X90354Y133321D01*
G37*
G36*
X106496Y133321D02*
X106496Y140694D01*
X120585Y134783D01*
X106496Y133321D01*
G37*
G36*
X126186Y133011D02*
X124414Y134783D01*
X172637Y139128D01*
X126186Y133011D01*
G37*
G36*
X166521Y133011D02*
X126186Y133011D01*
X172637Y139128D01*
X166521Y133011D01*
G37*
G36*
X118366Y132564D02*
X106496Y133321D01*
X120585Y134783D01*
X118366Y132564D01*
G37*
G36*
X91392Y132283D02*
X83011Y136829D01*
X90354Y133321D01*
X91392Y132283D01*
G37*
G36*
X105458Y132283D02*
X106496Y133321D01*
X118366Y132564D01*
X105458Y132283D01*
G37*
G36*
X210118Y132068D02*
X210118Y139935D01*
X210331Y139722D01*
X210118Y132068D01*
G37*
G36*
X210118Y132068D02*
X210331Y139722D01*
X212223Y139025D01*
X210118Y132068D01*
G37*
G36*
X210118Y132068D02*
X212223Y139025D01*
X236004Y139025D01*
X210118Y132068D01*
G37*
G36*
X210118Y132068D02*
X236004Y139025D01*
X264442Y139535D01*
X210118Y132068D01*
G37*
G36*
X210118Y132068D02*
X264442Y139535D01*
X346201Y146617D01*
X210118Y132068D01*
G37*
G36*
X83011Y130361D02*
X83011Y136829D01*
X91392Y132283D01*
X83011Y130361D01*
G37*
G36*
X83011Y130361D02*
X91392Y132283D01*
X105458Y132283D01*
X83011Y130361D01*
G37*
G36*
X83011Y130361D02*
X105458Y132283D01*
X118366Y132564D01*
X83011Y130361D01*
G37*
G36*
X205393Y130111D02*
X205180Y139722D01*
X205393Y139935D01*
X205393Y130111D01*
G37*
G36*
X205393Y130111D02*
X203288Y139025D01*
X205180Y139722D01*
X205393Y130111D01*
G37*
G36*
X205393Y130111D02*
X190412Y139025D01*
X203288Y139025D01*
X205393Y130111D01*
G37*
G36*
X205393Y130111D02*
X182854Y139532D01*
X190412Y139025D01*
X205393Y130111D01*
G37*
G36*
X81974Y129323D02*
X83011Y130361D01*
X118366Y132564D01*
X81974Y129323D01*
G37*
G36*
X118366Y128734D02*
X81974Y129323D01*
X118366Y132564D01*
X118366Y128734D01*
G37*
G36*
X118366Y128734D02*
X81102Y129323D01*
X81974Y129323D01*
X118366Y128734D01*
G37*
G36*
X178129Y126615D02*
X177362Y137171D01*
X178129Y139532D01*
X178129Y126615D01*
G37*
G36*
X178129Y126615D02*
X168478Y128287D01*
X177362Y137171D01*
X178129Y126615D01*
G37*
G36*
X178129Y126615D02*
X126186Y128287D01*
X168478Y128287D01*
X178129Y126615D01*
G37*
G36*
X173931Y126581D02*
X126186Y128287D01*
X178129Y126615D01*
X173931Y126581D01*
G37*
G36*
X178096Y126581D02*
X173931Y126581D01*
X178129Y126615D01*
X178096Y126581D01*
G37*
G36*
X215604Y126581D02*
X210118Y132068D01*
X346201Y146617D01*
X215604Y126581D01*
G37*
G36*
X219769Y126581D02*
X215604Y126581D01*
X346201Y146617D01*
X219769Y126581D01*
G37*
G36*
X120585Y126515D02*
X81102Y129323D01*
X118366Y128734D01*
X120585Y126515D01*
G37*
G36*
X124414Y126515D02*
X126186Y128287D01*
X173931Y126581D01*
X124414Y126515D01*
G37*
G36*
X172893Y125544D02*
X124414Y126515D01*
X173931Y126581D01*
X172893Y125544D01*
G37*
G36*
X172893Y125544D02*
X120585Y126515D01*
X124414Y126515D01*
X172893Y125544D01*
G37*
G36*
X220807Y125544D02*
X219769Y126581D01*
X346201Y146617D01*
X220807Y125544D01*
G37*
G36*
X182854Y124658D02*
X182854Y139532D01*
X205393Y130111D01*
X182854Y124658D01*
G37*
G36*
X181437Y123241D02*
X182854Y124658D01*
X205393Y130111D01*
X181437Y123241D01*
G37*
G36*
X212263Y123241D02*
X181437Y123241D01*
X205393Y130111D01*
X212263Y123241D01*
G37*
G36*
X130361Y122381D02*
X120585Y126515D01*
X172893Y125544D01*
X130361Y122381D01*
G37*
G36*
X130361Y122381D02*
X81102Y129323D01*
X120585Y126515D01*
X130361Y122381D01*
G37*
G36*
X136829Y122381D02*
X130361Y122381D01*
X172893Y125544D01*
X136829Y122381D01*
G37*
G36*
X138761Y122381D02*
X136829Y122381D01*
X172893Y125544D01*
X138761Y122381D01*
G37*
G36*
X145229Y122381D02*
X138761Y122381D01*
X172893Y125544D01*
X145229Y122381D01*
G37*
G36*
X248471Y122381D02*
X220807Y125544D01*
X346201Y146617D01*
X248471Y122381D01*
G37*
G36*
X254939Y122381D02*
X248471Y122381D01*
X346201Y146617D01*
X254939Y122381D01*
G37*
G36*
X256871Y122381D02*
X254939Y122381D01*
X346201Y146617D01*
X256871Y122381D01*
G37*
G36*
X263339Y122381D02*
X256871Y122381D01*
X346201Y146617D01*
X263339Y122381D01*
G37*
G36*
X137795Y121415D02*
X136829Y122381D01*
X138761Y122381D01*
X137795Y121415D01*
G37*
G36*
X255905Y121415D02*
X254939Y122381D01*
X256871Y122381D01*
X255905Y121415D01*
G37*
G36*
X129323Y121344D02*
X81102Y129323D01*
X130361Y122381D01*
X129323Y121344D01*
G37*
G36*
X146266Y121344D02*
X145229Y122381D01*
X172893Y125544D01*
X146266Y121344D01*
G37*
G36*
X247433Y121344D02*
X220807Y125544D01*
X248471Y122381D01*
X247433Y121344D01*
G37*
G36*
X264377Y121344D02*
X263339Y122381D01*
X346201Y146617D01*
X264377Y121344D01*
G37*
G36*
X81102Y120387D02*
X81102Y129323D01*
X129323Y121344D01*
X81102Y120387D01*
G37*
G36*
X91392Y119685D02*
X81102Y120387D01*
X129323Y121344D01*
X91392Y119685D01*
G37*
G36*
X105458Y119685D02*
X91392Y119685D01*
X129323Y121344D01*
X105458Y119685D01*
G37*
G36*
X172893Y119076D02*
X146266Y121344D01*
X172893Y125544D01*
X172893Y119076D01*
G37*
G36*
X181437Y119076D02*
X181437Y123241D01*
X212263Y123241D01*
X181437Y119076D01*
G37*
G36*
X212263Y119076D02*
X181437Y119076D01*
X212263Y123241D01*
X212263Y119076D01*
G37*
G36*
X220807Y119076D02*
X220807Y125544D01*
X247433Y121344D01*
X220807Y119076D01*
G37*
G36*
X90354Y118647D02*
X81102Y120387D01*
X91392Y119685D01*
X90354Y118647D01*
G37*
G36*
X106496Y118647D02*
X105458Y119685D01*
X129323Y121344D01*
X106496Y118647D01*
G37*
G36*
X173859Y118110D02*
X146266Y121344D01*
X172893Y119076D01*
X173859Y118110D01*
G37*
G36*
X180470Y118110D02*
X181437Y119076D01*
X212263Y119076D01*
X180470Y118110D01*
G37*
G36*
X213229Y118110D02*
X180470Y118110D01*
X212263Y119076D01*
X213229Y118110D01*
G37*
G36*
X219840Y118110D02*
X220807Y119076D01*
X247433Y121344D01*
X219840Y118110D01*
G37*
G36*
X146266Y117179D02*
X146266Y121344D01*
X173859Y118110D01*
X146266Y117179D01*
G37*
G36*
X247433Y117179D02*
X219840Y118110D01*
X247433Y121344D01*
X247433Y117179D01*
G37*
G36*
X172893Y117144D02*
X146266Y117179D01*
X173859Y118110D01*
X172893Y117144D01*
G37*
G36*
X181437Y117144D02*
X180470Y118110D01*
X213229Y118110D01*
X181437Y117144D01*
G37*
G36*
X212263Y117144D02*
X181437Y117144D01*
X213229Y118110D01*
X212263Y117144D01*
G37*
G36*
X220807Y117144D02*
X219840Y118110D01*
X247433Y117179D01*
X220807Y117144D01*
G37*
G36*
X147173Y116272D02*
X146266Y117179D01*
X172893Y117144D01*
X147173Y116272D01*
G37*
G36*
X172893Y116272D02*
X147173Y116272D01*
X172893Y117144D01*
X172893Y116272D01*
G37*
G36*
X181437Y116272D02*
X181437Y117144D01*
X212263Y117144D01*
X181437Y116272D01*
G37*
G36*
X190217Y116272D02*
X181437Y116272D01*
X212263Y117144D01*
X190217Y116272D01*
G37*
G36*
X220807Y116272D02*
X220807Y117144D01*
X247433Y117179D01*
X220807Y116272D01*
G37*
G36*
X246527Y116272D02*
X220807Y116272D01*
X247433Y117179D01*
X246527Y116272D01*
G37*
G36*
X129323Y114876D02*
X106496Y118647D01*
X129323Y121344D01*
X129323Y114876D01*
G37*
G36*
X264377Y114876D02*
X264377Y121344D01*
X346201Y146617D01*
X264377Y114876D01*
G37*
G36*
X130361Y113838D02*
X106496Y118647D01*
X129323Y114876D01*
X130361Y113838D01*
G37*
G36*
X138761Y113838D02*
X136829Y113838D01*
X137795Y114804D01*
X138761Y113838D01*
G37*
G36*
X256871Y113838D02*
X254939Y113838D01*
X255905Y114804D01*
X256871Y113838D01*
G37*
G36*
X263339Y113838D02*
X264377Y114876D01*
X346201Y146617D01*
X263339Y113838D01*
G37*
G36*
X145216Y111548D02*
X130361Y113838D01*
X142926Y113838D01*
X145216Y111548D01*
G37*
G36*
X248483Y111548D02*
X250774Y113838D01*
X263339Y113838D01*
X248483Y111548D01*
G37*
G36*
X90354Y111274D02*
X81102Y120387D01*
X90354Y118647D01*
X90354Y111274D01*
G37*
G36*
X106496Y111274D02*
X106496Y118647D01*
X130361Y113838D01*
X106496Y111274D01*
G37*
G36*
X106496Y111274D02*
X130361Y113838D01*
X145216Y111548D01*
X106496Y111274D01*
G37*
G36*
X106496Y111274D02*
X145216Y111548D01*
X172893Y111548D01*
X106496Y111274D01*
G37*
G36*
X172893Y110676D02*
X106496Y111274D01*
X172893Y111548D01*
X172893Y110676D01*
G37*
G36*
X181437Y110676D02*
X181437Y111548D01*
X188260Y111548D01*
X181437Y110676D01*
G37*
G36*
X212263Y110676D02*
X190217Y116272D01*
X212263Y117144D01*
X212263Y110676D01*
G37*
G36*
X220807Y110676D02*
X220807Y111548D01*
X248483Y111548D01*
X220807Y110676D01*
G37*
G36*
X212637Y110302D02*
X190217Y116272D01*
X212263Y110676D01*
X212637Y110302D01*
G37*
G36*
X91392Y110236D02*
X81102Y120387D01*
X90354Y111274D01*
X91392Y110236D01*
G37*
G36*
X105458Y110236D02*
X106496Y111274D01*
X172893Y110676D01*
X105458Y110236D01*
G37*
G36*
X173931Y109638D02*
X105458Y110236D01*
X172893Y110676D01*
X173931Y109638D01*
G37*
G36*
X173931Y109638D02*
X91392Y110236D01*
X105458Y110236D01*
X173931Y109638D01*
G37*
G36*
X180399Y109638D02*
X181437Y110676D01*
X188260Y111548D01*
X180399Y109638D01*
G37*
G36*
X219769Y109638D02*
X220807Y110676D01*
X248483Y111548D01*
X219769Y109638D01*
G37*
G36*
X93478Y108011D02*
X81102Y120387D01*
X91392Y110236D01*
X93478Y108011D01*
G37*
G36*
X93478Y108011D02*
X91392Y110236D01*
X173931Y109638D01*
X93478Y108011D01*
G37*
G36*
X93478Y108011D02*
X173931Y109638D01*
X180399Y109638D01*
X93478Y108011D01*
G37*
G36*
X138478Y108011D02*
X93478Y108011D01*
X180399Y109638D01*
X138478Y108011D01*
G37*
G36*
X206706Y99783D02*
X190217Y116272D01*
X212637Y110302D01*
X206706Y99783D01*
G37*
G36*
X209414Y99783D02*
X206706Y99783D01*
X212637Y110302D01*
X209414Y99783D01*
G37*
G36*
X148478Y98011D02*
X138478Y108011D01*
X180399Y109638D01*
X148478Y98011D01*
G37*
G36*
X148478Y98011D02*
X180399Y109638D01*
X188260Y111548D01*
X148478Y98011D01*
G37*
G36*
X198478Y98011D02*
X148478Y98011D01*
X188260Y111548D01*
X198478Y98011D01*
G37*
G36*
X211633Y97564D02*
X209414Y99783D01*
X212637Y110302D01*
X211633Y97564D01*
G37*
G36*
X203366Y96442D02*
X198478Y98011D01*
X188260Y111548D01*
X203366Y96442D01*
G37*
G36*
X203366Y93734D02*
X198478Y98011D01*
X203366Y96442D01*
X203366Y93734D01*
G37*
G36*
X211633Y93734D02*
X211633Y97564D01*
X212637Y110302D01*
X211633Y93734D01*
G37*
G36*
X212637Y91836D02*
X211633Y93734D01*
X212637Y110302D01*
X212637Y91836D01*
G37*
G36*
X217362Y91836D02*
X217362Y109638D01*
X219769Y109638D01*
X217362Y91836D01*
G37*
G36*
X217362Y91836D02*
X219769Y109638D01*
X248483Y111548D01*
X217362Y91836D01*
G37*
G36*
X217362Y91836D02*
X248483Y111548D01*
X263339Y113838D01*
X217362Y91836D01*
G37*
G36*
X217362Y91836D02*
X263339Y113838D01*
X346201Y146617D01*
X217362Y91836D01*
G37*
G36*
X205585Y91515D02*
X198478Y98011D01*
X203366Y93734D01*
X205585Y91515D01*
G37*
G36*
X209414Y91515D02*
X211633Y93734D01*
X212637Y91836D01*
X209414Y91515D01*
G37*
G36*
X210866Y90064D02*
X209414Y91515D01*
X212637Y91836D01*
X210866Y90064D01*
G37*
G36*
X210866Y90064D02*
X205585Y91515D01*
X209414Y91515D01*
X210866Y90064D01*
G37*
G36*
X219133Y90064D02*
X217362Y91836D01*
X346201Y146617D01*
X219133Y90064D01*
G37*
G36*
X208661Y87828D02*
X198478Y98011D01*
X205585Y91515D01*
X208661Y87828D01*
G37*
G36*
X208661Y87828D02*
X205585Y91515D01*
X210866Y90064D01*
X208661Y87828D01*
G37*
G36*
X210866Y86234D02*
X208661Y87828D01*
X210866Y90064D01*
X210866Y86234D01*
G37*
G36*
X219133Y86234D02*
X219133Y90064D01*
X346201Y146617D01*
X219133Y86234D01*
G37*
G36*
X213085Y84015D02*
X208661Y87828D01*
X210866Y86234D01*
X213085Y84015D01*
G37*
G36*
X216914Y84015D02*
X219133Y86234D01*
X346201Y146617D01*
X216914Y84015D01*
G37*
G36*
X272356Y80026D02*
X216914Y84015D01*
X346201Y146617D01*
X272356Y80026D01*
G37*
G36*
X272356Y80026D02*
X213085Y84015D01*
X216914Y84015D01*
X272356Y80026D01*
G37*
G36*
X278824Y80026D02*
X272356Y80026D01*
X346201Y146617D01*
X278824Y80026D01*
G37*
G36*
X208871Y79527D02*
X213085Y84015D01*
X272356Y80026D01*
X208871Y79527D01*
G37*
G36*
X208871Y79527D02*
X208661Y87828D01*
X213085Y84015D01*
X208871Y79527D01*
G37*
G36*
X210026Y79527D02*
X208871Y79527D01*
X272356Y80026D01*
X210026Y79527D01*
G37*
G36*
X210683Y79527D02*
X210026Y79527D01*
X272356Y80026D01*
X210683Y79527D01*
G37*
G36*
X214513Y79527D02*
X210683Y79527D01*
X272356Y80026D01*
X214513Y79527D01*
G37*
G36*
X208661Y79450D02*
X208661Y87828D01*
X208871Y79527D01*
X208661Y79450D01*
G37*
G36*
X210506Y79350D02*
X210026Y79527D01*
X210683Y79527D01*
X210506Y79350D01*
G37*
G36*
X271318Y78988D02*
X214513Y79527D01*
X272356Y80026D01*
X271318Y78988D01*
G37*
G36*
X279862Y78988D02*
X278824Y80026D01*
X346201Y146617D01*
X279862Y78988D01*
G37*
G36*
X215551Y78489D02*
X214513Y79527D01*
X271318Y78988D01*
X215551Y78489D01*
G37*
G36*
X346201Y78248D02*
X279862Y78988D01*
X346201Y146617D01*
X346201Y78248D01*
G37*
G36*
X271318Y72521D02*
X215551Y78489D01*
X271318Y78988D01*
X271318Y72521D01*
G37*
G36*
X279862Y72521D02*
X279862Y78988D01*
X346201Y78248D01*
X279862Y72521D01*
G37*
G36*
X272285Y71555D02*
X215551Y78489D01*
X271318Y72521D01*
X272285Y71555D01*
G37*
G36*
X278896Y71555D02*
X279862Y72521D01*
X346201Y78248D01*
X278896Y71555D01*
G37*
G36*
X271318Y70588D02*
X215551Y78489D01*
X272285Y71555D01*
X271318Y70588D01*
G37*
G36*
X279862Y70588D02*
X278896Y71555D01*
X346201Y78248D01*
X279862Y70588D01*
G37*
G36*
X218149Y70111D02*
X215551Y78489D01*
X271318Y70588D01*
X218149Y70111D01*
G37*
G36*
X271318Y70111D02*
X218149Y70111D01*
X271318Y70588D01*
X271318Y70111D01*
G37*
G36*
X215760Y69881D02*
X215551Y78489D01*
X218149Y70111D01*
X215760Y69881D01*
G37*
G36*
X217920Y69881D02*
X215760Y69881D01*
X218149Y70111D01*
X217920Y69881D01*
G37*
G36*
X215551Y69804D02*
X215551Y78489D01*
X215760Y69881D01*
X215551Y69804D01*
G37*
G36*
X279862Y69685D02*
X279862Y70588D01*
X346201Y78248D01*
X279862Y69685D01*
G37*
G36*
X337637Y69685D02*
X279862Y69685D01*
X346201Y78248D01*
X337637Y69685D01*
G37*
G36*
X104590Y65457D02*
X92989Y74163D01*
X104590Y74163D01*
X104590Y65457D01*
G37*
G36*
X105628Y64419D02*
X92989Y74163D01*
X104590Y65457D01*
X105628Y64419D01*
G37*
G36*
X83011Y64186D02*
X92989Y74163D01*
X105628Y64419D01*
X83011Y64186D01*
G37*
G36*
X83011Y64186D02*
X105628Y64419D01*
X114970Y64419D01*
X83011Y64186D01*
G37*
G36*
X83011Y60021D02*
X83011Y64186D01*
X114970Y64419D01*
X83011Y60021D01*
G37*
G36*
X82045Y59055D02*
X83011Y60021D01*
X114970Y64419D01*
X82045Y59055D01*
G37*
G36*
X83011Y58088D02*
X82045Y59055D01*
X114970Y64419D01*
X83011Y58088D01*
G37*
G36*
X105628Y54577D02*
X114970Y64419D01*
X116008Y65457D01*
X105628Y54577D01*
G37*
G36*
X105628Y54577D02*
X83011Y58088D01*
X114970Y64419D01*
X105628Y54577D01*
G37*
G36*
X114970Y54577D02*
X105628Y54577D01*
X116008Y65457D01*
X114970Y54577D01*
G37*
G36*
X83011Y53924D02*
X83011Y58088D01*
X105628Y54577D01*
X83011Y53924D01*
G37*
G36*
X118031Y53543D02*
X116008Y65457D01*
X116008Y67476D01*
X118031Y53543D01*
G37*
G36*
X118031Y53543D02*
X114970Y54577D01*
X116008Y65457D01*
X118031Y53543D01*
G37*
G36*
X129941Y53543D02*
X118031Y53543D01*
X116008Y67476D01*
X129941Y53543D01*
G37*
G36*
X104590Y53539D02*
X83011Y53924D01*
X105628Y54577D01*
X104590Y53539D01*
G37*
G36*
X116008Y53539D02*
X114970Y54577D01*
X118031Y53543D01*
X116008Y53539D01*
G37*
G36*
X116008Y51520D02*
X116008Y53539D01*
X118031Y53543D01*
X116008Y51520D01*
G37*
G36*
X92102Y44832D02*
X83011Y53924D01*
X104590Y53539D01*
X92102Y44832D01*
G37*
G36*
X104590Y44832D02*
X92102Y44832D01*
X104590Y53539D01*
X104590Y44832D01*
G37*
G36*
X225196Y64357D02*
X225107Y64599D01*
X271318Y64599D01*
X225196Y64357D01*
G37*
G36*
X271318Y64121D02*
X225196Y64357D01*
X271318Y64599D01*
X271318Y64121D01*
G37*
G36*
X225196Y63201D02*
X225196Y64357D01*
X271318Y64121D01*
X225196Y63201D01*
G37*
G36*
X272356Y63083D02*
X225196Y63201D01*
X271318Y64121D01*
X272356Y63083D01*
G37*
G36*
X224829Y62204D02*
X225196Y63201D01*
X272356Y63083D01*
X224829Y62204D01*
G37*
G36*
X224829Y62204D02*
X272356Y63083D01*
X272834Y63083D01*
X224829Y62204D01*
G37*
G36*
X225196Y61207D02*
X224829Y62204D01*
X272834Y63083D01*
X225196Y61207D01*
G37*
G36*
X225196Y60052D02*
X225196Y61207D01*
X272834Y63083D01*
X225196Y60052D01*
G37*
G36*
X224829Y59055D02*
X225196Y60052D01*
X272834Y63083D01*
X224829Y59055D01*
G37*
G36*
X225196Y58058D02*
X224829Y59055D01*
X272834Y63083D01*
X225196Y58058D01*
G37*
G36*
X225196Y56902D02*
X225196Y58058D01*
X272834Y63083D01*
X225196Y56902D01*
G37*
G36*
X224829Y55905D02*
X225196Y56902D01*
X272834Y63083D01*
X224829Y55905D01*
G37*
G36*
X225196Y54908D02*
X224829Y55905D01*
X272834Y63083D01*
X225196Y54908D01*
G37*
G36*
X225196Y53752D02*
X225196Y54908D01*
X272834Y63083D01*
X225196Y53752D01*
G37*
G36*
X224829Y52755D02*
X225196Y53752D01*
X272834Y63083D01*
X224829Y52755D01*
G37*
G36*
X225196Y51758D02*
X224829Y52755D01*
X272834Y63083D01*
X225196Y51758D01*
G37*
G36*
X225196Y50603D02*
X225196Y51758D01*
X272834Y63083D01*
X225196Y50603D01*
G37*
G36*
X224829Y49606D02*
X225196Y50603D01*
X272834Y63083D01*
X224829Y49606D01*
G37*
G36*
X225196Y48609D02*
X224829Y49606D01*
X272834Y63083D01*
X225196Y48609D01*
G37*
G36*
X225196Y47453D02*
X225196Y48609D01*
X272834Y63083D01*
X225196Y47453D01*
G37*
G36*
X272834Y47381D02*
X225196Y47453D01*
X272834Y63083D01*
X272834Y47381D01*
G37*
G36*
X224829Y46456D02*
X225196Y47453D01*
X272834Y47381D01*
X224829Y46456D01*
G37*
G36*
X225196Y45459D02*
X224829Y46456D01*
X272834Y47381D01*
X225196Y45459D01*
G37*
G36*
X225196Y44304D02*
X225196Y45459D01*
X272834Y47381D01*
X225196Y44304D01*
G37*
G36*
X224829Y43307D02*
X225196Y44304D01*
X272834Y47381D01*
X224829Y43307D01*
G37*
G36*
X225196Y42310D02*
X224829Y43307D01*
X272834Y47381D01*
X225196Y42310D01*
G37*
G36*
X225196Y41154D02*
X225196Y42310D01*
X272834Y47381D01*
X225196Y41154D01*
G37*
G36*
X224829Y40157D02*
X225196Y41154D01*
X272834Y47381D01*
X224829Y40157D01*
G37*
G36*
X225196Y39160D02*
X224829Y40157D01*
X272834Y47381D01*
X225196Y39160D01*
G37*
G36*
X225196Y38188D02*
X225196Y39160D01*
X272834Y47381D01*
X225196Y38188D01*
G37*
G36*
X263641Y38188D02*
X225196Y38188D01*
X272834Y47381D01*
X263641Y38188D01*
G37*
G36*
X213385Y64357D02*
X199631Y64566D01*
X213463Y64566D01*
X213385Y64357D01*
G37*
G36*
X213385Y63201D02*
X199631Y64566D01*
X213385Y64357D01*
X213385Y63201D01*
G37*
G36*
X201633Y62564D02*
X199631Y64566D01*
X213385Y63201D01*
X201633Y62564D01*
G37*
G36*
X213753Y62204D02*
X201633Y62564D01*
X213385Y63201D01*
X213753Y62204D01*
G37*
G36*
X213385Y61207D02*
X201633Y62564D01*
X213753Y62204D01*
X213385Y61207D01*
G37*
G36*
X213385Y60052D02*
X201633Y62564D01*
X213385Y61207D01*
X213385Y60052D01*
G37*
G36*
X213753Y59055D02*
X201633Y62564D01*
X213385Y60052D01*
X213753Y59055D01*
G37*
G36*
X201633Y58734D02*
X201633Y62564D01*
X213753Y59055D01*
X201633Y58734D01*
G37*
G36*
X213385Y58058D02*
X201633Y58734D01*
X213753Y59055D01*
X213385Y58058D01*
G37*
G36*
X203085Y57283D02*
X201633Y58734D01*
X213385Y58058D01*
X203085Y57283D01*
G37*
G36*
X206914Y57283D02*
X203085Y57283D01*
X213385Y58058D01*
X206914Y57283D01*
G37*
G36*
X213385Y56902D02*
X206914Y57283D01*
X213385Y58058D01*
X213385Y56902D01*
G37*
G36*
X199414Y56515D02*
X201633Y58734D01*
X203085Y57283D01*
X199414Y56515D01*
G37*
G36*
X213753Y55905D02*
X206914Y57283D01*
X213385Y56902D01*
X213753Y55905D01*
G37*
G36*
X200866Y55064D02*
X199414Y56515D01*
X203085Y57283D01*
X200866Y55064D01*
G37*
G36*
X200866Y55064D02*
X199212Y56515D01*
X199414Y56515D01*
X200866Y55064D01*
G37*
G36*
X209133Y55064D02*
X206914Y57283D01*
X213753Y55905D01*
X209133Y55064D01*
G37*
G36*
X213385Y54908D02*
X209133Y55064D01*
X213753Y55905D01*
X213385Y54908D01*
G37*
G36*
X213385Y53752D02*
X209133Y55064D01*
X213385Y54908D01*
X213385Y53752D01*
G37*
G36*
X213753Y52755D02*
X209133Y55064D01*
X213385Y53752D01*
X213753Y52755D01*
G37*
G36*
X200866Y52356D02*
X199212Y56515D01*
X200866Y55064D01*
X200866Y52356D01*
G37*
G36*
X213385Y51758D02*
X209133Y55064D01*
X213753Y52755D01*
X213385Y51758D01*
G37*
G36*
X209133Y51234D02*
X209133Y55064D01*
X213385Y51758D01*
X209133Y51234D01*
G37*
G36*
X199212Y50702D02*
X199212Y56515D01*
X200866Y52356D01*
X199212Y50702D01*
G37*
G36*
X213385Y50603D02*
X209133Y51234D01*
X213385Y51758D01*
X213385Y50603D01*
G37*
G36*
X213753Y49606D02*
X209133Y51234D01*
X213385Y50603D01*
X213753Y49606D01*
G37*
G36*
X206914Y49015D02*
X209133Y51234D01*
X213753Y49606D01*
X206914Y49015D01*
G37*
G36*
X213385Y48609D02*
X206914Y49015D01*
X213753Y49606D01*
X213385Y48609D01*
G37*
G36*
X213385Y48609D02*
X204206Y49015D01*
X206914Y49015D01*
X213385Y48609D01*
G37*
G36*
X213385Y47453D02*
X204206Y49015D01*
X213385Y48609D01*
X213385Y47453D01*
G37*
G36*
X202362Y47171D02*
X204206Y49015D01*
X213385Y47453D01*
X202362Y47171D01*
G37*
G36*
X213753Y46456D02*
X202362Y47171D01*
X213385Y47453D01*
X213753Y46456D01*
G37*
G36*
X213385Y45459D02*
X202362Y47171D01*
X213753Y46456D01*
X213385Y45459D01*
G37*
G36*
X213385Y44304D02*
X202362Y47171D01*
X213385Y45459D01*
X213385Y44304D01*
G37*
G36*
X213753Y43307D02*
X202362Y47171D01*
X213385Y44304D01*
X213753Y43307D01*
G37*
G36*
X213385Y42310D02*
X202362Y47171D01*
X213753Y43307D01*
X213385Y42310D01*
G37*
G36*
X213385Y41154D02*
X202362Y47171D01*
X213385Y42310D01*
X213385Y41154D01*
G37*
G36*
X213753Y40157D02*
X202362Y47171D01*
X213385Y41154D01*
X213753Y40157D01*
G37*
G36*
X213385Y39160D02*
X202362Y47171D01*
X213753Y40157D01*
X213385Y39160D01*
G37*
G36*
X213385Y38004D02*
X202362Y47171D01*
X213385Y39160D01*
X213385Y38004D01*
G37*
G36*
X213753Y37007D02*
X202362Y47171D01*
X213385Y38004D01*
X213753Y37007D01*
G37*
G36*
X213385Y36010D02*
X202362Y47171D01*
X213753Y37007D01*
X213385Y36010D01*
G37*
G36*
X213385Y34855D02*
X202362Y47171D01*
X213385Y36010D01*
X213385Y34855D01*
G37*
G36*
X202571Y34645D02*
X202362Y47171D01*
X213385Y34855D01*
X202571Y34645D01*
G37*
G36*
X203727Y34645D02*
X202571Y34645D01*
X213385Y34855D01*
X203727Y34645D01*
G37*
G36*
X205721Y34645D02*
X203727Y34645D01*
X213385Y34855D01*
X205721Y34645D01*
G37*
G36*
X206876Y34645D02*
X205721Y34645D01*
X213385Y34855D01*
X206876Y34645D01*
G37*
G36*
X208871Y34645D02*
X206876Y34645D01*
X213385Y34855D01*
X208871Y34645D01*
G37*
G36*
X210026Y34645D02*
X208871Y34645D01*
X213385Y34855D01*
X210026Y34645D01*
G37*
G36*
X212020Y34645D02*
X210026Y34645D01*
X213385Y34855D01*
X212020Y34645D01*
G37*
G36*
X213176Y34645D02*
X212020Y34645D01*
X213385Y34855D01*
X213176Y34645D01*
G37*
G36*
X202362Y34568D02*
X202362Y47171D01*
X202571Y34645D01*
X202362Y34568D01*
G37*
G36*
X213508Y34523D02*
X213176Y34645D01*
X213385Y34855D01*
X213508Y34523D01*
G37*
G36*
X204724Y34278D02*
X203727Y34645D01*
X205721Y34645D01*
X204724Y34278D01*
G37*
G36*
X207874Y34278D02*
X206876Y34645D01*
X208871Y34645D01*
X207874Y34278D01*
G37*
G36*
X211023Y34278D02*
X210026Y34645D01*
X212020Y34645D01*
X211023Y34278D01*
G37*
G36*
X193366Y62564D02*
X194679Y64566D01*
X195368Y64566D01*
X193366Y62564D01*
G37*
G36*
X188380Y58267D02*
X194679Y64566D01*
X193366Y62564D01*
X188380Y58267D01*
G37*
G36*
X188380Y58267D02*
X193366Y62564D01*
X193366Y58734D01*
X188380Y58267D01*
G37*
G36*
X180314Y58058D02*
X180237Y58267D01*
X188380Y58267D01*
X180314Y58058D01*
G37*
G36*
X194488Y57612D02*
X188380Y58267D01*
X193366Y58734D01*
X194488Y57612D01*
G37*
G36*
X194488Y57612D02*
X180314Y58058D01*
X188380Y58267D01*
X194488Y57612D01*
G37*
G36*
X180314Y56902D02*
X180314Y58058D01*
X194488Y57612D01*
X180314Y56902D01*
G37*
G36*
X179947Y55905D02*
X180314Y56902D01*
X194488Y57612D01*
X179947Y55905D01*
G37*
G36*
X180314Y54908D02*
X179947Y55905D01*
X194488Y57612D01*
X180314Y54908D01*
G37*
G36*
X180314Y53752D02*
X180314Y54908D01*
X194488Y57612D01*
X180314Y53752D01*
G37*
G36*
X179947Y52755D02*
X180314Y53752D01*
X194488Y57612D01*
X179947Y52755D01*
G37*
G36*
X180314Y51758D02*
X179947Y52755D01*
X194488Y57612D01*
X180314Y51758D01*
G37*
G36*
X180314Y50603D02*
X180314Y51758D01*
X194488Y57612D01*
X180314Y50603D01*
G37*
G36*
X180585Y49783D02*
X180314Y50603D01*
X194488Y57612D01*
X180585Y49783D01*
G37*
G36*
X184414Y49783D02*
X180585Y49783D01*
X194488Y57612D01*
X184414Y49783D01*
G37*
G36*
X179947Y49606D02*
X180314Y50603D01*
X180585Y49783D01*
X179947Y49606D01*
G37*
G36*
X180071Y49269D02*
X179947Y49606D01*
X180585Y49783D01*
X180071Y49269D01*
G37*
G36*
X186633Y47564D02*
X184414Y49783D01*
X194488Y57612D01*
X186633Y47564D01*
G37*
G36*
X186633Y43734D02*
X186633Y47564D01*
X194488Y57612D01*
X186633Y43734D01*
G37*
G36*
X180314Y41154D02*
X180314Y41785D01*
X180585Y41515D01*
X180314Y41154D01*
G37*
G36*
X180314Y41154D02*
X180585Y41515D01*
X184414Y41515D01*
X180314Y41154D01*
G37*
G36*
X179947Y40157D02*
X180314Y41154D01*
X184414Y41515D01*
X179947Y40157D01*
G37*
G36*
X180314Y39160D02*
X179947Y40157D01*
X184414Y41515D01*
X180314Y39160D01*
G37*
G36*
X180314Y38004D02*
X180314Y39160D01*
X184414Y41515D01*
X180314Y38004D01*
G37*
G36*
X179947Y37007D02*
X180314Y38004D01*
X184414Y41515D01*
X179947Y37007D01*
G37*
G36*
X179947Y37007D02*
X184414Y41515D01*
X186633Y43734D01*
X179947Y37007D01*
G37*
G36*
X180314Y36010D02*
X179947Y37007D01*
X186633Y43734D01*
X180314Y36010D01*
G37*
G36*
X180314Y34855D02*
X180314Y36010D01*
X186633Y43734D01*
X180314Y34855D01*
G37*
G36*
X180524Y34645D02*
X180314Y34855D01*
X186633Y43734D01*
X180524Y34645D01*
G37*
G36*
X181680Y34645D02*
X180524Y34645D01*
X186633Y43734D01*
X181680Y34645D01*
G37*
G36*
X181680Y34645D02*
X186633Y43734D01*
X194488Y57612D01*
X181680Y34645D01*
G37*
G36*
X183674Y34645D02*
X181680Y34645D01*
X194488Y57612D01*
X183674Y34645D01*
G37*
G36*
X184829Y34645D02*
X183674Y34645D01*
X194488Y57612D01*
X184829Y34645D01*
G37*
G36*
X186823Y34645D02*
X184829Y34645D01*
X194488Y57612D01*
X186823Y34645D01*
G37*
G36*
X187979Y34645D02*
X186823Y34645D01*
X194488Y57612D01*
X187979Y34645D01*
G37*
G36*
X189973Y34645D02*
X187979Y34645D01*
X194488Y57612D01*
X189973Y34645D01*
G37*
G36*
X191128Y34645D02*
X189973Y34645D01*
X194488Y57612D01*
X191128Y34645D01*
G37*
G36*
X193123Y34645D02*
X191128Y34645D01*
X194488Y57612D01*
X193123Y34645D01*
G37*
G36*
X194278Y34645D02*
X193123Y34645D01*
X194488Y57612D01*
X194278Y34645D01*
G37*
G36*
X194488Y34568D02*
X194278Y34645D01*
X194488Y57612D01*
X194488Y34568D01*
G37*
G36*
X180192Y34523D02*
X180314Y34855D01*
X180524Y34645D01*
X180192Y34523D01*
G37*
G36*
X182677Y34278D02*
X181680Y34645D01*
X183674Y34645D01*
X182677Y34278D01*
G37*
G36*
X185826Y34278D02*
X184829Y34645D01*
X186823Y34645D01*
X185826Y34278D01*
G37*
G36*
X188976Y34278D02*
X187979Y34645D01*
X189973Y34645D01*
X188976Y34278D01*
G37*
G36*
X192125Y34278D02*
X191128Y34645D01*
X193123Y34645D01*
X192125Y34278D01*
G37*
G36*
X222821Y32480D02*
X223356Y32677D01*
X258686Y32677D01*
X222821Y32480D01*
G37*
G36*
X215551Y32270D02*
X215428Y32602D01*
X215760Y32480D01*
X215551Y32270D01*
G37*
G36*
X215551Y32270D02*
X215760Y32480D01*
X222821Y32480D01*
X215551Y32270D01*
G37*
G36*
X215551Y32270D02*
X222821Y32480D01*
X258686Y32677D01*
X215551Y32270D01*
G37*
G36*
X215551Y25209D02*
X215551Y32270D01*
X258686Y32677D01*
X215551Y25209D01*
G37*
G36*
X215139Y24091D02*
X215551Y25209D01*
X258686Y32677D01*
X215139Y24091D01*
G37*
G36*
X214294Y23246D02*
X215139Y24091D01*
X258686Y32677D01*
X214294Y23246D01*
G37*
G36*
X189973Y22834D02*
X187979Y22834D01*
X188976Y23201D01*
X189973Y22834D01*
G37*
G36*
X193123Y22834D02*
X191128Y22834D01*
X192125Y23201D01*
X193123Y22834D01*
G37*
G36*
X196272Y22834D02*
X194278Y22834D01*
X195275Y23201D01*
X196272Y22834D01*
G37*
G36*
X199422Y22834D02*
X197428Y22834D01*
X198425Y23201D01*
X199422Y22834D01*
G37*
G36*
X202571Y22834D02*
X200577Y22834D01*
X201574Y23201D01*
X202571Y22834D01*
G37*
G36*
X205721Y22834D02*
X203727Y22834D01*
X204724Y23201D01*
X205721Y22834D01*
G37*
G36*
X208871Y22834D02*
X206876Y22834D01*
X207874Y23201D01*
X208871Y22834D01*
G37*
G36*
X212020Y22834D02*
X210026Y22834D01*
X211023Y23201D01*
X212020Y22834D01*
G37*
G36*
X213176Y22834D02*
X214294Y23246D01*
X258686Y32677D01*
X213176Y22834D01*
G37*
G36*
X186614Y18011D02*
X186614Y22911D01*
X186823Y22834D01*
X186614Y18011D01*
G37*
G36*
X186614Y18011D02*
X186823Y22834D01*
X213176Y22834D01*
X186614Y18011D01*
G37*
G36*
X244021Y18011D02*
X186614Y18011D01*
X213176Y22834D01*
X244021Y18011D01*
G37*
G36*
X244021Y18011D02*
X213176Y22834D01*
X258686Y32677D01*
X244021Y18011D01*
G37*
M02*
